%TF.GenerationSoftware,KiCad,Pcbnew,10.0.4*%
%TF.CreationDate,2026-09-19T19:46:46+08:00*%
%TF.ProjectId,Jmp3,4a6d7033-2e6b-4696-9361-645f70636258,rev?*%
%TF.SameCoordinates,Original*%
%TF.FileFunction,Copper,L1,Top*%
%TF.FilePolarity,Positive*%
%FSLAX46Y46*%
G04 Gerber Fmt 4.6, Leading zero omitted, Abs format (unit mm)*
G04 Created by KiCad (PCBNEW 10.0.4) date 2026-09-19 19:46:46*
%MOMM*%
%LPD*%
G01*
G04 APERTURE LIST*
G04 Aperture macros list*
%AMRoundRect*
0 Rectangle with rounded corners*
0 $1 Rounding radius*
0 $2 $3 $4 $5 $6 $7 $8 $9 X,Y pos of 4 corners*
0 Add a 4 corners polygon primitive as box body*
4,1,4,$2,$3,$4,$5,$6,$7,$8,$9,$2,$3,0*
0 Add four circle primitives for the rounded corners*
1,1,$1+$1,$2,$3*
1,1,$1+$1,$4,$5*
1,1,$1+$1,$6,$7*
1,1,$1+$1,$8,$9*
0 Add four rect primitives between the rounded corners*
20,1,$1+$1,$2,$3,$4,$5,0*
20,1,$1+$1,$4,$5,$6,$7,0*
20,1,$1+$1,$6,$7,$8,$9,0*
20,1,$1+$1,$8,$9,$2,$3,0*%
%AMRotRect*
0 Rectangle, with rotation*
0 The origin of the aperture is its center*
0 $1 length*
0 $2 width*
0 $3 Rotation angle, in degrees counterclockwise*
0 Add horizontal line*
21,1,$1,$2,0,0,$3*%
G04 Aperture macros list end*
%TA.AperFunction,SMDPad,CuDef*%
%ADD10RoundRect,0.250000X0.450000X-0.350000X0.450000X0.350000X-0.450000X0.350000X-0.450000X-0.350000X0*%
%TD*%
%TA.AperFunction,SMDPad,CuDef*%
%ADD11RoundRect,0.250000X-0.350000X-0.450000X0.350000X-0.450000X0.350000X0.450000X-0.350000X0.450000X0*%
%TD*%
%TA.AperFunction,SMDPad,CuDef*%
%ADD12RoundRect,0.250000X-0.450000X0.350000X-0.450000X-0.350000X0.450000X-0.350000X0.450000X0.350000X0*%
%TD*%
%TA.AperFunction,SMDPad,CuDef*%
%ADD13RoundRect,0.250000X0.350000X0.450000X-0.350000X0.450000X-0.350000X-0.450000X0.350000X-0.450000X0*%
%TD*%
%TA.AperFunction,SMDPad,CuDef*%
%ADD14RoundRect,0.237500X0.300000X0.237500X-0.300000X0.237500X-0.300000X-0.237500X0.300000X-0.237500X0*%
%TD*%
%TA.AperFunction,SMDPad,CuDef*%
%ADD15RoundRect,0.250000X-0.475000X0.337500X-0.475000X-0.337500X0.475000X-0.337500X0.475000X0.337500X0*%
%TD*%
%TA.AperFunction,SMDPad,CuDef*%
%ADD16RoundRect,0.237500X-0.237500X0.300000X-0.237500X-0.300000X0.237500X-0.300000X0.237500X0.300000X0*%
%TD*%
%TA.AperFunction,SMDPad,CuDef*%
%ADD17RoundRect,0.100000X-0.217500X-0.100000X0.217500X-0.100000X0.217500X0.100000X-0.217500X0.100000X0*%
%TD*%
%TA.AperFunction,SMDPad,CuDef*%
%ADD18RoundRect,0.237500X-0.237500X0.250000X-0.237500X-0.250000X0.237500X-0.250000X0.237500X0.250000X0*%
%TD*%
%TA.AperFunction,SMDPad,CuDef*%
%ADD19RoundRect,0.100000X0.217500X0.100000X-0.217500X0.100000X-0.217500X-0.100000X0.217500X-0.100000X0*%
%TD*%
%TA.AperFunction,SMDPad,CuDef*%
%ADD20RoundRect,0.237500X-0.300000X-0.237500X0.300000X-0.237500X0.300000X0.237500X-0.300000X0.237500X0*%
%TD*%
%TA.AperFunction,SMDPad,CuDef*%
%ADD21RoundRect,0.237500X-0.250000X-0.237500X0.250000X-0.237500X0.250000X0.237500X-0.250000X0.237500X0*%
%TD*%
%TA.AperFunction,SMDPad,CuDef*%
%ADD22RoundRect,0.237500X0.237500X-0.250000X0.237500X0.250000X-0.237500X0.250000X-0.237500X-0.250000X0*%
%TD*%
%TA.AperFunction,SMDPad,CuDef*%
%ADD23RoundRect,0.155000X-0.212500X-0.155000X0.212500X-0.155000X0.212500X0.155000X-0.212500X0.155000X0*%
%TD*%
%TA.AperFunction,SMDPad,CuDef*%
%ADD24RoundRect,0.250000X0.475000X-0.337500X0.475000X0.337500X-0.475000X0.337500X-0.475000X-0.337500X0*%
%TD*%
%TA.AperFunction,SMDPad,CuDef*%
%ADD25RoundRect,0.155000X0.155000X-0.212500X0.155000X0.212500X-0.155000X0.212500X-0.155000X-0.212500X0*%
%TD*%
%TA.AperFunction,SMDPad,CuDef*%
%ADD26RoundRect,0.250000X-0.337500X-0.475000X0.337500X-0.475000X0.337500X0.475000X-0.337500X0.475000X0*%
%TD*%
%TA.AperFunction,SMDPad,CuDef*%
%ADD27RoundRect,0.100000X0.100000X-0.217500X0.100000X0.217500X-0.100000X0.217500X-0.100000X-0.217500X0*%
%TD*%
%TA.AperFunction,SMDPad,CuDef*%
%ADD28R,0.670001X0.299999*%
%TD*%
%TA.AperFunction,SMDPad,CuDef*%
%ADD29RoundRect,0.112500X0.112500X-0.187500X0.112500X0.187500X-0.112500X0.187500X-0.112500X-0.187500X0*%
%TD*%
%TA.AperFunction,SMDPad,CuDef*%
%ADD30RoundRect,0.160000X-0.160000X0.197500X-0.160000X-0.197500X0.160000X-0.197500X0.160000X0.197500X0*%
%TD*%
%TA.AperFunction,SMDPad,CuDef*%
%ADD31RoundRect,0.050000X0.730000X0.150000X-0.730000X0.150000X-0.730000X-0.150000X0.730000X-0.150000X0*%
%TD*%
%TA.AperFunction,SMDPad,CuDef*%
%ADD32RoundRect,0.160000X-0.197500X-0.160000X0.197500X-0.160000X0.197500X0.160000X-0.197500X0.160000X0*%
%TD*%
%TA.AperFunction,SMDPad,CuDef*%
%ADD33R,0.650000X1.250000*%
%TD*%
%TA.AperFunction,SMDPad,CuDef*%
%ADD34RoundRect,0.250000X0.337500X0.475000X-0.337500X0.475000X-0.337500X-0.475000X0.337500X-0.475000X0*%
%TD*%
%TA.AperFunction,ComponentPad*%
%ADD35R,2.000000X2.000000*%
%TD*%
%TA.AperFunction,ComponentPad*%
%ADD36C,2.000000*%
%TD*%
%TA.AperFunction,ComponentPad*%
%ADD37R,3.200000X2.000000*%
%TD*%
%TA.AperFunction,SMDPad,CuDef*%
%ADD38RoundRect,0.150000X0.150000X-0.590000X0.150000X0.590000X-0.150000X0.590000X-0.150000X-0.590000X0*%
%TD*%
%TA.AperFunction,SMDPad,CuDef*%
%ADD39RoundRect,0.175000X-0.175000X1.250000X-0.175000X-1.250000X0.175000X-1.250000X0.175000X1.250000X0*%
%TD*%
%TA.AperFunction,HeatsinkPad*%
%ADD40R,4.450000X4.570000*%
%TD*%
%TA.AperFunction,ComponentPad*%
%ADD41R,0.850000X0.850000*%
%TD*%
%TA.AperFunction,ComponentPad*%
%ADD42C,0.850000*%
%TD*%
%TA.AperFunction,SMDPad,CuDef*%
%ADD43RoundRect,0.150000X0.512500X0.150000X-0.512500X0.150000X-0.512500X-0.150000X0.512500X-0.150000X0*%
%TD*%
%TA.AperFunction,SMDPad,CuDef*%
%ADD44R,1.250000X0.650000*%
%TD*%
%TA.AperFunction,SMDPad,CuDef*%
%ADD45RoundRect,0.160000X0.197500X0.160000X-0.197500X0.160000X-0.197500X-0.160000X0.197500X-0.160000X0*%
%TD*%
%TA.AperFunction,SMDPad,CuDef*%
%ADD46RoundRect,0.155000X-0.155000X0.212500X-0.155000X-0.212500X0.155000X-0.212500X0.155000X0.212500X0*%
%TD*%
%TA.AperFunction,SMDPad,CuDef*%
%ADD47R,1.050000X0.399999*%
%TD*%
%TA.AperFunction,SMDPad,CuDef*%
%ADD48R,0.200000X0.599999*%
%TD*%
%TA.AperFunction,SMDPad,CuDef*%
%ADD49RoundRect,0.237500X0.237500X-0.300000X0.237500X0.300000X-0.237500X0.300000X-0.237500X-0.300000X0*%
%TD*%
%TA.AperFunction,SMDPad,CuDef*%
%ADD50RoundRect,0.237500X0.287500X0.237500X-0.287500X0.237500X-0.287500X-0.237500X0.287500X-0.237500X0*%
%TD*%
%TA.AperFunction,SMDPad,CuDef*%
%ADD51R,0.500000X0.400000*%
%TD*%
%TA.AperFunction,SMDPad,CuDef*%
%ADD52R,0.800000X0.200000*%
%TD*%
%TA.AperFunction,SMDPad,CuDef*%
%ADD53RoundRect,0.150000X-0.150000X0.587500X-0.150000X-0.587500X0.150000X-0.587500X0.150000X0.587500X0*%
%TD*%
%TA.AperFunction,SMDPad,CuDef*%
%ADD54RoundRect,0.100000X-0.637500X-0.100000X0.637500X-0.100000X0.637500X0.100000X-0.637500X0.100000X0*%
%TD*%
%TA.AperFunction,SMDPad,CuDef*%
%ADD55R,0.400000X0.800000*%
%TD*%
%TA.AperFunction,SMDPad,CuDef*%
%ADD56R,0.800000X0.400000*%
%TD*%
%TA.AperFunction,SMDPad,CuDef*%
%ADD57RotRect,1.800000X1.800000X45.000000*%
%TD*%
%TA.AperFunction,SMDPad,CuDef*%
%ADD58R,0.700000X0.700000*%
%TD*%
%TA.AperFunction,SMDPad,CuDef*%
%ADD59R,0.660400X2.032000*%
%TD*%
%TA.AperFunction,SMDPad,CuDef*%
%ADD60RoundRect,0.112500X-0.112500X0.187500X-0.112500X-0.187500X0.112500X-0.187500X0.112500X0.187500X0*%
%TD*%
%TA.AperFunction,SMDPad,CuDef*%
%ADD61RoundRect,0.250001X-0.944999X0.507499X-0.944999X-0.507499X0.944999X-0.507499X0.944999X0.507499X0*%
%TD*%
%TA.AperFunction,ComponentPad*%
%ADD62C,1.200000*%
%TD*%
%TA.AperFunction,ComponentPad*%
%ADD63RoundRect,0.250000X-0.750000X0.600000X-0.750000X-0.600000X0.750000X-0.600000X0.750000X0.600000X0*%
%TD*%
%TA.AperFunction,ComponentPad*%
%ADD64O,2.000000X1.700000*%
%TD*%
%TA.AperFunction,ComponentPad*%
%ADD65C,2.400000*%
%TD*%
%TA.AperFunction,ComponentPad*%
%ADD66O,1.100000X1.700000*%
%TD*%
%TA.AperFunction,ViaPad*%
%ADD67C,0.600000*%
%TD*%
%TA.AperFunction,Conductor*%
%ADD68C,0.200000*%
%TD*%
%TA.AperFunction,Conductor*%
%ADD69C,0.300000*%
%TD*%
G04 APERTURE END LIST*
D10*
%TO.P,R38,1*%
%TO.N,Net-(U7-FB)*%
X117400000Y-36212500D03*
%TO.P,R38,2*%
%TO.N,AGND*%
X117400000Y-34212500D03*
%TD*%
D11*
%TO.P,R34,1*%
%TO.N,AGND*%
X120200000Y-70000000D03*
%TO.P,R34,2*%
%TO.N,Net-(U6-IO42)*%
X122200000Y-70000000D03*
%TD*%
D12*
%TO.P,R22,1*%
%TO.N,Net-(D2-A)*%
X93330000Y-98040000D03*
%TO.P,R22,2*%
%TO.N,+BATT*%
X93330000Y-100040000D03*
%TD*%
D13*
%TO.P,R16,1*%
%TO.N,PowerLatch*%
X95760000Y-84760000D03*
%TO.P,R16,2*%
%TO.N,AGND*%
X93760000Y-84760000D03*
%TD*%
%TO.P,R12,1*%
%TO.N,EN*%
X97600000Y-95100000D03*
%TO.P,R12,2*%
%TO.N,AGND*%
X95600000Y-95100000D03*
%TD*%
D14*
%TO.P,C37,1*%
%TO.N,AGND*%
X110662500Y-45290000D03*
%TO.P,C37,2*%
%TO.N,3V3*%
X108937500Y-45290000D03*
%TD*%
D15*
%TO.P,C45,1*%
%TO.N,AGND*%
X136900000Y-32762500D03*
%TO.P,C45,2*%
%TO.N,Net-(J6-Pin_17)*%
X136900000Y-34837500D03*
%TD*%
D16*
%TO.P,C43,1*%
%TO.N,3V3*%
X132200000Y-37200000D03*
%TO.P,C43,2*%
%TO.N,AGND*%
X132200000Y-38925000D03*
%TD*%
D17*
%TO.P,C30,1*%
%TO.N,AGND*%
X125685956Y-75500000D03*
%TO.P,C30,2*%
%TO.N,3V3*%
X126500956Y-75500000D03*
%TD*%
D18*
%TO.P,R24,1*%
%TO.N,Net-(U5-OUTR)*%
X117843456Y-81837500D03*
%TO.P,R24,2*%
%TO.N,OUTR*%
X117843456Y-83662500D03*
%TD*%
D12*
%TO.P,R32,1*%
%TO.N,Net-(U6-IO61)*%
X141000000Y-70200000D03*
%TO.P,R32,2*%
%TO.N,3V3*%
X141000000Y-72200000D03*
%TD*%
D19*
%TO.P,C28,1*%
%TO.N,AGND*%
X122000956Y-76500000D03*
%TO.P,C28,2*%
%TO.N,3V3*%
X121185956Y-76500000D03*
%TD*%
D20*
%TO.P,C31,1*%
%TO.N,3V3*%
X119537500Y-85800000D03*
%TO.P,C31,2*%
%TO.N,AGND*%
X121262500Y-85800000D03*
%TD*%
D12*
%TO.P,R26,1*%
%TO.N,3V3*%
X137800000Y-43600000D03*
%TO.P,R26,2*%
%TO.N,Net-(U6-EN)*%
X137800000Y-45600000D03*
%TD*%
D21*
%TO.P,R37,1*%
%TO.N,Net-(U7-FB)*%
X118875000Y-34800000D03*
%TO.P,R37,2*%
%TO.N,Net-(J6-Pin_17)*%
X120700000Y-34800000D03*
%TD*%
D22*
%TO.P,R13,1*%
%TO.N,Net-(J2-CC1)*%
X120200000Y-104512500D03*
%TO.P,R13,2*%
%TO.N,AGND*%
X120200000Y-102687500D03*
%TD*%
D23*
%TO.P,C17,1*%
%TO.N,AGND*%
X95932500Y-91510000D03*
%TO.P,C17,2*%
%TO.N,+BATT*%
X97067500Y-91510000D03*
%TD*%
D15*
%TO.P,C18,1*%
%TO.N,AGND*%
X91580000Y-82680000D03*
%TO.P,C18,2*%
%TO.N,Net-(D1-K)*%
X91580000Y-84755000D03*
%TD*%
D24*
%TO.P,C44,1*%
%TO.N,Net-(J6-Pin_17)*%
X132900000Y-34800000D03*
%TO.P,C44,2*%
%TO.N,AGND*%
X132900000Y-32725000D03*
%TD*%
D12*
%TO.P,R35,1*%
%TO.N,CS*%
X127000000Y-37400000D03*
%TO.P,R35,2*%
%TO.N,3V3*%
X127000000Y-39400000D03*
%TD*%
D25*
%TO.P,C5,1*%
%TO.N,3V3-2*%
X108249999Y-93485002D03*
%TO.P,C5,2*%
%TO.N,AGND*%
X108249999Y-92350002D03*
%TD*%
D26*
%TO.P,C14,1*%
%TO.N,OUTL*%
X133312500Y-98340000D03*
%TO.P,C14,2*%
%TO.N,Net-(C14-Pad2)*%
X135387500Y-98340000D03*
%TD*%
D27*
%TO.P,C35,1*%
%TO.N,Net-(U5-LDOO)*%
X128593456Y-78907500D03*
%TO.P,C35,2*%
%TO.N,AGND*%
X128593456Y-78092500D03*
%TD*%
D22*
%TO.P,R14,1*%
%TO.N,Net-(J2-CC2)*%
X118700000Y-104512500D03*
%TO.P,R14,2*%
%TO.N,AGND*%
X118700000Y-102687500D03*
%TD*%
D15*
%TO.P,C20,1*%
%TO.N,OUTR*%
X129320000Y-108322500D03*
%TO.P,C20,2*%
%TO.N,Net-(C20-Pad2)*%
X129320000Y-110397500D03*
%TD*%
D28*
%TO.P,U7,1,FB_1*%
%TO.N,Net-(U7-FB)*%
X118959999Y-36599998D03*
%TO.P,U7,2,EN_2*%
%TO.N,U7_EN*%
X118959999Y-37099997D03*
%TO.P,U7,3,VIN_3*%
%TO.N,3V3*%
X118959999Y-37599999D03*
%TO.P,U7,4,GND_4*%
%TO.N,AGND*%
X120440001Y-37599999D03*
%TO.P,U7,5,SW_5*%
%TO.N,Net-(U7-SW)*%
X120440001Y-37099997D03*
%TO.P,U7,6,VOUT_6*%
%TO.N,Net-(J6-Pin_17)*%
X120440001Y-36599998D03*
%TD*%
D29*
%TO.P,D1,1,K_1*%
%TO.N,Net-(D1-K)*%
X91810000Y-94430000D03*
%TO.P,D1,2,A_2*%
%TO.N,ButtonState*%
X91810000Y-92330000D03*
%TD*%
D15*
%TO.P,C23,1*%
%TO.N,3V3*%
X135300000Y-110462500D03*
%TO.P,C23,2*%
%TO.N,AGND*%
X135300000Y-112537500D03*
%TD*%
D10*
%TO.P,R17,1*%
%TO.N,Net-(U4-3_INA+)*%
X127310000Y-98540000D03*
%TO.P,R17,2*%
%TO.N,AGND*%
X127310000Y-96540000D03*
%TD*%
D30*
%TO.P,R9,1*%
%TO.N,Net-(C14-Pad2)*%
X136860000Y-99112500D03*
%TO.P,R9,2*%
%TO.N,OutL*%
X136860000Y-100307500D03*
%TD*%
D26*
%TO.P,C39,1*%
%TO.N,OUTR*%
X123362500Y-85100000D03*
%TO.P,C39,2*%
%TO.N,AGND*%
X125437500Y-85100000D03*
%TD*%
D11*
%TO.P,R30,1*%
%TO.N,3V3*%
X115300000Y-54100000D03*
%TO.P,R30,2*%
%TO.N,DAT3*%
X117300000Y-54100000D03*
%TD*%
D31*
%TO.P,Q1,1*%
%TO.N,unconnected-(Q1-Pad1)*%
X101927500Y-104175000D03*
%TO.P,Q1,2*%
%TO.N,AGND*%
X101927500Y-103525000D03*
%TO.P,Q1,3*%
X101927500Y-102875000D03*
%TO.P,Q1,4*%
%TO.N,Net-(U3-OD)*%
X101927500Y-102225000D03*
%TO.P,Q1,5*%
%TO.N,Net-(U3-OC)*%
X96167500Y-102225000D03*
%TO.P,Q1,6*%
%TO.N,-BATT*%
X96167500Y-102875000D03*
%TO.P,Q1,7*%
X96167500Y-103525000D03*
%TO.P,Q1,8*%
%TO.N,unconnected-(Q1-Pad1)_1*%
X96167500Y-104175000D03*
%TD*%
D32*
%TO.P,R10,1*%
%TO.N,Net-(C14-Pad2)*%
X133902500Y-100060000D03*
%TO.P,R10,2*%
%TO.N,Net-(U4-2_INA-)*%
X135097500Y-100060000D03*
%TD*%
D33*
%TO.P,IC1,1,VIN_1*%
%TO.N,VBUS*%
X106920000Y-104400000D03*
%TO.P,IC1,2,GND_2*%
%TO.N,AGND*%
X107860000Y-104400000D03*
%TO.P,IC1,3,EN_3*%
%TO.N,Net-(IC1-EN)*%
X108800000Y-104400000D03*
%TO.P,IC1,4,SNS_4*%
%TO.N,unconnected-(IC1-SNS-Pad4)*%
X108800000Y-101900000D03*
%TO.P,IC1,5,VOUT_5*%
%TO.N,3V3-2*%
X106920000Y-101900000D03*
%TD*%
D34*
%TO.P,C47,1*%
%TO.N,3V3*%
X117237500Y-38200000D03*
%TO.P,C47,2*%
%TO.N,AGND*%
X115162500Y-38200000D03*
%TD*%
D11*
%TO.P,R29,1*%
%TO.N,3V3*%
X116300000Y-52100000D03*
%TO.P,R29,2*%
%TO.N,DAT2*%
X118300000Y-52100000D03*
%TD*%
D30*
%TO.P,R20,1*%
%TO.N,Net-(U4-6_INB-)*%
X132100000Y-110502500D03*
%TO.P,R20,2*%
%TO.N,Net-(C20-Pad2)*%
X132100000Y-111697500D03*
%TD*%
D10*
%TO.P,R33,1*%
%TO.N,+BATT*%
X124400000Y-72000000D03*
%TO.P,R33,2*%
%TO.N,Net-(U6-IO42)*%
X124400000Y-70000000D03*
%TD*%
D12*
%TO.P,R27,1*%
%TO.N,3V3*%
X118500000Y-46800000D03*
%TO.P,R27,2*%
%TO.N,DAT0*%
X118500000Y-48800000D03*
%TD*%
D35*
%TO.P,SW2,A,A_A*%
%TO.N,Up*%
X148000000Y-92700000D03*
D36*
%TO.P,SW2,B,B_B*%
%TO.N,Down*%
X148000000Y-87700000D03*
%TO.P,SW2,C,C_C*%
%TO.N,AGND*%
X148000000Y-90200000D03*
D37*
%TO.P,SW2,MP*%
%TO.N,N/C*%
X140500000Y-95800000D03*
X140500000Y-84600000D03*
D36*
%TO.P,SW2,S1,S1_S1*%
%TO.N,Button*%
X133500000Y-87700000D03*
%TO.P,SW2,S2,S2_S2*%
%TO.N,AGND*%
X133500000Y-92700000D03*
%TD*%
D38*
%TO.P,Q2,1,C_1*%
%TO.N,Net-(D2-A)*%
X91650000Y-88820000D03*
%TO.P,Q2,2,B_2*%
%TO.N,Net-(Q2-B)*%
X93550000Y-88820000D03*
%TO.P,Q2,3,E_3*%
%TO.N,AGND*%
X92600000Y-86940000D03*
%TD*%
D39*
%TO.P,U1,1,TEMP_1*%
%TO.N,Net-(U1-TEMP)*%
X115905000Y-88500000D03*
%TO.P,U1,2,PROG_2*%
%TO.N,Net-(U1-PROG)*%
X114635000Y-88500000D03*
%TO.P,U1,3,GND_3*%
%TO.N,AGND*%
X113365000Y-88500000D03*
%TO.P,U1,4,VCC_4*%
%TO.N,VBUS*%
X112095000Y-88500000D03*
%TO.P,U1,5,BAT_5*%
%TO.N,+BATT*%
X112095000Y-96800000D03*
%TO.P,U1,6,STDBY_6*%
%TO.N,unconnected-(U1-STDBY-Pad6)*%
X113365000Y-96800000D03*
%TO.P,U1,7,CHRG_7*%
%TO.N,unconnected-(U1-CHRG-Pad7)*%
X114635000Y-96800000D03*
%TO.P,U1,8,CE_8*%
%TO.N,VBUS*%
X115905000Y-96800000D03*
D40*
%TO.P,U1,9*%
%TO.N,N/C*%
X114000000Y-92650000D03*
%TD*%
D41*
%TO.P,J5,1,Pin_1_1*%
%TO.N,AGND*%
X135600000Y-70600000D03*
D42*
%TO.P,J5,2,Pin_2_2*%
%TO.N,TX0*%
X134600000Y-70600000D03*
%TO.P,J5,3,Pin_3_3*%
%TO.N,RX0*%
X133600000Y-70600000D03*
%TO.P,J5,4,Pin_4_4*%
%TO.N,3V3*%
X132600000Y-70600000D03*
%TD*%
D43*
%TO.P,U3,1,OD_1*%
%TO.N,Net-(U3-OD)*%
X100237500Y-98350000D03*
%TO.P,U3,2,CS_2*%
%TO.N,Net-(U3-CS)*%
X100237500Y-97400000D03*
%TO.P,U3,3,OC_3*%
%TO.N,Net-(U3-OC)*%
X100237500Y-96450000D03*
%TO.P,U3,4,TD_4*%
%TO.N,unconnected-(U3-TD-Pad4)*%
X97962500Y-96450000D03*
%TO.P,U3,5,VCC_5*%
%TO.N,Net-(U3-VCC)*%
X97962500Y-97400000D03*
%TO.P,U3,6,GND_6*%
%TO.N,-BATT*%
X97962500Y-98350000D03*
%TD*%
D13*
%TO.P,R31,1*%
%TO.N,Net-(U6-IO37)*%
X118400000Y-65600000D03*
%TO.P,R31,2*%
%TO.N,AGND*%
X116400000Y-65600000D03*
%TD*%
D44*
%TO.P,IC2,1,VIN_1*%
%TO.N,+BATT*%
X98650000Y-92860000D03*
%TO.P,IC2,2,GND_2*%
%TO.N,AGND*%
X98650000Y-93800000D03*
%TO.P,IC2,3,EN_3*%
%TO.N,EN*%
X98650000Y-94740000D03*
%TO.P,IC2,4,SNS_4*%
%TO.N,unconnected-(IC2-SNS-Pad4)*%
X101150000Y-94740000D03*
%TO.P,IC2,5,VOUT_5*%
%TO.N,3V3-1*%
X101150000Y-92860000D03*
%TD*%
D27*
%TO.P,C32,1*%
%TO.N,AGND*%
X119000000Y-82907500D03*
%TO.P,C32,2*%
%TO.N,3V3*%
X119000000Y-82092500D03*
%TD*%
D24*
%TO.P,C10,1*%
%TO.N,+BATT*%
X109900000Y-98057500D03*
%TO.P,C10,2*%
%TO.N,AGND*%
X109900000Y-95982500D03*
%TD*%
D45*
%TO.P,R8,1*%
%TO.N,Net-(U3-VCC)*%
X96397500Y-96600000D03*
%TO.P,R8,2*%
%TO.N,+BATT*%
X95202500Y-96600000D03*
%TD*%
D26*
%TO.P,C41,1*%
%TO.N,Net-(U6-EN)*%
X139762500Y-44300000D03*
%TO.P,C41,2*%
%TO.N,AGND*%
X141837500Y-44300000D03*
%TD*%
D34*
%TO.P,C3,1*%
%TO.N,AGND*%
X119497500Y-99490000D03*
%TO.P,C3,2*%
%TO.N,VBUS*%
X117422500Y-99490000D03*
%TD*%
D46*
%TO.P,C4,1*%
%TO.N,AGND*%
X104249999Y-92382502D03*
%TO.P,C4,2*%
%TO.N,3V3-1*%
X104249999Y-93517502D03*
%TD*%
D47*
%TO.P,U2,1,OUT_1*%
%TO.N,3V3*%
X106924999Y-94275000D03*
%TO.P,U2,2,IN2_2*%
%TO.N,3V3-2*%
X106924999Y-93575001D03*
D48*
%TO.P,U2,3,CP2_3*%
%TO.N,AGND*%
X107000000Y-92800002D03*
%TO.P,U2,4,OV2_4*%
X106499999Y-92800002D03*
%TO.P,U2,5,OV1_5*%
X105999999Y-92800002D03*
%TO.P,U2,6,PR1_6*%
X105499998Y-92800002D03*
D47*
%TO.P,U2,7,IN1_7*%
%TO.N,3V3-1*%
X105574999Y-93575001D03*
%TO.P,U2,8,OUT_8*%
%TO.N,unconnected-(U2-OUT-Pad8)*%
X105574999Y-94275000D03*
D48*
%TO.P,U2,9,ST_9*%
%TO.N,AGND*%
X105499998Y-95100000D03*
%TO.P,U2,10,ILM_10*%
%TO.N,Net-(U2-ILM)*%
X105999999Y-95100000D03*
%TO.P,U2,11,SS_11*%
%TO.N,Net-(U2-SS)*%
X106499999Y-95100000D03*
%TO.P,U2,12,GND_12*%
%TO.N,AGND*%
X107000000Y-95100000D03*
%TD*%
D49*
%TO.P,C36,1*%
%TO.N,Net-(U5-LDOO)*%
X130000000Y-78862500D03*
%TO.P,C36,2*%
%TO.N,AGND*%
X130000000Y-77137500D03*
%TD*%
D12*
%TO.P,R28,1*%
%TO.N,3V3*%
X116600000Y-48200000D03*
%TO.P,R28,2*%
%TO.N,DAT1*%
X116600000Y-50200000D03*
%TD*%
D50*
%TO.P,L1,1,1_1*%
%TO.N,Net-(U7-SW)*%
X120875000Y-39100000D03*
%TO.P,L1,2,2_2*%
%TO.N,3V3*%
X119125000Y-39100000D03*
%TD*%
D12*
%TO.P,R1,1*%
%TO.N,VBUS*%
X110700000Y-102400000D03*
%TO.P,R1,2*%
%TO.N,Net-(IC1-EN)*%
X110700000Y-104400000D03*
%TD*%
D10*
%TO.P,R21,1*%
%TO.N,Net-(Q2-B)*%
X95350000Y-88830000D03*
%TO.P,R21,2*%
%TO.N,PowerLatch*%
X95350000Y-86830000D03*
%TD*%
D51*
%TO.P,TH1,1*%
%TO.N,AGND*%
X116000000Y-85062500D03*
%TO.P,TH1,2*%
%TO.N,Net-(U1-TEMP)*%
X116000000Y-85862500D03*
%TD*%
D16*
%TO.P,C2,1*%
%TO.N,Net-(IC1-EN)*%
X108850000Y-106437500D03*
%TO.P,C2,2*%
%TO.N,AGND*%
X108850000Y-108162500D03*
%TD*%
D49*
%TO.P,C34,1*%
%TO.N,Net-(U5-CAPM)*%
X117843456Y-80262500D03*
%TO.P,C34,2*%
%TO.N,Net-(U5-CAPP)*%
X117843456Y-78537500D03*
%TD*%
D12*
%TO.P,R18,1*%
%TO.N,Net-(U4-3_INA+)*%
X129300000Y-100300000D03*
%TO.P,R18,2*%
%TO.N,3V3*%
X129300000Y-102300000D03*
%TD*%
D25*
%TO.P,C24,1*%
%TO.N,3V3-1*%
X102600000Y-92835000D03*
%TO.P,C24,2*%
%TO.N,AGND*%
X102600000Y-91700000D03*
%TD*%
D10*
%TO.P,R2,1*%
%TO.N,AGND*%
X110700000Y-108400000D03*
%TO.P,R2,2*%
%TO.N,Net-(IC1-EN)*%
X110700000Y-106400000D03*
%TD*%
D16*
%TO.P,C15,1*%
%TO.N,Net-(U3-VCC)*%
X96200000Y-98037500D03*
%TO.P,C15,2*%
%TO.N,-BATT*%
X96200000Y-99762500D03*
%TD*%
D24*
%TO.P,C19,1*%
%TO.N,Net-(U4-3_INA+)*%
X129310000Y-98577500D03*
%TO.P,C19,2*%
%TO.N,AGND*%
X129310000Y-96502500D03*
%TD*%
D10*
%TO.P,R36,1*%
%TO.N,RST*%
X125200000Y-33000000D03*
%TO.P,R36,2*%
%TO.N,3V3*%
X125200000Y-31000000D03*
%TD*%
D49*
%TO.P,C13,1*%
%TO.N,AGND*%
X107100000Y-98162500D03*
%TO.P,C13,2*%
%TO.N,Net-(U2-SS)*%
X107100000Y-96437500D03*
%TD*%
D24*
%TO.P,C21,1*%
%TO.N,AGND*%
X127280000Y-102355000D03*
%TO.P,C21,2*%
%TO.N,Net-(U4-3_INA+)*%
X127280000Y-100280000D03*
%TD*%
D52*
%TO.P,J6,1,Pin_1_1*%
%TO.N,unconnected-(J6-Pin_1-Pad1)*%
X128650000Y-32300000D03*
%TO.P,J6,2,Pin_2_2*%
%TO.N,unconnected-(J6-Pin_2-Pad2)*%
X128650000Y-32700000D03*
%TO.P,J6,3,Pin_3_3*%
%TO.N,unconnected-(J6-Pin_3-Pad3)*%
X128650000Y-33100000D03*
%TO.P,J6,4,Pin_4_4*%
%TO.N,unconnected-(J6-Pin_4-Pad4)*%
X128650000Y-33500000D03*
%TO.P,J6,5,Pin_5_5*%
%TO.N,unconnected-(J6-Pin_5-Pad5)*%
X128650000Y-33900000D03*
%TO.P,J6,6,Pin_6_6*%
%TO.N,SD3*%
X128650000Y-34300000D03*
%TO.P,J6,7,Pin_7_7*%
%TO.N,SD2*%
X128650000Y-34700000D03*
%TO.P,J6,8,Pin_8_8*%
%TO.N,SD0*%
X128650000Y-35100000D03*
%TO.P,J6,9,Pin_9_9*%
%TO.N,RST*%
X128650000Y-35500000D03*
%TO.P,J6,10,Pin_10_10*%
%TO.N,SCL*%
X128650000Y-35900000D03*
%TO.P,J6,11,Pin_11_11*%
%TO.N,SD1*%
X128650000Y-36300000D03*
%TO.P,J6,12,Pin_12_12*%
%TO.N,CS*%
X128650000Y-36700000D03*
%TO.P,J6,13,Pin_13_13*%
%TO.N,AGND*%
X130350000Y-36700000D03*
%TO.P,J6,14,Pin_14_14*%
%TO.N,TE*%
X130350000Y-36300000D03*
%TO.P,J6,15,Pin_15_15*%
%TO.N,3V3*%
X130350000Y-35900000D03*
%TO.P,J6,16,Pin_16_16*%
%TO.N,VCI_EN*%
X130350000Y-35500000D03*
%TO.P,J6,17,Pin_17_17*%
%TO.N,Net-(J6-Pin_17)*%
X130350000Y-35100000D03*
%TO.P,J6,18,Pin_18_18*%
%TO.N,AGND*%
X130350000Y-34700000D03*
%TO.P,J6,19,Pin_19_19*%
%TO.N,unconnected-(J6-Pin_19-Pad19)*%
X130350000Y-34300000D03*
%TO.P,J6,20,Pin_20_20*%
%TO.N,unconnected-(J6-Pin_20-Pad20)*%
X130350000Y-33900000D03*
%TO.P,J6,21,Pin_21_21*%
%TO.N,unconnected-(J6-Pin_21-Pad21)*%
X130350000Y-33500000D03*
%TO.P,J6,22,Pin_22_22*%
%TO.N,unconnected-(J6-Pin_22-Pad22)*%
X130350000Y-33100000D03*
%TO.P,J6,23,Pin_23_23*%
%TO.N,unconnected-(J6-Pin_23-Pad23)*%
X130350000Y-32700000D03*
%TO.P,J6,24,Pin_24_24*%
%TO.N,unconnected-(J6-Pin_24-Pad24)*%
X130350000Y-32300000D03*
%TO.P,J6,25*%
%TO.N,N/C*%
X130150000Y-31600000D03*
%TO.P,J6,26*%
X128850000Y-31600000D03*
%TO.P,J6,27*%
X130150000Y-37400000D03*
%TO.P,J6,28*%
X128850000Y-37400000D03*
%TD*%
D53*
%TO.P,Q3,1,G_1*%
%TO.N,Net-(D2-A)*%
X93050000Y-102425000D03*
%TO.P,Q3,2,S_2*%
%TO.N,EN*%
X91150000Y-102425000D03*
%TO.P,Q3,3,D_3*%
%TO.N,+BATT*%
X92100000Y-104300000D03*
%TD*%
D15*
%TO.P,C46,1*%
%TO.N,AGND*%
X134900000Y-32762500D03*
%TO.P,C46,2*%
%TO.N,Net-(J6-Pin_17)*%
X134900000Y-34837500D03*
%TD*%
D46*
%TO.P,C1,1*%
%TO.N,AGND*%
X105500000Y-103732500D03*
%TO.P,C1,2*%
%TO.N,VBUS*%
X105500000Y-104867500D03*
%TD*%
D54*
%TO.P,U5,1,CPVDD_1*%
%TO.N,3V3*%
X121230956Y-77575000D03*
%TO.P,U5,2,CAPP_2*%
%TO.N,Net-(U5-CAPP)*%
X121230956Y-78225000D03*
%TO.P,U5,3,CPGND_3*%
%TO.N,AGND*%
X121230956Y-78875000D03*
%TO.P,U5,4,CAPM_4*%
%TO.N,Net-(U5-CAPM)*%
X121230956Y-79525000D03*
%TO.P,U5,5,VNEG_5*%
%TO.N,Net-(U5-VNEG)*%
X121230956Y-80175000D03*
%TO.P,U5,6,OUTL_6*%
%TO.N,Net-(U5-OUTL)*%
X121230956Y-80825000D03*
%TO.P,U5,7,OUTR_7*%
%TO.N,Net-(U5-OUTR)*%
X121230956Y-81475000D03*
%TO.P,U5,8,AVDD_8*%
%TO.N,3V3*%
X121230956Y-82125000D03*
%TO.P,U5,9,AGND_9*%
%TO.N,AGND*%
X121230956Y-82775000D03*
%TO.P,U5,10,DEMP_10*%
X121230956Y-83425000D03*
%TO.P,U5,11,FLT_11*%
X126955956Y-83425000D03*
%TO.P,U5,12,SCK_12*%
%TO.N,SCK*%
X126955956Y-82775000D03*
%TO.P,U5,13,BCK_13*%
%TO.N,BCK*%
X126955956Y-82125000D03*
%TO.P,U5,14,DIN_14*%
%TO.N,DIN*%
X126955956Y-81475000D03*
%TO.P,U5,15,LRCK_15*%
%TO.N,LRCK*%
X126955956Y-80825000D03*
%TO.P,U5,16,FMT_16*%
%TO.N,AGND*%
X126955956Y-80175000D03*
%TO.P,U5,17,XSMT_17*%
%TO.N,XSMT*%
X126955956Y-79525000D03*
%TO.P,U5,18,LDOO_18*%
%TO.N,Net-(U5-LDOO)*%
X126955956Y-78875000D03*
%TO.P,U5,19,DGND_19*%
%TO.N,AGND*%
X126955956Y-78225000D03*
%TO.P,U5,20,DVDD_20*%
%TO.N,3V3*%
X126955956Y-77575000D03*
%TD*%
D55*
%TO.P,U6,1,GND_1*%
%TO.N,AGND*%
X141528000Y-47518500D03*
%TO.P,U6,2,GND_2*%
X140678000Y-47518500D03*
%TO.P,U6,3,3V3_3*%
%TO.N,3V3*%
X139828000Y-47518500D03*
%TO.P,U6,4,3V3_4*%
X138978000Y-47518500D03*
%TO.P,U6,5,EN_5*%
%TO.N,Net-(U6-EN)*%
X138128000Y-47518500D03*
%TO.P,U6,6,IO2_6*%
%TO.N,unconnected-(U6-IO2-Pad6)*%
X137278000Y-47518500D03*
%TO.P,U6,7,IO3_7*%
%TO.N,DET_B*%
X136428000Y-47518500D03*
%TO.P,U6,8,IO0_8*%
%TO.N,unconnected-(U6-IO0-Pad8)*%
X135578000Y-47518500D03*
%TO.P,U6,9,IO1_9*%
%TO.N,SCK*%
X134728000Y-47518500D03*
%TO.P,U6,10,IO4_10*%
%TO.N,Up*%
X133878000Y-47518500D03*
%TO.P,U6,11,IO5_11*%
%TO.N,Down*%
X133028000Y-47518500D03*
%TO.P,U6,12,IO6_12*%
%TO.N,BCK*%
X132178000Y-47518500D03*
%TO.P,U6,13,IO7_13*%
%TO.N,LRCK*%
X131328000Y-47518500D03*
%TO.P,U6,14,IO8_14*%
%TO.N,DIN*%
X130478000Y-47518500D03*
%TO.P,U6,15,IO9_15*%
%TO.N,SCL*%
X129628000Y-47518500D03*
%TO.P,U6,16,IO10_16*%
%TO.N,CS*%
X128778000Y-47518500D03*
%TO.P,U6,17,IO11_17*%
%TO.N,SD0*%
X127928000Y-47518500D03*
%TO.P,U6,18,IO12_18*%
%TO.N,SD1*%
X127078000Y-47518500D03*
%TO.P,U6,19,IO13_19*%
%TO.N,SD2*%
X126228000Y-47518500D03*
%TO.P,U6,20,IO14_20*%
%TO.N,Button*%
X125378000Y-47518500D03*
%TO.P,U6,21,IO15_21*%
%TO.N,ButtonState*%
X124528000Y-47518500D03*
%TO.P,U6,22,IO16_22*%
%TO.N,SD3*%
X123678000Y-47518500D03*
%TO.P,U6,23,IO17_23*%
%TO.N,RST*%
X122828000Y-47518500D03*
%TO.P,U6,24,IO18_24*%
%TO.N,TE*%
X121978000Y-47518500D03*
%TO.P,U6,25,IO19_25*%
%TO.N,VCI_EN*%
X121128000Y-47518500D03*
D56*
%TO.P,U6,26,GND_26*%
%TO.N,AGND*%
X120028000Y-48898500D03*
%TO.P,U6,27,SD_D0_27*%
%TO.N,DAT0*%
X120028000Y-49748500D03*
%TO.P,U6,28,SD_D1_28*%
%TO.N,DAT1*%
X120028000Y-50598500D03*
%TO.P,U6,29,SD_D2_29*%
%TO.N,DAT2*%
X120028000Y-51448500D03*
%TO.P,U6,30,SD_D3_30*%
%TO.N,DAT3*%
X120028000Y-52298500D03*
%TO.P,U6,31,SD_CLK_31*%
%TO.N,CLK*%
X120028000Y-53148500D03*
%TO.P,U6,32,SD_CMD_32*%
%TO.N,CMD*%
X120028000Y-53998500D03*
%TO.P,U6,33,NC_33*%
%TO.N,unconnected-(U6-NC-Pad33)*%
X120028000Y-54848500D03*
%TO.P,U6,34,NC_34*%
%TO.N,unconnected-(U6-NC-Pad34)*%
X120028000Y-55698500D03*
%TO.P,U6,35,NC_35*%
%TO.N,unconnected-(U6-NC-Pad35)*%
X120028000Y-56548500D03*
%TO.P,U6,36,NC_36*%
%TO.N,unconnected-(U6-NC-Pad36)*%
X120028000Y-57398500D03*
%TO.P,U6,37,NC_37*%
%TO.N,unconnected-(U6-NC-Pad37)*%
X120028000Y-58248500D03*
%TO.P,U6,38,NC_38*%
%TO.N,unconnected-(U6-NC-Pad38)*%
X120028000Y-59098500D03*
%TO.P,U6,39,NC_39*%
%TO.N,unconnected-(U6-NC-Pad39)*%
X120028000Y-59948500D03*
%TO.P,U6,40,USB_DP_40*%
%TO.N,unconnected-(U6-USB_DP-Pad40)*%
X120028000Y-60798500D03*
%TO.P,U6,41,USB_DM_41*%
%TO.N,unconnected-(U6-USB_DM-Pad41)*%
X120028000Y-61648500D03*
%TO.P,U6,42,IO33_42*%
%TO.N,U7_EN*%
X120028000Y-62498500D03*
%TO.P,U6,43,IO34_43*%
%TO.N,PowerLatch*%
X120028000Y-63348500D03*
%TO.P,U6,44,IO35_44*%
%TO.N,XSMT*%
X120028000Y-64198500D03*
%TO.P,U6,45,IO36_45*%
%TO.N,unconnected-(U6-IO36-Pad45)*%
X120028000Y-65048500D03*
%TO.P,U6,46,IO37_46*%
%TO.N,Net-(U6-IO37)*%
X120028000Y-65898500D03*
%TO.P,U6,47,GND_47*%
%TO.N,AGND*%
X120028000Y-66748500D03*
D55*
%TO.P,U6,48,GND_48*%
X121128000Y-68118500D03*
%TO.P,U6,49,IO38_49*%
%TO.N,unconnected-(U6-IO38-Pad49)*%
X121978000Y-68118500D03*
%TO.P,U6,50,IO39_50*%
%TO.N,unconnected-(U6-IO39-Pad50)*%
X122828000Y-68118500D03*
%TO.P,U6,51,IO40_51*%
%TO.N,unconnected-(U6-IO40-Pad51)*%
X123678000Y-68118500D03*
%TO.P,U6,52,IO42_52*%
%TO.N,Net-(U6-IO42)*%
X124528000Y-68118500D03*
%TO.P,U6,53,IO43_53*%
%TO.N,unconnected-(U6-IO43-Pad53)*%
X125378000Y-68118500D03*
%TO.P,U6,54,IO44_54*%
%TO.N,unconnected-(U6-IO44-Pad54)*%
X126228000Y-68118500D03*
%TO.P,U6,55,IO45_55*%
%TO.N,unconnected-(U6-IO45-Pad55)*%
X127078000Y-68118500D03*
%TO.P,U6,56,IO46_56*%
%TO.N,unconnected-(U6-IO46-Pad56)*%
X127928000Y-68118500D03*
%TO.P,U6,57,IO47_57*%
%TO.N,unconnected-(U6-IO47-Pad57)*%
X128778000Y-68118500D03*
%TO.P,U6,58,IO48_58*%
%TO.N,unconnected-(U6-IO48-Pad58)*%
X129628000Y-68118500D03*
%TO.P,U6,59,IO49_59*%
%TO.N,unconnected-(U6-IO49-Pad59)*%
X130478000Y-68118500D03*
%TO.P,U6,60,IO50_60*%
%TO.N,unconnected-(U6-IO50-Pad60)*%
X131328000Y-68118500D03*
%TO.P,U6,61,IO51_61*%
%TO.N,unconnected-(U6-IO51-Pad61)*%
X132178000Y-68118500D03*
%TO.P,U6,62,IO52_62*%
%TO.N,unconnected-(U6-IO52-Pad62)*%
X133028000Y-68118500D03*
%TO.P,U6,63,IO53_63*%
%TO.N,unconnected-(U6-IO53-Pad63)*%
X133878000Y-68118500D03*
%TO.P,U6,64,IO54_64*%
%TO.N,unconnected-(U6-IO54-Pad64)*%
X134728000Y-68118500D03*
%TO.P,U6,65,IO55_65*%
%TO.N,unconnected-(U6-IO55-Pad65)*%
X135578000Y-68118500D03*
%TO.P,U6,66,IO56_66*%
%TO.N,unconnected-(U6-IO56-Pad66)*%
X136428000Y-68118500D03*
%TO.P,U6,67,IO57_67*%
%TO.N,unconnected-(U6-IO57-Pad67)*%
X137278000Y-68118500D03*
%TO.P,U6,68,TX0_68*%
%TO.N,TX0*%
X138128000Y-68118500D03*
%TO.P,U6,69,RX0_69*%
%TO.N,RX0*%
X138978000Y-68118500D03*
%TO.P,U6,70,IO60_70*%
%TO.N,unconnected-(U6-IO60-Pad70)*%
X139828000Y-68118500D03*
%TO.P,U6,71,IO61_71*%
%TO.N,Net-(U6-IO61)*%
X140678000Y-68118500D03*
%TO.P,U6,72,GND_72*%
%TO.N,AGND*%
X141528000Y-68118500D03*
D56*
%TO.P,U6,73,GND_73*%
X142628000Y-66748500D03*
%TO.P,U6,74,GND_74*%
X142628000Y-65898500D03*
%TO.P,U6,75,GND_75*%
X142628000Y-65048500D03*
%TO.P,U6,76,GND_76*%
X142628000Y-64198500D03*
%TO.P,U6,77,GND_77*%
X142628000Y-63348500D03*
%TO.P,U6,78,GND_78*%
X142628000Y-62498500D03*
%TO.P,U6,79,GND_79*%
X142628000Y-61648500D03*
%TO.P,U6,80,GND_80*%
X142628000Y-60798500D03*
%TO.P,U6,81,GND_81*%
X142628000Y-59948500D03*
%TO.P,U6,82,GND_82*%
X142628000Y-59098500D03*
%TO.P,U6,83,GND_83*%
X142628000Y-58248500D03*
%TO.P,U6,84,GND_84*%
X142628000Y-57398500D03*
%TO.P,U6,85,GND_85*%
X142628000Y-56548500D03*
%TO.P,U6,86,GND_86*%
X142628000Y-55698500D03*
%TO.P,U6,87,GND_87*%
X142628000Y-54848500D03*
%TO.P,U6,88,GND_88*%
X142628000Y-53998500D03*
%TO.P,U6,89,GND_89*%
X142628000Y-53148500D03*
%TO.P,U6,90,GND_90*%
X142628000Y-52298500D03*
%TO.P,U6,91,NC_91*%
X142628000Y-51448500D03*
%TO.P,U6,92,GND_92*%
X142628000Y-50598500D03*
%TO.P,U6,93,GND_93*%
X142628000Y-49748500D03*
%TO.P,U6,94,GND_94*%
X142628000Y-48898500D03*
D57*
%TO.P,U6,95,GND_95*%
X131328000Y-54498500D03*
X132988000Y-56158500D03*
X129668000Y-56158500D03*
X134648000Y-57818500D03*
X131328000Y-57818500D03*
X128008000Y-57818500D03*
X132988000Y-59478500D03*
X129668000Y-59478500D03*
X131328000Y-61138500D03*
D58*
%TO.P,U6,96,GND_96*%
X120028000Y-47518500D03*
%TO.P,U6,97,GND_97*%
X120028000Y-68118500D03*
%TO.P,U6,98,GND_98*%
X142628000Y-68118500D03*
%TO.P,U6,99,GND_99*%
X142628000Y-47518500D03*
%TD*%
D14*
%TO.P,C40,1*%
%TO.N,AGND*%
X110662500Y-46790000D03*
%TO.P,C40,2*%
%TO.N,3V3*%
X108937500Y-46790000D03*
%TD*%
D45*
%TO.P,R15,1*%
%TO.N,Net-(U3-CS)*%
X98995000Y-99600000D03*
%TO.P,R15,2*%
%TO.N,-BATT*%
X97800000Y-99600000D03*
%TD*%
D10*
%TO.P,R7,1*%
%TO.N,AGND*%
X105330000Y-98350000D03*
%TO.P,R7,2*%
%TO.N,Net-(U2-ILM)*%
X105330000Y-96350000D03*
%TD*%
D23*
%TO.P,C11,1*%
%TO.N,AGND*%
X105632500Y-100500000D03*
%TO.P,C11,2*%
%TO.N,3V3-2*%
X106767500Y-100500000D03*
%TD*%
D59*
%TO.P,U4,1,1_OUTA_1*%
%TO.N,OutL*%
X135405000Y-102026600D03*
%TO.P,U4,2,2_INA-_2*%
%TO.N,Net-(U4-2_INA-)*%
X134135000Y-102026600D03*
%TO.P,U4,3,3_INA+_3*%
%TO.N,Net-(U4-3_INA+)*%
X132865000Y-102026600D03*
%TO.P,U4,4,4_GND_4*%
%TO.N,AGND*%
X131595000Y-102026600D03*
%TO.P,U4,5,5_INB+_5*%
%TO.N,Net-(U4-3_INA+)*%
X131595000Y-108173400D03*
%TO.P,U4,6,6_INB-_6*%
%TO.N,Net-(U4-6_INB-)*%
X132865000Y-108173400D03*
%TO.P,U4,7,7_OUTB_7*%
%TO.N,OutR*%
X134135000Y-108173400D03*
%TO.P,U4,8,8_+VDD_8*%
%TO.N,3V3*%
X135405000Y-108173400D03*
%TD*%
D49*
%TO.P,C33,1*%
%TO.N,Net-(U5-VNEG)*%
X117843456Y-76900000D03*
%TO.P,C33,2*%
%TO.N,AGND*%
X117843456Y-75175000D03*
%TD*%
D20*
%TO.P,C27,1*%
%TO.N,3V3*%
X120637500Y-75250000D03*
%TO.P,C27,2*%
%TO.N,AGND*%
X122362500Y-75250000D03*
%TD*%
D30*
%TO.P,R19,1*%
%TO.N,OutR*%
X133100000Y-110502500D03*
%TO.P,R19,2*%
%TO.N,Net-(C20-Pad2)*%
X133100000Y-111697500D03*
%TD*%
D12*
%TO.P,R25,1*%
%TO.N,AGND*%
X125100000Y-43700000D03*
%TO.P,R25,2*%
%TO.N,ButtonState*%
X125100000Y-45700000D03*
%TD*%
D34*
%TO.P,C38,1*%
%TO.N,AGND*%
X121637500Y-87900000D03*
%TO.P,C38,2*%
%TO.N,OUTL*%
X119562500Y-87900000D03*
%TD*%
D60*
%TO.P,D2,1,K_1*%
%TO.N,Net-(D1-K)*%
X91340000Y-95782500D03*
%TO.P,D2,2,A_2*%
%TO.N,Net-(D2-A)*%
X91340000Y-97882500D03*
%TD*%
D18*
%TO.P,R6,1*%
%TO.N,AGND*%
X114700000Y-84062500D03*
%TO.P,R6,2*%
%TO.N,Net-(U1-PROG)*%
X114700000Y-85887500D03*
%TD*%
D23*
%TO.P,C12,1*%
%TO.N,3V3*%
X108232500Y-94500000D03*
%TO.P,C12,2*%
%TO.N,AGND*%
X109367500Y-94500000D03*
%TD*%
D20*
%TO.P,C29,1*%
%TO.N,3V3*%
X128637500Y-75500000D03*
%TO.P,C29,2*%
%TO.N,AGND*%
X130362500Y-75500000D03*
%TD*%
D46*
%TO.P,C42,1*%
%TO.N,3V3*%
X133500000Y-37000000D03*
%TO.P,C42,2*%
%TO.N,AGND*%
X133500000Y-38135000D03*
%TD*%
D61*
%TO.P,C22,1*%
%TO.N,3V3*%
X138000000Y-107172500D03*
%TO.P,C22,2*%
%TO.N,AGND*%
X138000000Y-110427500D03*
%TD*%
D18*
%TO.P,R23,1*%
%TO.N,Net-(U5-OUTL)*%
X117843456Y-85175000D03*
%TO.P,R23,2*%
%TO.N,OUTL*%
X117843456Y-87000000D03*
%TD*%
D62*
%TO.P,Audio1,*%
%TO.N,*%
X143000000Y-104900000D03*
X143000000Y-110800000D03*
%TD*%
D63*
%TO.P,BT1,1,+_1*%
%TO.N,+BATT*%
X101832500Y-108150000D03*
D64*
%TO.P,BT1,2,-_2*%
%TO.N,-BATT*%
X101832500Y-110650000D03*
%TD*%
D36*
%TO.P,SW1,1,1_1*%
%TO.N,AGND*%
X102717500Y-30950000D03*
%TO.P,SW1,2,2_2*%
%TO.N,Net-(D1-K)*%
X107717500Y-30950000D03*
D65*
%TO.P,SW1,3*%
%TO.N,N/C*%
X108717500Y-33450000D03*
%TO.P,SW1,4*%
X101717500Y-33450000D03*
%TD*%
D66*
%TO.P,J2,SH,SHIELD_SH*%
%TO.N,Net-(J2-SHIELD)*%
X124070000Y-112325000D03*
X124070000Y-108525000D03*
X115430000Y-112325000D03*
X115430000Y-108525000D03*
%TD*%
D67*
%TO.N,AGND*%
X145700000Y-91900000D03*
X124300000Y-42300000D03*
X106500000Y-91300000D03*
X115800000Y-34300000D03*
X141000000Y-110427500D03*
X107680000Y-106130000D03*
X130500000Y-38100000D03*
X99600000Y-31300000D03*
X118200000Y-70000000D03*
X117000000Y-103260000D03*
X104120000Y-103730000D03*
X122900000Y-78500000D03*
X141278000Y-68900000D03*
X138000000Y-75400000D03*
X131600000Y-32900000D03*
X121500000Y-41000000D03*
X108490000Y-96120000D03*
X91900000Y-54700000D03*
X134500000Y-38200000D03*
X122520564Y-83283734D03*
X141800000Y-42900000D03*
X126100000Y-76600000D03*
X128450000Y-112680000D03*
X109631270Y-37254485D03*
X96002500Y-93462500D03*
X129600000Y-80175000D03*
X95100000Y-37300000D03*
X94400000Y-81800000D03*
X111160000Y-43600000D03*
X108050000Y-49020000D03*
X121100000Y-84700000D03*
X126700000Y-84700000D03*
X130700000Y-100970000D03*
X123940000Y-102620000D03*
X104430000Y-95100000D03*
X119070000Y-75800000D03*
X113360000Y-84680000D03*
%TO.N,3V3*%
X119879627Y-77571414D03*
X115900000Y-36800000D03*
X141000000Y-73700000D03*
X114000000Y-49600000D03*
X130687600Y-102892400D03*
X128300000Y-38900000D03*
X133497600Y-105702400D03*
X138994470Y-49174930D03*
X121800000Y-32900000D03*
X128112500Y-73112500D03*
X109620000Y-93530000D03*
X134500000Y-37000000D03*
X136000000Y-43400000D03*
X119750000Y-84850000D03*
X107730000Y-46790000D03*
X119750000Y-83000000D03*
%TO.N,Net-(J6-Pin_17)*%
X131900000Y-34700000D03*
X122200000Y-36599998D03*
%TO.N,OUTR*%
X125070000Y-103240000D03*
X123410000Y-87240000D03*
%TO.N,Net-(U6-IO61)*%
X139400000Y-69700000D03*
%TO.N,Net-(U6-EN)*%
X139762500Y-42800000D03*
%TO.N,Net-(J2-CC1)*%
X120250000Y-107000000D03*
%TO.N,+BATT*%
X115350000Y-71950000D03*
X97010000Y-92840000D03*
X111280000Y-99670000D03*
%TO.N,3V3-2*%
X108440000Y-98550000D03*
X109160000Y-92800000D03*
%TO.N,Net-(J2-CC2)*%
X119250000Y-107000000D03*
%TO.N,U7_EN*%
X114202625Y-59266701D03*
X115900000Y-35900000D03*
%TO.N,ButtonState*%
X92230000Y-91370000D03*
X124500000Y-49900000D03*
%TO.N,OutL*%
X138500000Y-100400000D03*
%TO.N,DAT3*%
X116420000Y-54060000D03*
%TO.N,Net-(U3-OD)*%
X101670000Y-101290000D03*
X100230000Y-99400000D03*
%TO.N,VBUS*%
X111110000Y-89500000D03*
X112282688Y-99160000D03*
X118230000Y-107000000D03*
%TO.N,DAT2*%
X119070000Y-51210000D03*
%TO.N,DAT0*%
X118500000Y-49998500D03*
%TO.N,Up*%
X133900000Y-50000000D03*
%TO.N,Down*%
X132900000Y-49400000D03*
%TO.N,Button*%
X125200000Y-52500000D03*
%TO.N,RX0*%
X138178064Y-69544884D03*
%TO.N,EN*%
X91160000Y-101060000D03*
X96800000Y-94230000D03*
%TO.N,DAT1*%
X115389265Y-50340735D03*
%TO.N,SD3*%
X126600000Y-33000000D03*
X123675735Y-39875735D03*
%TO.N,SD2*%
X124300000Y-39100000D03*
X126372778Y-34198302D03*
%TO.N,SD0*%
X128395868Y-39694238D03*
X126900000Y-34800000D03*
%TO.N,SCL*%
X129600000Y-46000000D03*
X126200000Y-42000000D03*
%TO.N,TE*%
X129600000Y-40900000D03*
X122000000Y-45905099D03*
%TO.N,VCI_EN*%
X132100000Y-35900000D03*
X121200000Y-45800000D03*
%TO.N,Net-(U5-VNEG)*%
X118843456Y-77250000D03*
X119168456Y-80175000D03*
%TO.N,Net-(U5-OUTL)*%
X118843456Y-84500000D03*
X119768456Y-80825000D03*
%TO.N,SCK*%
X134700000Y-52800000D03*
X133422614Y-79822614D03*
%TO.N,BCK*%
X130412835Y-81983864D03*
X132200000Y-52600000D03*
%TO.N,DIN*%
X130441571Y-51909900D03*
X129725000Y-81475000D03*
%TO.N,LRCK*%
X130800000Y-80500000D03*
X131200000Y-52200000D03*
%TO.N,XSMT*%
X121400000Y-64200000D03*
X124400000Y-74800000D03*
%TO.N,DET_B*%
X136400000Y-48600000D03*
X117400000Y-56100000D03*
X107874062Y-52138905D03*
%TO.N,CLK*%
X107787500Y-48212500D03*
%TO.N,CMD*%
X109300000Y-48812500D03*
%TO.N,OutR*%
X134124607Y-109843417D03*
%TO.N,Net-(J2-SHIELD)*%
X125060000Y-107000000D03*
%TD*%
%TO.N,AGND*%
D68*
X115000000Y-84062500D02*
X116000000Y-85062500D01*
X132900000Y-32725000D02*
X131775000Y-32725000D01*
X121055956Y-83600000D02*
X121230956Y-83425000D01*
X129668000Y-59478500D02*
X132988000Y-56158500D01*
X125685956Y-74885956D02*
X125685956Y-75500000D01*
X130950000Y-34700000D02*
X130350000Y-34700000D01*
X130000000Y-75862500D02*
X130362500Y-75500000D01*
X128593456Y-78092500D02*
X129045000Y-78092500D01*
X104430000Y-95100000D02*
X104420000Y-95100000D01*
X98650000Y-93800000D02*
X98480000Y-93630000D01*
X120162500Y-70000000D02*
X118200000Y-70000000D01*
X125100000Y-43700000D02*
X125100000Y-43100000D01*
X106530000Y-91270000D02*
X106700000Y-91270000D01*
X141800000Y-42900000D02*
X141800000Y-44262500D01*
X141000000Y-110427500D02*
X138000000Y-110427500D01*
X120028000Y-66748500D02*
X120028000Y-68118500D01*
X107000000Y-95100000D02*
X107470000Y-95100000D01*
X125918456Y-76781544D02*
X126100000Y-76600000D01*
X131600000Y-34050000D02*
X130950000Y-34700000D01*
X104122500Y-103732500D02*
X104120000Y-103730000D01*
X115162500Y-34937500D02*
X115162500Y-38200000D01*
X120162500Y-68253000D02*
X120028000Y-68118500D01*
X135007500Y-112830000D02*
X128600000Y-112830000D01*
X131600000Y-32900000D02*
X131600000Y-34050000D01*
X126255000Y-101330000D02*
X127280000Y-102355000D01*
X128008000Y-57818500D02*
X131328000Y-54498500D01*
X121128000Y-68118500D02*
X120028000Y-68118500D01*
X125437500Y-84943456D02*
X125437500Y-85100000D01*
X141528000Y-47518500D02*
X142628000Y-47518500D01*
X131306600Y-102026600D02*
X131595000Y-102026600D01*
X95932500Y-91510000D02*
X95932500Y-93392500D01*
X126955956Y-78225000D02*
X128460956Y-78225000D01*
X105500000Y-103732500D02*
X104122500Y-103732500D01*
X125100000Y-43100000D02*
X124300000Y-42300000D01*
X122268456Y-78574999D02*
X122268456Y-76767500D01*
X136900000Y-32762500D02*
X132937500Y-32762500D01*
X107680000Y-106130000D02*
X107680000Y-106992500D01*
X122000956Y-76500000D02*
X122000956Y-75611544D01*
X114700000Y-84062500D02*
X113977500Y-84062500D01*
X106500000Y-92800001D02*
X106499999Y-92800002D01*
X130700000Y-100970000D02*
X130730000Y-101000000D01*
X142628000Y-57398500D02*
X135068000Y-57398500D01*
X106500000Y-91300000D02*
X106500000Y-92800001D01*
X120358278Y-39875000D02*
X120375000Y-39875000D01*
X141800000Y-44262500D02*
X141837500Y-44300000D01*
X104747498Y-92382502D02*
X104249999Y-92382502D01*
X121262500Y-85800000D02*
X121262500Y-84862500D01*
X94400000Y-83160000D02*
X93722500Y-83837500D01*
X122268456Y-76767500D02*
X122000956Y-76500000D01*
X120028000Y-48898500D02*
X120028000Y-47518500D01*
X105499998Y-92800002D02*
X107000000Y-92800002D01*
X103567497Y-91700000D02*
X104249999Y-92382502D01*
X93722500Y-84760000D02*
X93722500Y-85817500D01*
X126955956Y-83425000D02*
X125437500Y-84943456D01*
X114700000Y-84062500D02*
X115000000Y-84062500D01*
X122362500Y-75250000D02*
X123412500Y-74200000D01*
X140678000Y-47518500D02*
X141528000Y-47518500D01*
X121262500Y-85800000D02*
X121262500Y-87525000D01*
X120028000Y-42472000D02*
X120028000Y-47518500D01*
X128600000Y-112830000D02*
X128450000Y-112680000D01*
X118445000Y-75175000D02*
X119070000Y-75800000D01*
X135300000Y-112537500D02*
X135890000Y-112537500D01*
X108490000Y-96772500D02*
X107100000Y-98162500D01*
X93722500Y-85817500D02*
X92600000Y-86940000D01*
X121230956Y-82775000D02*
X121230956Y-83425000D01*
X135890000Y-112537500D02*
X138000000Y-110427500D01*
X119497500Y-99490000D02*
X119497500Y-101985000D01*
X119501471Y-83600000D02*
X121055956Y-83600000D01*
X125918456Y-77843456D02*
X125918456Y-76781544D01*
X130850000Y-37750000D02*
X130500000Y-38100000D01*
X103915000Y-103525000D02*
X104120000Y-103730000D01*
X130850000Y-37000000D02*
X130850000Y-37750000D01*
X132937500Y-32762500D02*
X132900000Y-32725000D01*
X102600000Y-91700000D02*
X103567497Y-91700000D01*
X129668000Y-56158500D02*
X132988000Y-59478500D01*
X122379298Y-83425000D02*
X122520564Y-83283734D01*
X120440001Y-37599999D02*
X120050000Y-37990000D01*
X108850000Y-108162500D02*
X110462500Y-108162500D01*
X101927500Y-102875000D02*
X101927500Y-103525000D01*
X141837500Y-47018500D02*
X141837500Y-44300000D01*
X106500000Y-91300000D02*
X106530000Y-91270000D01*
X121500000Y-41000000D02*
X120028000Y-42472000D01*
X120200000Y-102687500D02*
X123872500Y-102687500D01*
X131328000Y-54498500D02*
X134648000Y-57818500D01*
X113977500Y-84062500D02*
X113360000Y-84680000D01*
X126300000Y-78225000D02*
X125918456Y-77843456D01*
X91580000Y-82680000D02*
X93660000Y-84760000D01*
X105517500Y-98162500D02*
X105330000Y-98350000D01*
X96170000Y-93630000D02*
X96002500Y-93462500D01*
X141846500Y-68900000D02*
X142628000Y-68118500D01*
X130000000Y-77137500D02*
X130000000Y-75862500D01*
X129045000Y-78092500D02*
X130000000Y-77137500D01*
X129310000Y-96502500D02*
X127347500Y-96502500D01*
X130730000Y-101000000D02*
X130730000Y-101450000D01*
X141528000Y-68118500D02*
X142628000Y-68118500D01*
X117843456Y-75175000D02*
X118445000Y-75175000D01*
X135068000Y-57398500D02*
X134648000Y-57818500D01*
X119000000Y-83098529D02*
X119501471Y-83600000D01*
X101927500Y-103525000D02*
X103915000Y-103525000D01*
X93660000Y-84760000D02*
X93722500Y-84760000D01*
X127347500Y-96502500D02*
X127310000Y-96540000D01*
X132990000Y-38135000D02*
X132200000Y-38925000D01*
X120162500Y-70000000D02*
X120162500Y-68253000D01*
X130730000Y-101450000D02*
X131306600Y-102026600D01*
X125685956Y-75500000D02*
X125685956Y-76185956D01*
X134648000Y-57818500D02*
X131328000Y-61138500D01*
X117548500Y-66748500D02*
X120028000Y-66748500D01*
X133500000Y-38135000D02*
X134435000Y-38135000D01*
X141278000Y-68900000D02*
X141846500Y-68900000D01*
X107780002Y-92350002D02*
X108249999Y-92350002D01*
X120050000Y-39566722D02*
X120358278Y-39875000D01*
X93722500Y-83837500D02*
X93722500Y-84760000D01*
X131775000Y-32725000D02*
X131600000Y-32900000D01*
X115800000Y-34300000D02*
X115162500Y-34937500D01*
X125000000Y-74200000D02*
X125685956Y-74885956D01*
X134435000Y-38135000D02*
X134500000Y-38200000D01*
X121968455Y-78875000D02*
X122268456Y-78574999D01*
X113365000Y-84685000D02*
X113360000Y-84680000D01*
X141528000Y-47328000D02*
X141837500Y-47018500D01*
X115800000Y-34300000D02*
X117400000Y-34300000D01*
X94400000Y-81800000D02*
X94400000Y-83160000D01*
X107100000Y-98162500D02*
X105517500Y-98162500D01*
X96002500Y-95100000D02*
X96002500Y-93462500D01*
X107860000Y-104400000D02*
X107860000Y-105950000D01*
X118700000Y-102687500D02*
X120200000Y-102687500D01*
X108490000Y-96120000D02*
X108490000Y-95377500D01*
X125437500Y-85100000D02*
X125337500Y-85200000D01*
X126955956Y-80175000D02*
X126218457Y-80175000D01*
X121262500Y-84862500D02*
X121100000Y-84700000D01*
X106470000Y-91270000D02*
X105860000Y-91270000D01*
X106700000Y-91270000D02*
X107780002Y-92350002D01*
X113365000Y-88500000D02*
X113365000Y-84685000D01*
X124205000Y-102355000D02*
X123940000Y-102620000D01*
X120375000Y-39875000D02*
X121500000Y-41000000D01*
X119497500Y-101985000D02*
X120200000Y-102687500D01*
X105860000Y-91270000D02*
X104747498Y-92382502D01*
X122268456Y-78574999D02*
X122825001Y-78574999D01*
X117532500Y-102687500D02*
X118700000Y-102687500D01*
X130550000Y-36700000D02*
X130850000Y-37000000D01*
X123412500Y-74200000D02*
X125000000Y-74200000D01*
X105499998Y-95100000D02*
X104430000Y-95100000D01*
X95932500Y-93392500D02*
X96002500Y-93462500D01*
X135300000Y-112537500D02*
X135007500Y-112830000D01*
X110662500Y-45290000D02*
X110662500Y-44097500D01*
X108490000Y-96120000D02*
X108490000Y-96772500D01*
X125685956Y-76185956D02*
X126100000Y-76600000D01*
X128460956Y-78225000D02*
X128593456Y-78092500D01*
X133500000Y-38135000D02*
X132990000Y-38135000D01*
X108490000Y-95377500D02*
X109367500Y-94500000D01*
X120050000Y-37990000D02*
X120050000Y-39566722D01*
X116400000Y-65600000D02*
X117548500Y-66748500D01*
X141528000Y-47518500D02*
X141528000Y-47328000D01*
X98480000Y-93630000D02*
X96170000Y-93630000D01*
X107860000Y-105950000D02*
X107680000Y-106130000D01*
X128008000Y-57818500D02*
X131328000Y-61138500D01*
X142628000Y-68118500D02*
X142628000Y-47518500D01*
X108627500Y-95982500D02*
X108490000Y-96120000D01*
X105632500Y-100500000D02*
X105632500Y-103600000D01*
X105632500Y-103600000D02*
X105500000Y-103732500D01*
X109900000Y-95982500D02*
X108627500Y-95982500D01*
X122825001Y-78574999D02*
X122900000Y-78500000D01*
X110462500Y-108162500D02*
X110700000Y-108400000D01*
X121262500Y-87525000D02*
X121637500Y-87900000D01*
X107470000Y-95100000D02*
X108490000Y-96120000D01*
X125437500Y-85100000D02*
X126300000Y-85100000D01*
X121230956Y-83425000D02*
X122379298Y-83425000D01*
X110662500Y-44097500D02*
X111160000Y-43600000D01*
X126955956Y-78225000D02*
X126300000Y-78225000D01*
X117000000Y-103260000D02*
X117000000Y-103220000D01*
X130350000Y-36700000D02*
X130550000Y-36700000D01*
X127280000Y-102355000D02*
X124205000Y-102355000D01*
X107680000Y-106992500D02*
X108850000Y-108162500D01*
X121500000Y-41000000D02*
X121500000Y-41100000D01*
X110662500Y-46790000D02*
X110662500Y-45290000D01*
X127310000Y-96540000D02*
X126255000Y-97595000D01*
X126955956Y-80175000D02*
X129600000Y-80175000D01*
X122000956Y-75611544D02*
X122362500Y-75250000D01*
X123872500Y-102687500D02*
X123940000Y-102620000D01*
X126300000Y-85100000D02*
X126700000Y-84700000D01*
X106500000Y-91300000D02*
X106470000Y-91270000D01*
X126255000Y-97595000D02*
X126255000Y-101330000D01*
X117000000Y-103220000D02*
X117532500Y-102687500D01*
X119000000Y-82907500D02*
X119000000Y-83098529D01*
X121230956Y-78875000D02*
X121968455Y-78875000D01*
%TO.N,3V3*%
X115400000Y-48200000D02*
X116600000Y-48200000D01*
X130350000Y-35900000D02*
X131215686Y-35900000D01*
X115900000Y-36800000D02*
X115900000Y-36862500D01*
X129300000Y-102300000D02*
X130095200Y-102300000D01*
X108007500Y-94275000D02*
X108232500Y-94500000D01*
X119199999Y-82092500D02*
X119750000Y-82642501D01*
X139828000Y-47518500D02*
X138978000Y-47518500D01*
X116300000Y-52100000D02*
X116300000Y-53100000D01*
X119750000Y-85587500D02*
X119537500Y-85800000D01*
X127000000Y-39400000D02*
X127800000Y-39400000D01*
X118959999Y-38934999D02*
X119125000Y-39100000D01*
X121185956Y-75798456D02*
X120637500Y-75250000D01*
X123800000Y-30900000D02*
X126800000Y-30900000D01*
X109270000Y-93530000D02*
X109620000Y-93530000D01*
X135405000Y-108173400D02*
X136999100Y-108173400D01*
X138978000Y-47518500D02*
X138978000Y-49158460D01*
X121185956Y-76500000D02*
X121185956Y-75798456D01*
X119032500Y-82125000D02*
X119000000Y-82092500D01*
X132400000Y-37000000D02*
X132200000Y-37200000D01*
X116600000Y-48200000D02*
X117100000Y-48200000D01*
X108937500Y-46790000D02*
X107730000Y-46790000D01*
X119000000Y-82092500D02*
X119199999Y-82092500D01*
X132200000Y-36884314D02*
X132200000Y-37200000D01*
X138978000Y-49158460D02*
X138994470Y-49174930D01*
X108300000Y-94500000D02*
X109270000Y-93530000D01*
X126955956Y-75955000D02*
X126500956Y-75500000D01*
X108937500Y-45290000D02*
X108937500Y-46790000D01*
X108232500Y-94500000D02*
X108300000Y-94500000D01*
X133500000Y-37000000D02*
X134500000Y-37000000D01*
X115900000Y-36862500D02*
X117237500Y-38200000D01*
X118959999Y-37599999D02*
X118959999Y-38934999D01*
X119750000Y-82642501D02*
X119750000Y-83000000D01*
X128112500Y-73112500D02*
X128637500Y-73637500D01*
X135405000Y-107609800D02*
X135405000Y-108173400D01*
X128637500Y-73637500D02*
X128637500Y-75500000D01*
X119750000Y-84850000D02*
X119750000Y-85587500D01*
X119883213Y-77575000D02*
X119879627Y-77571414D01*
X126955956Y-77575000D02*
X126955956Y-75955000D01*
X114000000Y-49800000D02*
X116300000Y-52100000D01*
X116300000Y-53100000D02*
X115300000Y-54100000D01*
X106924999Y-94275000D02*
X108007500Y-94275000D01*
X114000000Y-49600000D02*
X114000000Y-49800000D01*
X133500000Y-37000000D02*
X132400000Y-37000000D01*
X135405000Y-108173400D02*
X135405000Y-110357500D01*
X127800000Y-39400000D02*
X128300000Y-38900000D01*
X117100000Y-48200000D02*
X118500000Y-46800000D01*
X126500956Y-75500000D02*
X128637500Y-75500000D01*
X121230956Y-76545000D02*
X121185956Y-76500000D01*
X121230956Y-77575000D02*
X121230956Y-76545000D01*
X136999100Y-108173400D02*
X138000000Y-107172500D01*
X130095200Y-102300000D02*
X130687600Y-102892400D01*
X137800000Y-43600000D02*
X136200000Y-43600000D01*
X121800000Y-32900000D02*
X123800000Y-30900000D01*
X121230956Y-77575000D02*
X119883213Y-77575000D01*
X114000000Y-49600000D02*
X115400000Y-48200000D01*
X131215686Y-35900000D02*
X132200000Y-36884314D01*
X121230956Y-82125000D02*
X119032500Y-82125000D01*
X133497600Y-105702400D02*
X135405000Y-107609800D01*
X136200000Y-43600000D02*
X136000000Y-43400000D01*
X118959999Y-37599999D02*
X117837501Y-37599999D01*
X141000000Y-73700000D02*
X141000000Y-72000000D01*
X117837501Y-37599999D02*
X117237500Y-38200000D01*
X135405000Y-110357500D02*
X135300000Y-110462500D01*
%TO.N,Net-(J6-Pin_17)*%
D69*
X132900000Y-34800000D02*
X132000000Y-34800000D01*
X132900000Y-34800000D02*
X134862500Y-34800000D01*
D68*
X131500000Y-35100000D02*
X131900000Y-34700000D01*
D69*
X120440001Y-36599998D02*
X122200000Y-36599998D01*
X132600000Y-35100000D02*
X132900000Y-34800000D01*
X120700000Y-34800000D02*
X120700000Y-36339999D01*
D68*
X130350000Y-35100000D02*
X131500000Y-35100000D01*
D69*
X134900000Y-34837500D02*
X136900000Y-34837500D01*
X131900000Y-34700000D02*
X132175000Y-34700000D01*
X134862500Y-34800000D02*
X134900000Y-34837500D01*
X132000000Y-34800000D02*
X131900000Y-34700000D01*
X120700000Y-36339999D02*
X120440001Y-36599998D01*
X122200000Y-36599998D02*
X122299998Y-36599998D01*
%TO.N,Net-(U5-OUTR)*%
D68*
X118205956Y-81475000D02*
X117843456Y-81837500D01*
X121230956Y-81475000D02*
X118205956Y-81475000D01*
%TO.N,OUTR*%
X129320000Y-107490000D02*
X125070000Y-103240000D01*
X118854485Y-83662500D02*
X117843456Y-83662500D01*
X123362500Y-85100000D02*
X123362500Y-87192500D01*
X119291984Y-84100000D02*
X118854485Y-83662500D01*
X121400000Y-84100000D02*
X119291984Y-84100000D01*
X123362500Y-85100000D02*
X122400000Y-85100000D01*
X123287500Y-85025000D02*
X123362500Y-85100000D01*
X122400000Y-85100000D02*
X121400000Y-84100000D01*
X123362500Y-87192500D02*
X123410000Y-87240000D01*
X129320000Y-108322500D02*
X129320000Y-107490000D01*
%TO.N,Net-(U6-IO61)*%
X140678000Y-68118500D02*
X140678000Y-68422000D01*
X140678000Y-69878000D02*
X141000000Y-70200000D01*
X140678000Y-68118500D02*
X140678000Y-69878000D01*
X140678000Y-68422000D02*
X139400000Y-69700000D01*
X140730000Y-68080000D02*
X140750000Y-68100000D01*
%TO.N,Net-(U6-EN)*%
X139762500Y-42800000D02*
X139762500Y-44300000D01*
X138128000Y-47518500D02*
X138128000Y-45928000D01*
X139100000Y-44300000D02*
X139762500Y-44300000D01*
X138128000Y-45928000D02*
X137800000Y-45600000D01*
X137800000Y-45600000D02*
X139100000Y-44300000D01*
X138128000Y-47518500D02*
X138128000Y-47234500D01*
%TO.N,Net-(U7-FB)*%
X118959999Y-36599998D02*
X117874998Y-36599998D01*
X118875000Y-34800000D02*
X118875000Y-36514999D01*
X117874998Y-36599998D02*
X117400000Y-36125000D01*
X118875000Y-36514999D02*
X118959999Y-36599998D01*
%TO.N,Net-(J2-CC1)*%
X120200000Y-106950000D02*
X120200000Y-104512500D01*
X120250000Y-107000000D02*
X120200000Y-106950000D01*
%TO.N,+BATT*%
D69*
X111157500Y-96800000D02*
X109900000Y-98057500D01*
D68*
X124974265Y-72200000D02*
X124974265Y-72174265D01*
D69*
X94020000Y-105610000D02*
X94515000Y-106105000D01*
X94515000Y-97287500D02*
X94515000Y-106105000D01*
X94515000Y-106105000D02*
X96560000Y-108150000D01*
X96560000Y-108150000D02*
X101832500Y-108150000D01*
X112095000Y-96800000D02*
X111280000Y-97615000D01*
X97067500Y-91510000D02*
X97067500Y-92782500D01*
X97010000Y-92840000D02*
X97030000Y-92860000D01*
X93330000Y-100077500D02*
X94020000Y-100767500D01*
X101832500Y-108150000D02*
X95950000Y-108150000D01*
X112095000Y-96800000D02*
X111157500Y-96800000D01*
X124400000Y-72000000D02*
X115400000Y-72000000D01*
X97067500Y-92782500D02*
X97010000Y-92840000D01*
X95202500Y-96600000D02*
X94515000Y-97287500D01*
X94020000Y-100767500D02*
X94020000Y-105610000D01*
X115400000Y-72000000D02*
X115350000Y-71950000D01*
X95950000Y-108150000D02*
X92100000Y-104300000D01*
X111280000Y-97615000D02*
X111280000Y-99670000D01*
X97030000Y-92860000D02*
X98650000Y-92860000D01*
%TO.N,Net-(D1-K)*%
X90400000Y-94842500D02*
X91340000Y-95782500D01*
X91340000Y-95782500D02*
X91340000Y-94900000D01*
X91340000Y-94900000D02*
X91810000Y-94430000D01*
D68*
X107717500Y-30950000D02*
X90505000Y-48162500D01*
X90505000Y-83680000D02*
X90505000Y-48162500D01*
X91580000Y-84755000D02*
X90505000Y-83680000D01*
D69*
X91580000Y-84755000D02*
X90400000Y-85935000D01*
X90400000Y-85935000D02*
X90400000Y-94842500D01*
%TO.N,CS*%
D68*
X128778000Y-44412314D02*
X128778000Y-47518500D01*
X128995868Y-38747340D02*
X128995868Y-44194446D01*
X127000000Y-37400000D02*
X127700000Y-36700000D01*
X128995868Y-44194446D02*
X128778000Y-44412314D01*
X127000000Y-37400000D02*
X127648528Y-37400000D01*
X127700000Y-36700000D02*
X128650000Y-36700000D01*
X127648528Y-37400000D02*
X128995868Y-38747340D01*
%TO.N,3V3-2*%
X106920000Y-101900000D02*
X106920000Y-100652500D01*
X108440000Y-98827500D02*
X108440000Y-98550000D01*
X108474998Y-93485002D02*
X109160000Y-92800000D01*
X106924999Y-93575001D02*
X108160000Y-93575001D01*
X108249999Y-93485002D02*
X108474998Y-93485002D01*
X106920000Y-100652500D02*
X106767500Y-100500000D01*
X106767500Y-100500000D02*
X108440000Y-98827500D01*
X108160000Y-93575001D02*
X108249999Y-93485002D01*
X108249999Y-93485002D02*
X108484998Y-93485002D01*
%TO.N,OUTL*%
X130587500Y-95615000D02*
X133312500Y-98340000D01*
X119562500Y-87900000D02*
X127277500Y-95615000D01*
X117843456Y-87000000D02*
X118662500Y-87000000D01*
X127277500Y-95615000D02*
X130587500Y-95615000D01*
X118662500Y-87000000D02*
X119562500Y-87900000D01*
%TO.N,Net-(C14-Pad2)*%
X135387500Y-98340000D02*
X136087500Y-98340000D01*
X135387500Y-98575000D02*
X133902500Y-100060000D01*
X136087500Y-98340000D02*
X136860000Y-99112500D01*
X135387500Y-98340000D02*
X135387500Y-98575000D01*
%TO.N,Net-(U5-LDOO)*%
X126955956Y-78875000D02*
X128560956Y-78875000D01*
X129980000Y-78907500D02*
X130137500Y-78750000D01*
X128560956Y-78875000D02*
X128593456Y-78907500D01*
X129955000Y-78907500D02*
X130000000Y-78862500D01*
X128593456Y-78907500D02*
X129955000Y-78907500D01*
%TO.N,Net-(J2-CC2)*%
X119250000Y-106290000D02*
X118700000Y-105740000D01*
X119250000Y-107000000D02*
X119250000Y-106290000D01*
X118700000Y-105740000D02*
X118700000Y-104512500D01*
%TO.N,Net-(C20-Pad2)*%
X130800000Y-110397500D02*
X132100000Y-111697500D01*
X131352500Y-112430000D02*
X132367500Y-112430000D01*
X129320000Y-110397500D02*
X130800000Y-110397500D01*
X129320000Y-110397500D02*
X131352500Y-112430000D01*
X132367500Y-112430000D02*
X133100000Y-111697500D01*
%TO.N,U7_EN*%
X118959999Y-37099997D02*
X117099997Y-37099997D01*
X114202625Y-59266701D02*
X117434424Y-62498500D01*
X117434424Y-62498500D02*
X120028000Y-62498500D01*
X117099997Y-37099997D02*
X115900000Y-35900000D01*
%TO.N,Net-(U7-SW)*%
X121300000Y-37374999D02*
X121300000Y-38675000D01*
X121024998Y-37099997D02*
X121300000Y-37374999D01*
X120440001Y-37099997D02*
X121024998Y-37099997D01*
X121300000Y-38675000D02*
X120875000Y-39100000D01*
%TO.N,ButtonState*%
X91810000Y-91790000D02*
X92230000Y-91370000D01*
X124528000Y-49872000D02*
X124528000Y-47518500D01*
X124528000Y-46272000D02*
X124528000Y-47518500D01*
X91810000Y-92330000D02*
X91810000Y-91790000D01*
X125100000Y-45700000D02*
X124528000Y-46272000D01*
X124500000Y-49900000D02*
X124528000Y-49872000D01*
%TO.N,Net-(U4-3_INA+)*%
X131595000Y-103982400D02*
X131595000Y-108173400D01*
X132865000Y-101340800D02*
X132865000Y-102026600D01*
X129300000Y-100300000D02*
X129300000Y-98587500D01*
X131824200Y-100300000D02*
X132865000Y-101340800D01*
X129300000Y-98587500D02*
X129310000Y-98577500D01*
X132865000Y-102712400D02*
X131595000Y-103982400D01*
X132865000Y-102026600D02*
X132865000Y-102712400D01*
X129070000Y-100300000D02*
X127310000Y-98540000D01*
X129300000Y-100300000D02*
X127300000Y-100300000D01*
X129300000Y-100300000D02*
X131824200Y-100300000D01*
X127300000Y-100300000D02*
X127280000Y-100280000D01*
X129300000Y-100300000D02*
X129070000Y-100300000D01*
%TO.N,OutL*%
X138500000Y-100400000D02*
X137430000Y-100400000D01*
X135405000Y-102026600D02*
X135405000Y-101762500D01*
X137430000Y-100400000D02*
X135803400Y-102026600D01*
X135405000Y-101762500D02*
X136860000Y-100307500D01*
X135803400Y-102026600D02*
X135405000Y-102026600D01*
%TO.N,DAT3*%
X119828000Y-52298500D02*
X118026500Y-54100000D01*
X120028000Y-52298500D02*
X119828000Y-52298500D01*
X118026500Y-54100000D02*
X117300000Y-54100000D01*
X117300000Y-54100000D02*
X116460000Y-54100000D01*
X116460000Y-54100000D02*
X116420000Y-54060000D01*
%TO.N,Net-(U3-OD)*%
X101670000Y-101967500D02*
X101927500Y-102225000D01*
X100237500Y-99392500D02*
X100230000Y-99400000D01*
X101670000Y-101290000D02*
X101670000Y-101967500D01*
X100237500Y-98350000D02*
X100237500Y-99392500D01*
%TO.N,Net-(U3-OC)*%
X100237500Y-96450000D02*
X100899999Y-96450000D01*
X101340000Y-96890001D02*
X101340000Y-99230000D01*
X100899999Y-96450000D02*
X101340000Y-96890001D01*
X98345000Y-102225000D02*
X96167500Y-102225000D01*
X101340000Y-99230000D02*
X98345000Y-102225000D01*
%TO.N,-BATT*%
D69*
X99412956Y-103525000D02*
X102398978Y-106511022D01*
X96167500Y-102875000D02*
X96167500Y-103525000D01*
X95037500Y-100925000D02*
X95037500Y-104492072D01*
X102398978Y-106511022D02*
X103182500Y-107294544D01*
X96362500Y-99600000D02*
X96200000Y-99762500D01*
X96167500Y-103525000D02*
X99412956Y-103525000D01*
X97962500Y-98350000D02*
X97962500Y-99437500D01*
X97056450Y-106511022D02*
X102398978Y-106511022D01*
X97800000Y-99600000D02*
X96362500Y-99600000D01*
X95037500Y-104492072D02*
X97056450Y-106511022D01*
X103182500Y-107294544D02*
X103182500Y-109300000D01*
X103182500Y-109300000D02*
X101832500Y-110650000D01*
X96200000Y-99762500D02*
X95037500Y-100925000D01*
X97962500Y-99437500D02*
X97800000Y-99600000D01*
%TO.N,Net-(U4-2_INA-)*%
D68*
X135097500Y-100060000D02*
X134135000Y-101022500D01*
X134135000Y-101022500D02*
X134135000Y-102026600D01*
%TO.N,VBUS*%
D69*
X110700000Y-102400000D02*
X114130000Y-102400000D01*
X115905000Y-100150000D02*
X115905000Y-96800000D01*
X106920000Y-103475000D02*
X107520000Y-102875000D01*
X115905000Y-101007500D02*
X115905000Y-100150000D01*
D68*
X106452500Y-104867500D02*
X106920000Y-104400000D01*
D69*
X106920000Y-104400000D02*
X106920000Y-103475000D01*
X115905000Y-101007500D02*
X115905000Y-104175000D01*
X112095000Y-88515000D02*
X111110000Y-89500000D01*
X111110000Y-89470000D02*
X111110000Y-89500000D01*
X112095000Y-88500000D02*
X112095000Y-88515000D01*
X116092500Y-96987500D02*
X115905000Y-96800000D01*
X112282688Y-99160000D02*
X114915000Y-99160000D01*
X114915000Y-99160000D02*
X115905000Y-100150000D01*
D68*
X105500000Y-104867500D02*
X106452500Y-104867500D01*
D69*
X117422500Y-99490000D02*
X115905000Y-101007500D01*
X115905000Y-104175000D02*
X114130000Y-102400000D01*
X118230000Y-107000000D02*
X118230000Y-106500000D01*
X110225000Y-102875000D02*
X110700000Y-102400000D01*
X118230000Y-106500000D02*
X115905000Y-104175000D01*
X107520000Y-102875000D02*
X110225000Y-102875000D01*
%TO.N,Net-(IC1-EN)*%
D68*
X108800000Y-104400000D02*
X110700000Y-104400000D01*
X108800000Y-106387500D02*
X108850000Y-106437500D01*
X108800000Y-104400000D02*
X108800000Y-106387500D01*
X108800000Y-104500000D02*
X110700000Y-106400000D01*
X108800000Y-104400000D02*
X108800000Y-104500000D01*
%TO.N,DAT2*%
X120028000Y-51448500D02*
X119791500Y-51448500D01*
X119130000Y-52110000D02*
X118310000Y-52110000D01*
X118300000Y-52100000D02*
X118300000Y-51980000D01*
X118300000Y-51980000D02*
X119070000Y-51210000D01*
X118310000Y-52110000D02*
X118300000Y-52100000D01*
X119791500Y-51448500D02*
X119130000Y-52110000D01*
%TO.N,Net-(U4-6_INB-)*%
X132100000Y-109624200D02*
X132100000Y-110502500D01*
X132865000Y-108173400D02*
X132865000Y-108859200D01*
X132865000Y-108859200D02*
X132100000Y-109624200D01*
%TO.N,Net-(D2-A)*%
D69*
X91330000Y-100180000D02*
X91330000Y-97892500D01*
X93060000Y-90230000D02*
X91650000Y-88820000D01*
X93050000Y-102425000D02*
X93050000Y-101900000D01*
X91340000Y-97882500D02*
X93060000Y-96162500D01*
X91330000Y-97892500D02*
X91340000Y-97882500D01*
D68*
X91460000Y-98002500D02*
X91340000Y-97882500D01*
D69*
X93060000Y-96162500D02*
X93060000Y-90230000D01*
X93050000Y-101900000D02*
X91330000Y-100180000D01*
D68*
X93330000Y-98002500D02*
X91460000Y-98002500D01*
%TO.N,Net-(U6-IO42)*%
X122846500Y-70000000D02*
X122237500Y-70000000D01*
X124528000Y-68118500D02*
X124528000Y-69872000D01*
X124528000Y-68318500D02*
X122846500Y-70000000D01*
X124528000Y-69872000D02*
X124400000Y-70000000D01*
X124528000Y-68118500D02*
X124528000Y-68318500D01*
%TO.N,DAT0*%
X120028000Y-49748500D02*
X119448500Y-49748500D01*
X118500000Y-49998500D02*
X118500000Y-48800000D01*
X119448500Y-49748500D02*
X118500000Y-48800000D01*
%TO.N,Up*%
X133878000Y-47518500D02*
X133878000Y-49978000D01*
X133878000Y-49978000D02*
X133900000Y-50000000D01*
%TO.N,Down*%
X133028000Y-49272000D02*
X132900000Y-49400000D01*
X133028000Y-47518500D02*
X133028000Y-49272000D01*
%TO.N,Button*%
X125200000Y-52500000D02*
X125378000Y-52322000D01*
X125378000Y-52322000D02*
X125378000Y-47518500D01*
%TO.N,Net-(Q2-B)*%
X93550000Y-88820000D02*
X95340000Y-88820000D01*
X95340000Y-88820000D02*
X95350000Y-88830000D01*
%TO.N,PowerLatch*%
X111651500Y-63348500D02*
X120028000Y-63348500D01*
X95797500Y-79202500D02*
X111651500Y-63348500D01*
X95797500Y-84760000D02*
X95797500Y-86382500D01*
X95797500Y-84760000D02*
X95797500Y-79202500D01*
X95797500Y-86382500D02*
X95350000Y-86830000D01*
%TO.N,Net-(U1-TEMP)*%
X116000000Y-85862500D02*
X116000000Y-88405000D01*
X116000000Y-88405000D02*
X115905000Y-88500000D01*
%TO.N,Net-(U1-PROG)*%
X114700000Y-88435000D02*
X114635000Y-88500000D01*
X114700000Y-85887500D02*
X114700000Y-88435000D01*
%TO.N,TX0*%
X138128000Y-68118500D02*
X138128000Y-68468500D01*
X134723960Y-69875000D02*
X134600000Y-69998960D01*
X138128000Y-68468500D02*
X136721500Y-69875000D01*
X134600000Y-69998960D02*
X134600000Y-70600000D01*
X136721500Y-69875000D02*
X134723960Y-69875000D01*
%TO.N,RX0*%
X138978000Y-68118500D02*
X138978000Y-68822000D01*
X138978000Y-68822000D02*
X138200000Y-69600000D01*
%TO.N,Net-(U3-CS)*%
X100237500Y-97400000D02*
X99575001Y-97400000D01*
X99575001Y-97400000D02*
X98995000Y-97980001D01*
X98995000Y-97980001D02*
X98995000Y-99600000D01*
%TO.N,Net-(U3-VCC)*%
X97197500Y-97400000D02*
X97962500Y-97400000D01*
X96837500Y-97400000D02*
X96200000Y-98037500D01*
X97962500Y-97400000D02*
X96837500Y-97400000D01*
X96397500Y-96600000D02*
X97197500Y-97400000D01*
%TO.N,Net-(U6-IO37)*%
X120028000Y-65898500D02*
X118698500Y-65898500D01*
X118698500Y-65898500D02*
X118400000Y-65600000D01*
%TO.N,EN*%
X91150000Y-101070000D02*
X91160000Y-101060000D01*
X98650000Y-94740000D02*
X97557500Y-94740000D01*
X97557500Y-94740000D02*
X97197500Y-95100000D01*
X97310000Y-94740000D02*
X96800000Y-94230000D01*
X91150000Y-102425000D02*
X91150000Y-101070000D01*
X98650000Y-94740000D02*
X97310000Y-94740000D01*
%TO.N,3V3-1*%
X102575000Y-92860000D02*
X102600000Y-92835000D01*
X104310000Y-93577503D02*
X104249999Y-93517502D01*
X101150000Y-92860000D02*
X102575000Y-92860000D01*
X103567497Y-92835000D02*
X104249999Y-93517502D01*
X104249999Y-93517502D02*
X105517500Y-93517502D01*
X102600000Y-92835000D02*
X103567497Y-92835000D01*
X105517500Y-93517502D02*
X105574999Y-93575001D01*
%TO.N,Net-(U2-ILM)*%
X105999999Y-95680001D02*
X105330000Y-96350000D01*
X105999999Y-95100000D02*
X105999999Y-95680001D01*
%TO.N,Net-(U2-SS)*%
X106499999Y-95100000D02*
X106499999Y-95837499D01*
X106499999Y-95837499D02*
X107100000Y-96437500D01*
%TO.N,DAT1*%
X120028000Y-50598500D02*
X116998500Y-50598500D01*
X115530000Y-50200000D02*
X115389265Y-50340735D01*
X116998500Y-50598500D02*
X116600000Y-50200000D01*
X116600000Y-50200000D02*
X115530000Y-50200000D01*
%TO.N,SD3*%
X123678000Y-39878000D02*
X123678000Y-47518500D01*
X127900000Y-34300000D02*
X126600000Y-33000000D01*
X123675735Y-39875735D02*
X123678000Y-39878000D01*
X128650000Y-34300000D02*
X127900000Y-34300000D01*
%TO.N,SD2*%
X126372778Y-34198302D02*
X127146832Y-34198302D01*
X124300000Y-41100000D02*
X126228000Y-43028000D01*
X127648531Y-34700000D02*
X128650000Y-34700000D01*
X127146832Y-34198302D02*
X127648531Y-34700000D01*
X126228000Y-43028000D02*
X126228000Y-47518500D01*
X124300000Y-39100000D02*
X124300000Y-41100000D01*
%TO.N,SD0*%
X127200000Y-35100000D02*
X126900000Y-34800000D01*
X126900000Y-34800000D02*
X126800000Y-34700000D01*
X128650000Y-35100000D02*
X127200000Y-35100000D01*
X127928000Y-40772000D02*
X128395868Y-40304132D01*
X128395868Y-40304132D02*
X128395868Y-39694238D01*
X127928000Y-40772000D02*
X127928000Y-47518500D01*
%TO.N,RST*%
X126600000Y-35500000D02*
X125200000Y-34100000D01*
X122828000Y-35372000D02*
X122828000Y-47518500D01*
X125200000Y-33000000D02*
X122828000Y-35372000D01*
X128650000Y-35500000D02*
X126600000Y-35500000D01*
X125200000Y-34100000D02*
X125200000Y-33000000D01*
%TO.N,SCL*%
X129600000Y-46028919D02*
X129628000Y-46056919D01*
X129628000Y-46056919D02*
X129628000Y-47518500D01*
X129600000Y-46000000D02*
X129600000Y-46028919D01*
X128650000Y-35900000D02*
X126134314Y-35900000D01*
X125400000Y-41200000D02*
X126200000Y-42000000D01*
X126134314Y-35900000D02*
X125400000Y-36634315D01*
X125400000Y-36634315D02*
X125400000Y-41200000D01*
%TO.N,SD1*%
X125800000Y-36800000D02*
X125800000Y-40400000D01*
X126300000Y-36300000D02*
X125800000Y-36800000D01*
X128650000Y-36300000D02*
X126300000Y-36300000D01*
X125800000Y-40400000D02*
X127078000Y-41678000D01*
X127078000Y-41678000D02*
X127078000Y-47518500D01*
%TO.N,TE*%
X131300000Y-39200000D02*
X129600000Y-40900000D01*
X121991962Y-45913137D02*
X121991962Y-47504538D01*
X121991962Y-47504538D02*
X121978000Y-47518500D01*
X130350000Y-36300000D02*
X131050000Y-36300000D01*
X131050000Y-36300000D02*
X131300000Y-36550000D01*
X131300000Y-36550000D02*
X131300000Y-39200000D01*
X122000000Y-45905099D02*
X121991962Y-45913137D01*
%TO.N,VCI_EN*%
X131700000Y-35500000D02*
X132100000Y-35900000D01*
X121128000Y-45872000D02*
X121200000Y-45800000D01*
X121128000Y-47518500D02*
X121128000Y-45872000D01*
X130350000Y-35500000D02*
X131700000Y-35500000D01*
%TO.N,Net-(U5-CAPM)*%
X121230956Y-79525000D02*
X118680956Y-79525000D01*
X118680956Y-79525000D02*
X117843456Y-80362500D01*
%TO.N,Net-(U5-CAPP)*%
X118255956Y-78225000D02*
X121230956Y-78225000D01*
X117843456Y-78637500D02*
X118255956Y-78225000D01*
%TO.N,Net-(U5-VNEG)*%
X118093456Y-77250000D02*
X117843456Y-77000000D01*
X121230956Y-80175000D02*
X119168456Y-80175000D01*
X118843456Y-77250000D02*
X118093456Y-77250000D01*
%TO.N,Net-(U5-OUTL)*%
X118518456Y-84500000D02*
X117843456Y-85175000D01*
X118843456Y-84500000D02*
X118518456Y-84500000D01*
X121230956Y-80825000D02*
X119768456Y-80825000D01*
%TO.N,SCK*%
X134728000Y-47518500D02*
X134728000Y-52772000D01*
X130470228Y-82775000D02*
X126955956Y-82775000D01*
X133422614Y-79822614D02*
X130470228Y-82775000D01*
X134728000Y-52772000D02*
X134700000Y-52800000D01*
%TO.N,BCK*%
X130275000Y-82125000D02*
X130400000Y-82000000D01*
X132178000Y-47518500D02*
X132178000Y-52578000D01*
X126955956Y-82125000D02*
X130275000Y-82125000D01*
X132178000Y-52578000D02*
X132200000Y-52600000D01*
%TO.N,DIN*%
X130478000Y-51873471D02*
X130441571Y-51909900D01*
X130478000Y-47518500D02*
X130478000Y-51873471D01*
X126955956Y-81475000D02*
X129725000Y-81475000D01*
%TO.N,LRCK*%
X126955956Y-80825000D02*
X130475000Y-80825000D01*
X131256000Y-52200000D02*
X131328000Y-52128000D01*
X130475000Y-80825000D02*
X130800000Y-80500000D01*
X131328000Y-52128000D02*
X131328000Y-47518500D01*
X131200000Y-52200000D02*
X131256000Y-52200000D01*
%TO.N,XSMT*%
X124400000Y-77706543D02*
X124400000Y-75000000D01*
X121398500Y-64198500D02*
X121400000Y-64200000D01*
X126955956Y-79525000D02*
X126218457Y-79525000D01*
X126218457Y-79525000D02*
X124400000Y-77706543D01*
X120028000Y-64198500D02*
X121398500Y-64198500D01*
%TO.N,DET_B*%
X136400000Y-48600000D02*
X136400000Y-48456000D01*
X112035157Y-56300000D02*
X107874062Y-52138905D01*
X117400000Y-56100000D02*
X117200000Y-56300000D01*
X117200000Y-56300000D02*
X112035157Y-56300000D01*
X136428000Y-48428000D02*
X136428000Y-47518500D01*
X136400000Y-48456000D02*
X136428000Y-48428000D01*
%TO.N,CLK*%
X119836244Y-53148500D02*
X120028000Y-53148500D01*
X111612500Y-48212500D02*
X114060000Y-50660000D01*
X114060000Y-54444744D02*
X114715256Y-55100000D01*
X107787500Y-48212500D02*
X111612500Y-48212500D01*
X114715256Y-55100000D02*
X117884744Y-55100000D01*
X117884744Y-55100000D02*
X119836244Y-53148500D01*
X114060000Y-50660000D02*
X114060000Y-54444744D01*
%TO.N,CMD*%
X113660000Y-53172500D02*
X113660000Y-54610430D01*
X114549571Y-55500000D02*
X118300000Y-55500000D01*
X113660000Y-54610430D02*
X114549571Y-55500000D01*
X109300000Y-48812500D02*
X113660000Y-53172500D01*
X119801500Y-53998500D02*
X120028000Y-53998500D01*
X118300000Y-55500000D02*
X119801500Y-53998500D01*
%TO.N,OutR*%
X134135000Y-108173400D02*
X134135000Y-108805000D01*
X134135000Y-109833024D02*
X134135000Y-108173400D01*
X134124607Y-109843417D02*
X134135000Y-109833024D01*
X134135000Y-108805000D02*
X133100000Y-109840000D01*
X133100000Y-109840000D02*
X133100000Y-110502500D01*
%TO.N,Net-(J2-SHIELD)*%
X115430000Y-112325000D02*
X124070000Y-112325000D01*
X115430000Y-108525000D02*
X115430000Y-112325000D01*
X124070000Y-107410000D02*
X124070000Y-108525000D01*
X124070000Y-112325000D02*
X124070000Y-108525000D01*
X124480000Y-107000000D02*
X124070000Y-107410000D01*
X125060000Y-107000000D02*
X124480000Y-107000000D01*
%TD*%
M02*
