%TF.GenerationSoftware,KiCad,Pcbnew,10.0.4*%
%TF.CreationDate,2026-09-19T19:46:46+08:00*%
%TF.ProjectId,Jmp3,4a6d7033-2e6b-4696-9361-645f70636258,rev?*%
%TF.SameCoordinates,Original*%
%TF.FileFunction,Copper,L4,Bot*%
%TF.FilePolarity,Positive*%
%FSLAX46Y46*%
G04 Gerber Fmt 4.6, Leading zero omitted, Abs format (unit mm)*
G04 Created by KiCad (PCBNEW 10.0.4) date 2026-09-19 19:46:46*
%MOMM*%
%LPD*%
G01*
G04 APERTURE LIST*
G04 Aperture macros list*
%AMRoundRect*
0 Rectangle with rounded corners*
0 $1 Rounding radius*
0 $2 $3 $4 $5 $6 $7 $8 $9 X,Y pos of 4 corners*
0 Add a 4 corners polygon primitive as box body*
4,1,4,$2,$3,$4,$5,$6,$7,$8,$9,$2,$3,0*
0 Add four circle primitives for the rounded corners*
1,1,$1+$1,$2,$3*
1,1,$1+$1,$4,$5*
1,1,$1+$1,$6,$7*
1,1,$1+$1,$8,$9*
0 Add four rect primitives between the rounded corners*
20,1,$1+$1,$2,$3,$4,$5,0*
20,1,$1+$1,$4,$5,$6,$7,0*
20,1,$1+$1,$6,$7,$8,$9,0*
20,1,$1+$1,$8,$9,$2,$3,0*%
G04 Aperture macros list end*
%TA.AperFunction,ComponentPad*%
%ADD10R,2.000000X2.000000*%
%TD*%
%TA.AperFunction,ComponentPad*%
%ADD11C,2.000000*%
%TD*%
%TA.AperFunction,ComponentPad*%
%ADD12R,3.200000X2.000000*%
%TD*%
%TA.AperFunction,ComponentPad*%
%ADD13R,0.850000X0.850000*%
%TD*%
%TA.AperFunction,ComponentPad*%
%ADD14C,0.850000*%
%TD*%
%TA.AperFunction,SMDPad,CuDef*%
%ADD15RoundRect,0.237500X0.237500X-0.300000X0.237500X0.300000X-0.237500X0.300000X-0.237500X-0.300000X0*%
%TD*%
%TA.AperFunction,SMDPad,CuDef*%
%ADD16RoundRect,0.250000X0.337500X0.475000X-0.337500X0.475000X-0.337500X-0.475000X0.337500X-0.475000X0*%
%TD*%
%TA.AperFunction,ComponentPad*%
%ADD17C,1.200000*%
%TD*%
%TA.AperFunction,SMDPad,CuDef*%
%ADD18R,3.000000X1.500000*%
%TD*%
%TA.AperFunction,SMDPad,CuDef*%
%ADD19R,1.200000X0.700000*%
%TD*%
%TA.AperFunction,SMDPad,CuDef*%
%ADD20R,0.800000X1.000000*%
%TD*%
%TA.AperFunction,SMDPad,CuDef*%
%ADD21R,2.800000X1.000000*%
%TD*%
%TA.AperFunction,SMDPad,CuDef*%
%ADD22R,1.200000X1.000000*%
%TD*%
%TA.AperFunction,SMDPad,CuDef*%
%ADD23R,1.900000X1.300000*%
%TD*%
%TA.AperFunction,SMDPad,CuDef*%
%ADD24RoundRect,0.250000X-0.337500X-0.475000X0.337500X-0.475000X0.337500X0.475000X-0.337500X0.475000X0*%
%TD*%
%TA.AperFunction,ComponentPad*%
%ADD25RoundRect,0.250000X-0.750000X0.600000X-0.750000X-0.600000X0.750000X-0.600000X0.750000X0.600000X0*%
%TD*%
%TA.AperFunction,ComponentPad*%
%ADD26O,2.000000X1.700000*%
%TD*%
%TA.AperFunction,ComponentPad*%
%ADD27C,2.400000*%
%TD*%
%TA.AperFunction,SMDPad,CuDef*%
%ADD28RoundRect,0.237500X0.237500X-0.250000X0.237500X0.250000X-0.237500X0.250000X-0.237500X-0.250000X0*%
%TD*%
%TA.AperFunction,SMDPad,CuDef*%
%ADD29RoundRect,0.175000X0.175000X0.425000X-0.175000X0.425000X-0.175000X-0.425000X0.175000X-0.425000X0*%
%TD*%
%TA.AperFunction,SMDPad,CuDef*%
%ADD30RoundRect,0.190000X-0.190000X-0.410000X0.190000X-0.410000X0.190000X0.410000X-0.190000X0.410000X0*%
%TD*%
%TA.AperFunction,SMDPad,CuDef*%
%ADD31RoundRect,0.200000X-0.200000X-0.400000X0.200000X-0.400000X0.200000X0.400000X-0.200000X0.400000X0*%
%TD*%
%TA.AperFunction,SMDPad,CuDef*%
%ADD32RoundRect,0.175000X-0.175000X-0.425000X0.175000X-0.425000X0.175000X0.425000X-0.175000X0.425000X0*%
%TD*%
%TA.AperFunction,SMDPad,CuDef*%
%ADD33RoundRect,0.190000X0.190000X0.410000X-0.190000X0.410000X-0.190000X-0.410000X0.190000X-0.410000X0*%
%TD*%
%TA.AperFunction,SMDPad,CuDef*%
%ADD34RoundRect,0.200000X0.200000X0.400000X-0.200000X0.400000X-0.200000X-0.400000X0.200000X-0.400000X0*%
%TD*%
%TA.AperFunction,ComponentPad*%
%ADD35O,1.100000X1.700000*%
%TD*%
%TA.AperFunction,SMDPad,CuDef*%
%ADD36R,0.900000X1.700000*%
%TD*%
%TA.AperFunction,SMDPad,CuDef*%
%ADD37R,1.700000X0.900000*%
%TD*%
%TA.AperFunction,ViaPad*%
%ADD38C,0.600000*%
%TD*%
%TA.AperFunction,Conductor*%
%ADD39C,0.200000*%
%TD*%
%TA.AperFunction,Conductor*%
%ADD40C,0.300000*%
%TD*%
G04 APERTURE END LIST*
D10*
%TO.P,SW2,A,A_A*%
%TO.N,Up*%
X148000000Y-92700000D03*
D11*
%TO.P,SW2,B,B_B*%
%TO.N,Down*%
X148000000Y-87700000D03*
%TO.P,SW2,C,C_C*%
%TO.N,AGND*%
X148000000Y-90200000D03*
D12*
%TO.P,SW2,MP*%
%TO.N,N/C*%
X140500000Y-95800000D03*
X140500000Y-84600000D03*
D11*
%TO.P,SW2,S1,S1_S1*%
%TO.N,Button*%
X133500000Y-87700000D03*
%TO.P,SW2,S2,S2_S2*%
%TO.N,AGND*%
X133500000Y-92700000D03*
%TD*%
D13*
%TO.P,J5,1,Pin_1_1*%
%TO.N,AGND*%
X135600000Y-70600000D03*
D14*
%TO.P,J5,2,Pin_2_2*%
%TO.N,TX0*%
X134600000Y-70600000D03*
%TO.P,J5,3,Pin_3_3*%
%TO.N,RX0*%
X133600000Y-70600000D03*
%TO.P,J5,4,Pin_4_4*%
%TO.N,3V3*%
X132600000Y-70600000D03*
%TD*%
D15*
%TO.P,C16,1*%
%TO.N,AGND*%
X126000000Y-108962500D03*
%TO.P,C16,2*%
%TO.N,Net-(J2-SHIELD)*%
X126000000Y-107237500D03*
%TD*%
D16*
%TO.P,C26,1*%
%TO.N,Net-(Audio1-Pad3)*%
X134737500Y-107300000D03*
%TO.P,C26,2*%
%TO.N,OutR*%
X132662500Y-107300000D03*
%TD*%
D17*
%TO.P,Audio1,*%
%TO.N,*%
X143000000Y-104900000D03*
X143000000Y-110800000D03*
D18*
%TO.P,Audio1,1,1_1*%
%TO.N,AGND*%
X139000000Y-110800000D03*
%TO.P,Audio1,2,2_2*%
%TO.N,Net-(Audio1-Pad2)*%
X147000000Y-108800000D03*
%TO.P,Audio1,3,3_3*%
%TO.N,Net-(Audio1-Pad3)*%
X139000000Y-103800000D03*
%TD*%
D19*
%TO.P,J4,1,DAT2_1*%
%TO.N,DAT2*%
X106380000Y-43500000D03*
%TO.P,J4,2,DAT3/CD_2*%
%TO.N,DAT3*%
X106380000Y-44600000D03*
%TO.P,J4,3,CMD_3*%
%TO.N,CMD*%
X106380000Y-45700000D03*
%TO.P,J4,4,VDD_4*%
%TO.N,3V3*%
X106380000Y-46800000D03*
%TO.P,J4,5,CLK_5*%
%TO.N,CLK*%
X106380000Y-47900000D03*
%TO.P,J4,6,VSS_6*%
%TO.N,AGND*%
X106380000Y-49000000D03*
%TO.P,J4,7,DAT0_7*%
%TO.N,DAT0*%
X106380000Y-50100000D03*
%TO.P,J4,8,DAT1_8*%
%TO.N,DAT1*%
X106380000Y-51200000D03*
%TO.P,J4,9,DET_B_9*%
%TO.N,DET_B*%
X106380000Y-52150000D03*
D20*
%TO.P,J4,10,DET_A_10*%
%TO.N,AGND*%
X95880000Y-53100000D03*
D21*
%TO.P,J4,SH,SHIELD_SH*%
X91730000Y-53100000D03*
D22*
X102080000Y-53100000D03*
X106380000Y-41950000D03*
D23*
X91280000Y-39600000D03*
%TD*%
D24*
%TO.P,C25,1*%
%TO.N,OutL*%
X140862500Y-100400000D03*
%TO.P,C25,2*%
%TO.N,Net-(Audio1-Pad2)*%
X142937500Y-100400000D03*
%TD*%
D25*
%TO.P,BT1,1,+_1*%
%TO.N,+BATT*%
X101832500Y-108150000D03*
D26*
%TO.P,BT1,2,-_2*%
%TO.N,-BATT*%
X101832500Y-110650000D03*
%TD*%
D11*
%TO.P,SW1,1,1_1*%
%TO.N,AGND*%
X102717500Y-30950000D03*
%TO.P,SW1,2,2_2*%
%TO.N,Net-(D1-K)*%
X107717500Y-30950000D03*
D27*
%TO.P,SW1,3*%
%TO.N,N/C*%
X108717500Y-33450000D03*
%TO.P,SW1,4*%
X101717500Y-33450000D03*
%TD*%
D28*
%TO.P,R11,1*%
%TO.N,AGND*%
X127500000Y-109012500D03*
%TO.P,R11,2*%
%TO.N,Net-(J2-SHIELD)*%
X127500000Y-107187500D03*
%TD*%
D29*
%TO.P,J2,A5,CC1_A5*%
%TO.N,Net-(J2-CC1)*%
X120250000Y-108445000D03*
D30*
%TO.P,J2,A9,VBUS_A9*%
%TO.N,VBUS*%
X118230000Y-108445000D03*
D31*
%TO.P,J2,A12,GND_A12*%
%TO.N,AGND*%
X117000000Y-108445000D03*
D32*
%TO.P,J2,B5,CC2_B5*%
%TO.N,Net-(J2-CC2)*%
X119250000Y-108445000D03*
D33*
%TO.P,J2,B9,VBUS_B9*%
%TO.N,VBUS*%
X121270000Y-108445000D03*
D34*
%TO.P,J2,B12,GND_B12*%
%TO.N,AGND*%
X122500000Y-108445000D03*
D35*
%TO.P,J2,SH,SHIELD_SH*%
%TO.N,Net-(J2-SHIELD)*%
X124070000Y-112325000D03*
X124070000Y-108525000D03*
X115430000Y-112325000D03*
X115430000Y-108525000D03*
%TD*%
D36*
%TO.P,SW3,1,1_1*%
%TO.N,Net-(U6-EN)*%
X138400000Y-40800000D03*
%TO.P,SW3,2,2_2*%
%TO.N,AGND*%
X141800000Y-40800000D03*
%TD*%
D37*
%TO.P,SW4,1,1_1*%
%TO.N,Net-(U6-IO61)*%
X138400000Y-70700000D03*
%TO.P,SW4,2,2_2*%
%TO.N,AGND*%
X138400000Y-74100000D03*
%TD*%
D38*
%TO.N,AGND*%
X145700000Y-91900000D03*
X124300000Y-42300000D03*
X106500000Y-91300000D03*
X115800000Y-34300000D03*
X141000000Y-110427500D03*
X107680000Y-106130000D03*
X130500000Y-38100000D03*
X99600000Y-31300000D03*
X118200000Y-70000000D03*
X117000000Y-103260000D03*
X104120000Y-103730000D03*
X122900000Y-78500000D03*
X141278000Y-68900000D03*
X138000000Y-75400000D03*
X131600000Y-32900000D03*
X121500000Y-41000000D03*
X108490000Y-96120000D03*
X91900000Y-54700000D03*
X134500000Y-38200000D03*
X122520564Y-83283734D03*
X141800000Y-42900000D03*
X126100000Y-76600000D03*
X128450000Y-112680000D03*
X109631270Y-37254485D03*
X96002500Y-93462500D03*
X129600000Y-80175000D03*
X95100000Y-37300000D03*
X94400000Y-81800000D03*
X111160000Y-43600000D03*
X108050000Y-49020000D03*
X121100000Y-84700000D03*
X126700000Y-84700000D03*
X130700000Y-100970000D03*
X123940000Y-102620000D03*
X104430000Y-95100000D03*
X119070000Y-75800000D03*
X113360000Y-84680000D03*
%TO.N,3V3*%
X119879627Y-77571414D03*
X115900000Y-36800000D03*
X141000000Y-73700000D03*
X114000000Y-49600000D03*
X130687600Y-102892400D03*
X128300000Y-38900000D03*
X133497600Y-105702400D03*
X138994470Y-49174930D03*
X121800000Y-32900000D03*
X128112500Y-73112500D03*
X109620000Y-93530000D03*
X134500000Y-37000000D03*
X136000000Y-43400000D03*
X119750000Y-84850000D03*
X107730000Y-46790000D03*
X119750000Y-83000000D03*
%TO.N,Net-(J6-Pin_17)*%
X131900000Y-34700000D03*
X122200000Y-36599998D03*
%TO.N,OUTR*%
X125070000Y-103240000D03*
X123410000Y-87240000D03*
%TO.N,Net-(U6-IO61)*%
X139400000Y-69700000D03*
%TO.N,Net-(U6-EN)*%
X139762500Y-42800000D03*
%TO.N,Net-(J2-CC1)*%
X120250000Y-107000000D03*
%TO.N,+BATT*%
X115350000Y-71950000D03*
X97010000Y-92840000D03*
X111280000Y-99670000D03*
%TO.N,3V3-2*%
X108440000Y-98550000D03*
X109160000Y-92800000D03*
%TO.N,Net-(J2-CC2)*%
X119250000Y-107000000D03*
%TO.N,U7_EN*%
X114202625Y-59266701D03*
X115900000Y-35900000D03*
%TO.N,ButtonState*%
X92230000Y-91370000D03*
X124500000Y-49900000D03*
%TO.N,OutL*%
X138500000Y-100400000D03*
%TO.N,DAT3*%
X116420000Y-54060000D03*
%TO.N,Net-(U3-OD)*%
X101670000Y-101290000D03*
X100230000Y-99400000D03*
%TO.N,VBUS*%
X111110000Y-89500000D03*
X112282688Y-99160000D03*
X118230000Y-107000000D03*
%TO.N,DAT2*%
X119070000Y-51210000D03*
%TO.N,DAT0*%
X118500000Y-49998500D03*
%TO.N,Up*%
X133900000Y-50000000D03*
%TO.N,Down*%
X132900000Y-49400000D03*
%TO.N,Button*%
X125200000Y-52500000D03*
%TO.N,RX0*%
X138178064Y-69544884D03*
%TO.N,EN*%
X91160000Y-101060000D03*
X96800000Y-94230000D03*
%TO.N,DAT1*%
X115389265Y-50340735D03*
%TO.N,SD3*%
X126600000Y-33000000D03*
X123675735Y-39875735D03*
%TO.N,SD2*%
X124300000Y-39100000D03*
X126372778Y-34198302D03*
%TO.N,SD0*%
X128395868Y-39694238D03*
X126900000Y-34800000D03*
%TO.N,SCL*%
X129600000Y-46000000D03*
X126200000Y-42000000D03*
%TO.N,TE*%
X129600000Y-40900000D03*
X122000000Y-45905099D03*
%TO.N,VCI_EN*%
X132100000Y-35900000D03*
X121200000Y-45800000D03*
%TO.N,Net-(U5-VNEG)*%
X118843456Y-77250000D03*
X119168456Y-80175000D03*
%TO.N,Net-(U5-OUTL)*%
X118843456Y-84500000D03*
X119768456Y-80825000D03*
%TO.N,SCK*%
X134700000Y-52800000D03*
X133422614Y-79822614D03*
%TO.N,BCK*%
X130412835Y-81983864D03*
X132200000Y-52600000D03*
%TO.N,DIN*%
X130441571Y-51909900D03*
X129725000Y-81475000D03*
%TO.N,LRCK*%
X130800000Y-80500000D03*
X131200000Y-52200000D03*
%TO.N,XSMT*%
X121400000Y-64200000D03*
X124400000Y-74800000D03*
%TO.N,DET_B*%
X136400000Y-48600000D03*
X117400000Y-56100000D03*
X107874062Y-52138905D03*
%TO.N,CLK*%
X107787500Y-48212500D03*
%TO.N,CMD*%
X109300000Y-48812500D03*
%TO.N,OutR*%
X134124607Y-109843417D03*
%TO.N,Net-(J2-SHIELD)*%
X125060000Y-107000000D03*
%TD*%
%TO.N,AGND*%
D39*
X91730000Y-53100000D02*
X91730000Y-54530000D01*
X126050000Y-109012500D02*
X126000000Y-108962500D01*
X102717500Y-30950000D02*
X99950000Y-30950000D01*
X91730000Y-53100000D02*
X95880000Y-53100000D01*
X91730000Y-54530000D02*
X91900000Y-54700000D01*
X127500000Y-109012500D02*
X126050000Y-109012500D01*
X106380000Y-49000000D02*
X108030000Y-49000000D01*
X141000000Y-110427500D02*
X141072500Y-110355000D01*
X99950000Y-30950000D02*
X99600000Y-31300000D01*
X102025000Y-45475000D02*
X102025000Y-53125000D01*
X140627500Y-110800000D02*
X141000000Y-110427500D01*
X106380000Y-41950000D02*
X106380000Y-40505755D01*
X92775000Y-39625000D02*
X95100000Y-37300000D01*
X125287500Y-109675000D02*
X126000000Y-108962500D01*
X108030000Y-49000000D02*
X108050000Y-49020000D01*
X141800000Y-40800000D02*
X141800000Y-42900000D01*
X138400000Y-74100000D02*
X138400000Y-75000000D01*
X122500000Y-109045000D02*
X123130000Y-109675000D01*
X106325000Y-41975000D02*
X105525000Y-41975000D01*
X138400000Y-75000000D02*
X138000000Y-75400000D01*
X106380000Y-40505755D02*
X109631270Y-37254485D01*
X123130000Y-109675000D02*
X125287500Y-109675000D01*
X91225000Y-39625000D02*
X92775000Y-39625000D01*
X139000000Y-110800000D02*
X140627500Y-110800000D01*
X122500000Y-108445000D02*
X122500000Y-109045000D01*
X127500000Y-109012500D02*
X127500000Y-111730000D01*
X105525000Y-41975000D02*
X102025000Y-45475000D01*
X117000000Y-103260000D02*
X117000000Y-108445000D01*
X127500000Y-111730000D02*
X128450000Y-112680000D01*
%TO.N,3V3*%
X130687600Y-102892400D02*
X130700000Y-102904800D01*
X119750000Y-83000000D02*
X119750000Y-84850000D01*
X106380000Y-46800000D02*
X107720000Y-46800000D01*
X107720000Y-46800000D02*
X107730000Y-46790000D01*
%TO.N,Net-(J6-Pin_17)*%
D40*
X122200000Y-36551471D02*
X122200000Y-36599998D01*
X131951471Y-34100000D02*
X130251471Y-32400000D01*
X131900000Y-34700000D02*
X131951471Y-34648529D01*
X130251471Y-32400000D02*
X126351471Y-32400000D01*
X131951471Y-34648529D02*
X131951471Y-34100000D01*
X126351471Y-32400000D02*
X122200000Y-36551471D01*
%TO.N,OUTR*%
D39*
X125070000Y-88900000D02*
X123410000Y-87240000D01*
X125070000Y-103240000D02*
X125070000Y-88900000D01*
%TO.N,Net-(U6-IO61)*%
X138400000Y-70700000D02*
X139400000Y-69700000D01*
X138400000Y-70700000D02*
X138700000Y-70700000D01*
%TO.N,Net-(U6-EN)*%
X138400000Y-41437500D02*
X139762500Y-42800000D01*
X138400000Y-40800000D02*
X138400000Y-41437500D01*
%TO.N,Net-(J2-CC1)*%
X120250000Y-107000000D02*
X120250000Y-108445000D01*
%TO.N,+BATT*%
D40*
X102800000Y-108150000D02*
X111280000Y-99670000D01*
X115350000Y-97120000D02*
X115350000Y-71950000D01*
X103600000Y-99670000D02*
X111280000Y-99670000D01*
X101832500Y-108150000D02*
X104320000Y-108150000D01*
X104320000Y-108150000D02*
X115350000Y-97120000D01*
X97010000Y-92840000D02*
X97010000Y-93080000D01*
X97010000Y-93080000D02*
X103600000Y-99670000D01*
X101832500Y-108150000D02*
X102800000Y-108150000D01*
%TO.N,3V3-2*%
D39*
X108440000Y-97020000D02*
X107880000Y-96460000D01*
X107880000Y-94080000D02*
X107880000Y-96460000D01*
X109160000Y-92800000D02*
X107880000Y-94080000D01*
X108440000Y-98550000D02*
X108440000Y-97020000D01*
%TO.N,Net-(J2-CC2)*%
X119250000Y-107000000D02*
X119250000Y-108445000D01*
%TO.N,U7_EN*%
X120070000Y-40070000D02*
X115900000Y-35900000D01*
X120070000Y-52581471D02*
X120070000Y-40070000D01*
X114202625Y-59195466D02*
X114200000Y-59192841D01*
X114200000Y-58451471D02*
X120070000Y-52581471D01*
X114202625Y-59266701D02*
X114202625Y-59195466D01*
X114200000Y-59192841D02*
X114200000Y-58451471D01*
%TO.N,ButtonState*%
X92230000Y-82570000D02*
X124500000Y-50300000D01*
X92230000Y-91370000D02*
X92230000Y-82570000D01*
X124500000Y-50300000D02*
X124500000Y-49900000D01*
%TO.N,OutL*%
X138500000Y-100400000D02*
X140862500Y-100400000D01*
%TO.N,DAT3*%
X105660000Y-44600000D02*
X106380000Y-44600000D01*
X116420000Y-54060000D02*
X117068529Y-54060000D01*
X105120000Y-43210000D02*
X105120000Y-44060000D01*
X105120000Y-44060000D02*
X105660000Y-44600000D01*
X119670000Y-51458529D02*
X119670000Y-49754286D01*
X117068529Y-54060000D02*
X119670000Y-51458529D01*
X105480000Y-42850000D02*
X105120000Y-43210000D01*
X112765714Y-42850000D02*
X105480000Y-42850000D01*
X119670000Y-49754286D02*
X112765714Y-42850000D01*
%TO.N,Net-(U3-OD)*%
X100230000Y-99400000D02*
X101670000Y-100840000D01*
X101670000Y-100840000D02*
X101670000Y-101290000D01*
%TO.N,VBUS*%
D40*
X121270000Y-109045000D02*
X121270000Y-108445000D01*
X118230000Y-108445000D02*
X118230000Y-109045000D01*
X111110000Y-89500000D02*
X111110000Y-97987312D01*
X111110000Y-97987312D02*
X112282688Y-99160000D01*
X120920000Y-109395000D02*
X121270000Y-109045000D01*
X118230000Y-107000000D02*
X118230000Y-108445000D01*
X118230000Y-109045000D02*
X118580000Y-109395000D01*
X118580000Y-109395000D02*
X120920000Y-109395000D01*
%TO.N,DAT2*%
D39*
X119100000Y-51180000D02*
X119070000Y-51210000D01*
X107380000Y-43500000D02*
X111410000Y-47530000D01*
X106380000Y-43500000D02*
X107380000Y-43500000D01*
X116880029Y-47530000D02*
X119100000Y-49749971D01*
X111410000Y-47530000D02*
X116880029Y-47530000D01*
X119100000Y-49749971D02*
X119100000Y-51180000D01*
%TO.N,DAT0*%
X106830000Y-49650000D02*
X106380000Y-50100000D01*
X109311029Y-49650000D02*
X106830000Y-49650000D01*
X118500000Y-49998500D02*
X118188500Y-49998500D01*
X118188500Y-49998500D02*
X117190000Y-49000000D01*
X117190000Y-49000000D02*
X109961029Y-49000000D01*
X109961029Y-49000000D02*
X109311029Y-49650000D01*
%TO.N,Up*%
X146700000Y-87100000D02*
X142000000Y-82400000D01*
X142000000Y-59065686D02*
X133900000Y-50965686D01*
X146700000Y-91400000D02*
X146700000Y-87100000D01*
X133900000Y-50965686D02*
X133900000Y-50000000D01*
X142000000Y-82400000D02*
X142000000Y-59065686D01*
X148000000Y-92700000D02*
X146700000Y-91400000D01*
%TO.N,Down*%
X148000000Y-87700000D02*
X147900000Y-87700000D01*
X134300000Y-49400000D02*
X132900000Y-49400000D01*
X142400000Y-82200000D02*
X142400000Y-57500000D01*
X142400000Y-57500000D02*
X134300000Y-49400000D01*
X147900000Y-87700000D02*
X142400000Y-82200000D01*
%TO.N,Button*%
X125200000Y-59531370D02*
X129000000Y-63331370D01*
X129000000Y-83200000D02*
X133500000Y-87700000D01*
X129000000Y-63331370D02*
X129000000Y-83200000D01*
X125200000Y-52500000D02*
X125200000Y-59531370D01*
%TO.N,EN*%
X95410000Y-94230000D02*
X96800000Y-94230000D01*
X91160000Y-101060000D02*
X91160000Y-98480000D01*
X91160000Y-98480000D02*
X95410000Y-94230000D01*
%TO.N,DAT1*%
X108349265Y-50340735D02*
X107490000Y-51200000D01*
X115389265Y-50340735D02*
X108349265Y-50340735D01*
X107490000Y-51200000D02*
X106380000Y-51200000D01*
%TO.N,SD3*%
X123675735Y-39875735D02*
X123500000Y-40051470D01*
X123700000Y-39851470D02*
X123675735Y-39875735D01*
X123700000Y-35900000D02*
X123700000Y-39851470D01*
X126600000Y-33000000D02*
X123700000Y-35900000D01*
%TO.N,SD2*%
X124300000Y-36271080D02*
X124300000Y-39100000D01*
X126371291Y-34199789D02*
X124300000Y-36271080D01*
X126374265Y-34199789D02*
X126371291Y-34199789D01*
X126372778Y-34198302D02*
X126374265Y-34199789D01*
%TO.N,SD0*%
X128395868Y-39694238D02*
X129100000Y-38990106D01*
X129100000Y-37000000D02*
X126900000Y-34800000D01*
X129100000Y-38990106D02*
X129100000Y-37000000D01*
%TO.N,SCL*%
X129600000Y-45400000D02*
X129600000Y-46000000D01*
X126200000Y-42000000D02*
X129600000Y-45400000D01*
%TO.N,TE*%
X122000000Y-45905099D02*
X122000000Y-43400000D01*
X122000000Y-43400000D02*
X124500000Y-40900000D01*
X124500000Y-40900000D02*
X129600000Y-40900000D01*
%TO.N,VCI_EN*%
X121200000Y-43200000D02*
X121200000Y-45800000D01*
X132100000Y-38000000D02*
X129800000Y-40300000D01*
X129800000Y-40300000D02*
X124100000Y-40300000D01*
X124100000Y-40300000D02*
X121200000Y-43200000D01*
X132100000Y-35900000D02*
X132100000Y-38000000D01*
%TO.N,Net-(U5-VNEG)*%
X119168456Y-77575000D02*
X118843456Y-77250000D01*
X119168456Y-80175000D02*
X119168456Y-77575000D01*
%TO.N,Net-(U5-OUTL)*%
X118843456Y-81750000D02*
X118843456Y-84500000D01*
X119768456Y-80825000D02*
X118843456Y-81750000D01*
%TO.N,SCK*%
X133422614Y-79822614D02*
X137200000Y-76045228D01*
X137200000Y-76045228D02*
X137200000Y-55300000D01*
X137200000Y-55300000D02*
X134700000Y-52800000D01*
%TO.N,BCK*%
X136800000Y-75596699D02*
X130412835Y-81983864D01*
X132200000Y-52600000D02*
X136800000Y-57200000D01*
X136800000Y-57200000D02*
X136800000Y-75596699D01*
%TO.N,DIN*%
X130200000Y-63965686D02*
X130200000Y-81000000D01*
X125600000Y-59365686D02*
X130200000Y-63965686D01*
X130441571Y-51958429D02*
X125600000Y-56800000D01*
X130200000Y-81000000D02*
X129725000Y-81475000D01*
X130441571Y-51909900D02*
X130441571Y-51958429D01*
X125600000Y-56800000D02*
X125600000Y-59365686D01*
%TO.N,LRCK*%
X126100000Y-57100000D02*
X126100000Y-59300000D01*
X126100000Y-59300000D02*
X130800000Y-64000000D01*
X131200000Y-52200000D02*
X131000000Y-52200000D01*
X131000000Y-52200000D02*
X126100000Y-57100000D01*
X130800000Y-64000000D02*
X130800000Y-80500000D01*
%TO.N,XSMT*%
X121400000Y-71800000D02*
X121400000Y-64200000D01*
X124400000Y-74800000D02*
X121400000Y-71800000D01*
%TO.N,DET_B*%
X117548529Y-55951471D02*
X117600000Y-55951471D01*
X117600000Y-55951471D02*
X124951471Y-48600000D01*
X106325000Y-52175000D02*
X107825000Y-52175000D01*
X117400000Y-56100000D02*
X117548529Y-55951471D01*
X124951471Y-48600000D02*
X136400000Y-48600000D01*
%TO.N,CLK*%
X106325000Y-47925000D02*
X107500000Y-47925000D01*
X107500000Y-47925000D02*
X107787500Y-48212500D01*
%TO.N,CMD*%
X108425000Y-45725000D02*
X106325000Y-45725000D01*
X109300000Y-48812500D02*
X109300000Y-46600000D01*
X109300000Y-46600000D02*
X108425000Y-45725000D01*
%TO.N,OutR*%
X132662500Y-108381310D02*
X134124607Y-109843417D01*
X132662500Y-107300000D02*
X132662500Y-108381310D01*
X134197803Y-109770221D02*
X134197803Y-109742197D01*
X134124607Y-109843417D02*
X134197803Y-109770221D01*
%TO.N,Net-(J2-SHIELD)*%
X125640000Y-107000000D02*
X125877500Y-107237500D01*
X125877500Y-107237500D02*
X126000000Y-107237500D01*
X125060000Y-107000000D02*
X125640000Y-107000000D01*
X126000000Y-107237500D02*
X127450000Y-107237500D01*
X127450000Y-107237500D02*
X127500000Y-107187500D01*
%TO.N,Net-(Audio1-Pad3)*%
X135500000Y-107300000D02*
X139000000Y-103800000D01*
X134737500Y-107300000D02*
X135500000Y-107300000D01*
%TO.N,Net-(Audio1-Pad2)*%
X142937500Y-100400000D02*
X147000000Y-104462500D01*
X147000000Y-104462500D02*
X147000000Y-108800000D01*
%TD*%
M02*
