%TF.GenerationSoftware,KiCad,Pcbnew,10.0.4*%
%TF.CreationDate,2026-09-19T19:46:46+08:00*%
%TF.ProjectId,Jmp3,4a6d7033-2e6b-4696-9361-645f70636258,rev?*%
%TF.SameCoordinates,Original*%
%TF.FileFunction,Soldermask,Bot*%
%TF.FilePolarity,Negative*%
%FSLAX46Y46*%
G04 Gerber Fmt 4.6, Leading zero omitted, Abs format (unit mm)*
G04 Created by KiCad (PCBNEW 10.0.4) date 2026-09-19 19:46:46*
%MOMM*%
%LPD*%
G01*
G04 APERTURE LIST*
G04 Aperture macros list*
%AMRoundRect*
0 Rectangle with rounded corners*
0 $1 Rounding radius*
0 $2 $3 $4 $5 $6 $7 $8 $9 X,Y pos of 4 corners*
0 Add a 4 corners polygon primitive as box body*
4,1,4,$2,$3,$4,$5,$6,$7,$8,$9,$2,$3,0*
0 Add four circle primitives for the rounded corners*
1,1,$1+$1,$2,$3*
1,1,$1+$1,$4,$5*
1,1,$1+$1,$6,$7*
1,1,$1+$1,$8,$9*
0 Add four rect primitives between the rounded corners*
20,1,$1+$1,$2,$3,$4,$5,0*
20,1,$1+$1,$4,$5,$6,$7,0*
20,1,$1+$1,$6,$7,$8,$9,0*
20,1,$1+$1,$8,$9,$2,$3,0*%
G04 Aperture macros list end*
%ADD10C,2.200000*%
%ADD11R,2.000000X2.000000*%
%ADD12C,2.000000*%
%ADD13R,3.200000X2.000000*%
%ADD14R,0.850000X0.850000*%
%ADD15C,0.850000*%
%ADD16RoundRect,0.237500X0.237500X-0.300000X0.237500X0.300000X-0.237500X0.300000X-0.237500X-0.300000X0*%
%ADD17RoundRect,0.250000X0.337500X0.475000X-0.337500X0.475000X-0.337500X-0.475000X0.337500X-0.475000X0*%
%ADD18C,1.200000*%
%ADD19R,3.000000X1.500000*%
%ADD20R,1.200000X0.700000*%
%ADD21R,0.800000X1.000000*%
%ADD22R,2.800000X1.000000*%
%ADD23R,1.200000X1.000000*%
%ADD24R,1.900000X1.300000*%
%ADD25RoundRect,0.250000X-0.337500X-0.475000X0.337500X-0.475000X0.337500X0.475000X-0.337500X0.475000X0*%
%ADD26RoundRect,0.250000X-0.750000X0.600000X-0.750000X-0.600000X0.750000X-0.600000X0.750000X0.600000X0*%
%ADD27O,2.000000X1.700000*%
%ADD28C,2.400000*%
%ADD29RoundRect,0.237500X0.237500X-0.250000X0.237500X0.250000X-0.237500X0.250000X-0.237500X-0.250000X0*%
%ADD30RoundRect,0.175000X0.175000X0.425000X-0.175000X0.425000X-0.175000X-0.425000X0.175000X-0.425000X0*%
%ADD31RoundRect,0.190000X-0.190000X-0.410000X0.190000X-0.410000X0.190000X0.410000X-0.190000X0.410000X0*%
%ADD32RoundRect,0.200000X-0.200000X-0.400000X0.200000X-0.400000X0.200000X0.400000X-0.200000X0.400000X0*%
%ADD33RoundRect,0.175000X-0.175000X-0.425000X0.175000X-0.425000X0.175000X0.425000X-0.175000X0.425000X0*%
%ADD34RoundRect,0.190000X0.190000X0.410000X-0.190000X0.410000X-0.190000X-0.410000X0.190000X-0.410000X0*%
%ADD35RoundRect,0.200000X0.200000X0.400000X-0.200000X0.400000X-0.200000X-0.400000X0.200000X-0.400000X0*%
%ADD36O,1.100000X1.700000*%
%ADD37R,0.900000X1.700000*%
%ADD38R,1.700000X0.900000*%
G04 APERTURE END LIST*
D10*
%TO.C,REF\u002A\u002A*%
X147300000Y-111300000D03*
%TD*%
D11*
%TO.C,SW2*%
X148000000Y-92700000D03*
D12*
X148000000Y-87700000D03*
X148000000Y-90200000D03*
D13*
X140500000Y-95800000D03*
X140500000Y-84600000D03*
D12*
X133500000Y-87700000D03*
X133500000Y-92700000D03*
%TD*%
D14*
%TO.C,J5*%
X135600000Y-70600000D03*
D15*
X134600000Y-70600000D03*
X133600000Y-70600000D03*
X132600000Y-70600000D03*
%TD*%
D10*
%TO.C,REF\u002A\u002A*%
X147400000Y-31800000D03*
%TD*%
%TO.C,REF\u002A\u002A*%
X92100000Y-31800000D03*
%TD*%
%TO.C,REF\u002A\u002A*%
X92100000Y-111300000D03*
%TD*%
D16*
%TO.C,C16*%
X126000000Y-108962500D03*
X126000000Y-107237500D03*
%TD*%
D17*
%TO.C,C26*%
X134737500Y-107300000D03*
X132662500Y-107300000D03*
%TD*%
D18*
%TO.C,Audio1*%
X143000000Y-104900000D03*
X143000000Y-110800000D03*
D19*
X139000000Y-110800000D03*
X147000000Y-108800000D03*
X139000000Y-103800000D03*
%TD*%
D20*
%TO.C,J4*%
X106380000Y-43500000D03*
X106380000Y-44600000D03*
X106380000Y-45700000D03*
X106380000Y-46800000D03*
X106380000Y-47900000D03*
X106380000Y-49000000D03*
X106380000Y-50100000D03*
X106380000Y-51200000D03*
X106380000Y-52150000D03*
D21*
X95880000Y-53100000D03*
D22*
X91730000Y-53100000D03*
D23*
X102080000Y-53100000D03*
X106380000Y-41950000D03*
D24*
X91280000Y-39600000D03*
%TD*%
D25*
%TO.C,C25*%
X140862500Y-100400000D03*
X142937500Y-100400000D03*
%TD*%
D26*
%TO.C,BT1*%
X101832500Y-108150000D03*
D27*
X101832500Y-110650000D03*
%TD*%
D12*
%TO.C,SW1*%
X102717500Y-30950000D03*
X107717500Y-30950000D03*
D28*
X108717500Y-33450000D03*
X101717500Y-33450000D03*
%TD*%
D29*
%TO.C,R11*%
X127500000Y-109012500D03*
X127500000Y-107187500D03*
%TD*%
D30*
%TO.C,J2*%
X120250000Y-108445000D03*
D31*
X118230000Y-108445000D03*
D32*
X117000000Y-108445000D03*
D33*
X119250000Y-108445000D03*
D34*
X121270000Y-108445000D03*
D35*
X122500000Y-108445000D03*
D36*
X124070000Y-112325000D03*
X124070000Y-108525000D03*
X115430000Y-112325000D03*
X115430000Y-108525000D03*
%TD*%
D37*
%TO.C,SW3*%
X138400000Y-40800000D03*
X141800000Y-40800000D03*
%TD*%
D38*
%TO.C,SW4*%
X138400000Y-70700000D03*
X138400000Y-74100000D03*
%TD*%
M02*
