%TF.GenerationSoftware,KiCad,Pcbnew,10.0.4*%
%TF.CreationDate,2026-09-19T19:46:46+08:00*%
%TF.ProjectId,Jmp3,4a6d7033-2e6b-4696-9361-645f70636258,rev?*%
%TF.SameCoordinates,Original*%
%TF.FileFunction,Copper,L2,Inr*%
%TF.FilePolarity,Positive*%
%FSLAX46Y46*%
G04 Gerber Fmt 4.6, Leading zero omitted, Abs format (unit mm)*
G04 Created by KiCad (PCBNEW 10.0.4) date 2026-09-19 19:46:46*
%MOMM*%
%LPD*%
G01*
G04 APERTURE LIST*
G04 Aperture macros list*
%AMRoundRect*
0 Rectangle with rounded corners*
0 $1 Rounding radius*
0 $2 $3 $4 $5 $6 $7 $8 $9 X,Y pos of 4 corners*
0 Add a 4 corners polygon primitive as box body*
4,1,4,$2,$3,$4,$5,$6,$7,$8,$9,$2,$3,0*
0 Add four circle primitives for the rounded corners*
1,1,$1+$1,$2,$3*
1,1,$1+$1,$4,$5*
1,1,$1+$1,$6,$7*
1,1,$1+$1,$8,$9*
0 Add four rect primitives between the rounded corners*
20,1,$1+$1,$2,$3,$4,$5,0*
20,1,$1+$1,$4,$5,$6,$7,0*
20,1,$1+$1,$6,$7,$8,$9,0*
20,1,$1+$1,$8,$9,$2,$3,0*%
G04 Aperture macros list end*
%TA.AperFunction,ComponentPad*%
%ADD10R,2.000000X2.000000*%
%TD*%
%TA.AperFunction,ComponentPad*%
%ADD11C,2.000000*%
%TD*%
%TA.AperFunction,ComponentPad*%
%ADD12R,3.200000X2.000000*%
%TD*%
%TA.AperFunction,ComponentPad*%
%ADD13R,0.850000X0.850000*%
%TD*%
%TA.AperFunction,ComponentPad*%
%ADD14C,0.850000*%
%TD*%
%TA.AperFunction,ComponentPad*%
%ADD15C,1.200000*%
%TD*%
%TA.AperFunction,ComponentPad*%
%ADD16RoundRect,0.250000X-0.750000X0.600000X-0.750000X-0.600000X0.750000X-0.600000X0.750000X0.600000X0*%
%TD*%
%TA.AperFunction,ComponentPad*%
%ADD17O,2.000000X1.700000*%
%TD*%
%TA.AperFunction,ComponentPad*%
%ADD18C,2.400000*%
%TD*%
%TA.AperFunction,ComponentPad*%
%ADD19O,1.100000X1.700000*%
%TD*%
%TA.AperFunction,ViaPad*%
%ADD20C,0.600000*%
%TD*%
%TA.AperFunction,Conductor*%
%ADD21C,0.200000*%
%TD*%
G04 APERTURE END LIST*
D10*
%TO.N,Up*%
%TO.C,SW2*%
X148000000Y-92700000D03*
D11*
%TO.N,Down*%
X148000000Y-87700000D03*
%TO.N,AGND*%
X148000000Y-90200000D03*
D12*
%TO.N,N/C*%
X140500000Y-95800000D03*
X140500000Y-84600000D03*
D11*
%TO.N,Button*%
X133500000Y-87700000D03*
%TO.N,AGND*%
X133500000Y-92700000D03*
%TD*%
D13*
%TO.N,AGND*%
%TO.C,J5*%
X135600000Y-70600000D03*
D14*
%TO.N,TX0*%
X134600000Y-70600000D03*
%TO.N,RX0*%
X133600000Y-70600000D03*
%TO.N,3V3*%
X132600000Y-70600000D03*
%TD*%
D15*
%TO.N,*%
%TO.C,Audio1*%
X143000000Y-104900000D03*
X143000000Y-110800000D03*
%TD*%
D16*
%TO.N,+BATT*%
%TO.C,BT1*%
X101832500Y-108150000D03*
D17*
%TO.N,-BATT*%
X101832500Y-110650000D03*
%TD*%
D11*
%TO.N,AGND*%
%TO.C,SW1*%
X102717500Y-30950000D03*
%TO.N,Net-(D1-K)*%
X107717500Y-30950000D03*
D18*
%TO.N,N/C*%
X108717500Y-33450000D03*
X101717500Y-33450000D03*
%TD*%
D19*
%TO.N,Net-(J2-SHIELD)*%
%TO.C,J2*%
X124070000Y-112325000D03*
X124070000Y-108525000D03*
X115430000Y-112325000D03*
X115430000Y-108525000D03*
%TD*%
D20*
%TO.N,AGND*%
X145700000Y-91900000D03*
X124300000Y-42300000D03*
X106500000Y-91300000D03*
X115800000Y-34300000D03*
X141000000Y-110427500D03*
X107680000Y-106130000D03*
X130500000Y-38100000D03*
X99600000Y-31300000D03*
X118200000Y-70000000D03*
X117000000Y-103260000D03*
X104120000Y-103730000D03*
X122900000Y-78500000D03*
X141278000Y-68900000D03*
X138000000Y-75400000D03*
X131600000Y-32900000D03*
X121500000Y-41000000D03*
X108490000Y-96120000D03*
X91900000Y-54700000D03*
X134500000Y-38200000D03*
X122520564Y-83283734D03*
X141800000Y-42900000D03*
X126100000Y-76600000D03*
X128450000Y-112680000D03*
X109631270Y-37254485D03*
X96002500Y-93462500D03*
X129600000Y-80175000D03*
X95100000Y-37300000D03*
X94400000Y-81800000D03*
X111160000Y-43600000D03*
X108050000Y-49020000D03*
X121100000Y-84700000D03*
X126700000Y-84700000D03*
X130700000Y-100970000D03*
X123940000Y-102620000D03*
X104430000Y-95100000D03*
X119070000Y-75800000D03*
X113360000Y-84680000D03*
%TO.N,3V3*%
X119879627Y-77571414D03*
X115900000Y-36800000D03*
X141000000Y-73700000D03*
X114000000Y-49600000D03*
X130687600Y-102892400D03*
X128300000Y-38900000D03*
X133497600Y-105702400D03*
X138994470Y-49174930D03*
X121800000Y-32900000D03*
X128112500Y-73112500D03*
X109620000Y-93530000D03*
X134500000Y-37000000D03*
X136000000Y-43400000D03*
X119750000Y-84850000D03*
X107730000Y-46790000D03*
X119750000Y-83000000D03*
%TO.N,Net-(J6-Pin_17)*%
X131900000Y-34700000D03*
X122200000Y-36599998D03*
%TO.N,OUTR*%
X125070000Y-103240000D03*
X123410000Y-87240000D03*
%TO.N,Net-(U6-IO61)*%
X139400000Y-69700000D03*
%TO.N,Net-(U6-EN)*%
X139762500Y-42800000D03*
%TO.N,Net-(J2-CC1)*%
X120250000Y-107000000D03*
%TO.N,+BATT*%
X115350000Y-71950000D03*
X97010000Y-92840000D03*
X111280000Y-99670000D03*
%TO.N,3V3-2*%
X108440000Y-98550000D03*
X109160000Y-92800000D03*
%TO.N,Net-(J2-CC2)*%
X119250000Y-107000000D03*
%TO.N,U7_EN*%
X114202625Y-59266701D03*
X115900000Y-35900000D03*
%TO.N,ButtonState*%
X92230000Y-91370000D03*
X124500000Y-49900000D03*
%TO.N,OutL*%
X138500000Y-100400000D03*
%TO.N,DAT3*%
X116420000Y-54060000D03*
%TO.N,Net-(U3-OD)*%
X101670000Y-101290000D03*
X100230000Y-99400000D03*
%TO.N,VBUS*%
X111110000Y-89500000D03*
X112282688Y-99160000D03*
X118230000Y-107000000D03*
%TO.N,DAT2*%
X119070000Y-51210000D03*
%TO.N,DAT0*%
X118500000Y-49998500D03*
%TO.N,Up*%
X133900000Y-50000000D03*
%TO.N,Down*%
X132900000Y-49400000D03*
%TO.N,Button*%
X125200000Y-52500000D03*
%TO.N,RX0*%
X138178064Y-69544884D03*
%TO.N,EN*%
X91160000Y-101060000D03*
X96800000Y-94230000D03*
%TO.N,DAT1*%
X115389265Y-50340735D03*
%TO.N,SD3*%
X126600000Y-33000000D03*
X123675735Y-39875735D03*
%TO.N,SD2*%
X124300000Y-39100000D03*
X126372778Y-34198302D03*
%TO.N,SD0*%
X128395868Y-39694238D03*
X126900000Y-34800000D03*
%TO.N,SCL*%
X129600000Y-46000000D03*
X126200000Y-42000000D03*
%TO.N,TE*%
X129600000Y-40900000D03*
X122000000Y-45905099D03*
%TO.N,VCI_EN*%
X132100000Y-35900000D03*
X121200000Y-45800000D03*
%TO.N,Net-(U5-VNEG)*%
X118843456Y-77250000D03*
X119168456Y-80175000D03*
%TO.N,Net-(U5-OUTL)*%
X118843456Y-84500000D03*
X119768456Y-80825000D03*
%TO.N,SCK*%
X134700000Y-52800000D03*
X133422614Y-79822614D03*
%TO.N,BCK*%
X130412835Y-81983864D03*
X132200000Y-52600000D03*
%TO.N,DIN*%
X130441571Y-51909900D03*
X129725000Y-81475000D03*
%TO.N,LRCK*%
X130800000Y-80500000D03*
X131200000Y-52200000D03*
%TO.N,XSMT*%
X121400000Y-64200000D03*
X124400000Y-74800000D03*
%TO.N,DET_B*%
X136400000Y-48600000D03*
X117400000Y-56100000D03*
X107874062Y-52138905D03*
%TO.N,CLK*%
X107787500Y-48212500D03*
%TO.N,CMD*%
X109300000Y-48812500D03*
%TO.N,OutR*%
X134124607Y-109843417D03*
%TO.N,Net-(J2-SHIELD)*%
X125060000Y-107000000D03*
%TD*%
%TO.N,AGND*%
D21*
X120200000Y-75800000D02*
X122900000Y-78500000D01*
X124200000Y-78500000D02*
X126100000Y-76600000D01*
X104120000Y-103730000D02*
X106520000Y-106130000D01*
X135600000Y-70600000D02*
X135600000Y-73000000D01*
X129720000Y-92700000D02*
X133500000Y-92700000D01*
X129100000Y-82400000D02*
X129100000Y-80700000D01*
X122900000Y-78500000D02*
X124200000Y-78500000D01*
X121100000Y-84700000D02*
X121720000Y-84700000D01*
X126700000Y-84700000D02*
X126800000Y-84700000D01*
X121100000Y-84700000D02*
X122500000Y-83300000D01*
X129100000Y-80700000D02*
X129600000Y-80200000D01*
X126800000Y-84700000D02*
X129100000Y-82400000D01*
X129600000Y-80200000D02*
X129600000Y-80175000D01*
X121720000Y-84700000D02*
X129720000Y-92700000D01*
X121100000Y-84700000D02*
X126700000Y-84700000D01*
X141278000Y-68900000D02*
X139578000Y-70600000D01*
X119070000Y-75800000D02*
X120200000Y-75800000D01*
X139578000Y-70600000D02*
X135600000Y-70600000D01*
X106520000Y-106130000D02*
X107680000Y-106130000D01*
X127925000Y-78500000D02*
X129600000Y-80175000D01*
X135600000Y-73000000D02*
X138000000Y-75400000D01*
X122900000Y-78500000D02*
X127925000Y-78500000D01*
%TO.N,RX0*%
X134054076Y-69544884D02*
X133600000Y-69998960D01*
X138178064Y-69544884D02*
X134054076Y-69544884D01*
X133600000Y-69998960D02*
X133600000Y-70600000D01*
%TD*%
%TA.AperFunction,Conductor*%
%TO.N,AGND*%
G36*
X101449580Y-29920185D02*
G01*
X101495335Y-29972989D01*
X101505279Y-30042147D01*
X101482859Y-30097386D01*
X101434585Y-30163828D01*
X101327397Y-30374197D01*
X101254434Y-30598752D01*
X101217500Y-30831947D01*
X101217500Y-31068052D01*
X101254434Y-31301247D01*
X101327398Y-31525805D01*
X101378134Y-31625381D01*
X101391030Y-31694050D01*
X101364753Y-31758790D01*
X101307647Y-31799047D01*
X101299743Y-31801450D01*
X101216775Y-31823681D01*
X101169719Y-31836290D01*
X101169717Y-31836290D01*
X101169716Y-31836291D01*
X101169709Y-31836293D01*
X100963777Y-31921593D01*
X100963773Y-31921595D01*
X100770726Y-32033052D01*
X100770717Y-32033058D01*
X100593877Y-32168751D01*
X100593870Y-32168757D01*
X100436257Y-32326370D01*
X100436251Y-32326377D01*
X100300558Y-32503217D01*
X100300552Y-32503226D01*
X100189095Y-32696273D01*
X100189093Y-32696277D01*
X100103793Y-32902209D01*
X100103790Y-32902219D01*
X100083259Y-32978844D01*
X100046097Y-33117534D01*
X100046094Y-33117547D01*
X100017001Y-33338533D01*
X100017000Y-33338549D01*
X100017000Y-33561450D01*
X100017001Y-33561466D01*
X100046094Y-33782452D01*
X100046095Y-33782457D01*
X100046096Y-33782463D01*
X100103790Y-33997780D01*
X100103793Y-33997790D01*
X100189091Y-34203717D01*
X100189095Y-34203726D01*
X100300552Y-34396774D01*
X100300557Y-34396780D01*
X100300558Y-34396782D01*
X100436251Y-34573622D01*
X100436257Y-34573629D01*
X100593870Y-34731242D01*
X100593877Y-34731248D01*
X100709660Y-34820091D01*
X100770726Y-34866948D01*
X100963774Y-34978405D01*
X101169719Y-35063710D01*
X101385037Y-35121404D01*
X101606043Y-35150500D01*
X101606050Y-35150500D01*
X101828950Y-35150500D01*
X101828957Y-35150500D01*
X102049963Y-35121404D01*
X102265281Y-35063710D01*
X102471226Y-34978405D01*
X102664274Y-34866948D01*
X102841124Y-34731247D01*
X102998747Y-34573624D01*
X103134448Y-34396774D01*
X103245905Y-34203726D01*
X103331210Y-33997781D01*
X103388904Y-33782463D01*
X103418000Y-33561457D01*
X103418000Y-33338543D01*
X103388904Y-33117537D01*
X103331210Y-32902219D01*
X103245905Y-32696274D01*
X103245903Y-32696271D01*
X103245901Y-32696266D01*
X103156802Y-32541943D01*
X103140329Y-32474043D01*
X103163181Y-32408016D01*
X103218103Y-32364826D01*
X103225872Y-32362012D01*
X103293301Y-32340103D01*
X103503663Y-32232918D01*
X103503669Y-32232914D01*
X103586604Y-32172658D01*
X103586605Y-32172658D01*
X102928558Y-31514611D01*
X102949091Y-31509110D01*
X103085908Y-31430118D01*
X103197618Y-31318408D01*
X103276610Y-31181591D01*
X103282111Y-31161058D01*
X103940158Y-31819105D01*
X103940158Y-31819104D01*
X104000414Y-31736169D01*
X104000418Y-31736163D01*
X104107602Y-31525802D01*
X104180565Y-31301247D01*
X104217500Y-31068052D01*
X104217500Y-30831947D01*
X104180565Y-30598752D01*
X104107602Y-30374197D01*
X104000414Y-30163828D01*
X103952141Y-30097386D01*
X103928661Y-30031579D01*
X103944486Y-29963525D01*
X103994592Y-29914830D01*
X104052459Y-29900500D01*
X106381923Y-29900500D01*
X106448962Y-29920185D01*
X106494717Y-29972989D01*
X106504661Y-30042147D01*
X106482241Y-30097384D01*
X106461765Y-30125567D01*
X106434157Y-30163566D01*
X106326933Y-30374003D01*
X106253946Y-30598631D01*
X106217000Y-30831902D01*
X106217000Y-31068097D01*
X106253946Y-31301368D01*
X106326933Y-31525996D01*
X106434019Y-31736163D01*
X106434157Y-31736433D01*
X106572983Y-31927510D01*
X106739990Y-32094517D01*
X106931067Y-32233343D01*
X107141508Y-32340568D01*
X107208873Y-32362456D01*
X107266549Y-32401894D01*
X107293747Y-32466252D01*
X107281832Y-32535099D01*
X107277942Y-32542387D01*
X107189098Y-32696266D01*
X107189093Y-32696277D01*
X107103793Y-32902209D01*
X107103790Y-32902219D01*
X107083259Y-32978844D01*
X107046097Y-33117534D01*
X107046094Y-33117547D01*
X107017001Y-33338533D01*
X107017000Y-33338549D01*
X107017000Y-33561450D01*
X107017001Y-33561466D01*
X107046094Y-33782452D01*
X107046095Y-33782457D01*
X107046096Y-33782463D01*
X107103790Y-33997780D01*
X107103793Y-33997790D01*
X107189091Y-34203717D01*
X107189095Y-34203726D01*
X107300552Y-34396774D01*
X107300557Y-34396780D01*
X107300558Y-34396782D01*
X107436251Y-34573622D01*
X107436257Y-34573629D01*
X107593870Y-34731242D01*
X107593877Y-34731248D01*
X107709660Y-34820091D01*
X107770726Y-34866948D01*
X107963774Y-34978405D01*
X108169719Y-35063710D01*
X108385037Y-35121404D01*
X108606043Y-35150500D01*
X108606050Y-35150500D01*
X108828950Y-35150500D01*
X108828957Y-35150500D01*
X109049963Y-35121404D01*
X109265281Y-35063710D01*
X109471226Y-34978405D01*
X109664274Y-34866948D01*
X109841124Y-34731247D01*
X109998747Y-34573624D01*
X110134448Y-34396774D01*
X110245905Y-34203726D01*
X110280811Y-34119455D01*
X125572278Y-34119455D01*
X125572278Y-34277148D01*
X125603039Y-34431791D01*
X125603042Y-34431803D01*
X125663380Y-34577474D01*
X125663387Y-34577487D01*
X125750988Y-34708590D01*
X125750991Y-34708594D01*
X125862485Y-34820088D01*
X125862489Y-34820091D01*
X125993595Y-34907694D01*
X125993597Y-34907694D01*
X125993599Y-34907696D01*
X126054028Y-34932726D01*
X126108432Y-34976566D01*
X126128193Y-35023093D01*
X126130262Y-35033494D01*
X126130263Y-35033499D01*
X126190602Y-35179172D01*
X126190609Y-35179185D01*
X126278210Y-35310288D01*
X126278213Y-35310292D01*
X126389707Y-35421786D01*
X126389711Y-35421789D01*
X126520814Y-35509390D01*
X126520827Y-35509397D01*
X126666498Y-35569735D01*
X126666503Y-35569737D01*
X126821153Y-35600499D01*
X126821156Y-35600500D01*
X126821158Y-35600500D01*
X126978844Y-35600500D01*
X126978845Y-35600499D01*
X127133497Y-35569737D01*
X127251592Y-35520821D01*
X127279172Y-35509397D01*
X127279172Y-35509396D01*
X127279179Y-35509394D01*
X127410289Y-35421789D01*
X127521789Y-35310289D01*
X127609394Y-35179179D01*
X127669737Y-35033497D01*
X127700500Y-34878842D01*
X127700500Y-34721158D01*
X127700500Y-34721155D01*
X127684209Y-34639258D01*
X127684209Y-34639257D01*
X127680608Y-34621153D01*
X131099500Y-34621153D01*
X131099500Y-34778846D01*
X131130261Y-34933489D01*
X131130264Y-34933501D01*
X131190602Y-35079172D01*
X131190609Y-35079185D01*
X131278210Y-35210288D01*
X131278213Y-35210292D01*
X131394018Y-35326097D01*
X131393094Y-35327020D01*
X131428637Y-35379201D01*
X131430506Y-35449045D01*
X131413740Y-35486196D01*
X131390611Y-35520811D01*
X131390602Y-35520827D01*
X131330264Y-35666498D01*
X131330261Y-35666510D01*
X131299500Y-35821153D01*
X131299500Y-35978846D01*
X131330261Y-36133489D01*
X131330264Y-36133501D01*
X131390602Y-36279172D01*
X131390609Y-36279185D01*
X131478210Y-36410288D01*
X131478213Y-36410292D01*
X131589707Y-36521786D01*
X131589711Y-36521789D01*
X131720814Y-36609390D01*
X131720827Y-36609397D01*
X131866498Y-36669735D01*
X131866503Y-36669737D01*
X132021153Y-36700499D01*
X132021156Y-36700500D01*
X132021158Y-36700500D01*
X132178844Y-36700500D01*
X132178845Y-36700499D01*
X132333497Y-36669737D01*
X132451592Y-36620821D01*
X132479172Y-36609397D01*
X132479172Y-36609396D01*
X132479179Y-36609394D01*
X132610289Y-36521789D01*
X132721789Y-36410289D01*
X132809394Y-36279179D01*
X132869737Y-36133497D01*
X132900500Y-35978842D01*
X132900500Y-35821158D01*
X132900500Y-35821155D01*
X132900499Y-35821153D01*
X132869737Y-35666503D01*
X132842398Y-35600500D01*
X132809397Y-35520827D01*
X132809390Y-35520814D01*
X132721789Y-35389711D01*
X132721786Y-35389707D01*
X132605982Y-35273903D01*
X132606905Y-35272979D01*
X132571361Y-35220795D01*
X132569493Y-35150951D01*
X132586261Y-35113800D01*
X132609389Y-35079186D01*
X132609390Y-35079185D01*
X132609394Y-35079179D01*
X132669737Y-34933497D01*
X132700500Y-34778842D01*
X132700500Y-34621158D01*
X132700500Y-34621155D01*
X132700499Y-34621153D01*
X132669738Y-34466510D01*
X132669737Y-34466503D01*
X132640854Y-34396773D01*
X132609397Y-34320827D01*
X132609390Y-34320814D01*
X132521789Y-34189711D01*
X132521786Y-34189707D01*
X132410292Y-34078213D01*
X132410288Y-34078210D01*
X132279185Y-33990609D01*
X132279172Y-33990602D01*
X132133501Y-33930264D01*
X132133489Y-33930261D01*
X131978845Y-33899500D01*
X131978842Y-33899500D01*
X131821158Y-33899500D01*
X131821155Y-33899500D01*
X131666510Y-33930261D01*
X131666498Y-33930264D01*
X131520827Y-33990602D01*
X131520814Y-33990609D01*
X131389711Y-34078210D01*
X131389707Y-34078213D01*
X131278213Y-34189707D01*
X131278210Y-34189711D01*
X131190609Y-34320814D01*
X131190602Y-34320827D01*
X131130264Y-34466498D01*
X131130261Y-34466510D01*
X131099500Y-34621153D01*
X127680608Y-34621153D01*
X127671922Y-34577487D01*
X127669737Y-34566503D01*
X127613943Y-34431803D01*
X127609397Y-34420827D01*
X127609390Y-34420814D01*
X127521789Y-34289711D01*
X127521786Y-34289707D01*
X127410292Y-34178213D01*
X127410288Y-34178210D01*
X127279185Y-34090609D01*
X127279175Y-34090604D01*
X127218747Y-34065574D01*
X127164344Y-34021733D01*
X127152179Y-33999750D01*
X127147104Y-33987877D01*
X127142515Y-33964805D01*
X127082172Y-33819123D01*
X127062189Y-33789217D01*
X127057666Y-33778634D01*
X127054845Y-33754909D01*
X127047707Y-33732111D01*
X127050796Y-33720848D01*
X127049418Y-33709253D01*
X127059870Y-33687772D01*
X127066191Y-33664731D01*
X127076056Y-33654506D01*
X127079989Y-33646426D01*
X127089356Y-33640724D01*
X127102800Y-33626792D01*
X127110289Y-33621789D01*
X127221789Y-33510289D01*
X127309394Y-33379179D01*
X127369737Y-33233497D01*
X127400500Y-33078842D01*
X127400500Y-32921158D01*
X127400500Y-32921155D01*
X127400499Y-32921153D01*
X127382388Y-32830104D01*
X127369737Y-32766503D01*
X127340649Y-32696277D01*
X127309397Y-32620827D01*
X127309390Y-32620814D01*
X127221789Y-32489711D01*
X127221786Y-32489707D01*
X127110292Y-32378213D01*
X127110288Y-32378210D01*
X126979185Y-32290609D01*
X126979172Y-32290602D01*
X126833501Y-32230264D01*
X126833489Y-32230261D01*
X126678845Y-32199500D01*
X126678842Y-32199500D01*
X126521158Y-32199500D01*
X126521155Y-32199500D01*
X126366510Y-32230261D01*
X126366498Y-32230264D01*
X126220827Y-32290602D01*
X126220814Y-32290609D01*
X126089711Y-32378210D01*
X126089707Y-32378213D01*
X125978213Y-32489707D01*
X125978210Y-32489711D01*
X125890609Y-32620814D01*
X125890602Y-32620827D01*
X125830264Y-32766498D01*
X125830261Y-32766510D01*
X125799500Y-32921153D01*
X125799500Y-33078846D01*
X125830261Y-33233489D01*
X125830264Y-33233501D01*
X125890602Y-33379171D01*
X125890603Y-33379172D01*
X125890606Y-33379179D01*
X125890609Y-33379183D01*
X125904193Y-33399513D01*
X125925071Y-33466190D01*
X125906587Y-33533570D01*
X125869987Y-33571502D01*
X125862493Y-33576509D01*
X125862482Y-33576519D01*
X125750991Y-33688009D01*
X125750988Y-33688013D01*
X125663387Y-33819116D01*
X125663380Y-33819129D01*
X125603042Y-33964800D01*
X125603039Y-33964812D01*
X125572278Y-34119455D01*
X110280811Y-34119455D01*
X110302988Y-34065916D01*
X110302988Y-34065915D01*
X110331206Y-33997790D01*
X110331210Y-33997781D01*
X110388904Y-33782463D01*
X110418000Y-33561457D01*
X110418000Y-33338543D01*
X110388904Y-33117537D01*
X110331210Y-32902219D01*
X110297631Y-32821153D01*
X120999500Y-32821153D01*
X120999500Y-32978846D01*
X121030261Y-33133489D01*
X121030264Y-33133501D01*
X121090602Y-33279172D01*
X121090609Y-33279185D01*
X121178210Y-33410288D01*
X121178213Y-33410292D01*
X121289707Y-33521786D01*
X121289711Y-33521789D01*
X121420814Y-33609390D01*
X121420827Y-33609397D01*
X121554417Y-33664731D01*
X121566503Y-33669737D01*
X121696957Y-33695686D01*
X121721153Y-33700499D01*
X121721156Y-33700500D01*
X121721158Y-33700500D01*
X121878844Y-33700500D01*
X121878845Y-33700499D01*
X122033497Y-33669737D01*
X122179179Y-33609394D01*
X122310289Y-33521789D01*
X122421789Y-33410289D01*
X122509394Y-33279179D01*
X122569737Y-33133497D01*
X122600500Y-32978842D01*
X122600500Y-32821158D01*
X122600500Y-32821155D01*
X122600499Y-32821153D01*
X122575659Y-32696274D01*
X122569737Y-32666503D01*
X122518143Y-32541943D01*
X122509397Y-32520827D01*
X122509390Y-32520814D01*
X122421789Y-32389711D01*
X122421786Y-32389707D01*
X122310292Y-32278213D01*
X122310288Y-32278210D01*
X122179185Y-32190609D01*
X122179172Y-32190602D01*
X122033501Y-32130264D01*
X122033489Y-32130261D01*
X121878845Y-32099500D01*
X121878842Y-32099500D01*
X121721158Y-32099500D01*
X121721155Y-32099500D01*
X121566510Y-32130261D01*
X121566498Y-32130264D01*
X121420827Y-32190602D01*
X121420814Y-32190609D01*
X121289711Y-32278210D01*
X121289707Y-32278213D01*
X121178213Y-32389707D01*
X121178210Y-32389711D01*
X121090609Y-32520814D01*
X121090602Y-32520827D01*
X121030264Y-32666498D01*
X121030261Y-32666510D01*
X120999500Y-32821153D01*
X110297631Y-32821153D01*
X110245906Y-32696277D01*
X110245905Y-32696274D01*
X110134448Y-32503226D01*
X110038521Y-32378211D01*
X109998748Y-32326377D01*
X109998742Y-32326370D01*
X109841129Y-32168757D01*
X109841122Y-32168751D01*
X109664282Y-32033058D01*
X109664280Y-32033057D01*
X109664274Y-32033052D01*
X109471226Y-31921595D01*
X109471222Y-31921593D01*
X109265290Y-31836293D01*
X109265283Y-31836291D01*
X109265284Y-31836291D01*
X109265281Y-31836290D01*
X109161998Y-31808615D01*
X109144879Y-31804028D01*
X109135750Y-31801582D01*
X109076090Y-31765218D01*
X109045561Y-31702371D01*
X109046596Y-31693713D01*
X146049500Y-31693713D01*
X146049500Y-31906287D01*
X146082754Y-32116243D01*
X146139409Y-32290609D01*
X146148444Y-32318414D01*
X146244951Y-32507820D01*
X146369890Y-32679786D01*
X146520213Y-32830109D01*
X146692179Y-32955048D01*
X146692181Y-32955049D01*
X146692184Y-32955051D01*
X146881588Y-33051557D01*
X147083757Y-33117246D01*
X147293713Y-33150500D01*
X147293714Y-33150500D01*
X147506286Y-33150500D01*
X147506287Y-33150500D01*
X147716243Y-33117246D01*
X147918412Y-33051557D01*
X148107816Y-32955051D01*
X148180534Y-32902219D01*
X148279786Y-32830109D01*
X148279788Y-32830106D01*
X148279792Y-32830104D01*
X148430104Y-32679792D01*
X148430106Y-32679788D01*
X148430109Y-32679786D01*
X148555048Y-32507820D01*
X148555047Y-32507820D01*
X148555051Y-32507816D01*
X148651557Y-32318412D01*
X148717246Y-32116243D01*
X148750500Y-31906287D01*
X148750500Y-31693713D01*
X148717246Y-31483757D01*
X148651557Y-31281588D01*
X148555051Y-31092184D01*
X148555049Y-31092181D01*
X148555048Y-31092179D01*
X148430109Y-30920213D01*
X148279786Y-30769890D01*
X148107820Y-30644951D01*
X147918414Y-30548444D01*
X147918413Y-30548443D01*
X147918412Y-30548443D01*
X147716243Y-30482754D01*
X147716241Y-30482753D01*
X147716240Y-30482753D01*
X147554957Y-30457208D01*
X147506287Y-30449500D01*
X147293713Y-30449500D01*
X147245042Y-30457208D01*
X147083760Y-30482753D01*
X146881585Y-30548444D01*
X146692179Y-30644951D01*
X146520213Y-30769890D01*
X146369890Y-30920213D01*
X146244951Y-31092179D01*
X146148444Y-31281585D01*
X146082753Y-31483760D01*
X146076064Y-31525996D01*
X146049500Y-31693713D01*
X109046596Y-31693713D01*
X109053855Y-31632996D01*
X109057352Y-31625526D01*
X109108068Y-31525992D01*
X109181053Y-31301368D01*
X109184186Y-31281585D01*
X109218000Y-31068097D01*
X109218000Y-30831902D01*
X109181053Y-30598631D01*
X109143402Y-30482754D01*
X109108068Y-30374008D01*
X109108066Y-30374005D01*
X109108066Y-30374003D01*
X109051502Y-30262991D01*
X109000843Y-30163567D01*
X108952758Y-30097384D01*
X108929279Y-30031580D01*
X108945104Y-29963526D01*
X108995210Y-29914831D01*
X109053077Y-29900500D01*
X149125500Y-29900500D01*
X149192539Y-29920185D01*
X149238294Y-29972989D01*
X149249500Y-30024500D01*
X149249500Y-86528111D01*
X149229815Y-86595150D01*
X149177011Y-86640905D01*
X149107853Y-86650849D01*
X149044297Y-86621824D01*
X149037819Y-86615792D01*
X148977512Y-86555485D01*
X148977510Y-86555483D01*
X148786433Y-86416657D01*
X148575996Y-86309433D01*
X148351368Y-86236446D01*
X148118097Y-86199500D01*
X148118092Y-86199500D01*
X147881908Y-86199500D01*
X147881903Y-86199500D01*
X147648631Y-86236446D01*
X147424003Y-86309433D01*
X147213566Y-86416657D01*
X147104550Y-86495862D01*
X147022490Y-86555483D01*
X147022488Y-86555485D01*
X147022487Y-86555485D01*
X146855485Y-86722487D01*
X146855485Y-86722488D01*
X146855483Y-86722490D01*
X146850240Y-86729707D01*
X146716657Y-86913566D01*
X146609433Y-87124003D01*
X146536446Y-87348631D01*
X146499500Y-87581902D01*
X146499500Y-87818097D01*
X146536446Y-88051368D01*
X146609433Y-88275996D01*
X146716657Y-88486433D01*
X146855483Y-88677510D01*
X147022490Y-88844517D01*
X147078739Y-88885384D01*
X147121403Y-88940713D01*
X147126095Y-88972542D01*
X147870591Y-89717037D01*
X147807007Y-89734075D01*
X147692993Y-89799901D01*
X147599901Y-89892993D01*
X147534075Y-90007007D01*
X147517037Y-90070591D01*
X146777340Y-89330894D01*
X146717084Y-89413830D01*
X146609897Y-89624197D01*
X146536934Y-89848752D01*
X146500000Y-90081947D01*
X146500000Y-90318052D01*
X146536934Y-90551247D01*
X146609897Y-90775802D01*
X146717087Y-90986174D01*
X146786605Y-91081858D01*
X146810085Y-91147664D01*
X146794260Y-91215718D01*
X146760599Y-91254009D01*
X146642452Y-91342455D01*
X146556206Y-91457664D01*
X146556202Y-91457671D01*
X146505908Y-91592517D01*
X146499501Y-91652116D01*
X146499500Y-91652135D01*
X146499500Y-93747870D01*
X146499501Y-93747876D01*
X146505908Y-93807483D01*
X146556202Y-93942328D01*
X146556206Y-93942335D01*
X146642452Y-94057544D01*
X146642455Y-94057547D01*
X146757664Y-94143793D01*
X146757671Y-94143797D01*
X146892517Y-94194091D01*
X146892516Y-94194091D01*
X146899444Y-94194835D01*
X146952127Y-94200500D01*
X149047872Y-94200499D01*
X149101407Y-94194744D01*
X149112247Y-94193579D01*
X149181006Y-94205986D01*
X149232143Y-94253597D01*
X149249500Y-94316869D01*
X149249500Y-113075500D01*
X149229815Y-113142539D01*
X149177011Y-113188294D01*
X149125500Y-113199500D01*
X125154667Y-113199500D01*
X125087628Y-113179815D01*
X125041873Y-113127011D01*
X125031929Y-113057853D01*
X125040106Y-113028048D01*
X125080128Y-112931424D01*
X125080130Y-112931420D01*
X125120500Y-112728465D01*
X125120500Y-111921535D01*
X125080130Y-111718580D01*
X125000941Y-111527402D01*
X124885977Y-111355345D01*
X124885975Y-111355342D01*
X124739657Y-111209024D01*
X124652100Y-111150521D01*
X124567598Y-111094059D01*
X124479815Y-111057698D01*
X124376420Y-111014870D01*
X124376412Y-111014868D01*
X124173469Y-110974500D01*
X124173465Y-110974500D01*
X123966535Y-110974500D01*
X123966530Y-110974500D01*
X123763587Y-111014868D01*
X123763579Y-111014870D01*
X123572403Y-111094058D01*
X123400342Y-111209024D01*
X123254024Y-111355342D01*
X123139058Y-111527403D01*
X123059870Y-111718579D01*
X123059868Y-111718587D01*
X123019500Y-111921530D01*
X123019500Y-112728469D01*
X123059868Y-112931412D01*
X123059871Y-112931424D01*
X123099894Y-113028048D01*
X123107363Y-113097517D01*
X123076088Y-113159996D01*
X123015999Y-113195648D01*
X122985333Y-113199500D01*
X116514667Y-113199500D01*
X116447628Y-113179815D01*
X116401873Y-113127011D01*
X116391929Y-113057853D01*
X116400106Y-113028048D01*
X116440128Y-112931424D01*
X116440130Y-112931420D01*
X116480500Y-112728465D01*
X116480500Y-111921535D01*
X116440130Y-111718580D01*
X116360941Y-111527402D01*
X116245977Y-111355345D01*
X116245975Y-111355342D01*
X116099657Y-111209024D01*
X116012100Y-111150521D01*
X115927598Y-111094059D01*
X115839815Y-111057698D01*
X115736420Y-111014870D01*
X115736412Y-111014868D01*
X115533469Y-110974500D01*
X115533465Y-110974500D01*
X115326535Y-110974500D01*
X115326530Y-110974500D01*
X115123587Y-111014868D01*
X115123579Y-111014870D01*
X114932403Y-111094058D01*
X114760342Y-111209024D01*
X114614024Y-111355342D01*
X114499058Y-111527403D01*
X114419870Y-111718579D01*
X114419868Y-111718587D01*
X114379500Y-111921530D01*
X114379500Y-112728469D01*
X114419868Y-112931412D01*
X114419871Y-112931424D01*
X114459894Y-113028048D01*
X114467363Y-113097517D01*
X114436088Y-113159996D01*
X114375999Y-113195648D01*
X114345333Y-113199500D01*
X90374500Y-113199500D01*
X90307461Y-113179815D01*
X90261706Y-113127011D01*
X90250500Y-113075500D01*
X90250500Y-111193713D01*
X90749500Y-111193713D01*
X90749500Y-111406287D01*
X90782754Y-111616243D01*
X90823365Y-111741231D01*
X90848444Y-111818414D01*
X90944951Y-112007820D01*
X91069890Y-112179786D01*
X91220213Y-112330109D01*
X91392179Y-112455048D01*
X91392181Y-112455049D01*
X91392184Y-112455051D01*
X91581588Y-112551557D01*
X91783757Y-112617246D01*
X91993713Y-112650500D01*
X91993714Y-112650500D01*
X92206286Y-112650500D01*
X92206287Y-112650500D01*
X92416243Y-112617246D01*
X92618412Y-112551557D01*
X92807816Y-112455051D01*
X92829789Y-112439086D01*
X92979786Y-112330109D01*
X92979788Y-112330106D01*
X92979792Y-112330104D01*
X93130104Y-112179792D01*
X93130106Y-112179788D01*
X93130109Y-112179786D01*
X93255048Y-112007820D01*
X93255047Y-112007820D01*
X93255051Y-112007816D01*
X93351557Y-111818412D01*
X93417246Y-111616243D01*
X93450500Y-111406287D01*
X93450500Y-111193713D01*
X93417246Y-110983757D01*
X93351557Y-110781588D01*
X93255051Y-110592184D01*
X93255049Y-110592181D01*
X93255048Y-110592179D01*
X93130109Y-110420213D01*
X92979786Y-110269890D01*
X92807820Y-110144951D01*
X92618414Y-110048444D01*
X92618413Y-110048443D01*
X92618412Y-110048443D01*
X92416243Y-109982754D01*
X92416241Y-109982753D01*
X92416240Y-109982753D01*
X92254957Y-109957208D01*
X92206287Y-109949500D01*
X91993713Y-109949500D01*
X91945042Y-109957208D01*
X91783760Y-109982753D01*
X91581585Y-110048444D01*
X91392179Y-110144951D01*
X91220213Y-110269890D01*
X91069890Y-110420213D01*
X90944951Y-110592179D01*
X90848444Y-110781585D01*
X90782753Y-110983760D01*
X90771042Y-111057701D01*
X90749500Y-111193713D01*
X90250500Y-111193713D01*
X90250500Y-107499983D01*
X100332000Y-107499983D01*
X100332000Y-108800001D01*
X100332001Y-108800018D01*
X100342500Y-108902796D01*
X100342501Y-108902799D01*
X100397685Y-109069331D01*
X100397687Y-109069336D01*
X100489789Y-109218657D01*
X100613844Y-109342712D01*
X100768620Y-109438178D01*
X100815345Y-109490126D01*
X100826568Y-109559088D01*
X100798724Y-109623171D01*
X100791206Y-109631398D01*
X100652389Y-109770215D01*
X100527451Y-109942179D01*
X100430944Y-110131585D01*
X100365253Y-110333760D01*
X100344435Y-110465203D01*
X100332000Y-110543713D01*
X100332000Y-110756287D01*
X100365254Y-110966243D01*
X100425130Y-111150522D01*
X100430944Y-111168414D01*
X100527451Y-111357820D01*
X100652390Y-111529786D01*
X100802713Y-111680109D01*
X100974679Y-111805048D01*
X100974681Y-111805049D01*
X100974684Y-111805051D01*
X101164088Y-111901557D01*
X101366257Y-111967246D01*
X101576213Y-112000500D01*
X101576214Y-112000500D01*
X102088786Y-112000500D01*
X102088787Y-112000500D01*
X102298743Y-111967246D01*
X102500912Y-111901557D01*
X102690316Y-111805051D01*
X102778156Y-111741232D01*
X102862286Y-111680109D01*
X102862288Y-111680106D01*
X102862292Y-111680104D01*
X103012604Y-111529792D01*
X103012606Y-111529788D01*
X103012609Y-111529786D01*
X103137548Y-111357820D01*
X103137547Y-111357820D01*
X103137551Y-111357816D01*
X103234057Y-111168412D01*
X103299746Y-110966243D01*
X103333000Y-110756287D01*
X103333000Y-110713389D01*
X141899500Y-110713389D01*
X141899500Y-110886610D01*
X141926597Y-111057697D01*
X141926597Y-111057699D01*
X141926598Y-111057701D01*
X141980127Y-111222445D01*
X142058768Y-111376788D01*
X142160586Y-111516928D01*
X142283072Y-111639414D01*
X142423212Y-111741232D01*
X142577555Y-111819873D01*
X142742299Y-111873402D01*
X142913389Y-111900500D01*
X142913390Y-111900500D01*
X143086610Y-111900500D01*
X143086611Y-111900500D01*
X143257701Y-111873402D01*
X143422445Y-111819873D01*
X143576788Y-111741232D01*
X143716928Y-111639414D01*
X143839414Y-111516928D01*
X143941232Y-111376788D01*
X144019873Y-111222445D01*
X144029209Y-111193713D01*
X145949500Y-111193713D01*
X145949500Y-111406287D01*
X145982754Y-111616243D01*
X146023365Y-111741231D01*
X146048444Y-111818414D01*
X146144951Y-112007820D01*
X146269890Y-112179786D01*
X146420213Y-112330109D01*
X146592179Y-112455048D01*
X146592181Y-112455049D01*
X146592184Y-112455051D01*
X146781588Y-112551557D01*
X146983757Y-112617246D01*
X147193713Y-112650500D01*
X147193714Y-112650500D01*
X147406286Y-112650500D01*
X147406287Y-112650500D01*
X147616243Y-112617246D01*
X147818412Y-112551557D01*
X148007816Y-112455051D01*
X148029789Y-112439086D01*
X148179786Y-112330109D01*
X148179788Y-112330106D01*
X148179792Y-112330104D01*
X148330104Y-112179792D01*
X148330106Y-112179788D01*
X148330109Y-112179786D01*
X148455048Y-112007820D01*
X148455047Y-112007820D01*
X148455051Y-112007816D01*
X148551557Y-111818412D01*
X148617246Y-111616243D01*
X148650500Y-111406287D01*
X148650500Y-111193713D01*
X148617246Y-110983757D01*
X148551557Y-110781588D01*
X148455051Y-110592184D01*
X148455049Y-110592181D01*
X148455048Y-110592179D01*
X148330109Y-110420213D01*
X148179786Y-110269890D01*
X148007820Y-110144951D01*
X147818414Y-110048444D01*
X147818413Y-110048443D01*
X147818412Y-110048443D01*
X147616243Y-109982754D01*
X147616241Y-109982753D01*
X147616240Y-109982753D01*
X147454957Y-109957208D01*
X147406287Y-109949500D01*
X147193713Y-109949500D01*
X147145042Y-109957208D01*
X146983760Y-109982753D01*
X146781585Y-110048444D01*
X146592179Y-110144951D01*
X146420213Y-110269890D01*
X146269890Y-110420213D01*
X146144951Y-110592179D01*
X146048444Y-110781585D01*
X145982753Y-110983760D01*
X145971042Y-111057701D01*
X145949500Y-111193713D01*
X144029209Y-111193713D01*
X144073402Y-111057701D01*
X144100500Y-110886611D01*
X144100500Y-110713389D01*
X144073402Y-110542299D01*
X144019873Y-110377555D01*
X143941232Y-110223212D01*
X143839414Y-110083072D01*
X143716928Y-109960586D01*
X143576788Y-109858768D01*
X143422445Y-109780127D01*
X143257701Y-109726598D01*
X143257699Y-109726597D01*
X143257698Y-109726597D01*
X143126271Y-109705781D01*
X143086611Y-109699500D01*
X142913389Y-109699500D01*
X142873728Y-109705781D01*
X142742302Y-109726597D01*
X142577552Y-109780128D01*
X142423211Y-109858768D01*
X142400182Y-109875500D01*
X142283072Y-109960586D01*
X142283070Y-109960588D01*
X142283069Y-109960588D01*
X142160588Y-110083069D01*
X142160588Y-110083070D01*
X142160586Y-110083072D01*
X142125339Y-110131585D01*
X142058768Y-110223211D01*
X141980128Y-110377552D01*
X141926597Y-110542302D01*
X141899500Y-110713389D01*
X103333000Y-110713389D01*
X103333000Y-110543713D01*
X103299746Y-110333757D01*
X103234057Y-110131588D01*
X103137551Y-109942184D01*
X103137549Y-109942181D01*
X103137548Y-109942179D01*
X103012609Y-109770213D01*
X102873794Y-109631398D01*
X102840309Y-109570075D01*
X102845293Y-109500383D01*
X102887165Y-109444450D01*
X102896379Y-109438178D01*
X102901831Y-109434814D01*
X102901834Y-109434814D01*
X103051156Y-109342712D01*
X103175212Y-109218656D01*
X103267314Y-109069334D01*
X103322499Y-108902797D01*
X103333000Y-108800009D01*
X103332999Y-108121530D01*
X114379500Y-108121530D01*
X114379500Y-108928469D01*
X114419868Y-109131412D01*
X114419870Y-109131420D01*
X114499058Y-109322596D01*
X114614024Y-109494657D01*
X114760342Y-109640975D01*
X114760345Y-109640977D01*
X114932402Y-109755941D01*
X115123580Y-109835130D01*
X115326530Y-109875499D01*
X115326534Y-109875500D01*
X115326535Y-109875500D01*
X115533466Y-109875500D01*
X115533467Y-109875499D01*
X115736420Y-109835130D01*
X115927598Y-109755941D01*
X116099655Y-109640977D01*
X116245977Y-109494655D01*
X116360941Y-109322598D01*
X116440130Y-109131420D01*
X116480500Y-108928465D01*
X116480500Y-108121535D01*
X116480499Y-108121530D01*
X123019500Y-108121530D01*
X123019500Y-108928469D01*
X123059868Y-109131412D01*
X123059870Y-109131420D01*
X123139058Y-109322596D01*
X123254024Y-109494657D01*
X123400342Y-109640975D01*
X123400345Y-109640977D01*
X123572402Y-109755941D01*
X123763580Y-109835130D01*
X123966530Y-109875499D01*
X123966534Y-109875500D01*
X123966535Y-109875500D01*
X124173466Y-109875500D01*
X124173467Y-109875499D01*
X124376420Y-109835130D01*
X124546766Y-109764570D01*
X133324107Y-109764570D01*
X133324107Y-109922263D01*
X133354868Y-110076906D01*
X133354871Y-110076918D01*
X133415209Y-110222589D01*
X133415216Y-110222602D01*
X133502817Y-110353705D01*
X133502820Y-110353709D01*
X133614314Y-110465203D01*
X133614318Y-110465206D01*
X133745421Y-110552807D01*
X133745434Y-110552814D01*
X133891105Y-110613152D01*
X133891110Y-110613154D01*
X134045760Y-110643916D01*
X134045763Y-110643917D01*
X134045765Y-110643917D01*
X134203451Y-110643917D01*
X134203452Y-110643916D01*
X134358104Y-110613154D01*
X134385473Y-110601817D01*
X134404453Y-110593956D01*
X134503779Y-110552814D01*
X134503779Y-110552813D01*
X134503786Y-110552811D01*
X134634896Y-110465206D01*
X134746396Y-110353706D01*
X134834001Y-110222596D01*
X134894344Y-110076914D01*
X134925107Y-109922259D01*
X134925107Y-109764575D01*
X134925107Y-109764572D01*
X134925106Y-109764570D01*
X134912163Y-109699500D01*
X134894344Y-109609920D01*
X134846600Y-109494655D01*
X134834004Y-109464244D01*
X134833997Y-109464231D01*
X134746396Y-109333128D01*
X134746393Y-109333124D01*
X134634899Y-109221630D01*
X134634895Y-109221627D01*
X134503792Y-109134026D01*
X134503779Y-109134019D01*
X134358108Y-109073681D01*
X134358096Y-109073678D01*
X134203452Y-109042917D01*
X134203449Y-109042917D01*
X134045765Y-109042917D01*
X134045762Y-109042917D01*
X133891117Y-109073678D01*
X133891105Y-109073681D01*
X133745434Y-109134019D01*
X133745421Y-109134026D01*
X133614318Y-109221627D01*
X133614314Y-109221630D01*
X133502820Y-109333124D01*
X133502817Y-109333128D01*
X133415216Y-109464231D01*
X133415209Y-109464244D01*
X133354871Y-109609915D01*
X133354868Y-109609927D01*
X133324107Y-109764570D01*
X124546766Y-109764570D01*
X124567598Y-109755941D01*
X124739655Y-109640977D01*
X124885977Y-109494655D01*
X125000941Y-109322598D01*
X125080130Y-109131420D01*
X125120500Y-108928465D01*
X125120500Y-108121535D01*
X125083962Y-107937844D01*
X125090189Y-107868254D01*
X125133052Y-107813076D01*
X125181388Y-107792037D01*
X125293497Y-107769737D01*
X125439179Y-107709394D01*
X125570289Y-107621789D01*
X125681789Y-107510289D01*
X125769394Y-107379179D01*
X125829737Y-107233497D01*
X125860500Y-107078842D01*
X125860500Y-106921158D01*
X125860500Y-106921155D01*
X125860499Y-106921153D01*
X125829737Y-106766503D01*
X125829735Y-106766498D01*
X125769397Y-106620827D01*
X125769390Y-106620814D01*
X125681789Y-106489711D01*
X125681786Y-106489707D01*
X125570292Y-106378213D01*
X125570288Y-106378210D01*
X125439185Y-106290609D01*
X125439172Y-106290602D01*
X125293501Y-106230264D01*
X125293489Y-106230261D01*
X125138845Y-106199500D01*
X125138842Y-106199500D01*
X124981158Y-106199500D01*
X124981155Y-106199500D01*
X124826510Y-106230261D01*
X124826498Y-106230264D01*
X124680827Y-106290602D01*
X124680814Y-106290609D01*
X124549711Y-106378210D01*
X124549707Y-106378213D01*
X124438213Y-106489707D01*
X124438210Y-106489711D01*
X124350609Y-106620814D01*
X124350602Y-106620827D01*
X124290264Y-106766498D01*
X124290261Y-106766510D01*
X124259500Y-106921153D01*
X124259500Y-107050500D01*
X124239815Y-107117539D01*
X124187011Y-107163294D01*
X124135500Y-107174500D01*
X123966530Y-107174500D01*
X123763587Y-107214868D01*
X123763579Y-107214870D01*
X123572403Y-107294058D01*
X123400342Y-107409024D01*
X123254024Y-107555342D01*
X123139058Y-107727403D01*
X123059870Y-107918579D01*
X123059868Y-107918587D01*
X123019500Y-108121530D01*
X116480499Y-108121530D01*
X116440130Y-107918580D01*
X116360941Y-107727402D01*
X116245977Y-107555345D01*
X116245975Y-107555342D01*
X116099657Y-107409024D01*
X116013626Y-107351541D01*
X115927598Y-107294059D01*
X115774547Y-107230663D01*
X115736420Y-107214870D01*
X115736412Y-107214868D01*
X115533469Y-107174500D01*
X115533465Y-107174500D01*
X115326535Y-107174500D01*
X115326530Y-107174500D01*
X115123587Y-107214868D01*
X115123579Y-107214870D01*
X114932403Y-107294058D01*
X114760342Y-107409024D01*
X114614024Y-107555342D01*
X114499058Y-107727403D01*
X114419870Y-107918579D01*
X114419868Y-107918587D01*
X114379500Y-108121530D01*
X103332999Y-108121530D01*
X103332999Y-107499992D01*
X103322499Y-107397203D01*
X103267314Y-107230666D01*
X103175212Y-107081344D01*
X103051156Y-106957288D01*
X102992571Y-106921153D01*
X117429500Y-106921153D01*
X117429500Y-107078846D01*
X117460261Y-107233489D01*
X117460264Y-107233501D01*
X117520602Y-107379172D01*
X117520609Y-107379185D01*
X117608210Y-107510288D01*
X117608213Y-107510292D01*
X117719707Y-107621786D01*
X117719711Y-107621789D01*
X117850814Y-107709390D01*
X117850827Y-107709397D01*
X117996498Y-107769735D01*
X117996503Y-107769737D01*
X118108612Y-107792037D01*
X118151153Y-107800499D01*
X118151156Y-107800500D01*
X118151158Y-107800500D01*
X118308844Y-107800500D01*
X118308845Y-107800499D01*
X118463497Y-107769737D01*
X118609179Y-107709394D01*
X118671108Y-107668013D01*
X118737785Y-107647135D01*
X118805165Y-107665619D01*
X118808881Y-107668007D01*
X118836018Y-107686139D01*
X118870813Y-107709389D01*
X118870815Y-107709390D01*
X118870821Y-107709394D01*
X118870823Y-107709395D01*
X118870827Y-107709397D01*
X119016498Y-107769735D01*
X119016503Y-107769737D01*
X119128612Y-107792037D01*
X119171153Y-107800499D01*
X119171156Y-107800500D01*
X119171158Y-107800500D01*
X119328844Y-107800500D01*
X119328845Y-107800499D01*
X119483497Y-107769737D01*
X119629179Y-107709394D01*
X119681110Y-107674694D01*
X119747785Y-107653816D01*
X119815165Y-107672300D01*
X119818863Y-107674676D01*
X119870821Y-107709394D01*
X119870823Y-107709395D01*
X119870825Y-107709396D01*
X120016498Y-107769735D01*
X120016503Y-107769737D01*
X120128612Y-107792037D01*
X120171153Y-107800499D01*
X120171156Y-107800500D01*
X120171158Y-107800500D01*
X120328844Y-107800500D01*
X120328845Y-107800499D01*
X120483497Y-107769737D01*
X120629179Y-107709394D01*
X120760289Y-107621789D01*
X120871789Y-107510289D01*
X120959394Y-107379179D01*
X121019737Y-107233497D01*
X121050500Y-107078842D01*
X121050500Y-106921158D01*
X121050500Y-106921155D01*
X121050499Y-106921153D01*
X121019737Y-106766503D01*
X121019735Y-106766498D01*
X120959397Y-106620827D01*
X120959390Y-106620814D01*
X120871789Y-106489711D01*
X120871786Y-106489707D01*
X120760292Y-106378213D01*
X120760288Y-106378210D01*
X120629185Y-106290609D01*
X120629172Y-106290602D01*
X120483501Y-106230264D01*
X120483489Y-106230261D01*
X120328845Y-106199500D01*
X120328842Y-106199500D01*
X120171158Y-106199500D01*
X120171155Y-106199500D01*
X120016510Y-106230261D01*
X120016498Y-106230264D01*
X119870827Y-106290602D01*
X119870814Y-106290609D01*
X119818891Y-106325304D01*
X119752214Y-106346182D01*
X119684833Y-106327698D01*
X119681109Y-106325304D01*
X119629185Y-106290609D01*
X119629172Y-106290602D01*
X119483501Y-106230264D01*
X119483489Y-106230261D01*
X119328845Y-106199500D01*
X119328842Y-106199500D01*
X119171158Y-106199500D01*
X119171155Y-106199500D01*
X119016510Y-106230261D01*
X119016498Y-106230264D01*
X118870828Y-106290602D01*
X118870812Y-106290611D01*
X118808889Y-106331986D01*
X118742212Y-106352863D01*
X118674832Y-106334378D01*
X118671111Y-106331986D01*
X118609187Y-106290611D01*
X118609183Y-106290609D01*
X118609179Y-106290606D01*
X118609175Y-106290604D01*
X118609171Y-106290602D01*
X118463501Y-106230264D01*
X118463489Y-106230261D01*
X118308845Y-106199500D01*
X118308842Y-106199500D01*
X118151158Y-106199500D01*
X118151155Y-106199500D01*
X117996510Y-106230261D01*
X117996498Y-106230264D01*
X117850827Y-106290602D01*
X117850814Y-106290609D01*
X117719711Y-106378210D01*
X117719707Y-106378213D01*
X117608213Y-106489707D01*
X117608210Y-106489711D01*
X117520609Y-106620814D01*
X117520602Y-106620827D01*
X117460264Y-106766498D01*
X117460261Y-106766510D01*
X117429500Y-106921153D01*
X102992571Y-106921153D01*
X102901834Y-106865186D01*
X102735297Y-106810001D01*
X102735295Y-106810000D01*
X102632510Y-106799500D01*
X101032498Y-106799500D01*
X101032481Y-106799501D01*
X100929703Y-106810000D01*
X100929700Y-106810001D01*
X100763168Y-106865185D01*
X100763163Y-106865187D01*
X100613842Y-106957289D01*
X100489789Y-107081342D01*
X100397687Y-107230663D01*
X100397685Y-107230668D01*
X100376680Y-107294058D01*
X100342501Y-107397203D01*
X100342501Y-107397204D01*
X100342500Y-107397204D01*
X100332000Y-107499983D01*
X90250500Y-107499983D01*
X90250500Y-105623553D01*
X132697100Y-105623553D01*
X132697100Y-105781246D01*
X132727861Y-105935889D01*
X132727864Y-105935901D01*
X132788202Y-106081572D01*
X132788209Y-106081585D01*
X132875810Y-106212688D01*
X132875813Y-106212692D01*
X132987307Y-106324186D01*
X132987311Y-106324189D01*
X133118414Y-106411790D01*
X133118427Y-106411797D01*
X133264098Y-106472135D01*
X133264103Y-106472137D01*
X133418753Y-106502899D01*
X133418756Y-106502900D01*
X133418758Y-106502900D01*
X133576444Y-106502900D01*
X133576445Y-106502899D01*
X133731097Y-106472137D01*
X133876779Y-106411794D01*
X134007889Y-106324189D01*
X134119389Y-106212689D01*
X134206994Y-106081579D01*
X134267337Y-105935897D01*
X134298100Y-105781242D01*
X134298100Y-105623558D01*
X134298100Y-105623555D01*
X134298099Y-105623553D01*
X134267338Y-105468910D01*
X134267337Y-105468903D01*
X134267335Y-105468898D01*
X134206997Y-105323227D01*
X134206990Y-105323214D01*
X134119389Y-105192111D01*
X134119386Y-105192107D01*
X134007892Y-105080613D01*
X134007888Y-105080610D01*
X133876785Y-104993009D01*
X133876772Y-104993002D01*
X133731101Y-104932664D01*
X133731091Y-104932661D01*
X133718385Y-104930134D01*
X133718384Y-104930133D01*
X133576445Y-104901900D01*
X133576442Y-104901900D01*
X133418758Y-104901900D01*
X133418755Y-104901900D01*
X133264110Y-104932661D01*
X133264098Y-104932664D01*
X133118427Y-104993002D01*
X133118414Y-104993009D01*
X132987311Y-105080610D01*
X132987307Y-105080613D01*
X132875813Y-105192107D01*
X132875810Y-105192111D01*
X132788209Y-105323214D01*
X132788202Y-105323227D01*
X132727864Y-105468898D01*
X132727861Y-105468910D01*
X132697100Y-105623553D01*
X90250500Y-105623553D01*
X90250500Y-104813389D01*
X141899500Y-104813389D01*
X141899500Y-104986611D01*
X141926598Y-105157701D01*
X141980127Y-105322445D01*
X142058768Y-105476788D01*
X142160586Y-105616928D01*
X142283072Y-105739414D01*
X142423212Y-105841232D01*
X142577555Y-105919873D01*
X142742299Y-105973402D01*
X142913389Y-106000500D01*
X142913390Y-106000500D01*
X143086610Y-106000500D01*
X143086611Y-106000500D01*
X143257701Y-105973402D01*
X143422445Y-105919873D01*
X143576788Y-105841232D01*
X143716928Y-105739414D01*
X143839414Y-105616928D01*
X143941232Y-105476788D01*
X144019873Y-105322445D01*
X144073402Y-105157701D01*
X144100500Y-104986611D01*
X144100500Y-104813389D01*
X144073402Y-104642299D01*
X144019873Y-104477555D01*
X143941232Y-104323212D01*
X143839414Y-104183072D01*
X143716928Y-104060586D01*
X143576788Y-103958768D01*
X143422445Y-103880127D01*
X143257701Y-103826598D01*
X143257699Y-103826597D01*
X143257698Y-103826597D01*
X143126271Y-103805781D01*
X143086611Y-103799500D01*
X142913389Y-103799500D01*
X142873728Y-103805781D01*
X142742302Y-103826597D01*
X142577552Y-103880128D01*
X142423211Y-103958768D01*
X142353062Y-104009735D01*
X142283072Y-104060586D01*
X142283070Y-104060588D01*
X142283069Y-104060588D01*
X142160588Y-104183069D01*
X142160588Y-104183070D01*
X142160586Y-104183072D01*
X142116859Y-104243256D01*
X142058768Y-104323211D01*
X141980128Y-104477552D01*
X141926597Y-104642302D01*
X141899500Y-104813389D01*
X90250500Y-104813389D01*
X90250500Y-103161153D01*
X124269500Y-103161153D01*
X124269500Y-103318846D01*
X124300261Y-103473489D01*
X124300264Y-103473501D01*
X124360602Y-103619172D01*
X124360609Y-103619185D01*
X124448210Y-103750288D01*
X124448213Y-103750292D01*
X124559707Y-103861786D01*
X124559711Y-103861789D01*
X124690814Y-103949390D01*
X124690827Y-103949397D01*
X124836498Y-104009735D01*
X124836503Y-104009737D01*
X124991153Y-104040499D01*
X124991156Y-104040500D01*
X124991158Y-104040500D01*
X125148844Y-104040500D01*
X125148845Y-104040499D01*
X125303497Y-104009737D01*
X125449179Y-103949394D01*
X125580289Y-103861789D01*
X125691789Y-103750289D01*
X125779394Y-103619179D01*
X125839737Y-103473497D01*
X125870500Y-103318842D01*
X125870500Y-103161158D01*
X125870500Y-103161155D01*
X125870499Y-103161153D01*
X125863486Y-103125897D01*
X125839737Y-103006503D01*
X125779394Y-102860821D01*
X125779389Y-102860814D01*
X125747810Y-102813553D01*
X129887100Y-102813553D01*
X129887100Y-102971246D01*
X129917861Y-103125889D01*
X129917864Y-103125901D01*
X129978202Y-103271572D01*
X129978209Y-103271585D01*
X130065810Y-103402688D01*
X130065813Y-103402692D01*
X130177307Y-103514186D01*
X130177311Y-103514189D01*
X130308414Y-103601790D01*
X130308427Y-103601797D01*
X130454098Y-103662135D01*
X130454103Y-103662137D01*
X130608753Y-103692899D01*
X130608756Y-103692900D01*
X130608758Y-103692900D01*
X130766444Y-103692900D01*
X130766445Y-103692899D01*
X130921097Y-103662137D01*
X131066779Y-103601794D01*
X131197889Y-103514189D01*
X131309389Y-103402689D01*
X131396994Y-103271579D01*
X131457337Y-103125897D01*
X131488100Y-102971242D01*
X131488100Y-102813558D01*
X131488100Y-102813555D01*
X131488099Y-102813553D01*
X131457337Y-102658903D01*
X131440482Y-102618210D01*
X131396997Y-102513227D01*
X131396990Y-102513214D01*
X131309389Y-102382111D01*
X131309386Y-102382107D01*
X131197892Y-102270613D01*
X131197888Y-102270610D01*
X131066785Y-102183009D01*
X131066772Y-102183002D01*
X130921101Y-102122664D01*
X130921089Y-102122661D01*
X130766445Y-102091900D01*
X130766442Y-102091900D01*
X130608758Y-102091900D01*
X130608755Y-102091900D01*
X130454110Y-102122661D01*
X130454098Y-102122664D01*
X130308427Y-102183002D01*
X130308414Y-102183009D01*
X130177311Y-102270610D01*
X130177307Y-102270613D01*
X130065813Y-102382107D01*
X130065810Y-102382111D01*
X129978209Y-102513214D01*
X129978202Y-102513227D01*
X129917864Y-102658898D01*
X129917861Y-102658910D01*
X129887100Y-102813553D01*
X125747810Y-102813553D01*
X125691789Y-102729711D01*
X125691786Y-102729707D01*
X125580292Y-102618213D01*
X125580288Y-102618210D01*
X125449185Y-102530609D01*
X125449172Y-102530602D01*
X125303501Y-102470264D01*
X125303489Y-102470261D01*
X125148845Y-102439500D01*
X125148842Y-102439500D01*
X124991158Y-102439500D01*
X124991155Y-102439500D01*
X124836510Y-102470261D01*
X124836498Y-102470264D01*
X124690827Y-102530602D01*
X124690814Y-102530609D01*
X124559711Y-102618210D01*
X124559707Y-102618213D01*
X124448213Y-102729707D01*
X124448210Y-102729711D01*
X124360609Y-102860814D01*
X124360602Y-102860827D01*
X124300264Y-103006498D01*
X124300261Y-103006510D01*
X124269500Y-103161153D01*
X90250500Y-103161153D01*
X90250500Y-101548473D01*
X90270185Y-101481434D01*
X90322989Y-101435679D01*
X90392147Y-101425735D01*
X90455703Y-101454760D01*
X90477602Y-101479582D01*
X90538210Y-101570288D01*
X90538213Y-101570292D01*
X90649707Y-101681786D01*
X90649711Y-101681789D01*
X90780814Y-101769390D01*
X90780827Y-101769397D01*
X90926498Y-101829735D01*
X90926503Y-101829737D01*
X91081153Y-101860499D01*
X91081156Y-101860500D01*
X91081158Y-101860500D01*
X91238844Y-101860500D01*
X91238845Y-101860499D01*
X91393497Y-101829737D01*
X91539179Y-101769394D01*
X91670289Y-101681789D01*
X91781789Y-101570289D01*
X91869394Y-101439179D01*
X91929737Y-101293497D01*
X91934375Y-101270176D01*
X91946117Y-101211153D01*
X100869500Y-101211153D01*
X100869500Y-101368846D01*
X100900261Y-101523489D01*
X100900264Y-101523501D01*
X100960602Y-101669172D01*
X100960609Y-101669185D01*
X101048210Y-101800288D01*
X101048213Y-101800292D01*
X101159707Y-101911786D01*
X101159711Y-101911789D01*
X101290814Y-101999390D01*
X101290827Y-101999397D01*
X101436498Y-102059735D01*
X101436503Y-102059737D01*
X101591153Y-102090499D01*
X101591156Y-102090500D01*
X101591158Y-102090500D01*
X101748844Y-102090500D01*
X101748845Y-102090499D01*
X101903497Y-102059737D01*
X102049179Y-101999394D01*
X102180289Y-101911789D01*
X102291789Y-101800289D01*
X102379394Y-101669179D01*
X102439737Y-101523497D01*
X102470500Y-101368842D01*
X102470500Y-101211158D01*
X102470500Y-101211155D01*
X102470499Y-101211153D01*
X102450258Y-101109397D01*
X102439737Y-101056503D01*
X102425357Y-101021786D01*
X102379397Y-100910827D01*
X102379390Y-100910814D01*
X102291789Y-100779711D01*
X102291786Y-100779707D01*
X102180292Y-100668213D01*
X102180288Y-100668210D01*
X102049185Y-100580609D01*
X102049172Y-100580602D01*
X101903501Y-100520264D01*
X101903489Y-100520261D01*
X101748845Y-100489500D01*
X101748842Y-100489500D01*
X101591158Y-100489500D01*
X101591155Y-100489500D01*
X101436510Y-100520261D01*
X101436498Y-100520264D01*
X101290827Y-100580602D01*
X101290814Y-100580609D01*
X101159711Y-100668210D01*
X101159707Y-100668213D01*
X101048213Y-100779707D01*
X101048210Y-100779711D01*
X100960609Y-100910814D01*
X100960602Y-100910827D01*
X100900264Y-101056498D01*
X100900261Y-101056510D01*
X100869500Y-101211153D01*
X91946117Y-101211153D01*
X91952140Y-101180874D01*
X91952140Y-101180873D01*
X91960499Y-101138846D01*
X91960500Y-101138844D01*
X91960500Y-100981155D01*
X91960499Y-100981153D01*
X91946509Y-100910821D01*
X91929737Y-100826503D01*
X91910354Y-100779707D01*
X91869397Y-100680827D01*
X91869390Y-100680814D01*
X91781789Y-100549711D01*
X91781786Y-100549707D01*
X91670292Y-100438213D01*
X91670288Y-100438210D01*
X91539185Y-100350609D01*
X91539172Y-100350602D01*
X91393501Y-100290264D01*
X91393489Y-100290261D01*
X91238845Y-100259500D01*
X91238842Y-100259500D01*
X91081158Y-100259500D01*
X91081155Y-100259500D01*
X90926510Y-100290261D01*
X90926498Y-100290264D01*
X90780827Y-100350602D01*
X90780814Y-100350609D01*
X90649711Y-100438210D01*
X90649707Y-100438213D01*
X90538213Y-100549707D01*
X90538210Y-100549711D01*
X90477602Y-100640417D01*
X90423989Y-100685222D01*
X90354664Y-100693929D01*
X90291637Y-100663774D01*
X90254918Y-100604331D01*
X90250500Y-100571526D01*
X90250500Y-99321153D01*
X99429500Y-99321153D01*
X99429500Y-99478846D01*
X99460261Y-99633489D01*
X99460264Y-99633501D01*
X99520602Y-99779172D01*
X99520609Y-99779185D01*
X99608210Y-99910288D01*
X99608213Y-99910292D01*
X99719707Y-100021786D01*
X99719711Y-100021789D01*
X99850814Y-100109390D01*
X99850827Y-100109397D01*
X99988683Y-100166498D01*
X99996503Y-100169737D01*
X100151153Y-100200499D01*
X100151156Y-100200500D01*
X100151158Y-100200500D01*
X100308844Y-100200500D01*
X100308845Y-100200499D01*
X100463497Y-100169737D01*
X100609179Y-100109394D01*
X100740289Y-100021789D01*
X100851789Y-99910289D01*
X100939394Y-99779179D01*
X100999737Y-99633497D01*
X101008160Y-99591153D01*
X110479500Y-99591153D01*
X110479500Y-99748846D01*
X110510261Y-99903489D01*
X110510264Y-99903501D01*
X110570602Y-100049172D01*
X110570609Y-100049185D01*
X110658210Y-100180288D01*
X110658213Y-100180292D01*
X110769707Y-100291786D01*
X110769711Y-100291789D01*
X110900814Y-100379390D01*
X110900827Y-100379397D01*
X111042816Y-100438210D01*
X111046503Y-100439737D01*
X111201153Y-100470499D01*
X111201156Y-100470500D01*
X111201158Y-100470500D01*
X111358844Y-100470500D01*
X111358845Y-100470499D01*
X111513497Y-100439737D01*
X111659179Y-100379394D01*
X111746343Y-100321153D01*
X137699500Y-100321153D01*
X137699500Y-100478846D01*
X137730261Y-100633489D01*
X137730264Y-100633501D01*
X137790602Y-100779172D01*
X137790609Y-100779185D01*
X137878210Y-100910288D01*
X137878213Y-100910292D01*
X137989707Y-101021786D01*
X137989711Y-101021789D01*
X138120814Y-101109390D01*
X138120827Y-101109397D01*
X138266498Y-101169735D01*
X138266503Y-101169737D01*
X138421153Y-101200499D01*
X138421156Y-101200500D01*
X138421158Y-101200500D01*
X138578844Y-101200500D01*
X138578845Y-101200499D01*
X138733497Y-101169737D01*
X138879179Y-101109394D01*
X139010289Y-101021789D01*
X139121789Y-100910289D01*
X139209394Y-100779179D01*
X139269737Y-100633497D01*
X139300500Y-100478842D01*
X139300500Y-100321158D01*
X139300500Y-100321155D01*
X139300499Y-100321153D01*
X139294658Y-100291789D01*
X139269737Y-100166503D01*
X139221143Y-100049185D01*
X139209397Y-100020827D01*
X139209390Y-100020814D01*
X139121789Y-99889711D01*
X139121786Y-99889707D01*
X139010292Y-99778213D01*
X139010288Y-99778210D01*
X138879185Y-99690609D01*
X138879172Y-99690602D01*
X138733501Y-99630264D01*
X138733489Y-99630261D01*
X138578845Y-99599500D01*
X138578842Y-99599500D01*
X138421158Y-99599500D01*
X138421155Y-99599500D01*
X138266510Y-99630261D01*
X138266498Y-99630264D01*
X138120827Y-99690602D01*
X138120814Y-99690609D01*
X137989711Y-99778210D01*
X137989707Y-99778213D01*
X137878213Y-99889707D01*
X137878210Y-99889711D01*
X137790609Y-100020814D01*
X137790602Y-100020827D01*
X137730264Y-100166498D01*
X137730261Y-100166510D01*
X137699500Y-100321153D01*
X111746343Y-100321153D01*
X111790289Y-100291789D01*
X111791817Y-100290261D01*
X111854694Y-100227385D01*
X111901786Y-100180292D01*
X111901789Y-100180289D01*
X111910996Y-100166510D01*
X111989394Y-100049179D01*
X112000710Y-100021858D01*
X112044549Y-99967456D01*
X112110842Y-99945389D01*
X112139459Y-99947692D01*
X112186453Y-99957040D01*
X112203845Y-99960500D01*
X112203846Y-99960500D01*
X112361532Y-99960500D01*
X112361533Y-99960499D01*
X112516185Y-99929737D01*
X112661867Y-99869394D01*
X112792977Y-99781789D01*
X112904477Y-99670289D01*
X112992082Y-99539179D01*
X113052425Y-99393497D01*
X113083188Y-99238842D01*
X113083188Y-99081158D01*
X113083188Y-99081155D01*
X113083187Y-99081153D01*
X113059209Y-98960609D01*
X113052425Y-98926503D01*
X113041555Y-98900261D01*
X112992085Y-98780827D01*
X112992078Y-98780814D01*
X112904477Y-98649711D01*
X112904474Y-98649707D01*
X112792980Y-98538213D01*
X112792976Y-98538210D01*
X112661873Y-98450609D01*
X112661860Y-98450602D01*
X112516189Y-98390264D01*
X112516177Y-98390261D01*
X112361533Y-98359500D01*
X112361530Y-98359500D01*
X112203846Y-98359500D01*
X112203843Y-98359500D01*
X112049198Y-98390261D01*
X112049186Y-98390264D01*
X111903515Y-98450602D01*
X111903502Y-98450609D01*
X111772399Y-98538210D01*
X111772395Y-98538213D01*
X111660901Y-98649707D01*
X111660898Y-98649711D01*
X111573297Y-98780814D01*
X111573292Y-98780824D01*
X111561977Y-98808142D01*
X111518136Y-98862545D01*
X111451842Y-98884610D01*
X111423225Y-98882306D01*
X111358845Y-98869500D01*
X111358842Y-98869500D01*
X111201158Y-98869500D01*
X111201155Y-98869500D01*
X111046510Y-98900261D01*
X111046498Y-98900264D01*
X110900827Y-98960602D01*
X110900814Y-98960609D01*
X110769711Y-99048210D01*
X110769707Y-99048213D01*
X110658213Y-99159707D01*
X110658210Y-99159711D01*
X110570609Y-99290814D01*
X110570602Y-99290827D01*
X110510264Y-99436498D01*
X110510261Y-99436510D01*
X110479500Y-99591153D01*
X101008160Y-99591153D01*
X101018500Y-99539172D01*
X101030500Y-99478844D01*
X101030500Y-99321155D01*
X101030499Y-99321153D01*
X101024467Y-99290827D01*
X100999737Y-99166503D01*
X100996922Y-99159707D01*
X100939397Y-99020827D01*
X100939390Y-99020814D01*
X100851789Y-98889711D01*
X100851786Y-98889707D01*
X100740292Y-98778213D01*
X100740288Y-98778210D01*
X100609185Y-98690609D01*
X100609172Y-98690602D01*
X100463501Y-98630264D01*
X100463489Y-98630261D01*
X100308845Y-98599500D01*
X100308842Y-98599500D01*
X100151158Y-98599500D01*
X100151155Y-98599500D01*
X99996510Y-98630261D01*
X99996498Y-98630264D01*
X99850827Y-98690602D01*
X99850814Y-98690609D01*
X99719711Y-98778210D01*
X99719707Y-98778213D01*
X99608213Y-98889707D01*
X99608210Y-98889711D01*
X99520609Y-99020814D01*
X99520602Y-99020827D01*
X99460264Y-99166498D01*
X99460261Y-99166510D01*
X99429500Y-99321153D01*
X90250500Y-99321153D01*
X90250500Y-98471153D01*
X107639500Y-98471153D01*
X107639500Y-98628846D01*
X107670261Y-98783489D01*
X107670264Y-98783501D01*
X107730602Y-98929172D01*
X107730609Y-98929185D01*
X107818210Y-99060288D01*
X107818213Y-99060292D01*
X107929707Y-99171786D01*
X107929711Y-99171789D01*
X108060814Y-99259390D01*
X108060827Y-99259397D01*
X108206498Y-99319735D01*
X108206503Y-99319737D01*
X108361153Y-99350499D01*
X108361156Y-99350500D01*
X108361158Y-99350500D01*
X108518844Y-99350500D01*
X108518845Y-99350499D01*
X108673497Y-99319737D01*
X108819179Y-99259394D01*
X108950289Y-99171789D01*
X109061789Y-99060289D01*
X109149394Y-98929179D01*
X109150503Y-98926503D01*
X109209735Y-98783501D01*
X109209737Y-98783497D01*
X109240500Y-98628842D01*
X109240500Y-98471158D01*
X109240500Y-98471155D01*
X109240499Y-98471153D01*
X109209737Y-98316503D01*
X109209735Y-98316498D01*
X109149397Y-98170827D01*
X109149390Y-98170814D01*
X109061789Y-98039711D01*
X109061786Y-98039707D01*
X108950292Y-97928213D01*
X108950288Y-97928210D01*
X108819185Y-97840609D01*
X108819172Y-97840602D01*
X108673501Y-97780264D01*
X108673489Y-97780261D01*
X108518845Y-97749500D01*
X108518842Y-97749500D01*
X108361158Y-97749500D01*
X108361155Y-97749500D01*
X108206510Y-97780261D01*
X108206498Y-97780264D01*
X108060827Y-97840602D01*
X108060814Y-97840609D01*
X107929711Y-97928210D01*
X107929707Y-97928213D01*
X107818213Y-98039707D01*
X107818210Y-98039711D01*
X107730609Y-98170814D01*
X107730602Y-98170827D01*
X107670264Y-98316498D01*
X107670261Y-98316510D01*
X107639500Y-98471153D01*
X90250500Y-98471153D01*
X90250500Y-94151153D01*
X95999500Y-94151153D01*
X95999500Y-94308846D01*
X96030261Y-94463489D01*
X96030264Y-94463501D01*
X96090602Y-94609172D01*
X96090609Y-94609185D01*
X96178210Y-94740288D01*
X96178213Y-94740292D01*
X96289707Y-94851786D01*
X96289711Y-94851789D01*
X96420814Y-94939390D01*
X96420827Y-94939397D01*
X96566498Y-94999735D01*
X96566503Y-94999737D01*
X96721153Y-95030499D01*
X96721156Y-95030500D01*
X96721158Y-95030500D01*
X96878844Y-95030500D01*
X96878845Y-95030499D01*
X97033497Y-94999737D01*
X97179179Y-94939394D01*
X97310289Y-94851789D01*
X97409943Y-94752135D01*
X138399500Y-94752135D01*
X138399500Y-96847870D01*
X138399501Y-96847876D01*
X138405908Y-96907483D01*
X138456202Y-97042328D01*
X138456206Y-97042335D01*
X138542452Y-97157544D01*
X138542455Y-97157547D01*
X138657664Y-97243793D01*
X138657671Y-97243797D01*
X138792517Y-97294091D01*
X138792516Y-97294091D01*
X138799444Y-97294835D01*
X138852127Y-97300500D01*
X142147872Y-97300499D01*
X142207483Y-97294091D01*
X142342331Y-97243796D01*
X142457546Y-97157546D01*
X142543796Y-97042331D01*
X142594091Y-96907483D01*
X142600500Y-96847873D01*
X142600499Y-94752128D01*
X142594091Y-94692517D01*
X142563010Y-94609185D01*
X142543797Y-94557671D01*
X142543793Y-94557664D01*
X142457547Y-94442455D01*
X142457544Y-94442452D01*
X142342335Y-94356206D01*
X142342328Y-94356202D01*
X142207482Y-94305908D01*
X142207483Y-94305908D01*
X142147883Y-94299501D01*
X142147881Y-94299500D01*
X142147873Y-94299500D01*
X142147864Y-94299500D01*
X138852129Y-94299500D01*
X138852123Y-94299501D01*
X138792516Y-94305908D01*
X138657671Y-94356202D01*
X138657664Y-94356206D01*
X138542455Y-94442452D01*
X138542452Y-94442455D01*
X138456206Y-94557664D01*
X138456202Y-94557671D01*
X138405908Y-94692517D01*
X138400772Y-94740292D01*
X138399501Y-94752123D01*
X138399500Y-94752135D01*
X97409943Y-94752135D01*
X97421789Y-94740289D01*
X97509394Y-94609179D01*
X97569737Y-94463497D01*
X97600500Y-94308842D01*
X97600500Y-94151158D01*
X97600500Y-94151155D01*
X97600499Y-94151153D01*
X97578447Y-94040292D01*
X97569737Y-93996503D01*
X97547300Y-93942335D01*
X97509397Y-93850827D01*
X97509390Y-93850814D01*
X97421789Y-93719711D01*
X97421786Y-93719707D01*
X97413470Y-93711391D01*
X97379985Y-93650068D01*
X97384969Y-93580376D01*
X97426841Y-93524443D01*
X97432261Y-93520608D01*
X97496140Y-93477925D01*
X97520289Y-93461789D01*
X97631789Y-93350289D01*
X97719394Y-93219179D01*
X97779737Y-93073497D01*
X97810500Y-92918842D01*
X97810500Y-92761158D01*
X97802543Y-92721158D01*
X97802542Y-92721153D01*
X108359500Y-92721153D01*
X108359500Y-92878846D01*
X108390261Y-93033489D01*
X108390264Y-93033501D01*
X108450602Y-93179172D01*
X108450609Y-93179185D01*
X108538210Y-93310288D01*
X108538213Y-93310292D01*
X108649708Y-93421787D01*
X108649711Y-93421789D01*
X108764392Y-93498416D01*
X108809196Y-93552026D01*
X108819500Y-93601517D01*
X108819500Y-93608846D01*
X108850261Y-93763489D01*
X108850264Y-93763501D01*
X108910602Y-93909172D01*
X108910609Y-93909185D01*
X108998210Y-94040288D01*
X108998213Y-94040292D01*
X109109707Y-94151786D01*
X109109711Y-94151789D01*
X109240814Y-94239390D01*
X109240827Y-94239397D01*
X109385931Y-94299500D01*
X109386503Y-94299737D01*
X109541153Y-94330499D01*
X109541156Y-94330500D01*
X109541158Y-94330500D01*
X109698844Y-94330500D01*
X109698845Y-94330499D01*
X109853497Y-94299737D01*
X109999179Y-94239394D01*
X110130289Y-94151789D01*
X110241789Y-94040289D01*
X110329394Y-93909179D01*
X110389737Y-93763497D01*
X110420500Y-93608842D01*
X110420500Y-93451158D01*
X110420500Y-93451155D01*
X110420499Y-93451153D01*
X110414658Y-93421787D01*
X110389737Y-93296503D01*
X110389735Y-93296498D01*
X110329397Y-93150827D01*
X110329390Y-93150814D01*
X110241789Y-93019711D01*
X110241786Y-93019707D01*
X110130292Y-92908213D01*
X110130288Y-92908210D01*
X110015609Y-92831584D01*
X109970804Y-92777972D01*
X109962320Y-92749649D01*
X109960500Y-92739143D01*
X109960500Y-92721158D01*
X109932809Y-92581947D01*
X132000000Y-92581947D01*
X132000000Y-92818052D01*
X132036934Y-93051247D01*
X132109897Y-93275802D01*
X132217087Y-93486174D01*
X132277338Y-93569104D01*
X132277340Y-93569105D01*
X133017037Y-92829408D01*
X133034075Y-92892993D01*
X133099901Y-93007007D01*
X133192993Y-93100099D01*
X133307007Y-93165925D01*
X133370590Y-93182962D01*
X132630893Y-93922658D01*
X132713828Y-93982914D01*
X132924197Y-94090102D01*
X133148752Y-94163065D01*
X133148751Y-94163065D01*
X133381948Y-94200000D01*
X133618052Y-94200000D01*
X133851247Y-94163065D01*
X134075802Y-94090102D01*
X134286163Y-93982918D01*
X134286169Y-93982914D01*
X134369104Y-93922658D01*
X134369105Y-93922658D01*
X133629408Y-93182962D01*
X133692993Y-93165925D01*
X133807007Y-93100099D01*
X133900099Y-93007007D01*
X133965925Y-92892993D01*
X133982962Y-92829409D01*
X134722658Y-93569105D01*
X134722658Y-93569104D01*
X134782914Y-93486169D01*
X134782918Y-93486163D01*
X134890102Y-93275802D01*
X134963065Y-93051247D01*
X135000000Y-92818052D01*
X135000000Y-92581947D01*
X134963065Y-92348752D01*
X134890102Y-92124197D01*
X134782914Y-91913828D01*
X134722658Y-91830894D01*
X134722658Y-91830893D01*
X133982962Y-92570590D01*
X133965925Y-92507007D01*
X133900099Y-92392993D01*
X133807007Y-92299901D01*
X133692993Y-92234075D01*
X133629409Y-92217037D01*
X134369105Y-91477340D01*
X134369104Y-91477338D01*
X134286174Y-91417087D01*
X134075802Y-91309897D01*
X133851247Y-91236934D01*
X133851248Y-91236934D01*
X133618052Y-91200000D01*
X133381948Y-91200000D01*
X133148752Y-91236934D01*
X132924197Y-91309897D01*
X132713830Y-91417084D01*
X132630894Y-91477340D01*
X133370591Y-92217037D01*
X133307007Y-92234075D01*
X133192993Y-92299901D01*
X133099901Y-92392993D01*
X133034075Y-92507007D01*
X133017037Y-92570591D01*
X132277340Y-91830894D01*
X132217084Y-91913830D01*
X132109897Y-92124197D01*
X132036934Y-92348752D01*
X132000000Y-92581947D01*
X109932809Y-92581947D01*
X109929737Y-92566503D01*
X109885965Y-92460827D01*
X109869397Y-92420827D01*
X109869390Y-92420814D01*
X109781789Y-92289711D01*
X109781786Y-92289707D01*
X109670292Y-92178213D01*
X109670288Y-92178210D01*
X109539185Y-92090609D01*
X109539172Y-92090602D01*
X109393501Y-92030264D01*
X109393489Y-92030261D01*
X109238845Y-91999500D01*
X109238842Y-91999500D01*
X109081158Y-91999500D01*
X109081155Y-91999500D01*
X108926510Y-92030261D01*
X108926498Y-92030264D01*
X108780827Y-92090602D01*
X108780814Y-92090609D01*
X108649711Y-92178210D01*
X108649707Y-92178213D01*
X108538213Y-92289707D01*
X108538210Y-92289711D01*
X108450609Y-92420814D01*
X108450602Y-92420827D01*
X108390264Y-92566498D01*
X108390261Y-92566510D01*
X108359500Y-92721153D01*
X97802542Y-92721153D01*
X97779738Y-92606510D01*
X97779737Y-92606503D01*
X97769566Y-92581947D01*
X97719397Y-92460827D01*
X97719390Y-92460814D01*
X97631789Y-92329711D01*
X97631786Y-92329707D01*
X97520292Y-92218213D01*
X97520288Y-92218210D01*
X97389185Y-92130609D01*
X97389172Y-92130602D01*
X97243501Y-92070264D01*
X97243489Y-92070261D01*
X97088845Y-92039500D01*
X97088842Y-92039500D01*
X96931158Y-92039500D01*
X96931155Y-92039500D01*
X96776510Y-92070261D01*
X96776498Y-92070264D01*
X96630827Y-92130602D01*
X96630814Y-92130609D01*
X96499711Y-92218210D01*
X96499707Y-92218213D01*
X96388213Y-92329707D01*
X96388210Y-92329711D01*
X96300609Y-92460814D01*
X96300602Y-92460827D01*
X96240264Y-92606498D01*
X96240261Y-92606510D01*
X96209500Y-92761153D01*
X96209500Y-92918846D01*
X96240261Y-93073489D01*
X96240264Y-93073501D01*
X96300602Y-93219172D01*
X96300609Y-93219185D01*
X96388210Y-93350288D01*
X96388213Y-93350292D01*
X96396529Y-93358608D01*
X96430014Y-93419931D01*
X96425030Y-93489623D01*
X96383158Y-93545556D01*
X96377740Y-93549391D01*
X96289707Y-93608213D01*
X96178213Y-93719707D01*
X96178210Y-93719711D01*
X96090609Y-93850814D01*
X96090602Y-93850827D01*
X96030264Y-93996498D01*
X96030261Y-93996510D01*
X95999500Y-94151153D01*
X90250500Y-94151153D01*
X90250500Y-91291153D01*
X91429500Y-91291153D01*
X91429500Y-91448846D01*
X91460261Y-91603489D01*
X91460264Y-91603501D01*
X91520602Y-91749172D01*
X91520609Y-91749185D01*
X91608210Y-91880288D01*
X91608213Y-91880292D01*
X91719707Y-91991786D01*
X91719711Y-91991789D01*
X91850814Y-92079390D01*
X91850827Y-92079397D01*
X91974466Y-92130609D01*
X91996503Y-92139737D01*
X92151153Y-92170499D01*
X92151156Y-92170500D01*
X92151158Y-92170500D01*
X92308844Y-92170500D01*
X92308845Y-92170499D01*
X92463497Y-92139737D01*
X92609179Y-92079394D01*
X92740289Y-91991789D01*
X92851789Y-91880289D01*
X92939394Y-91749179D01*
X92999737Y-91603497D01*
X93020603Y-91498595D01*
X93030500Y-91448844D01*
X93030500Y-91291155D01*
X93030499Y-91291153D01*
X92999737Y-91136503D01*
X92999735Y-91136498D01*
X92939397Y-90990827D01*
X92939390Y-90990814D01*
X92851789Y-90859711D01*
X92851786Y-90859707D01*
X92740292Y-90748213D01*
X92740288Y-90748210D01*
X92609185Y-90660609D01*
X92609172Y-90660602D01*
X92463501Y-90600264D01*
X92463489Y-90600261D01*
X92308845Y-90569500D01*
X92308842Y-90569500D01*
X92151158Y-90569500D01*
X92151155Y-90569500D01*
X91996510Y-90600261D01*
X91996498Y-90600264D01*
X91850827Y-90660602D01*
X91850814Y-90660609D01*
X91719711Y-90748210D01*
X91719707Y-90748213D01*
X91608213Y-90859707D01*
X91608210Y-90859711D01*
X91520609Y-90990814D01*
X91520602Y-90990827D01*
X91460264Y-91136498D01*
X91460261Y-91136510D01*
X91429500Y-91291153D01*
X90250500Y-91291153D01*
X90250500Y-89421153D01*
X110309500Y-89421153D01*
X110309500Y-89578846D01*
X110340261Y-89733489D01*
X110340264Y-89733501D01*
X110400602Y-89879172D01*
X110400609Y-89879185D01*
X110488210Y-90010288D01*
X110488213Y-90010292D01*
X110599707Y-90121786D01*
X110599711Y-90121789D01*
X110730814Y-90209390D01*
X110730827Y-90209397D01*
X110867061Y-90265826D01*
X110876503Y-90269737D01*
X110973822Y-90289095D01*
X111031153Y-90300499D01*
X111031156Y-90300500D01*
X111031158Y-90300500D01*
X111188844Y-90300500D01*
X111188845Y-90300499D01*
X111343497Y-90269737D01*
X111489179Y-90209394D01*
X111620289Y-90121789D01*
X111731789Y-90010289D01*
X111819394Y-89879179D01*
X111879737Y-89733497D01*
X111910500Y-89578842D01*
X111910500Y-89421158D01*
X111910500Y-89421155D01*
X111910499Y-89421153D01*
X111879738Y-89266510D01*
X111879737Y-89266503D01*
X111837094Y-89163553D01*
X111819397Y-89120827D01*
X111819390Y-89120814D01*
X111731789Y-88989711D01*
X111731786Y-88989707D01*
X111620292Y-88878213D01*
X111620288Y-88878210D01*
X111489185Y-88790609D01*
X111489172Y-88790602D01*
X111343501Y-88730264D01*
X111343489Y-88730261D01*
X111188845Y-88699500D01*
X111188842Y-88699500D01*
X111031158Y-88699500D01*
X111031155Y-88699500D01*
X110876510Y-88730261D01*
X110876498Y-88730264D01*
X110730827Y-88790602D01*
X110730814Y-88790609D01*
X110599711Y-88878210D01*
X110599707Y-88878213D01*
X110488213Y-88989707D01*
X110488210Y-88989711D01*
X110400609Y-89120814D01*
X110400602Y-89120827D01*
X110340264Y-89266498D01*
X110340261Y-89266510D01*
X110309500Y-89421153D01*
X90250500Y-89421153D01*
X90250500Y-87161153D01*
X122609500Y-87161153D01*
X122609500Y-87318846D01*
X122640261Y-87473489D01*
X122640264Y-87473501D01*
X122700602Y-87619172D01*
X122700609Y-87619185D01*
X122788210Y-87750288D01*
X122788213Y-87750292D01*
X122899707Y-87861786D01*
X122899711Y-87861789D01*
X123030814Y-87949390D01*
X123030827Y-87949397D01*
X123176498Y-88009735D01*
X123176503Y-88009737D01*
X123331153Y-88040499D01*
X123331156Y-88040500D01*
X123331158Y-88040500D01*
X123488844Y-88040500D01*
X123488845Y-88040499D01*
X123643497Y-88009737D01*
X123789179Y-87949394D01*
X123920289Y-87861789D01*
X124031789Y-87750289D01*
X124119394Y-87619179D01*
X124134835Y-87581902D01*
X131999500Y-87581902D01*
X131999500Y-87818097D01*
X132036446Y-88051368D01*
X132109433Y-88275996D01*
X132216657Y-88486433D01*
X132355483Y-88677510D01*
X132522490Y-88844517D01*
X132713567Y-88983343D01*
X132812991Y-89034002D01*
X132924003Y-89090566D01*
X132924005Y-89090566D01*
X132924008Y-89090568D01*
X133044412Y-89129689D01*
X133148631Y-89163553D01*
X133381903Y-89200500D01*
X133381908Y-89200500D01*
X133618097Y-89200500D01*
X133851368Y-89163553D01*
X134075992Y-89090568D01*
X134286433Y-88983343D01*
X134477510Y-88844517D01*
X134644517Y-88677510D01*
X134783343Y-88486433D01*
X134890568Y-88275992D01*
X134963553Y-88051368D01*
X134965274Y-88040500D01*
X135000500Y-87818097D01*
X135000500Y-87581902D01*
X134963553Y-87348631D01*
X134890566Y-87124003D01*
X134783342Y-86913566D01*
X134644517Y-86722490D01*
X134477510Y-86555483D01*
X134286433Y-86416657D01*
X134075996Y-86309433D01*
X133851368Y-86236446D01*
X133618097Y-86199500D01*
X133618092Y-86199500D01*
X133381908Y-86199500D01*
X133381903Y-86199500D01*
X133148631Y-86236446D01*
X132924003Y-86309433D01*
X132713566Y-86416657D01*
X132604550Y-86495862D01*
X132522490Y-86555483D01*
X132522488Y-86555485D01*
X132522487Y-86555485D01*
X132355485Y-86722487D01*
X132355485Y-86722488D01*
X132355483Y-86722490D01*
X132350240Y-86729707D01*
X132216657Y-86913566D01*
X132109433Y-87124003D01*
X132036446Y-87348631D01*
X131999500Y-87581902D01*
X124134835Y-87581902D01*
X124179737Y-87473497D01*
X124210500Y-87318842D01*
X124210500Y-87161158D01*
X124210500Y-87161155D01*
X124210499Y-87161153D01*
X124179738Y-87006510D01*
X124179737Y-87006503D01*
X124121948Y-86866986D01*
X124119397Y-86860827D01*
X124119390Y-86860814D01*
X124031789Y-86729711D01*
X124031786Y-86729707D01*
X123920292Y-86618213D01*
X123920288Y-86618210D01*
X123789185Y-86530609D01*
X123789172Y-86530602D01*
X123643501Y-86470264D01*
X123643489Y-86470261D01*
X123488845Y-86439500D01*
X123488842Y-86439500D01*
X123331158Y-86439500D01*
X123331155Y-86439500D01*
X123176510Y-86470261D01*
X123176498Y-86470264D01*
X123030827Y-86530602D01*
X123030814Y-86530609D01*
X122899711Y-86618210D01*
X122899707Y-86618213D01*
X122788213Y-86729707D01*
X122788210Y-86729711D01*
X122700609Y-86860814D01*
X122700602Y-86860827D01*
X122640264Y-87006498D01*
X122640261Y-87006510D01*
X122609500Y-87161153D01*
X90250500Y-87161153D01*
X90250500Y-84421153D01*
X118042956Y-84421153D01*
X118042956Y-84578846D01*
X118073717Y-84733489D01*
X118073720Y-84733501D01*
X118134058Y-84879172D01*
X118134065Y-84879185D01*
X118221666Y-85010288D01*
X118221669Y-85010292D01*
X118333163Y-85121786D01*
X118333167Y-85121789D01*
X118464270Y-85209390D01*
X118464283Y-85209397D01*
X118609954Y-85269735D01*
X118609959Y-85269737D01*
X118730680Y-85293750D01*
X118764609Y-85300499D01*
X118764612Y-85300500D01*
X118764614Y-85300500D01*
X118922298Y-85300500D01*
X118987528Y-85287524D01*
X119057117Y-85293750D01*
X119112295Y-85336612D01*
X119114821Y-85340250D01*
X119128210Y-85360288D01*
X119128213Y-85360292D01*
X119239707Y-85471786D01*
X119239711Y-85471789D01*
X119370814Y-85559390D01*
X119370827Y-85559397D01*
X119516498Y-85619735D01*
X119516503Y-85619737D01*
X119658002Y-85647883D01*
X119671153Y-85650499D01*
X119671156Y-85650500D01*
X119671158Y-85650500D01*
X119828844Y-85650500D01*
X119828845Y-85650499D01*
X119983497Y-85619737D01*
X120129179Y-85559394D01*
X120260289Y-85471789D01*
X120371789Y-85360289D01*
X120459394Y-85229179D01*
X120519737Y-85083497D01*
X120550500Y-84928842D01*
X120550500Y-84771158D01*
X120550500Y-84771155D01*
X120550499Y-84771153D01*
X120519737Y-84616503D01*
X120504139Y-84578846D01*
X120459397Y-84470827D01*
X120459390Y-84470814D01*
X120371789Y-84339711D01*
X120371786Y-84339707D01*
X120260292Y-84228213D01*
X120260288Y-84228210D01*
X120129185Y-84140609D01*
X120129172Y-84140602D01*
X119983501Y-84080264D01*
X119983489Y-84080261D01*
X119828845Y-84049500D01*
X119828842Y-84049500D01*
X119671158Y-84049500D01*
X119646699Y-84054365D01*
X119605926Y-84062475D01*
X119588521Y-84060917D01*
X119571403Y-84064426D01*
X119554443Y-84057866D01*
X119536334Y-84056246D01*
X119522368Y-84045461D01*
X119506237Y-84039223D01*
X119485203Y-84016763D01*
X119481583Y-84013968D01*
X119480048Y-84011865D01*
X119465245Y-83989711D01*
X119460172Y-83984638D01*
X119454498Y-83976865D01*
X119445805Y-83952675D01*
X119433485Y-83930112D01*
X119434184Y-83920334D01*
X119430870Y-83911112D01*
X119436635Y-83886062D01*
X119438469Y-83860420D01*
X119444342Y-83852573D01*
X119446541Y-83843023D01*
X119464936Y-83825064D01*
X119480341Y-83804487D01*
X119489523Y-83801062D01*
X119496537Y-83794215D01*
X119521721Y-83789052D01*
X119545805Y-83780070D01*
X119560928Y-83781016D01*
X119564984Y-83780185D01*
X119568330Y-83781479D01*
X119578840Y-83782136D01*
X119617036Y-83789734D01*
X119671156Y-83800500D01*
X119671158Y-83800500D01*
X119828844Y-83800500D01*
X119828845Y-83800499D01*
X119983497Y-83769737D01*
X120129179Y-83709394D01*
X120260289Y-83621789D01*
X120329943Y-83552135D01*
X138399500Y-83552135D01*
X138399500Y-85647870D01*
X138399501Y-85647876D01*
X138405908Y-85707483D01*
X138456202Y-85842328D01*
X138456206Y-85842335D01*
X138542452Y-85957544D01*
X138542455Y-85957547D01*
X138657664Y-86043793D01*
X138657671Y-86043797D01*
X138792517Y-86094091D01*
X138792516Y-86094091D01*
X138799444Y-86094835D01*
X138852127Y-86100500D01*
X142147872Y-86100499D01*
X142207483Y-86094091D01*
X142342331Y-86043796D01*
X142457546Y-85957546D01*
X142543796Y-85842331D01*
X142594091Y-85707483D01*
X142600500Y-85647873D01*
X142600499Y-83552128D01*
X142594091Y-83492517D01*
X142589390Y-83479914D01*
X142543797Y-83357671D01*
X142543793Y-83357664D01*
X142457547Y-83242455D01*
X142457544Y-83242452D01*
X142342335Y-83156206D01*
X142342328Y-83156202D01*
X142207482Y-83105908D01*
X142207483Y-83105908D01*
X142147883Y-83099501D01*
X142147881Y-83099500D01*
X142147873Y-83099500D01*
X142147864Y-83099500D01*
X138852129Y-83099500D01*
X138852123Y-83099501D01*
X138792516Y-83105908D01*
X138657671Y-83156202D01*
X138657664Y-83156206D01*
X138542455Y-83242452D01*
X138542452Y-83242455D01*
X138456206Y-83357664D01*
X138456202Y-83357671D01*
X138405908Y-83492517D01*
X138403365Y-83516176D01*
X138399501Y-83552123D01*
X138399500Y-83552135D01*
X120329943Y-83552135D01*
X120371789Y-83510289D01*
X120459394Y-83379179D01*
X120519737Y-83233497D01*
X120550500Y-83078842D01*
X120550500Y-82921158D01*
X120550500Y-82921155D01*
X120550499Y-82921153D01*
X120519737Y-82766503D01*
X120514392Y-82753599D01*
X120459397Y-82620827D01*
X120459390Y-82620814D01*
X120371789Y-82489711D01*
X120371786Y-82489707D01*
X120260292Y-82378213D01*
X120260288Y-82378210D01*
X120129185Y-82290609D01*
X120129172Y-82290602D01*
X119983501Y-82230264D01*
X119983489Y-82230261D01*
X119828845Y-82199500D01*
X119828842Y-82199500D01*
X119671158Y-82199500D01*
X119671155Y-82199500D01*
X119516510Y-82230261D01*
X119516498Y-82230264D01*
X119370827Y-82290602D01*
X119370814Y-82290609D01*
X119239711Y-82378210D01*
X119239707Y-82378213D01*
X119128213Y-82489707D01*
X119128210Y-82489711D01*
X119040609Y-82620814D01*
X119040602Y-82620827D01*
X118980264Y-82766498D01*
X118980261Y-82766510D01*
X118949500Y-82921153D01*
X118949500Y-83078846D01*
X118980261Y-83233489D01*
X118980264Y-83233501D01*
X119040602Y-83379172D01*
X119040609Y-83379185D01*
X119128210Y-83510288D01*
X119132076Y-83514999D01*
X119130641Y-83516176D01*
X119159970Y-83569887D01*
X119154986Y-83639579D01*
X119113114Y-83695512D01*
X119047650Y-83719929D01*
X119014613Y-83717862D01*
X118922301Y-83699500D01*
X118922298Y-83699500D01*
X118764614Y-83699500D01*
X118764611Y-83699500D01*
X118609966Y-83730261D01*
X118609954Y-83730264D01*
X118464283Y-83790602D01*
X118464270Y-83790609D01*
X118333167Y-83878210D01*
X118333163Y-83878213D01*
X118221669Y-83989707D01*
X118221666Y-83989711D01*
X118134065Y-84120814D01*
X118134058Y-84120827D01*
X118073720Y-84266498D01*
X118073717Y-84266510D01*
X118042956Y-84421153D01*
X90250500Y-84421153D01*
X90250500Y-80096153D01*
X118367956Y-80096153D01*
X118367956Y-80253846D01*
X118398717Y-80408489D01*
X118398720Y-80408501D01*
X118459058Y-80554172D01*
X118459065Y-80554185D01*
X118546666Y-80685288D01*
X118546669Y-80685292D01*
X118658163Y-80796786D01*
X118658167Y-80796789D01*
X118789270Y-80884390D01*
X118789283Y-80884397D01*
X118918549Y-80937940D01*
X118972953Y-80981780D01*
X118992714Y-81028310D01*
X118998717Y-81058489D01*
X118998720Y-81058501D01*
X119059058Y-81204172D01*
X119059065Y-81204185D01*
X119146666Y-81335288D01*
X119146669Y-81335292D01*
X119258163Y-81446786D01*
X119258167Y-81446789D01*
X119389270Y-81534390D01*
X119389283Y-81534397D01*
X119534954Y-81594735D01*
X119534959Y-81594737D01*
X119689609Y-81625499D01*
X119689612Y-81625500D01*
X119689614Y-81625500D01*
X119847300Y-81625500D01*
X119847301Y-81625499D01*
X120001953Y-81594737D01*
X120147635Y-81534394D01*
X120278745Y-81446789D01*
X120329381Y-81396153D01*
X128924500Y-81396153D01*
X128924500Y-81553846D01*
X128955261Y-81708489D01*
X128955264Y-81708501D01*
X129015602Y-81854172D01*
X129015609Y-81854185D01*
X129103210Y-81985288D01*
X129103213Y-81985292D01*
X129214707Y-82096786D01*
X129214711Y-82096789D01*
X129345814Y-82184390D01*
X129345827Y-82184397D01*
X129491498Y-82244735D01*
X129491503Y-82244737D01*
X129491507Y-82244737D01*
X129491508Y-82244738D01*
X129604062Y-82267127D01*
X129665972Y-82299512D01*
X129694431Y-82341290D01*
X129703443Y-82363047D01*
X129791045Y-82494152D01*
X129791048Y-82494156D01*
X129902542Y-82605650D01*
X129902546Y-82605653D01*
X130033649Y-82693254D01*
X130033662Y-82693261D01*
X130179333Y-82753599D01*
X130179338Y-82753601D01*
X130333988Y-82784363D01*
X130333991Y-82784364D01*
X130333993Y-82784364D01*
X130491679Y-82784364D01*
X130491680Y-82784363D01*
X130646332Y-82753601D01*
X130792014Y-82693258D01*
X130923124Y-82605653D01*
X131034624Y-82494153D01*
X131122229Y-82363043D01*
X131182572Y-82217361D01*
X131213335Y-82062706D01*
X131213335Y-81905022D01*
X131213335Y-81905019D01*
X131213334Y-81905017D01*
X131203223Y-81854185D01*
X131182572Y-81750367D01*
X131130851Y-81625500D01*
X131122232Y-81604691D01*
X131122225Y-81604678D01*
X131034624Y-81473575D01*
X131034621Y-81473571D01*
X131021383Y-81460333D01*
X130987898Y-81399010D01*
X130992882Y-81329318D01*
X131034754Y-81273385D01*
X131061602Y-81258095D01*
X131179179Y-81209394D01*
X131310289Y-81121789D01*
X131421789Y-81010289D01*
X131509394Y-80879179D01*
X131569737Y-80733497D01*
X131600500Y-80578842D01*
X131600500Y-80421158D01*
X131600500Y-80421155D01*
X131600499Y-80421153D01*
X131582945Y-80332903D01*
X131569737Y-80266503D01*
X131543521Y-80203211D01*
X131509397Y-80120827D01*
X131509390Y-80120814D01*
X131421789Y-79989711D01*
X131421786Y-79989707D01*
X131310292Y-79878213D01*
X131310288Y-79878210D01*
X131254273Y-79840782D01*
X131179185Y-79790609D01*
X131179172Y-79790602D01*
X131066101Y-79743767D01*
X132622114Y-79743767D01*
X132622114Y-79901460D01*
X132652875Y-80056103D01*
X132652878Y-80056115D01*
X132713216Y-80201786D01*
X132713223Y-80201799D01*
X132800824Y-80332902D01*
X132800827Y-80332906D01*
X132912321Y-80444400D01*
X132912325Y-80444403D01*
X133043428Y-80532004D01*
X133043441Y-80532011D01*
X133189112Y-80592349D01*
X133189117Y-80592351D01*
X133343767Y-80623113D01*
X133343770Y-80623114D01*
X133343772Y-80623114D01*
X133501458Y-80623114D01*
X133501459Y-80623113D01*
X133656111Y-80592351D01*
X133801793Y-80532008D01*
X133932903Y-80444403D01*
X134044403Y-80332903D01*
X134132008Y-80201793D01*
X134192351Y-80056111D01*
X134223114Y-79901456D01*
X134223114Y-79743772D01*
X134223114Y-79743769D01*
X134223113Y-79743767D01*
X134214308Y-79699500D01*
X134192351Y-79589117D01*
X134177479Y-79553213D01*
X134132011Y-79443441D01*
X134132004Y-79443428D01*
X134044403Y-79312325D01*
X134044400Y-79312321D01*
X133932906Y-79200827D01*
X133932902Y-79200824D01*
X133801799Y-79113223D01*
X133801786Y-79113216D01*
X133656115Y-79052878D01*
X133656103Y-79052875D01*
X133501459Y-79022114D01*
X133501456Y-79022114D01*
X133343772Y-79022114D01*
X133343769Y-79022114D01*
X133189124Y-79052875D01*
X133189112Y-79052878D01*
X133043441Y-79113216D01*
X133043428Y-79113223D01*
X132912325Y-79200824D01*
X132912321Y-79200827D01*
X132800827Y-79312321D01*
X132800824Y-79312325D01*
X132713223Y-79443428D01*
X132713216Y-79443441D01*
X132652878Y-79589112D01*
X132652875Y-79589124D01*
X132622114Y-79743767D01*
X131066101Y-79743767D01*
X131033501Y-79730264D01*
X131033489Y-79730261D01*
X130878845Y-79699500D01*
X130878842Y-79699500D01*
X130721158Y-79699500D01*
X130721155Y-79699500D01*
X130566510Y-79730261D01*
X130566498Y-79730264D01*
X130420827Y-79790602D01*
X130420814Y-79790609D01*
X130289711Y-79878210D01*
X130289707Y-79878213D01*
X130178213Y-79989707D01*
X130178210Y-79989711D01*
X130090609Y-80120814D01*
X130090602Y-80120827D01*
X130030264Y-80266498D01*
X130030261Y-80266510D01*
X129999500Y-80421153D01*
X129999500Y-80562324D01*
X129979815Y-80629363D01*
X129927011Y-80675118D01*
X129857853Y-80685062D01*
X129851309Y-80683941D01*
X129803846Y-80674500D01*
X129803842Y-80674500D01*
X129646158Y-80674500D01*
X129646155Y-80674500D01*
X129491510Y-80705261D01*
X129491498Y-80705264D01*
X129345827Y-80765602D01*
X129345814Y-80765609D01*
X129214711Y-80853210D01*
X129214707Y-80853213D01*
X129103213Y-80964707D01*
X129103210Y-80964711D01*
X129015609Y-81095814D01*
X129015602Y-81095827D01*
X128955264Y-81241498D01*
X128955261Y-81241510D01*
X128924500Y-81396153D01*
X120329381Y-81396153D01*
X120390245Y-81335289D01*
X120413491Y-81300500D01*
X120477846Y-81204185D01*
X120477846Y-81204184D01*
X120477850Y-81204179D01*
X120538193Y-81058497D01*
X120568956Y-80903842D01*
X120568956Y-80746158D01*
X120568956Y-80746155D01*
X120568955Y-80746153D01*
X120544481Y-80623114D01*
X120538193Y-80591503D01*
X120526107Y-80562324D01*
X120477853Y-80445827D01*
X120477846Y-80445814D01*
X120390245Y-80314711D01*
X120390242Y-80314707D01*
X120278748Y-80203213D01*
X120278744Y-80203210D01*
X120147641Y-80115609D01*
X120147632Y-80115604D01*
X120018361Y-80062059D01*
X119963958Y-80018218D01*
X119944197Y-79971690D01*
X119938193Y-79941503D01*
X119911976Y-79878210D01*
X119877853Y-79795827D01*
X119877846Y-79795814D01*
X119790245Y-79664711D01*
X119790242Y-79664707D01*
X119678748Y-79553213D01*
X119678744Y-79553210D01*
X119547641Y-79465609D01*
X119547628Y-79465602D01*
X119401957Y-79405264D01*
X119401945Y-79405261D01*
X119247301Y-79374500D01*
X119247298Y-79374500D01*
X119089614Y-79374500D01*
X119089611Y-79374500D01*
X118934966Y-79405261D01*
X118934954Y-79405264D01*
X118789283Y-79465602D01*
X118789270Y-79465609D01*
X118658167Y-79553210D01*
X118658163Y-79553213D01*
X118546669Y-79664707D01*
X118546666Y-79664711D01*
X118459065Y-79795814D01*
X118459058Y-79795827D01*
X118398720Y-79941498D01*
X118398717Y-79941510D01*
X118367956Y-80096153D01*
X90250500Y-80096153D01*
X90250500Y-77171153D01*
X118042956Y-77171153D01*
X118042956Y-77328846D01*
X118073717Y-77483489D01*
X118073720Y-77483501D01*
X118134058Y-77629172D01*
X118134065Y-77629185D01*
X118221666Y-77760288D01*
X118221669Y-77760292D01*
X118333163Y-77871786D01*
X118333167Y-77871789D01*
X118464270Y-77959390D01*
X118464283Y-77959397D01*
X118594735Y-78013431D01*
X118609959Y-78019737D01*
X118764609Y-78050499D01*
X118764612Y-78050500D01*
X118764614Y-78050500D01*
X118922300Y-78050500D01*
X118922301Y-78050499D01*
X119076953Y-78019737D01*
X119092177Y-78013430D01*
X119161644Y-78005959D01*
X119224124Y-78037232D01*
X119242734Y-78059099D01*
X119257837Y-78081702D01*
X119257840Y-78081706D01*
X119369334Y-78193200D01*
X119369338Y-78193203D01*
X119500441Y-78280804D01*
X119500454Y-78280811D01*
X119646125Y-78341149D01*
X119646130Y-78341151D01*
X119800780Y-78371913D01*
X119800783Y-78371914D01*
X119800785Y-78371914D01*
X119958471Y-78371914D01*
X119958472Y-78371913D01*
X120113124Y-78341151D01*
X120258806Y-78280808D01*
X120389916Y-78193203D01*
X120501416Y-78081703D01*
X120589021Y-77950593D01*
X120649364Y-77804911D01*
X120680127Y-77650256D01*
X120680127Y-77492572D01*
X120680127Y-77492569D01*
X120680126Y-77492567D01*
X120649365Y-77337924D01*
X120649364Y-77337917D01*
X120645605Y-77328842D01*
X120589024Y-77192241D01*
X120589017Y-77192228D01*
X120501416Y-77061125D01*
X120501413Y-77061121D01*
X120389919Y-76949627D01*
X120389915Y-76949624D01*
X120258812Y-76862023D01*
X120258799Y-76862016D01*
X120113128Y-76801678D01*
X120113116Y-76801675D01*
X119958472Y-76770914D01*
X119958469Y-76770914D01*
X119800785Y-76770914D01*
X119800782Y-76770914D01*
X119646132Y-76801675D01*
X119646120Y-76801679D01*
X119630896Y-76807985D01*
X119561426Y-76815451D01*
X119498949Y-76784173D01*
X119480346Y-76762311D01*
X119465246Y-76739712D01*
X119465242Y-76739707D01*
X119353748Y-76628213D01*
X119353744Y-76628210D01*
X119222641Y-76540609D01*
X119222628Y-76540602D01*
X119076957Y-76480264D01*
X119076945Y-76480261D01*
X118922301Y-76449500D01*
X118922298Y-76449500D01*
X118764614Y-76449500D01*
X118764611Y-76449500D01*
X118609966Y-76480261D01*
X118609954Y-76480264D01*
X118464283Y-76540602D01*
X118464270Y-76540609D01*
X118333167Y-76628210D01*
X118333163Y-76628213D01*
X118221669Y-76739707D01*
X118221666Y-76739711D01*
X118134065Y-76870814D01*
X118134058Y-76870827D01*
X118073720Y-77016498D01*
X118073717Y-77016510D01*
X118042956Y-77171153D01*
X90250500Y-77171153D01*
X90250500Y-74721153D01*
X123599500Y-74721153D01*
X123599500Y-74878846D01*
X123630261Y-75033489D01*
X123630264Y-75033501D01*
X123690602Y-75179172D01*
X123690609Y-75179185D01*
X123778210Y-75310288D01*
X123778213Y-75310292D01*
X123889707Y-75421786D01*
X123889711Y-75421789D01*
X124020814Y-75509390D01*
X124020827Y-75509397D01*
X124166498Y-75569735D01*
X124166503Y-75569737D01*
X124321153Y-75600499D01*
X124321156Y-75600500D01*
X124321158Y-75600500D01*
X124478844Y-75600500D01*
X124478845Y-75600499D01*
X124633497Y-75569737D01*
X124779179Y-75509394D01*
X124910289Y-75421789D01*
X125021789Y-75310289D01*
X125109394Y-75179179D01*
X125169737Y-75033497D01*
X125200500Y-74878842D01*
X125200500Y-74721158D01*
X125200500Y-74721155D01*
X125200499Y-74721153D01*
X125169738Y-74566510D01*
X125169737Y-74566503D01*
X125142398Y-74500500D01*
X125109397Y-74420827D01*
X125109390Y-74420814D01*
X125021789Y-74289711D01*
X125021786Y-74289707D01*
X124910292Y-74178213D01*
X124910288Y-74178210D01*
X124779185Y-74090609D01*
X124779172Y-74090602D01*
X124633501Y-74030264D01*
X124633489Y-74030261D01*
X124478845Y-73999500D01*
X124478842Y-73999500D01*
X124321158Y-73999500D01*
X124321155Y-73999500D01*
X124166510Y-74030261D01*
X124166498Y-74030264D01*
X124020827Y-74090602D01*
X124020814Y-74090609D01*
X123889711Y-74178210D01*
X123889707Y-74178213D01*
X123778213Y-74289707D01*
X123778210Y-74289711D01*
X123690609Y-74420814D01*
X123690602Y-74420827D01*
X123630264Y-74566498D01*
X123630261Y-74566510D01*
X123599500Y-74721153D01*
X90250500Y-74721153D01*
X90250500Y-73033653D01*
X127312000Y-73033653D01*
X127312000Y-73191346D01*
X127342761Y-73345989D01*
X127342764Y-73346001D01*
X127403102Y-73491672D01*
X127403109Y-73491685D01*
X127490710Y-73622788D01*
X127490713Y-73622792D01*
X127602207Y-73734286D01*
X127602211Y-73734289D01*
X127733314Y-73821890D01*
X127733327Y-73821897D01*
X127878998Y-73882235D01*
X127879003Y-73882237D01*
X128033653Y-73912999D01*
X128033656Y-73913000D01*
X128033658Y-73913000D01*
X128191344Y-73913000D01*
X128191345Y-73912999D01*
X128345997Y-73882237D01*
X128491679Y-73821894D01*
X128622789Y-73734289D01*
X128734289Y-73622789D01*
X128735382Y-73621153D01*
X140199500Y-73621153D01*
X140199500Y-73778846D01*
X140230261Y-73933489D01*
X140230264Y-73933501D01*
X140290602Y-74079172D01*
X140290609Y-74079185D01*
X140378210Y-74210288D01*
X140378213Y-74210292D01*
X140489707Y-74321786D01*
X140489711Y-74321789D01*
X140620814Y-74409390D01*
X140620827Y-74409397D01*
X140766498Y-74469735D01*
X140766503Y-74469737D01*
X140921153Y-74500499D01*
X140921156Y-74500500D01*
X140921158Y-74500500D01*
X141078844Y-74500500D01*
X141078845Y-74500499D01*
X141233497Y-74469737D01*
X141351592Y-74420821D01*
X141379172Y-74409397D01*
X141379172Y-74409396D01*
X141379179Y-74409394D01*
X141510289Y-74321789D01*
X141621789Y-74210289D01*
X141709394Y-74079179D01*
X141769737Y-73933497D01*
X141800500Y-73778842D01*
X141800500Y-73621158D01*
X141800500Y-73621155D01*
X141800499Y-73621153D01*
X141769738Y-73466510D01*
X141769737Y-73466503D01*
X141719824Y-73346001D01*
X141709397Y-73320827D01*
X141709390Y-73320814D01*
X141621789Y-73189711D01*
X141621786Y-73189707D01*
X141510292Y-73078213D01*
X141510288Y-73078210D01*
X141379185Y-72990609D01*
X141379172Y-72990602D01*
X141233501Y-72930264D01*
X141233489Y-72930261D01*
X141078845Y-72899500D01*
X141078842Y-72899500D01*
X140921158Y-72899500D01*
X140921155Y-72899500D01*
X140766510Y-72930261D01*
X140766498Y-72930264D01*
X140620827Y-72990602D01*
X140620814Y-72990609D01*
X140489711Y-73078210D01*
X140489707Y-73078213D01*
X140378213Y-73189707D01*
X140378210Y-73189711D01*
X140290609Y-73320814D01*
X140290602Y-73320827D01*
X140230264Y-73466498D01*
X140230261Y-73466510D01*
X140199500Y-73621153D01*
X128735382Y-73621153D01*
X128821894Y-73491679D01*
X128882237Y-73345997D01*
X128913000Y-73191342D01*
X128913000Y-73033658D01*
X128913000Y-73033655D01*
X128912999Y-73033653D01*
X128904436Y-72990606D01*
X128882237Y-72879003D01*
X128829010Y-72750500D01*
X128821897Y-72733327D01*
X128821890Y-72733314D01*
X128734289Y-72602211D01*
X128734286Y-72602207D01*
X128622792Y-72490713D01*
X128622788Y-72490710D01*
X128491685Y-72403109D01*
X128491672Y-72403102D01*
X128346001Y-72342764D01*
X128345989Y-72342761D01*
X128191345Y-72312000D01*
X128191342Y-72312000D01*
X128033658Y-72312000D01*
X128033655Y-72312000D01*
X127879010Y-72342761D01*
X127878998Y-72342764D01*
X127733327Y-72403102D01*
X127733314Y-72403109D01*
X127602211Y-72490710D01*
X127602207Y-72490713D01*
X127490713Y-72602207D01*
X127490710Y-72602211D01*
X127403109Y-72733314D01*
X127403102Y-72733327D01*
X127342764Y-72878998D01*
X127342761Y-72879010D01*
X127312000Y-73033653D01*
X90250500Y-73033653D01*
X90250500Y-71871153D01*
X114549500Y-71871153D01*
X114549500Y-72028846D01*
X114580261Y-72183489D01*
X114580264Y-72183501D01*
X114640602Y-72329172D01*
X114640609Y-72329185D01*
X114728210Y-72460288D01*
X114728213Y-72460292D01*
X114839707Y-72571786D01*
X114839711Y-72571789D01*
X114970814Y-72659390D01*
X114970827Y-72659397D01*
X115116498Y-72719735D01*
X115116503Y-72719737D01*
X115271153Y-72750499D01*
X115271156Y-72750500D01*
X115271158Y-72750500D01*
X115428844Y-72750500D01*
X115428845Y-72750499D01*
X115583497Y-72719737D01*
X115729179Y-72659394D01*
X115860289Y-72571789D01*
X115971789Y-72460289D01*
X116059394Y-72329179D01*
X116119737Y-72183497D01*
X116150500Y-72028842D01*
X116150500Y-71871158D01*
X116150500Y-71871155D01*
X116150499Y-71871153D01*
X116119738Y-71716510D01*
X116119737Y-71716503D01*
X116119735Y-71716498D01*
X116059397Y-71570827D01*
X116059390Y-71570814D01*
X115971789Y-71439711D01*
X115971786Y-71439707D01*
X115860292Y-71328213D01*
X115860288Y-71328210D01*
X115729185Y-71240609D01*
X115729172Y-71240602D01*
X115583501Y-71180264D01*
X115583489Y-71180261D01*
X115428845Y-71149500D01*
X115428842Y-71149500D01*
X115271158Y-71149500D01*
X115271155Y-71149500D01*
X115116510Y-71180261D01*
X115116498Y-71180264D01*
X114970827Y-71240602D01*
X114970814Y-71240609D01*
X114839711Y-71328210D01*
X114839707Y-71328213D01*
X114728213Y-71439707D01*
X114728210Y-71439711D01*
X114640609Y-71570814D01*
X114640602Y-71570827D01*
X114580264Y-71716498D01*
X114580261Y-71716510D01*
X114549500Y-71871153D01*
X90250500Y-71871153D01*
X90250500Y-70691156D01*
X131674499Y-70691156D01*
X131710065Y-70869952D01*
X131710068Y-70869962D01*
X131779831Y-71038387D01*
X131779833Y-71038391D01*
X131881113Y-71189967D01*
X131881119Y-71189975D01*
X132010024Y-71318880D01*
X132010032Y-71318886D01*
X132161608Y-71420166D01*
X132161612Y-71420168D01*
X132330037Y-71489931D01*
X132330042Y-71489933D01*
X132330046Y-71489933D01*
X132330047Y-71489934D01*
X132508843Y-71525500D01*
X132508846Y-71525500D01*
X132691156Y-71525500D01*
X132811445Y-71501572D01*
X132869958Y-71489933D01*
X133038389Y-71420167D01*
X133038394Y-71420163D01*
X133041541Y-71418482D01*
X133043386Y-71418097D01*
X133044018Y-71417836D01*
X133044067Y-71417955D01*
X133109943Y-71404236D01*
X133158459Y-71418482D01*
X133161615Y-71420169D01*
X133330037Y-71489931D01*
X133330042Y-71489933D01*
X133330046Y-71489933D01*
X133330047Y-71489934D01*
X133508843Y-71525500D01*
X133508846Y-71525500D01*
X133691156Y-71525500D01*
X133811445Y-71501572D01*
X133869958Y-71489933D01*
X134038389Y-71420167D01*
X134038394Y-71420163D01*
X134041541Y-71418482D01*
X134043386Y-71418097D01*
X134044018Y-71417836D01*
X134044067Y-71417955D01*
X134109943Y-71404236D01*
X134158459Y-71418482D01*
X134161615Y-71420169D01*
X134330037Y-71489931D01*
X134330042Y-71489933D01*
X134330046Y-71489933D01*
X134330047Y-71489934D01*
X134508843Y-71525500D01*
X134508846Y-71525500D01*
X134691156Y-71525500D01*
X134869953Y-71489934D01*
X134869953Y-71489933D01*
X134869958Y-71489933D01*
X134882123Y-71484893D01*
X134951592Y-71477424D01*
X134972912Y-71483272D01*
X135067623Y-71518597D01*
X135067627Y-71518598D01*
X135127155Y-71524999D01*
X135127172Y-71525000D01*
X135350000Y-71525000D01*
X135850000Y-71525000D01*
X136072828Y-71525000D01*
X136072844Y-71524999D01*
X136132372Y-71518598D01*
X136132379Y-71518596D01*
X136267086Y-71468354D01*
X136267093Y-71468350D01*
X136382187Y-71382190D01*
X136382190Y-71382187D01*
X136468350Y-71267093D01*
X136468354Y-71267086D01*
X136518596Y-71132379D01*
X136518598Y-71132372D01*
X136524999Y-71072844D01*
X136525000Y-71072827D01*
X136525000Y-70850000D01*
X135850000Y-70850000D01*
X135850000Y-71525000D01*
X135350000Y-71525000D01*
X135350000Y-71181016D01*
X135369685Y-71113977D01*
X135370898Y-71112125D01*
X135420167Y-71038389D01*
X135489933Y-70869958D01*
X135498193Y-70828428D01*
X135550272Y-70850000D01*
X135649728Y-70850000D01*
X135741614Y-70811940D01*
X135811940Y-70741614D01*
X135850000Y-70649728D01*
X135850000Y-70550272D01*
X135811940Y-70458386D01*
X135741614Y-70388060D01*
X135675303Y-70360593D01*
X135724000Y-70350000D01*
X136525000Y-70350000D01*
X136525000Y-70269384D01*
X136544685Y-70202345D01*
X136597489Y-70156590D01*
X136649000Y-70145384D01*
X137598298Y-70145384D01*
X137665337Y-70165069D01*
X137667189Y-70166282D01*
X137798878Y-70254274D01*
X137798891Y-70254281D01*
X137944562Y-70314619D01*
X137944567Y-70314621D01*
X138099217Y-70345383D01*
X138099220Y-70345384D01*
X138099222Y-70345384D01*
X138256908Y-70345384D01*
X138256909Y-70345383D01*
X138411561Y-70314621D01*
X138557243Y-70254278D01*
X138631459Y-70204688D01*
X138698134Y-70183810D01*
X138765514Y-70202294D01*
X138788030Y-70220109D01*
X138889707Y-70321786D01*
X138889711Y-70321789D01*
X139020814Y-70409390D01*
X139020827Y-70409397D01*
X139139099Y-70458386D01*
X139166503Y-70469737D01*
X139321153Y-70500499D01*
X139321156Y-70500500D01*
X139321158Y-70500500D01*
X139478844Y-70500500D01*
X139478845Y-70500499D01*
X139633497Y-70469737D01*
X139779179Y-70409394D01*
X139910289Y-70321789D01*
X140021789Y-70210289D01*
X140109394Y-70079179D01*
X140169737Y-69933497D01*
X140200500Y-69778842D01*
X140200500Y-69621158D01*
X140200500Y-69621155D01*
X140200499Y-69621153D01*
X140180068Y-69518440D01*
X140169737Y-69466503D01*
X140169735Y-69466498D01*
X140109397Y-69320827D01*
X140109390Y-69320814D01*
X140021789Y-69189711D01*
X140021786Y-69189707D01*
X139910292Y-69078213D01*
X139910288Y-69078210D01*
X139779185Y-68990609D01*
X139779172Y-68990602D01*
X139633501Y-68930264D01*
X139633489Y-68930261D01*
X139478845Y-68899500D01*
X139478842Y-68899500D01*
X139321158Y-68899500D01*
X139321155Y-68899500D01*
X139166510Y-68930261D01*
X139166498Y-68930264D01*
X139020827Y-68990602D01*
X139020814Y-68990609D01*
X138946605Y-69040195D01*
X138879927Y-69061073D01*
X138812547Y-69042588D01*
X138790033Y-69024774D01*
X138688356Y-68923097D01*
X138688352Y-68923094D01*
X138557249Y-68835493D01*
X138557236Y-68835486D01*
X138411565Y-68775148D01*
X138411553Y-68775145D01*
X138256909Y-68744384D01*
X138256906Y-68744384D01*
X138099222Y-68744384D01*
X138099219Y-68744384D01*
X137944574Y-68775145D01*
X137944562Y-68775148D01*
X137798891Y-68835486D01*
X137798878Y-68835493D01*
X137667189Y-68923486D01*
X137600511Y-68944364D01*
X137598298Y-68944384D01*
X133975016Y-68944384D01*
X133934095Y-68955348D01*
X133934095Y-68955349D01*
X133896827Y-68965335D01*
X133822290Y-68985307D01*
X133822285Y-68985310D01*
X133685366Y-69064359D01*
X133685358Y-69064365D01*
X133119481Y-69630242D01*
X133119477Y-69630247D01*
X133088505Y-69683894D01*
X133037938Y-69732109D01*
X132969331Y-69745333D01*
X132933667Y-69736456D01*
X132869958Y-69710067D01*
X132869954Y-69710066D01*
X132869951Y-69710065D01*
X132691156Y-69674500D01*
X132691154Y-69674500D01*
X132508846Y-69674500D01*
X132508844Y-69674500D01*
X132330047Y-69710065D01*
X132330037Y-69710068D01*
X132161612Y-69779831D01*
X132161608Y-69779833D01*
X132010032Y-69881113D01*
X132010024Y-69881119D01*
X131881119Y-70010024D01*
X131881113Y-70010032D01*
X131779833Y-70161608D01*
X131779831Y-70161612D01*
X131710068Y-70330037D01*
X131710065Y-70330047D01*
X131674500Y-70508843D01*
X131674500Y-70508846D01*
X131674500Y-70691154D01*
X131674500Y-70691156D01*
X131674499Y-70691156D01*
X90250500Y-70691156D01*
X90250500Y-64121153D01*
X120599500Y-64121153D01*
X120599500Y-64278846D01*
X120630261Y-64433489D01*
X120630264Y-64433501D01*
X120690602Y-64579172D01*
X120690609Y-64579185D01*
X120778210Y-64710288D01*
X120778213Y-64710292D01*
X120889707Y-64821786D01*
X120889711Y-64821789D01*
X121020814Y-64909390D01*
X121020827Y-64909397D01*
X121166498Y-64969735D01*
X121166503Y-64969737D01*
X121321153Y-65000499D01*
X121321156Y-65000500D01*
X121321158Y-65000500D01*
X121478844Y-65000500D01*
X121478845Y-65000499D01*
X121633497Y-64969737D01*
X121779179Y-64909394D01*
X121910289Y-64821789D01*
X122021789Y-64710289D01*
X122109394Y-64579179D01*
X122169737Y-64433497D01*
X122200500Y-64278842D01*
X122200500Y-64121158D01*
X122200500Y-64121155D01*
X122200499Y-64121153D01*
X122169738Y-63966510D01*
X122169737Y-63966503D01*
X122169735Y-63966498D01*
X122109397Y-63820827D01*
X122109390Y-63820814D01*
X122021789Y-63689711D01*
X122021786Y-63689707D01*
X121910292Y-63578213D01*
X121910288Y-63578210D01*
X121779185Y-63490609D01*
X121779172Y-63490602D01*
X121633501Y-63430264D01*
X121633489Y-63430261D01*
X121478845Y-63399500D01*
X121478842Y-63399500D01*
X121321158Y-63399500D01*
X121321155Y-63399500D01*
X121166510Y-63430261D01*
X121166498Y-63430264D01*
X121020827Y-63490602D01*
X121020814Y-63490609D01*
X120889711Y-63578210D01*
X120889707Y-63578213D01*
X120778213Y-63689707D01*
X120778210Y-63689711D01*
X120690609Y-63820814D01*
X120690602Y-63820827D01*
X120630264Y-63966498D01*
X120630261Y-63966510D01*
X120599500Y-64121153D01*
X90250500Y-64121153D01*
X90250500Y-59187854D01*
X113402125Y-59187854D01*
X113402125Y-59345547D01*
X113432886Y-59500190D01*
X113432889Y-59500202D01*
X113493227Y-59645873D01*
X113493234Y-59645886D01*
X113580835Y-59776989D01*
X113580838Y-59776993D01*
X113692332Y-59888487D01*
X113692336Y-59888490D01*
X113823439Y-59976091D01*
X113823452Y-59976098D01*
X113969123Y-60036436D01*
X113969128Y-60036438D01*
X114123778Y-60067200D01*
X114123781Y-60067201D01*
X114123783Y-60067201D01*
X114281469Y-60067201D01*
X114281470Y-60067200D01*
X114436122Y-60036438D01*
X114581804Y-59976095D01*
X114712914Y-59888490D01*
X114824414Y-59776990D01*
X114912019Y-59645880D01*
X114972362Y-59500198D01*
X115003125Y-59345543D01*
X115003125Y-59187859D01*
X115003125Y-59187856D01*
X115003124Y-59187854D01*
X114972363Y-59033211D01*
X114972362Y-59033204D01*
X114972360Y-59033199D01*
X114912022Y-58887528D01*
X114912015Y-58887515D01*
X114824414Y-58756412D01*
X114824411Y-58756408D01*
X114712917Y-58644914D01*
X114712913Y-58644911D01*
X114581810Y-58557310D01*
X114581797Y-58557303D01*
X114436126Y-58496965D01*
X114436114Y-58496962D01*
X114281470Y-58466201D01*
X114281467Y-58466201D01*
X114123783Y-58466201D01*
X114123780Y-58466201D01*
X113969135Y-58496962D01*
X113969123Y-58496965D01*
X113823452Y-58557303D01*
X113823439Y-58557310D01*
X113692336Y-58644911D01*
X113692332Y-58644914D01*
X113580838Y-58756408D01*
X113580835Y-58756412D01*
X113493234Y-58887515D01*
X113493227Y-58887528D01*
X113432889Y-59033199D01*
X113432886Y-59033211D01*
X113402125Y-59187854D01*
X90250500Y-59187854D01*
X90250500Y-56021153D01*
X116599500Y-56021153D01*
X116599500Y-56178846D01*
X116630261Y-56333489D01*
X116630264Y-56333501D01*
X116690602Y-56479172D01*
X116690609Y-56479185D01*
X116778210Y-56610288D01*
X116778213Y-56610292D01*
X116889707Y-56721786D01*
X116889711Y-56721789D01*
X117020814Y-56809390D01*
X117020827Y-56809397D01*
X117166498Y-56869735D01*
X117166503Y-56869737D01*
X117321153Y-56900499D01*
X117321156Y-56900500D01*
X117321158Y-56900500D01*
X117478844Y-56900500D01*
X117478845Y-56900499D01*
X117633497Y-56869737D01*
X117779179Y-56809394D01*
X117910289Y-56721789D01*
X118021789Y-56610289D01*
X118109394Y-56479179D01*
X118169737Y-56333497D01*
X118200500Y-56178842D01*
X118200500Y-56021158D01*
X118200500Y-56021155D01*
X118200499Y-56021153D01*
X118169738Y-55866510D01*
X118169737Y-55866503D01*
X118169735Y-55866498D01*
X118109397Y-55720827D01*
X118109390Y-55720814D01*
X118021789Y-55589711D01*
X118021786Y-55589707D01*
X117910292Y-55478213D01*
X117910288Y-55478210D01*
X117779185Y-55390609D01*
X117779172Y-55390602D01*
X117633501Y-55330264D01*
X117633489Y-55330261D01*
X117478845Y-55299500D01*
X117478842Y-55299500D01*
X117321158Y-55299500D01*
X117321155Y-55299500D01*
X117166510Y-55330261D01*
X117166498Y-55330264D01*
X117020827Y-55390602D01*
X117020814Y-55390609D01*
X116889711Y-55478210D01*
X116889707Y-55478213D01*
X116778213Y-55589707D01*
X116778210Y-55589711D01*
X116690609Y-55720814D01*
X116690602Y-55720827D01*
X116630264Y-55866498D01*
X116630261Y-55866510D01*
X116599500Y-56021153D01*
X90250500Y-56021153D01*
X90250500Y-53981153D01*
X115619500Y-53981153D01*
X115619500Y-54138846D01*
X115650261Y-54293489D01*
X115650264Y-54293501D01*
X115710602Y-54439172D01*
X115710609Y-54439185D01*
X115798210Y-54570288D01*
X115798213Y-54570292D01*
X115909707Y-54681786D01*
X115909711Y-54681789D01*
X116040814Y-54769390D01*
X116040827Y-54769397D01*
X116186498Y-54829735D01*
X116186503Y-54829737D01*
X116341153Y-54860499D01*
X116341156Y-54860500D01*
X116341158Y-54860500D01*
X116498844Y-54860500D01*
X116498845Y-54860499D01*
X116653497Y-54829737D01*
X116799179Y-54769394D01*
X116930289Y-54681789D01*
X117041789Y-54570289D01*
X117129394Y-54439179D01*
X117189737Y-54293497D01*
X117220500Y-54138842D01*
X117220500Y-53981158D01*
X117220500Y-53981155D01*
X117220499Y-53981153D01*
X117189738Y-53826510D01*
X117189737Y-53826503D01*
X117189735Y-53826498D01*
X117129397Y-53680827D01*
X117129390Y-53680814D01*
X117041789Y-53549711D01*
X117041786Y-53549707D01*
X116930292Y-53438213D01*
X116930288Y-53438210D01*
X116799185Y-53350609D01*
X116799172Y-53350602D01*
X116653501Y-53290264D01*
X116653489Y-53290261D01*
X116498845Y-53259500D01*
X116498842Y-53259500D01*
X116341158Y-53259500D01*
X116341155Y-53259500D01*
X116186510Y-53290261D01*
X116186498Y-53290264D01*
X116040827Y-53350602D01*
X116040814Y-53350609D01*
X115909711Y-53438210D01*
X115909707Y-53438213D01*
X115798213Y-53549707D01*
X115798210Y-53549711D01*
X115710609Y-53680814D01*
X115710602Y-53680827D01*
X115650264Y-53826498D01*
X115650261Y-53826510D01*
X115619500Y-53981153D01*
X90250500Y-53981153D01*
X90250500Y-52060058D01*
X107073562Y-52060058D01*
X107073562Y-52217751D01*
X107104323Y-52372394D01*
X107104326Y-52372406D01*
X107164664Y-52518077D01*
X107164671Y-52518090D01*
X107252272Y-52649193D01*
X107252275Y-52649197D01*
X107363769Y-52760691D01*
X107363773Y-52760694D01*
X107494876Y-52848295D01*
X107494889Y-52848302D01*
X107640560Y-52908640D01*
X107640565Y-52908642D01*
X107795215Y-52939404D01*
X107795218Y-52939405D01*
X107795220Y-52939405D01*
X107952906Y-52939405D01*
X107952907Y-52939404D01*
X108107559Y-52908642D01*
X108253241Y-52848299D01*
X108384351Y-52760694D01*
X108495851Y-52649194D01*
X108583456Y-52518084D01*
X108623606Y-52421153D01*
X124399500Y-52421153D01*
X124399500Y-52578846D01*
X124430261Y-52733489D01*
X124430264Y-52733501D01*
X124490602Y-52879172D01*
X124490609Y-52879185D01*
X124578210Y-53010288D01*
X124578213Y-53010292D01*
X124689707Y-53121786D01*
X124689711Y-53121789D01*
X124820814Y-53209390D01*
X124820827Y-53209397D01*
X124966498Y-53269735D01*
X124966503Y-53269737D01*
X125069699Y-53290264D01*
X125121153Y-53300499D01*
X125121156Y-53300500D01*
X125121158Y-53300500D01*
X125278844Y-53300500D01*
X125278845Y-53300499D01*
X125433497Y-53269737D01*
X125579179Y-53209394D01*
X125710289Y-53121789D01*
X125821789Y-53010289D01*
X125909394Y-52879179D01*
X125969737Y-52733497D01*
X126000500Y-52578842D01*
X126000500Y-52421158D01*
X126000500Y-52421155D01*
X126000499Y-52421153D01*
X126000307Y-52420188D01*
X125969737Y-52266503D01*
X125950812Y-52220814D01*
X125909397Y-52120827D01*
X125909390Y-52120814D01*
X125821789Y-51989711D01*
X125821786Y-51989707D01*
X125710292Y-51878213D01*
X125710288Y-51878210D01*
X125639713Y-51831053D01*
X129641071Y-51831053D01*
X129641071Y-51988746D01*
X129671832Y-52143389D01*
X129671835Y-52143401D01*
X129732173Y-52289072D01*
X129732180Y-52289085D01*
X129819781Y-52420188D01*
X129819784Y-52420192D01*
X129931278Y-52531686D01*
X129931282Y-52531689D01*
X130062385Y-52619290D01*
X130062398Y-52619297D01*
X130208069Y-52679635D01*
X130208074Y-52679637D01*
X130311642Y-52700238D01*
X130362724Y-52710399D01*
X130362727Y-52710400D01*
X130526505Y-52710400D01*
X130526505Y-52713201D01*
X130583324Y-52723931D01*
X130614599Y-52746678D01*
X130689707Y-52821786D01*
X130689711Y-52821789D01*
X130820814Y-52909390D01*
X130820827Y-52909397D01*
X130966498Y-52969735D01*
X130966503Y-52969737D01*
X131121153Y-53000499D01*
X131121156Y-53000500D01*
X131121158Y-53000500D01*
X131278844Y-53000500D01*
X131397074Y-52976982D01*
X131466666Y-52983209D01*
X131521843Y-53026072D01*
X131524368Y-53029708D01*
X131578210Y-53110288D01*
X131578213Y-53110292D01*
X131689707Y-53221786D01*
X131689711Y-53221789D01*
X131820814Y-53309390D01*
X131820827Y-53309397D01*
X131966498Y-53369735D01*
X131966503Y-53369737D01*
X132121153Y-53400499D01*
X132121156Y-53400500D01*
X132121158Y-53400500D01*
X132278844Y-53400500D01*
X132278845Y-53400499D01*
X132433497Y-53369737D01*
X132579179Y-53309394D01*
X132710289Y-53221789D01*
X132821789Y-53110289D01*
X132909394Y-52979179D01*
X132969737Y-52833497D01*
X132984715Y-52758194D01*
X132992084Y-52721153D01*
X133899500Y-52721153D01*
X133899500Y-52878846D01*
X133930261Y-53033489D01*
X133930264Y-53033501D01*
X133990602Y-53179172D01*
X133990609Y-53179185D01*
X134078210Y-53310288D01*
X134078213Y-53310292D01*
X134189707Y-53421786D01*
X134189711Y-53421789D01*
X134320814Y-53509390D01*
X134320827Y-53509397D01*
X134466498Y-53569735D01*
X134466503Y-53569737D01*
X134621153Y-53600499D01*
X134621156Y-53600500D01*
X134621158Y-53600500D01*
X134778844Y-53600500D01*
X134778845Y-53600499D01*
X134933497Y-53569737D01*
X135079179Y-53509394D01*
X135210289Y-53421789D01*
X135321789Y-53310289D01*
X135409394Y-53179179D01*
X135469737Y-53033497D01*
X135500500Y-52878842D01*
X135500500Y-52721158D01*
X135500500Y-52721155D01*
X135500499Y-52721153D01*
X135492241Y-52679637D01*
X135469737Y-52566503D01*
X135455317Y-52531689D01*
X135409397Y-52420827D01*
X135409390Y-52420814D01*
X135321789Y-52289711D01*
X135321786Y-52289707D01*
X135210292Y-52178213D01*
X135210288Y-52178210D01*
X135079185Y-52090609D01*
X135079172Y-52090602D01*
X134933501Y-52030264D01*
X134933489Y-52030261D01*
X134778845Y-51999500D01*
X134778842Y-51999500D01*
X134621158Y-51999500D01*
X134621155Y-51999500D01*
X134466510Y-52030261D01*
X134466498Y-52030264D01*
X134320827Y-52090602D01*
X134320814Y-52090609D01*
X134189711Y-52178210D01*
X134189707Y-52178213D01*
X134078213Y-52289707D01*
X134078210Y-52289711D01*
X133990609Y-52420814D01*
X133990602Y-52420827D01*
X133930264Y-52566498D01*
X133930261Y-52566510D01*
X133899500Y-52721153D01*
X132992084Y-52721153D01*
X132998107Y-52690875D01*
X132998107Y-52690874D01*
X133000500Y-52678844D01*
X133000500Y-52521155D01*
X133000499Y-52521153D01*
X132999887Y-52518077D01*
X132969737Y-52366503D01*
X132937929Y-52289711D01*
X132909397Y-52220827D01*
X132909390Y-52220814D01*
X132821789Y-52089711D01*
X132821786Y-52089707D01*
X132710292Y-51978213D01*
X132710288Y-51978210D01*
X132579185Y-51890609D01*
X132579172Y-51890602D01*
X132433501Y-51830264D01*
X132433489Y-51830261D01*
X132278845Y-51799500D01*
X132278842Y-51799500D01*
X132121158Y-51799500D01*
X132121153Y-51799500D01*
X132002924Y-51823017D01*
X131933332Y-51816790D01*
X131878155Y-51773926D01*
X131875631Y-51770291D01*
X131821789Y-51689710D01*
X131710292Y-51578213D01*
X131710288Y-51578210D01*
X131579185Y-51490609D01*
X131579172Y-51490602D01*
X131433501Y-51430264D01*
X131433489Y-51430261D01*
X131278845Y-51399500D01*
X131278842Y-51399500D01*
X131121158Y-51399500D01*
X131115066Y-51399500D01*
X131115066Y-51396759D01*
X131057955Y-51385819D01*
X131026971Y-51363221D01*
X130951863Y-51288113D01*
X130951859Y-51288110D01*
X130820756Y-51200509D01*
X130820743Y-51200502D01*
X130675072Y-51140164D01*
X130675060Y-51140161D01*
X130520416Y-51109400D01*
X130520413Y-51109400D01*
X130362729Y-51109400D01*
X130362726Y-51109400D01*
X130208081Y-51140161D01*
X130208069Y-51140164D01*
X130062398Y-51200502D01*
X130062385Y-51200509D01*
X129931282Y-51288110D01*
X129931278Y-51288113D01*
X129819784Y-51399607D01*
X129819781Y-51399611D01*
X129732180Y-51530714D01*
X129732173Y-51530727D01*
X129671835Y-51676398D01*
X129671832Y-51676410D01*
X129641071Y-51831053D01*
X125639713Y-51831053D01*
X125579185Y-51790609D01*
X125579172Y-51790602D01*
X125433501Y-51730264D01*
X125433489Y-51730261D01*
X125278845Y-51699500D01*
X125278842Y-51699500D01*
X125121158Y-51699500D01*
X125121155Y-51699500D01*
X124966510Y-51730261D01*
X124966498Y-51730264D01*
X124820827Y-51790602D01*
X124820814Y-51790609D01*
X124689711Y-51878210D01*
X124689707Y-51878213D01*
X124578213Y-51989707D01*
X124578210Y-51989711D01*
X124490609Y-52120814D01*
X124490602Y-52120827D01*
X124430264Y-52266498D01*
X124430261Y-52266510D01*
X124399500Y-52421153D01*
X108623606Y-52421153D01*
X108643799Y-52372402D01*
X108674562Y-52217747D01*
X108674562Y-52060063D01*
X108674562Y-52060060D01*
X108674561Y-52060058D01*
X108643799Y-51905408D01*
X108620464Y-51849071D01*
X108583459Y-51759732D01*
X108583452Y-51759719D01*
X108495851Y-51628616D01*
X108495848Y-51628612D01*
X108384354Y-51517118D01*
X108384350Y-51517115D01*
X108253247Y-51429514D01*
X108253234Y-51429507D01*
X108107563Y-51369169D01*
X108107551Y-51369166D01*
X107952907Y-51338405D01*
X107952904Y-51338405D01*
X107795220Y-51338405D01*
X107795217Y-51338405D01*
X107640572Y-51369166D01*
X107640560Y-51369169D01*
X107494889Y-51429507D01*
X107494876Y-51429514D01*
X107363773Y-51517115D01*
X107363769Y-51517118D01*
X107252275Y-51628612D01*
X107252272Y-51628616D01*
X107164671Y-51759719D01*
X107164664Y-51759732D01*
X107104326Y-51905403D01*
X107104323Y-51905415D01*
X107073562Y-52060058D01*
X90250500Y-52060058D01*
X90250500Y-46711153D01*
X106929500Y-46711153D01*
X106929500Y-46868846D01*
X106960261Y-47023489D01*
X106960264Y-47023501D01*
X107020602Y-47169172D01*
X107020609Y-47169185D01*
X107108210Y-47300288D01*
X107108213Y-47300292D01*
X107219709Y-47411788D01*
X107235806Y-47422544D01*
X107280610Y-47476158D01*
X107289316Y-47545483D01*
X107259160Y-47608510D01*
X107254595Y-47613326D01*
X107165710Y-47702211D01*
X107078109Y-47833314D01*
X107078102Y-47833327D01*
X107017764Y-47978998D01*
X107017761Y-47979010D01*
X106987000Y-48133653D01*
X106987000Y-48291346D01*
X107017761Y-48445989D01*
X107017764Y-48446001D01*
X107078102Y-48591672D01*
X107078109Y-48591685D01*
X107165710Y-48722788D01*
X107165713Y-48722792D01*
X107277207Y-48834286D01*
X107277211Y-48834289D01*
X107408314Y-48921890D01*
X107408327Y-48921897D01*
X107544281Y-48978210D01*
X107554003Y-48982237D01*
X107708653Y-49012999D01*
X107708656Y-49013000D01*
X107708658Y-49013000D01*
X107866344Y-49013000D01*
X107866345Y-49012999D01*
X108020997Y-48982237D01*
X108166679Y-48921894D01*
X108297789Y-48834289D01*
X108297796Y-48834281D01*
X108301511Y-48831234D01*
X108365820Y-48803918D01*
X108434688Y-48815707D01*
X108486250Y-48862857D01*
X108501797Y-48902893D01*
X108530261Y-49045989D01*
X108530264Y-49046001D01*
X108590602Y-49191672D01*
X108590609Y-49191685D01*
X108678210Y-49322788D01*
X108678213Y-49322792D01*
X108789707Y-49434286D01*
X108789711Y-49434289D01*
X108920814Y-49521890D01*
X108920827Y-49521897D01*
X109066498Y-49582235D01*
X109066503Y-49582237D01*
X109221153Y-49612999D01*
X109221156Y-49613000D01*
X109221158Y-49613000D01*
X109378844Y-49613000D01*
X109378845Y-49612999D01*
X109533497Y-49582237D01*
X109679179Y-49521894D01*
X109680288Y-49521153D01*
X113199500Y-49521153D01*
X113199500Y-49678846D01*
X113230261Y-49833489D01*
X113230264Y-49833501D01*
X113290602Y-49979172D01*
X113290609Y-49979185D01*
X113378210Y-50110288D01*
X113378213Y-50110292D01*
X113489707Y-50221786D01*
X113489711Y-50221789D01*
X113620814Y-50309390D01*
X113620827Y-50309397D01*
X113766498Y-50369735D01*
X113766503Y-50369737D01*
X113921153Y-50400499D01*
X113921156Y-50400500D01*
X113921158Y-50400500D01*
X114078844Y-50400500D01*
X114078845Y-50400499D01*
X114233497Y-50369737D01*
X114379179Y-50309394D01*
X114379184Y-50309390D01*
X114379187Y-50309389D01*
X114395873Y-50298240D01*
X114462550Y-50277361D01*
X114529930Y-50295845D01*
X114576621Y-50347823D01*
X114588765Y-50401341D01*
X114588765Y-50419581D01*
X114619526Y-50574224D01*
X114619529Y-50574236D01*
X114679867Y-50719907D01*
X114679874Y-50719920D01*
X114767475Y-50851023D01*
X114767478Y-50851027D01*
X114878972Y-50962521D01*
X114878976Y-50962524D01*
X115010079Y-51050125D01*
X115010092Y-51050132D01*
X115153180Y-51109400D01*
X115155768Y-51110472D01*
X115305024Y-51140161D01*
X115310418Y-51141234D01*
X115310421Y-51141235D01*
X115310423Y-51141235D01*
X115468109Y-51141235D01*
X115468110Y-51141234D01*
X115622762Y-51110472D01*
X115768444Y-51050129D01*
X115899554Y-50962524D01*
X116011054Y-50851024D01*
X116098659Y-50719914D01*
X116103017Y-50709394D01*
X116139303Y-50621789D01*
X116159002Y-50574232D01*
X116189765Y-50419577D01*
X116189765Y-50261893D01*
X116189765Y-50261890D01*
X116189764Y-50261888D01*
X116177553Y-50200499D01*
X116159002Y-50107238D01*
X116147240Y-50078842D01*
X116098663Y-49961564D01*
X116098655Y-49961549D01*
X116070661Y-49919653D01*
X117699500Y-49919653D01*
X117699500Y-50077346D01*
X117730261Y-50231989D01*
X117730264Y-50232001D01*
X117790602Y-50377672D01*
X117790609Y-50377685D01*
X117878210Y-50508788D01*
X117878213Y-50508792D01*
X117989707Y-50620286D01*
X117989711Y-50620289D01*
X118120814Y-50707890D01*
X118120818Y-50707892D01*
X118120821Y-50707894D01*
X118254394Y-50763221D01*
X118308793Y-50807059D01*
X118330859Y-50873353D01*
X118321500Y-50925231D01*
X118300263Y-50976503D01*
X118300261Y-50976510D01*
X118269500Y-51131153D01*
X118269500Y-51288846D01*
X118300261Y-51443489D01*
X118300264Y-51443501D01*
X118360602Y-51589172D01*
X118360609Y-51589185D01*
X118448210Y-51720288D01*
X118448213Y-51720292D01*
X118559707Y-51831786D01*
X118559711Y-51831789D01*
X118690814Y-51919390D01*
X118690827Y-51919397D01*
X118832816Y-51978210D01*
X118836503Y-51979737D01*
X118935858Y-51999500D01*
X118991153Y-52010499D01*
X118991156Y-52010500D01*
X118991158Y-52010500D01*
X119148844Y-52010500D01*
X119148845Y-52010499D01*
X119303497Y-51979737D01*
X119449179Y-51919394D01*
X119580289Y-51831789D01*
X119691789Y-51720289D01*
X119779394Y-51589179D01*
X119783938Y-51578210D01*
X119820224Y-51490606D01*
X119839737Y-51443497D01*
X119870500Y-51288842D01*
X119870500Y-51131158D01*
X119870500Y-51131155D01*
X119870499Y-51131153D01*
X119839738Y-50976510D01*
X119839737Y-50976503D01*
X119818500Y-50925231D01*
X119779397Y-50830827D01*
X119779390Y-50830814D01*
X119691789Y-50699711D01*
X119691786Y-50699707D01*
X119580292Y-50588213D01*
X119580288Y-50588210D01*
X119449185Y-50500609D01*
X119449176Y-50500604D01*
X119315608Y-50445279D01*
X119261205Y-50401438D01*
X119239140Y-50335144D01*
X119248500Y-50283266D01*
X119269737Y-50231997D01*
X119300500Y-50077342D01*
X119300500Y-49919658D01*
X119300500Y-49919655D01*
X119300499Y-49919653D01*
X119284508Y-49839257D01*
X119280907Y-49821153D01*
X123699500Y-49821153D01*
X123699500Y-49978846D01*
X123730261Y-50133489D01*
X123730264Y-50133501D01*
X123790602Y-50279172D01*
X123790609Y-50279185D01*
X123878210Y-50410288D01*
X123878213Y-50410292D01*
X123989707Y-50521786D01*
X123989711Y-50521789D01*
X124120814Y-50609390D01*
X124120827Y-50609397D01*
X124266498Y-50669735D01*
X124266503Y-50669737D01*
X124421153Y-50700499D01*
X124421156Y-50700500D01*
X124421158Y-50700500D01*
X124578844Y-50700500D01*
X124578845Y-50700499D01*
X124733497Y-50669737D01*
X124879179Y-50609394D01*
X125010289Y-50521789D01*
X125121789Y-50410289D01*
X125209394Y-50279179D01*
X125269737Y-50133497D01*
X125300500Y-49978842D01*
X125300500Y-49821158D01*
X125300500Y-49821155D01*
X125300499Y-49821153D01*
X125280169Y-49718948D01*
X125269737Y-49666503D01*
X125268441Y-49663373D01*
X125209397Y-49520827D01*
X125209390Y-49520814D01*
X125121790Y-49389712D01*
X125121784Y-49389705D01*
X125053232Y-49321153D01*
X132099500Y-49321153D01*
X132099500Y-49478846D01*
X132130261Y-49633489D01*
X132130264Y-49633501D01*
X132190602Y-49779172D01*
X132190609Y-49779185D01*
X132278210Y-49910288D01*
X132278213Y-49910292D01*
X132389707Y-50021786D01*
X132389711Y-50021789D01*
X132520814Y-50109390D01*
X132520827Y-50109397D01*
X132666498Y-50169735D01*
X132666503Y-50169737D01*
X132793699Y-50195038D01*
X132821153Y-50200499D01*
X132821156Y-50200500D01*
X132821158Y-50200500D01*
X132978841Y-50200500D01*
X132978842Y-50200500D01*
X133006299Y-50195038D01*
X133075888Y-50201264D01*
X133131067Y-50244125D01*
X133145052Y-50269202D01*
X133190604Y-50379176D01*
X133190609Y-50379185D01*
X133278210Y-50510288D01*
X133278213Y-50510292D01*
X133389707Y-50621786D01*
X133389711Y-50621789D01*
X133520814Y-50709390D01*
X133520827Y-50709397D01*
X133666498Y-50769735D01*
X133666503Y-50769737D01*
X133778934Y-50792101D01*
X133821153Y-50800499D01*
X133821156Y-50800500D01*
X133821158Y-50800500D01*
X133978844Y-50800500D01*
X133978845Y-50800499D01*
X134133497Y-50769737D01*
X134279179Y-50709394D01*
X134410289Y-50621789D01*
X134521789Y-50510289D01*
X134609394Y-50379179D01*
X134669737Y-50233497D01*
X134700500Y-50078842D01*
X134700500Y-49921158D01*
X134700500Y-49921155D01*
X134700499Y-49921153D01*
X134681744Y-49826866D01*
X134669737Y-49766503D01*
X134650039Y-49718948D01*
X134609397Y-49620827D01*
X134609390Y-49620814D01*
X134521789Y-49489711D01*
X134521786Y-49489707D01*
X134410292Y-49378213D01*
X134410288Y-49378210D01*
X134279185Y-49290609D01*
X134279172Y-49290602D01*
X134133501Y-49230264D01*
X134133489Y-49230261D01*
X133978845Y-49199500D01*
X133978842Y-49199500D01*
X133821158Y-49199500D01*
X133793698Y-49204962D01*
X133724106Y-49198733D01*
X133668929Y-49155870D01*
X133654947Y-49130796D01*
X133609397Y-49020827D01*
X133609390Y-49020814D01*
X133521789Y-48889711D01*
X133521786Y-48889707D01*
X133410292Y-48778213D01*
X133410288Y-48778210D01*
X133279185Y-48690609D01*
X133279172Y-48690602D01*
X133133501Y-48630264D01*
X133133489Y-48630261D01*
X132978845Y-48599500D01*
X132978842Y-48599500D01*
X132821158Y-48599500D01*
X132821155Y-48599500D01*
X132666510Y-48630261D01*
X132666498Y-48630264D01*
X132520827Y-48690602D01*
X132520814Y-48690609D01*
X132389711Y-48778210D01*
X132389707Y-48778213D01*
X132278213Y-48889707D01*
X132278210Y-48889711D01*
X132190609Y-49020814D01*
X132190602Y-49020827D01*
X132130264Y-49166498D01*
X132130261Y-49166510D01*
X132099500Y-49321153D01*
X125053232Y-49321153D01*
X125010292Y-49278213D01*
X125010288Y-49278210D01*
X124879185Y-49190609D01*
X124879172Y-49190602D01*
X124733501Y-49130264D01*
X124733489Y-49130261D01*
X124578845Y-49099500D01*
X124578842Y-49099500D01*
X124421158Y-49099500D01*
X124421155Y-49099500D01*
X124266510Y-49130261D01*
X124266498Y-49130264D01*
X124120827Y-49190602D01*
X124120814Y-49190609D01*
X123989711Y-49278210D01*
X123989707Y-49278213D01*
X123878213Y-49389707D01*
X123878210Y-49389711D01*
X123790609Y-49520814D01*
X123790602Y-49520827D01*
X123730264Y-49666498D01*
X123730261Y-49666510D01*
X123699500Y-49821153D01*
X119280907Y-49821153D01*
X119269738Y-49765008D01*
X119269737Y-49765007D01*
X119269737Y-49765003D01*
X119250660Y-49718946D01*
X119209397Y-49619327D01*
X119209390Y-49619314D01*
X119121789Y-49488211D01*
X119121786Y-49488207D01*
X119010292Y-49376713D01*
X119010288Y-49376710D01*
X118879185Y-49289109D01*
X118879172Y-49289102D01*
X118733501Y-49228764D01*
X118733489Y-49228761D01*
X118578845Y-49198000D01*
X118578842Y-49198000D01*
X118421158Y-49198000D01*
X118421155Y-49198000D01*
X118266510Y-49228761D01*
X118266498Y-49228764D01*
X118120827Y-49289102D01*
X118120814Y-49289109D01*
X117989711Y-49376710D01*
X117989707Y-49376713D01*
X117878213Y-49488207D01*
X117878210Y-49488211D01*
X117790609Y-49619314D01*
X117790602Y-49619327D01*
X117730264Y-49764998D01*
X117730261Y-49765010D01*
X117699500Y-49919653D01*
X116070661Y-49919653D01*
X116011054Y-49830446D01*
X116011051Y-49830442D01*
X115899557Y-49718948D01*
X115899553Y-49718945D01*
X115768450Y-49631344D01*
X115768437Y-49631337D01*
X115622766Y-49570999D01*
X115622754Y-49570996D01*
X115468110Y-49540235D01*
X115468107Y-49540235D01*
X115310423Y-49540235D01*
X115310420Y-49540235D01*
X115155775Y-49570996D01*
X115155763Y-49570999D01*
X115010092Y-49631337D01*
X115010076Y-49631346D01*
X114993389Y-49642496D01*
X114926711Y-49663373D01*
X114859331Y-49644887D01*
X114812642Y-49592908D01*
X114800500Y-49539393D01*
X114800500Y-49521155D01*
X114800499Y-49521153D01*
X114793946Y-49488207D01*
X114769737Y-49366503D01*
X114769735Y-49366498D01*
X114709397Y-49220827D01*
X114709390Y-49220814D01*
X114621789Y-49089711D01*
X114621786Y-49089707D01*
X114510292Y-48978213D01*
X114510288Y-48978210D01*
X114379185Y-48890609D01*
X114379172Y-48890602D01*
X114233501Y-48830264D01*
X114233489Y-48830261D01*
X114078845Y-48799500D01*
X114078842Y-48799500D01*
X113921158Y-48799500D01*
X113921155Y-48799500D01*
X113766510Y-48830261D01*
X113766498Y-48830264D01*
X113620827Y-48890602D01*
X113620814Y-48890609D01*
X113489711Y-48978210D01*
X113489707Y-48978213D01*
X113378213Y-49089707D01*
X113378210Y-49089711D01*
X113290609Y-49220814D01*
X113290602Y-49220827D01*
X113230264Y-49366498D01*
X113230261Y-49366510D01*
X113199500Y-49521153D01*
X109680288Y-49521153D01*
X109810289Y-49434289D01*
X109810292Y-49434286D01*
X109817194Y-49427385D01*
X109921786Y-49322792D01*
X109921789Y-49322789D01*
X110009394Y-49191679D01*
X110009839Y-49190606D01*
X110043105Y-49110292D01*
X110069737Y-49045997D01*
X110100500Y-48891342D01*
X110100500Y-48733658D01*
X110100500Y-48733655D01*
X110100499Y-48733653D01*
X110091936Y-48690606D01*
X110069737Y-48579003D01*
X110045775Y-48521153D01*
X135599500Y-48521153D01*
X135599500Y-48678846D01*
X135630261Y-48833489D01*
X135630264Y-48833501D01*
X135690602Y-48979172D01*
X135690609Y-48979185D01*
X135778210Y-49110288D01*
X135778213Y-49110292D01*
X135889707Y-49221786D01*
X135889711Y-49221789D01*
X136020814Y-49309390D01*
X136020827Y-49309397D01*
X136158683Y-49366498D01*
X136166503Y-49369737D01*
X136321153Y-49400499D01*
X136321156Y-49400500D01*
X136321158Y-49400500D01*
X136478844Y-49400500D01*
X136478845Y-49400499D01*
X136633497Y-49369737D01*
X136779179Y-49309394D01*
X136910289Y-49221789D01*
X137021789Y-49110289D01*
X137031281Y-49096083D01*
X138193970Y-49096083D01*
X138193970Y-49253776D01*
X138224731Y-49408419D01*
X138224734Y-49408431D01*
X138285072Y-49554102D01*
X138285079Y-49554115D01*
X138372680Y-49685218D01*
X138372683Y-49685222D01*
X138484177Y-49796716D01*
X138484181Y-49796719D01*
X138615284Y-49884320D01*
X138615297Y-49884327D01*
X138760968Y-49944665D01*
X138760973Y-49944667D01*
X138915623Y-49975429D01*
X138915626Y-49975430D01*
X138915628Y-49975430D01*
X139073314Y-49975430D01*
X139073315Y-49975429D01*
X139227967Y-49944667D01*
X139373649Y-49884324D01*
X139504759Y-49796719D01*
X139616259Y-49685219D01*
X139703864Y-49554109D01*
X139764207Y-49408427D01*
X139794970Y-49253772D01*
X139794970Y-49096088D01*
X139794970Y-49096085D01*
X139794969Y-49096083D01*
X139785006Y-49045997D01*
X139764207Y-48941433D01*
X139756112Y-48921890D01*
X139703867Y-48795757D01*
X139703860Y-48795744D01*
X139616259Y-48664641D01*
X139616256Y-48664637D01*
X139504762Y-48553143D01*
X139504758Y-48553140D01*
X139373655Y-48465539D01*
X139373642Y-48465532D01*
X139227971Y-48405194D01*
X139227959Y-48405191D01*
X139073315Y-48374430D01*
X139073312Y-48374430D01*
X138915628Y-48374430D01*
X138915625Y-48374430D01*
X138760980Y-48405191D01*
X138760968Y-48405194D01*
X138615297Y-48465532D01*
X138615284Y-48465539D01*
X138484181Y-48553140D01*
X138484177Y-48553143D01*
X138372683Y-48664637D01*
X138372680Y-48664641D01*
X138285079Y-48795744D01*
X138285072Y-48795757D01*
X138224734Y-48941428D01*
X138224731Y-48941440D01*
X138193970Y-49096083D01*
X137031281Y-49096083D01*
X137109394Y-48979179D01*
X137169737Y-48833497D01*
X137200500Y-48678842D01*
X137200500Y-48521158D01*
X137200500Y-48521155D01*
X137200499Y-48521153D01*
X137169737Y-48366503D01*
X137109503Y-48221083D01*
X137109397Y-48220827D01*
X137109390Y-48220814D01*
X137021789Y-48089711D01*
X137021786Y-48089707D01*
X136910292Y-47978213D01*
X136910288Y-47978210D01*
X136779185Y-47890609D01*
X136779172Y-47890602D01*
X136633501Y-47830264D01*
X136633489Y-47830261D01*
X136478845Y-47799500D01*
X136478842Y-47799500D01*
X136321158Y-47799500D01*
X136321155Y-47799500D01*
X136166510Y-47830261D01*
X136166498Y-47830264D01*
X136020827Y-47890602D01*
X136020814Y-47890609D01*
X135889711Y-47978210D01*
X135889707Y-47978213D01*
X135778213Y-48089707D01*
X135778210Y-48089711D01*
X135690609Y-48220814D01*
X135690602Y-48220827D01*
X135630264Y-48366498D01*
X135630261Y-48366510D01*
X135599500Y-48521153D01*
X110045775Y-48521153D01*
X110022738Y-48465536D01*
X110009397Y-48433327D01*
X110009390Y-48433314D01*
X109921789Y-48302211D01*
X109921786Y-48302207D01*
X109810292Y-48190713D01*
X109810288Y-48190710D01*
X109679185Y-48103109D01*
X109679172Y-48103102D01*
X109533501Y-48042764D01*
X109533489Y-48042761D01*
X109378845Y-48012000D01*
X109378842Y-48012000D01*
X109221158Y-48012000D01*
X109221155Y-48012000D01*
X109066510Y-48042761D01*
X109066498Y-48042764D01*
X108920827Y-48103102D01*
X108920814Y-48103109D01*
X108789703Y-48190715D01*
X108785975Y-48193775D01*
X108721663Y-48221083D01*
X108652796Y-48209285D01*
X108601241Y-48162128D01*
X108585702Y-48122106D01*
X108579258Y-48089711D01*
X108557237Y-47979003D01*
X108556909Y-47978210D01*
X108496897Y-47833327D01*
X108496890Y-47833314D01*
X108409289Y-47702211D01*
X108409286Y-47702207D01*
X108297792Y-47590713D01*
X108297789Y-47590711D01*
X108281696Y-47579958D01*
X108236890Y-47526347D01*
X108228181Y-47457023D01*
X108258335Y-47393995D01*
X108262885Y-47389192D01*
X108351789Y-47300289D01*
X108439394Y-47169179D01*
X108499737Y-47023497D01*
X108530500Y-46868842D01*
X108530500Y-46711158D01*
X108530500Y-46711155D01*
X108530499Y-46711153D01*
X108512723Y-46621789D01*
X108499737Y-46556503D01*
X108480224Y-46509394D01*
X108439397Y-46410827D01*
X108439390Y-46410814D01*
X108351789Y-46279711D01*
X108351786Y-46279707D01*
X108240292Y-46168213D01*
X108240288Y-46168210D01*
X108109185Y-46080609D01*
X108109172Y-46080602D01*
X107963501Y-46020264D01*
X107963489Y-46020261D01*
X107808845Y-45989500D01*
X107808842Y-45989500D01*
X107651158Y-45989500D01*
X107651155Y-45989500D01*
X107496510Y-46020261D01*
X107496498Y-46020264D01*
X107350827Y-46080602D01*
X107350814Y-46080609D01*
X107219711Y-46168210D01*
X107219707Y-46168213D01*
X107108213Y-46279707D01*
X107108210Y-46279711D01*
X107020609Y-46410814D01*
X107020602Y-46410827D01*
X106960264Y-46556498D01*
X106960261Y-46556510D01*
X106929500Y-46711153D01*
X90250500Y-46711153D01*
X90250500Y-45721153D01*
X120399500Y-45721153D01*
X120399500Y-45878846D01*
X120430261Y-46033489D01*
X120430264Y-46033501D01*
X120490602Y-46179172D01*
X120490609Y-46179185D01*
X120578210Y-46310288D01*
X120578213Y-46310292D01*
X120689707Y-46421786D01*
X120689711Y-46421789D01*
X120820814Y-46509390D01*
X120820827Y-46509397D01*
X120892212Y-46538965D01*
X120966503Y-46569737D01*
X121121153Y-46600499D01*
X121121156Y-46600500D01*
X121121158Y-46600500D01*
X121278844Y-46600500D01*
X121278845Y-46600499D01*
X121433497Y-46569737D01*
X121446551Y-46564329D01*
X121516017Y-46556860D01*
X121562893Y-46575787D01*
X121620821Y-46614493D01*
X121620823Y-46614494D01*
X121620827Y-46614496D01*
X121766498Y-46674834D01*
X121766503Y-46674836D01*
X121921153Y-46705598D01*
X121921156Y-46705599D01*
X121921158Y-46705599D01*
X122078844Y-46705599D01*
X122078845Y-46705598D01*
X122233497Y-46674836D01*
X122379179Y-46614493D01*
X122510289Y-46526888D01*
X122621789Y-46415388D01*
X122709394Y-46284278D01*
X122769737Y-46138596D01*
X122800500Y-45983941D01*
X122800500Y-45921153D01*
X128799500Y-45921153D01*
X128799500Y-46078846D01*
X128830261Y-46233489D01*
X128830264Y-46233501D01*
X128890602Y-46379172D01*
X128890609Y-46379185D01*
X128978210Y-46510288D01*
X128978213Y-46510292D01*
X129089707Y-46621786D01*
X129089711Y-46621789D01*
X129220814Y-46709390D01*
X129220827Y-46709397D01*
X129366498Y-46769735D01*
X129366503Y-46769737D01*
X129521153Y-46800499D01*
X129521156Y-46800500D01*
X129521158Y-46800500D01*
X129678844Y-46800500D01*
X129678845Y-46800499D01*
X129833497Y-46769737D01*
X129946166Y-46723067D01*
X129979172Y-46709397D01*
X129979172Y-46709396D01*
X129979179Y-46709394D01*
X130110289Y-46621789D01*
X130221789Y-46510289D01*
X130309394Y-46379179D01*
X130369737Y-46233497D01*
X130400500Y-46078842D01*
X130400500Y-45921158D01*
X130400500Y-45921155D01*
X130400499Y-45921153D01*
X130369737Y-45766503D01*
X130330426Y-45671597D01*
X130309397Y-45620827D01*
X130309390Y-45620814D01*
X130221789Y-45489711D01*
X130221786Y-45489707D01*
X130110292Y-45378213D01*
X130110288Y-45378210D01*
X129979185Y-45290609D01*
X129979172Y-45290602D01*
X129833501Y-45230264D01*
X129833489Y-45230261D01*
X129678845Y-45199500D01*
X129678842Y-45199500D01*
X129521158Y-45199500D01*
X129521155Y-45199500D01*
X129366510Y-45230261D01*
X129366498Y-45230264D01*
X129220827Y-45290602D01*
X129220814Y-45290609D01*
X129089711Y-45378210D01*
X129089707Y-45378213D01*
X128978213Y-45489707D01*
X128978210Y-45489711D01*
X128890609Y-45620814D01*
X128890602Y-45620827D01*
X128830264Y-45766498D01*
X128830261Y-45766510D01*
X128799500Y-45921153D01*
X122800500Y-45921153D01*
X122800500Y-45826257D01*
X122800500Y-45826254D01*
X122800499Y-45826252D01*
X122769737Y-45671602D01*
X122769735Y-45671597D01*
X122709397Y-45525926D01*
X122709390Y-45525913D01*
X122621789Y-45394810D01*
X122621786Y-45394806D01*
X122510292Y-45283312D01*
X122510288Y-45283309D01*
X122379185Y-45195708D01*
X122379172Y-45195701D01*
X122233501Y-45135363D01*
X122233489Y-45135360D01*
X122078845Y-45104599D01*
X122078842Y-45104599D01*
X121921158Y-45104599D01*
X121921155Y-45104599D01*
X121766505Y-45135360D01*
X121766490Y-45135365D01*
X121753438Y-45140771D01*
X121683969Y-45148235D01*
X121637103Y-45129309D01*
X121579185Y-45090609D01*
X121579172Y-45090602D01*
X121433501Y-45030264D01*
X121433489Y-45030261D01*
X121278845Y-44999500D01*
X121278842Y-44999500D01*
X121121158Y-44999500D01*
X121121155Y-44999500D01*
X120966510Y-45030261D01*
X120966498Y-45030264D01*
X120820827Y-45090602D01*
X120820814Y-45090609D01*
X120689711Y-45178210D01*
X120689707Y-45178213D01*
X120578213Y-45289707D01*
X120578210Y-45289711D01*
X120490609Y-45420814D01*
X120490602Y-45420827D01*
X120430264Y-45566498D01*
X120430261Y-45566510D01*
X120399500Y-45721153D01*
X90250500Y-45721153D01*
X90250500Y-43321153D01*
X135199500Y-43321153D01*
X135199500Y-43478846D01*
X135230261Y-43633489D01*
X135230264Y-43633501D01*
X135290602Y-43779172D01*
X135290609Y-43779185D01*
X135378210Y-43910288D01*
X135378213Y-43910292D01*
X135489707Y-44021786D01*
X135489711Y-44021789D01*
X135620814Y-44109390D01*
X135620827Y-44109397D01*
X135766498Y-44169735D01*
X135766503Y-44169737D01*
X135921153Y-44200499D01*
X135921156Y-44200500D01*
X135921158Y-44200500D01*
X136078844Y-44200500D01*
X136078845Y-44200499D01*
X136233497Y-44169737D01*
X136379179Y-44109394D01*
X136510289Y-44021789D01*
X136621789Y-43910289D01*
X136709394Y-43779179D01*
X136769737Y-43633497D01*
X136800500Y-43478842D01*
X136800500Y-43321158D01*
X136800500Y-43321155D01*
X136800499Y-43321153D01*
X136798338Y-43310288D01*
X136769737Y-43166503D01*
X136769735Y-43166498D01*
X136709397Y-43020827D01*
X136709390Y-43020814D01*
X136621789Y-42889711D01*
X136621786Y-42889707D01*
X136510292Y-42778213D01*
X136510288Y-42778210D01*
X136424897Y-42721153D01*
X138962000Y-42721153D01*
X138962000Y-42878846D01*
X138992761Y-43033489D01*
X138992764Y-43033501D01*
X139053102Y-43179172D01*
X139053109Y-43179185D01*
X139140710Y-43310288D01*
X139140713Y-43310292D01*
X139252207Y-43421786D01*
X139252211Y-43421789D01*
X139383314Y-43509390D01*
X139383327Y-43509397D01*
X139528998Y-43569735D01*
X139529003Y-43569737D01*
X139683653Y-43600499D01*
X139683656Y-43600500D01*
X139683658Y-43600500D01*
X139841344Y-43600500D01*
X139841345Y-43600499D01*
X139995997Y-43569737D01*
X140141679Y-43509394D01*
X140272789Y-43421789D01*
X140384289Y-43310289D01*
X140471894Y-43179179D01*
X140532237Y-43033497D01*
X140563000Y-42878842D01*
X140563000Y-42721158D01*
X140563000Y-42721155D01*
X140562999Y-42721153D01*
X140543234Y-42621789D01*
X140532237Y-42566503D01*
X140508952Y-42510288D01*
X140471897Y-42420827D01*
X140471890Y-42420814D01*
X140384289Y-42289711D01*
X140384286Y-42289707D01*
X140272792Y-42178213D01*
X140272788Y-42178210D01*
X140141685Y-42090609D01*
X140141672Y-42090602D01*
X139996001Y-42030264D01*
X139995989Y-42030261D01*
X139841345Y-41999500D01*
X139841342Y-41999500D01*
X139683658Y-41999500D01*
X139683655Y-41999500D01*
X139529010Y-42030261D01*
X139528998Y-42030264D01*
X139383327Y-42090602D01*
X139383314Y-42090609D01*
X139252211Y-42178210D01*
X139252207Y-42178213D01*
X139140713Y-42289707D01*
X139140710Y-42289711D01*
X139053109Y-42420814D01*
X139053102Y-42420827D01*
X138992764Y-42566498D01*
X138992761Y-42566510D01*
X138962000Y-42721153D01*
X136424897Y-42721153D01*
X136379185Y-42690609D01*
X136379172Y-42690602D01*
X136233501Y-42630264D01*
X136233489Y-42630261D01*
X136078845Y-42599500D01*
X136078842Y-42599500D01*
X135921158Y-42599500D01*
X135921155Y-42599500D01*
X135766510Y-42630261D01*
X135766498Y-42630264D01*
X135620827Y-42690602D01*
X135620814Y-42690609D01*
X135489711Y-42778210D01*
X135489707Y-42778213D01*
X135378213Y-42889707D01*
X135378210Y-42889711D01*
X135290609Y-43020814D01*
X135290602Y-43020827D01*
X135230264Y-43166498D01*
X135230261Y-43166510D01*
X135199500Y-43321153D01*
X90250500Y-43321153D01*
X90250500Y-41921153D01*
X125399500Y-41921153D01*
X125399500Y-42078846D01*
X125430261Y-42233489D01*
X125430264Y-42233501D01*
X125490602Y-42379172D01*
X125490609Y-42379185D01*
X125578210Y-42510288D01*
X125578213Y-42510292D01*
X125689707Y-42621786D01*
X125689711Y-42621789D01*
X125820814Y-42709390D01*
X125820827Y-42709397D01*
X125966498Y-42769735D01*
X125966503Y-42769737D01*
X126121153Y-42800499D01*
X126121156Y-42800500D01*
X126121158Y-42800500D01*
X126278844Y-42800500D01*
X126278845Y-42800499D01*
X126433497Y-42769737D01*
X126579179Y-42709394D01*
X126710289Y-42621789D01*
X126821789Y-42510289D01*
X126909394Y-42379179D01*
X126969737Y-42233497D01*
X127000500Y-42078842D01*
X127000500Y-41921158D01*
X127000500Y-41921155D01*
X127000499Y-41921153D01*
X126969738Y-41766510D01*
X126969737Y-41766503D01*
X126942398Y-41700500D01*
X126909397Y-41620827D01*
X126909390Y-41620814D01*
X126821789Y-41489711D01*
X126821786Y-41489707D01*
X126710292Y-41378213D01*
X126710288Y-41378210D01*
X126579185Y-41290609D01*
X126579172Y-41290602D01*
X126433501Y-41230264D01*
X126433489Y-41230261D01*
X126278845Y-41199500D01*
X126278842Y-41199500D01*
X126121158Y-41199500D01*
X126121155Y-41199500D01*
X125966510Y-41230261D01*
X125966498Y-41230264D01*
X125820827Y-41290602D01*
X125820814Y-41290609D01*
X125689711Y-41378210D01*
X125689707Y-41378213D01*
X125578213Y-41489707D01*
X125578210Y-41489711D01*
X125490609Y-41620814D01*
X125490602Y-41620827D01*
X125430264Y-41766498D01*
X125430261Y-41766510D01*
X125399500Y-41921153D01*
X90250500Y-41921153D01*
X90250500Y-39796888D01*
X122875235Y-39796888D01*
X122875235Y-39954581D01*
X122905996Y-40109224D01*
X122905999Y-40109236D01*
X122966337Y-40254907D01*
X122966344Y-40254920D01*
X123053945Y-40386023D01*
X123053948Y-40386027D01*
X123165442Y-40497521D01*
X123165446Y-40497524D01*
X123296549Y-40585125D01*
X123296562Y-40585132D01*
X123442233Y-40645470D01*
X123442238Y-40645472D01*
X123596888Y-40676234D01*
X123596891Y-40676235D01*
X123596893Y-40676235D01*
X123754579Y-40676235D01*
X123754580Y-40676234D01*
X123909232Y-40645472D01*
X124054914Y-40585129D01*
X124186024Y-40497524D01*
X124297524Y-40386024D01*
X124385129Y-40254914D01*
X124445472Y-40109232D01*
X124476235Y-39954577D01*
X124476235Y-39954576D01*
X124476554Y-39952973D01*
X124508939Y-39891062D01*
X124550713Y-39862605D01*
X124679179Y-39809394D01*
X124810289Y-39721789D01*
X124921789Y-39610289D01*
X125009394Y-39479179D01*
X125069737Y-39333497D01*
X125100500Y-39178842D01*
X125100500Y-39021158D01*
X125100500Y-39021155D01*
X125100499Y-39021153D01*
X125069737Y-38866503D01*
X125050955Y-38821158D01*
X125050953Y-38821153D01*
X127499500Y-38821153D01*
X127499500Y-38978846D01*
X127530261Y-39133489D01*
X127530264Y-39133501D01*
X127590602Y-39279171D01*
X127590609Y-39279184D01*
X127622138Y-39326370D01*
X127643016Y-39393048D01*
X127633598Y-39442711D01*
X127626132Y-39460735D01*
X127626129Y-39460743D01*
X127595368Y-39615391D01*
X127595368Y-39773084D01*
X127626129Y-39927727D01*
X127626132Y-39927739D01*
X127686470Y-40073410D01*
X127686477Y-40073423D01*
X127774078Y-40204526D01*
X127774081Y-40204530D01*
X127885575Y-40316024D01*
X127885579Y-40316027D01*
X128016682Y-40403628D01*
X128016695Y-40403635D01*
X128152649Y-40459948D01*
X128162371Y-40463975D01*
X128317021Y-40494737D01*
X128317024Y-40494738D01*
X128317026Y-40494738D01*
X128474712Y-40494738D01*
X128474713Y-40494737D01*
X128629365Y-40463975D01*
X128696561Y-40436141D01*
X128766027Y-40428673D01*
X128828506Y-40459948D01*
X128864159Y-40520036D01*
X128861666Y-40589861D01*
X128858573Y-40598154D01*
X128830263Y-40666502D01*
X128830261Y-40666510D01*
X128799500Y-40821153D01*
X128799500Y-40978846D01*
X128830261Y-41133489D01*
X128830264Y-41133501D01*
X128890602Y-41279172D01*
X128890609Y-41279185D01*
X128978210Y-41410288D01*
X128978213Y-41410292D01*
X129089707Y-41521786D01*
X129089711Y-41521789D01*
X129220814Y-41609390D01*
X129220827Y-41609397D01*
X129366498Y-41669735D01*
X129366503Y-41669737D01*
X129521153Y-41700499D01*
X129521156Y-41700500D01*
X129521158Y-41700500D01*
X129678844Y-41700500D01*
X129678845Y-41700499D01*
X129833497Y-41669737D01*
X129951592Y-41620821D01*
X129979172Y-41609397D01*
X129979172Y-41609396D01*
X129979179Y-41609394D01*
X130110289Y-41521789D01*
X130221789Y-41410289D01*
X130309394Y-41279179D01*
X130369737Y-41133497D01*
X130400500Y-40978842D01*
X130400500Y-40821158D01*
X130400500Y-40821155D01*
X130400499Y-40821153D01*
X130369737Y-40666503D01*
X130337991Y-40589861D01*
X130309397Y-40520827D01*
X130309390Y-40520814D01*
X130221789Y-40389711D01*
X130221786Y-40389707D01*
X130110292Y-40278213D01*
X130110288Y-40278210D01*
X129979185Y-40190609D01*
X129979172Y-40190602D01*
X129833501Y-40130264D01*
X129833489Y-40130261D01*
X129678845Y-40099500D01*
X129678842Y-40099500D01*
X129521158Y-40099500D01*
X129521155Y-40099500D01*
X129366510Y-40130261D01*
X129366507Y-40130262D01*
X129366506Y-40130262D01*
X129366503Y-40130263D01*
X129299308Y-40158096D01*
X129229838Y-40165564D01*
X129167359Y-40134288D01*
X129131707Y-40074199D01*
X129134202Y-40004374D01*
X129137295Y-39996081D01*
X129165605Y-39927735D01*
X129196368Y-39773080D01*
X129196368Y-39615396D01*
X129196368Y-39615393D01*
X129196367Y-39615391D01*
X129172729Y-39496556D01*
X129165605Y-39460741D01*
X129137566Y-39393048D01*
X129105265Y-39315065D01*
X129105258Y-39315052D01*
X129073729Y-39267866D01*
X129052851Y-39201189D01*
X129062270Y-39151522D01*
X129069737Y-39133497D01*
X129100500Y-38978842D01*
X129100500Y-38821158D01*
X129100500Y-38821155D01*
X129100499Y-38821153D01*
X129080543Y-38720827D01*
X129069737Y-38666503D01*
X129037929Y-38589711D01*
X129009397Y-38520827D01*
X129009390Y-38520814D01*
X128921789Y-38389711D01*
X128921786Y-38389707D01*
X128810292Y-38278213D01*
X128810288Y-38278210D01*
X128679185Y-38190609D01*
X128679172Y-38190602D01*
X128533501Y-38130264D01*
X128533489Y-38130261D01*
X128378845Y-38099500D01*
X128378842Y-38099500D01*
X128221158Y-38099500D01*
X128221155Y-38099500D01*
X128066510Y-38130261D01*
X128066498Y-38130264D01*
X127920827Y-38190602D01*
X127920814Y-38190609D01*
X127789711Y-38278210D01*
X127789707Y-38278213D01*
X127678213Y-38389707D01*
X127678210Y-38389711D01*
X127590609Y-38520814D01*
X127590602Y-38520827D01*
X127530264Y-38666498D01*
X127530261Y-38666510D01*
X127499500Y-38821153D01*
X125050953Y-38821153D01*
X125009397Y-38720827D01*
X125009390Y-38720814D01*
X124921789Y-38589711D01*
X124921786Y-38589707D01*
X124810292Y-38478213D01*
X124810288Y-38478210D01*
X124679185Y-38390609D01*
X124679172Y-38390602D01*
X124533501Y-38330264D01*
X124533489Y-38330261D01*
X124378845Y-38299500D01*
X124378842Y-38299500D01*
X124221158Y-38299500D01*
X124221155Y-38299500D01*
X124066510Y-38330261D01*
X124066498Y-38330264D01*
X123920827Y-38390602D01*
X123920814Y-38390609D01*
X123789711Y-38478210D01*
X123789707Y-38478213D01*
X123678213Y-38589707D01*
X123678210Y-38589711D01*
X123590609Y-38720814D01*
X123590602Y-38720827D01*
X123530264Y-38866498D01*
X123530261Y-38866508D01*
X123499180Y-39022762D01*
X123466795Y-39084673D01*
X123425016Y-39113131D01*
X123296558Y-39166339D01*
X123296549Y-39166344D01*
X123165446Y-39253945D01*
X123165442Y-39253948D01*
X123053948Y-39365442D01*
X123053945Y-39365446D01*
X122966344Y-39496549D01*
X122966337Y-39496562D01*
X122905999Y-39642233D01*
X122905996Y-39642245D01*
X122875235Y-39796888D01*
X90250500Y-39796888D01*
X90250500Y-35821153D01*
X115099500Y-35821153D01*
X115099500Y-35978846D01*
X115130261Y-36133489D01*
X115130264Y-36133501D01*
X115190604Y-36279177D01*
X115190605Y-36279179D01*
X115191899Y-36281115D01*
X115192264Y-36282282D01*
X115193476Y-36284549D01*
X115193045Y-36284778D01*
X115212773Y-36347794D01*
X115194285Y-36415173D01*
X115191899Y-36418885D01*
X115190605Y-36420820D01*
X115190604Y-36420822D01*
X115130264Y-36566498D01*
X115130261Y-36566510D01*
X115099500Y-36721153D01*
X115099500Y-36878846D01*
X115130261Y-37033489D01*
X115130264Y-37033501D01*
X115190602Y-37179172D01*
X115190609Y-37179185D01*
X115278210Y-37310288D01*
X115278213Y-37310292D01*
X115389707Y-37421786D01*
X115389711Y-37421789D01*
X115520814Y-37509390D01*
X115520827Y-37509397D01*
X115666498Y-37569735D01*
X115666503Y-37569737D01*
X115821153Y-37600499D01*
X115821156Y-37600500D01*
X115821158Y-37600500D01*
X115978844Y-37600500D01*
X115978845Y-37600499D01*
X116133497Y-37569737D01*
X116279179Y-37509394D01*
X116410289Y-37421789D01*
X116521789Y-37310289D01*
X116609394Y-37179179D01*
X116669737Y-37033497D01*
X116700500Y-36878842D01*
X116700500Y-36721158D01*
X116700500Y-36721155D01*
X116700499Y-36721153D01*
X116680543Y-36620827D01*
X116669737Y-36566503D01*
X116650952Y-36521151D01*
X121399500Y-36521151D01*
X121399500Y-36678844D01*
X121430261Y-36833487D01*
X121430264Y-36833499D01*
X121490602Y-36979170D01*
X121490609Y-36979183D01*
X121578210Y-37110286D01*
X121578213Y-37110290D01*
X121689707Y-37221784D01*
X121689711Y-37221787D01*
X121820814Y-37309388D01*
X121820827Y-37309395D01*
X121966498Y-37369733D01*
X121966503Y-37369735D01*
X122121153Y-37400497D01*
X122121156Y-37400498D01*
X122121158Y-37400498D01*
X122278844Y-37400498D01*
X122278845Y-37400497D01*
X122433497Y-37369735D01*
X122577006Y-37310292D01*
X122579172Y-37309395D01*
X122579172Y-37309394D01*
X122579179Y-37309392D01*
X122710289Y-37221787D01*
X122821789Y-37110287D01*
X122909394Y-36979177D01*
X122933426Y-36921158D01*
X122933428Y-36921153D01*
X133699500Y-36921153D01*
X133699500Y-37078846D01*
X133730261Y-37233489D01*
X133730264Y-37233501D01*
X133790602Y-37379172D01*
X133790609Y-37379185D01*
X133878210Y-37510288D01*
X133878213Y-37510292D01*
X133989707Y-37621786D01*
X133989711Y-37621789D01*
X134120814Y-37709390D01*
X134120827Y-37709397D01*
X134266498Y-37769735D01*
X134266503Y-37769737D01*
X134421153Y-37800499D01*
X134421156Y-37800500D01*
X134421158Y-37800500D01*
X134578844Y-37800500D01*
X134578845Y-37800499D01*
X134733497Y-37769737D01*
X134879179Y-37709394D01*
X135010289Y-37621789D01*
X135121789Y-37510289D01*
X135209394Y-37379179D01*
X135269737Y-37233497D01*
X135300500Y-37078842D01*
X135300500Y-36921158D01*
X135300500Y-36921155D01*
X135300499Y-36921153D01*
X135269737Y-36766503D01*
X135250955Y-36721158D01*
X135209397Y-36620827D01*
X135209390Y-36620814D01*
X135121789Y-36489711D01*
X135121786Y-36489707D01*
X135010292Y-36378213D01*
X135010288Y-36378210D01*
X134879185Y-36290609D01*
X134879172Y-36290602D01*
X134733501Y-36230264D01*
X134733489Y-36230261D01*
X134578845Y-36199500D01*
X134578842Y-36199500D01*
X134421158Y-36199500D01*
X134421155Y-36199500D01*
X134266510Y-36230261D01*
X134266498Y-36230264D01*
X134120827Y-36290602D01*
X134120814Y-36290609D01*
X133989711Y-36378210D01*
X133989707Y-36378213D01*
X133878213Y-36489707D01*
X133878210Y-36489711D01*
X133790609Y-36620814D01*
X133790602Y-36620827D01*
X133730264Y-36766498D01*
X133730261Y-36766510D01*
X133699500Y-36921153D01*
X122933428Y-36921153D01*
X122955605Y-36867614D01*
X122969735Y-36833499D01*
X122969737Y-36833495D01*
X123000500Y-36678840D01*
X123000500Y-36521156D01*
X123000500Y-36521153D01*
X123000499Y-36521151D01*
X122980157Y-36418885D01*
X122969737Y-36366501D01*
X122954581Y-36329910D01*
X122909397Y-36220825D01*
X122909390Y-36220812D01*
X122821789Y-36089709D01*
X122821786Y-36089705D01*
X122710292Y-35978211D01*
X122710288Y-35978208D01*
X122579185Y-35890607D01*
X122579172Y-35890600D01*
X122433501Y-35830262D01*
X122433489Y-35830259D01*
X122278845Y-35799498D01*
X122278842Y-35799498D01*
X122121158Y-35799498D01*
X122121155Y-35799498D01*
X121966510Y-35830259D01*
X121966498Y-35830262D01*
X121820827Y-35890600D01*
X121820814Y-35890607D01*
X121689711Y-35978208D01*
X121689707Y-35978211D01*
X121578213Y-36089705D01*
X121578210Y-36089709D01*
X121490609Y-36220812D01*
X121490602Y-36220825D01*
X121430264Y-36366496D01*
X121430261Y-36366508D01*
X121399500Y-36521151D01*
X116650952Y-36521151D01*
X116609394Y-36420821D01*
X116601865Y-36409553D01*
X116597407Y-36399253D01*
X116594445Y-36375270D01*
X116587226Y-36352214D01*
X116590241Y-36341223D01*
X116588844Y-36329910D01*
X116599318Y-36308133D01*
X116605710Y-36284834D01*
X116608100Y-36281115D01*
X116609394Y-36279179D01*
X116669737Y-36133497D01*
X116700500Y-35978842D01*
X116700500Y-35821158D01*
X116700500Y-35821155D01*
X116700499Y-35821153D01*
X116669737Y-35666503D01*
X116642398Y-35600500D01*
X116609397Y-35520827D01*
X116609390Y-35520814D01*
X116521789Y-35389711D01*
X116521786Y-35389707D01*
X116410292Y-35278213D01*
X116410288Y-35278210D01*
X116279185Y-35190609D01*
X116279172Y-35190602D01*
X116133501Y-35130264D01*
X116133489Y-35130261D01*
X115978845Y-35099500D01*
X115978842Y-35099500D01*
X115821158Y-35099500D01*
X115821155Y-35099500D01*
X115666510Y-35130261D01*
X115666498Y-35130264D01*
X115520827Y-35190602D01*
X115520814Y-35190609D01*
X115389711Y-35278210D01*
X115389707Y-35278213D01*
X115278213Y-35389707D01*
X115278210Y-35389711D01*
X115190609Y-35520814D01*
X115190602Y-35520827D01*
X115130264Y-35666498D01*
X115130261Y-35666510D01*
X115099500Y-35821153D01*
X90250500Y-35821153D01*
X90250500Y-31693713D01*
X90749500Y-31693713D01*
X90749500Y-31906287D01*
X90782754Y-32116243D01*
X90839409Y-32290609D01*
X90848444Y-32318414D01*
X90944951Y-32507820D01*
X91069890Y-32679786D01*
X91220213Y-32830109D01*
X91392179Y-32955048D01*
X91392181Y-32955049D01*
X91392184Y-32955051D01*
X91581588Y-33051557D01*
X91783757Y-33117246D01*
X91993713Y-33150500D01*
X91993714Y-33150500D01*
X92206286Y-33150500D01*
X92206287Y-33150500D01*
X92416243Y-33117246D01*
X92618412Y-33051557D01*
X92807816Y-32955051D01*
X92880534Y-32902219D01*
X92979786Y-32830109D01*
X92979788Y-32830106D01*
X92979792Y-32830104D01*
X93130104Y-32679792D01*
X93130106Y-32679788D01*
X93130109Y-32679786D01*
X93255048Y-32507820D01*
X93255047Y-32507820D01*
X93255051Y-32507816D01*
X93351557Y-32318412D01*
X93417246Y-32116243D01*
X93450500Y-31906287D01*
X93450500Y-31693713D01*
X93417246Y-31483757D01*
X93351557Y-31281588D01*
X93255051Y-31092184D01*
X93255049Y-31092181D01*
X93255048Y-31092179D01*
X93130109Y-30920213D01*
X92979786Y-30769890D01*
X92807820Y-30644951D01*
X92618414Y-30548444D01*
X92618413Y-30548443D01*
X92618412Y-30548443D01*
X92416243Y-30482754D01*
X92416241Y-30482753D01*
X92416240Y-30482753D01*
X92254957Y-30457208D01*
X92206287Y-30449500D01*
X91993713Y-30449500D01*
X91945042Y-30457208D01*
X91783760Y-30482753D01*
X91581585Y-30548444D01*
X91392179Y-30644951D01*
X91220213Y-30769890D01*
X91069890Y-30920213D01*
X90944951Y-31092179D01*
X90848444Y-31281585D01*
X90782753Y-31483760D01*
X90776064Y-31525996D01*
X90749500Y-31693713D01*
X90250500Y-31693713D01*
X90250500Y-30024500D01*
X90270185Y-29957461D01*
X90322989Y-29911706D01*
X90374500Y-29900500D01*
X101382541Y-29900500D01*
X101449580Y-29920185D01*
G37*
%TD.AperFunction*%
%TA.AperFunction,Conductor*%
G36*
X149138225Y-88753518D02*
G01*
X149168834Y-88755707D01*
X149172492Y-88758445D01*
X149177015Y-88759096D01*
X149200202Y-88779189D01*
X149224767Y-88797579D01*
X149226364Y-88801860D01*
X149229817Y-88804853D01*
X149238460Y-88834291D01*
X149249184Y-88863043D01*
X149249500Y-88871889D01*
X149249500Y-89252690D01*
X149229815Y-89319729D01*
X149213181Y-89340371D01*
X148482962Y-90070589D01*
X148465925Y-90007007D01*
X148400099Y-89892993D01*
X148307007Y-89799901D01*
X148192993Y-89734075D01*
X148129409Y-89717037D01*
X148874052Y-88972393D01*
X148878669Y-88956671D01*
X148884891Y-88927054D01*
X148888803Y-88922163D01*
X148889833Y-88918658D01*
X148901436Y-88906372D01*
X148912946Y-88891986D01*
X148916951Y-88888515D01*
X148977510Y-88844517D01*
X149040952Y-88781074D01*
X149044300Y-88778174D01*
X149072210Y-88765429D01*
X149099142Y-88750723D01*
X149103700Y-88751049D01*
X149107857Y-88749151D01*
X149138225Y-88753518D01*
G37*
%TD.AperFunction*%
%TD*%
M02*
