%TF.GenerationSoftware,KiCad,Pcbnew,10.0.4*%
%TF.CreationDate,2026-09-19T19:46:46+08:00*%
%TF.ProjectId,Jmp3,4a6d7033-2e6b-4696-9361-645f70636258,rev?*%
%TF.SameCoordinates,Original*%
%TF.FileFunction,Legend,Bot*%
%TF.FilePolarity,Positive*%
%FSLAX46Y46*%
G04 Gerber Fmt 4.6, Leading zero omitted, Abs format (unit mm)*
G04 Created by KiCad (PCBNEW 10.0.4) date 2026-09-19 19:46:46*
%MOMM*%
%LPD*%
G01*
G04 APERTURE LIST*
%ADD10C,0.625000*%
%ADD11C,0.150000*%
%ADD12C,0.100000*%
%ADD13C,0.120000*%
%ADD14C,0.250000*%
%ADD15C,0.060000*%
G04 APERTURE END LIST*
D10*
X130528101Y-67305875D02*
X129903101Y-62305875D01*
X127670958Y-67305875D02*
X129456673Y-64448732D01*
X127045958Y-62305875D02*
X130260244Y-65163018D01*
X123385244Y-67305875D02*
X123057863Y-64686827D01*
X123057863Y-64686827D02*
X123236435Y-64210637D01*
X123236435Y-64210637D02*
X123682863Y-63972541D01*
X123682863Y-63972541D02*
X124635244Y-63972541D01*
X124635244Y-63972541D02*
X125141196Y-64210637D01*
X123355482Y-67067780D02*
X123861435Y-67305875D01*
X123861435Y-67305875D02*
X125051911Y-67305875D01*
X125051911Y-67305875D02*
X125498339Y-67067780D01*
X125498339Y-67067780D02*
X125676911Y-66591589D01*
X125676911Y-66591589D02*
X125617387Y-66115399D01*
X125617387Y-66115399D02*
X125319768Y-65639208D01*
X125319768Y-65639208D02*
X124813816Y-65401113D01*
X124813816Y-65401113D02*
X123623339Y-65401113D01*
X123623339Y-65401113D02*
X123117387Y-65163018D01*
X121301910Y-63972541D02*
X119397148Y-63972541D01*
X120379291Y-62305875D02*
X120915006Y-66591589D01*
X120915006Y-66591589D02*
X120736434Y-67067780D01*
X120736434Y-67067780D02*
X120290006Y-67305875D01*
X120290006Y-67305875D02*
X119813815Y-67305875D01*
X118444767Y-63972541D02*
X116540005Y-63972541D01*
X118147148Y-67305875D02*
X117611434Y-63020160D01*
X117611434Y-63020160D02*
X117313815Y-62543970D01*
X117313815Y-62543970D02*
X116807863Y-62305875D01*
X116807863Y-62305875D02*
X116331672Y-62305875D01*
X115290005Y-67305875D02*
X114873339Y-63972541D01*
X114665005Y-62305875D02*
X114932862Y-62543970D01*
X114932862Y-62543970D02*
X114724529Y-62782065D01*
X114724529Y-62782065D02*
X114456672Y-62543970D01*
X114456672Y-62543970D02*
X114665005Y-62305875D01*
X114665005Y-62305875D02*
X114724529Y-62782065D01*
X113117387Y-67067780D02*
X112670958Y-67305875D01*
X112670958Y-67305875D02*
X111718577Y-67305875D01*
X111718577Y-67305875D02*
X111212625Y-67067780D01*
X111212625Y-67067780D02*
X110915006Y-66591589D01*
X110915006Y-66591589D02*
X110885244Y-66353494D01*
X110885244Y-66353494D02*
X111063815Y-65877303D01*
X111063815Y-65877303D02*
X111510244Y-65639208D01*
X111510244Y-65639208D02*
X112224529Y-65639208D01*
X112224529Y-65639208D02*
X112670958Y-65401113D01*
X112670958Y-65401113D02*
X112849529Y-64924922D01*
X112849529Y-64924922D02*
X112819768Y-64686827D01*
X112819768Y-64686827D02*
X112522148Y-64210637D01*
X112522148Y-64210637D02*
X112016196Y-63972541D01*
X112016196Y-63972541D02*
X111301910Y-63972541D01*
X111301910Y-63972541D02*
X110855482Y-64210637D01*
X108861434Y-67305875D02*
X108236434Y-62305875D01*
X106718577Y-67305875D02*
X106391196Y-64686827D01*
X106391196Y-64686827D02*
X106569768Y-64210637D01*
X106569768Y-64210637D02*
X107016196Y-63972541D01*
X107016196Y-63972541D02*
X107730482Y-63972541D01*
X107730482Y-63972541D02*
X108236434Y-64210637D01*
X108236434Y-64210637D02*
X108504291Y-64448732D01*
X128474530Y-70355595D02*
X128920958Y-73927023D01*
X128920958Y-73927023D02*
X129248339Y-74641309D01*
X129248339Y-74641309D02*
X129784054Y-75117500D01*
X129784054Y-75117500D02*
X130528101Y-75355595D01*
X130528101Y-75355595D02*
X131004292Y-75355595D01*
X126480482Y-73450833D02*
X122670958Y-73450833D01*
X120528101Y-75355595D02*
X120111435Y-72022261D01*
X120170958Y-72498452D02*
X119903101Y-72260357D01*
X119903101Y-72260357D02*
X119397149Y-72022261D01*
X119397149Y-72022261D02*
X118682863Y-72022261D01*
X118682863Y-72022261D02*
X118236435Y-72260357D01*
X118236435Y-72260357D02*
X118057863Y-72736547D01*
X118057863Y-72736547D02*
X118385244Y-75355595D01*
X118057863Y-72736547D02*
X117760244Y-72260357D01*
X117760244Y-72260357D02*
X117254292Y-72022261D01*
X117254292Y-72022261D02*
X116540006Y-72022261D01*
X116540006Y-72022261D02*
X116093577Y-72260357D01*
X116093577Y-72260357D02*
X115915006Y-72736547D01*
X115915006Y-72736547D02*
X116242387Y-75355595D01*
X113444768Y-72022261D02*
X114069768Y-77022261D01*
X113474529Y-72260357D02*
X112968577Y-72022261D01*
X112968577Y-72022261D02*
X112016196Y-72022261D01*
X112016196Y-72022261D02*
X111569768Y-72260357D01*
X111569768Y-72260357D02*
X111361434Y-72498452D01*
X111361434Y-72498452D02*
X111182863Y-72974642D01*
X111182863Y-72974642D02*
X111361434Y-74403214D01*
X111361434Y-74403214D02*
X111659053Y-74879404D01*
X111659053Y-74879404D02*
X111926910Y-75117500D01*
X111926910Y-75117500D02*
X112432863Y-75355595D01*
X112432863Y-75355595D02*
X113385244Y-75355595D01*
X113385244Y-75355595D02*
X113831672Y-75117500D01*
X109188815Y-70355595D02*
X106093577Y-70355595D01*
X106093577Y-70355595D02*
X107998339Y-72260357D01*
X107998339Y-72260357D02*
X107284053Y-72260357D01*
X107284053Y-72260357D02*
X106837624Y-72498452D01*
X106837624Y-72498452D02*
X106629291Y-72736547D01*
X106629291Y-72736547D02*
X106450719Y-73212738D01*
X106450719Y-73212738D02*
X106599529Y-74403214D01*
X106599529Y-74403214D02*
X106897148Y-74879404D01*
X106897148Y-74879404D02*
X107165005Y-75117500D01*
X107165005Y-75117500D02*
X107670958Y-75355595D01*
X107670958Y-75355595D02*
X109099529Y-75355595D01*
X109099529Y-75355595D02*
X109545958Y-75117500D01*
X109545958Y-75117500D02*
X109754291Y-74879404D01*
D11*
X126359580Y-110657142D02*
X126407200Y-110609523D01*
X126407200Y-110609523D02*
X126454819Y-110466666D01*
X126454819Y-110466666D02*
X126454819Y-110371428D01*
X126454819Y-110371428D02*
X126407200Y-110228571D01*
X126407200Y-110228571D02*
X126311961Y-110133333D01*
X126311961Y-110133333D02*
X126216723Y-110085714D01*
X126216723Y-110085714D02*
X126026247Y-110038095D01*
X126026247Y-110038095D02*
X125883390Y-110038095D01*
X125883390Y-110038095D02*
X125692914Y-110085714D01*
X125692914Y-110085714D02*
X125597676Y-110133333D01*
X125597676Y-110133333D02*
X125502438Y-110228571D01*
X125502438Y-110228571D02*
X125454819Y-110371428D01*
X125454819Y-110371428D02*
X125454819Y-110466666D01*
X125454819Y-110466666D02*
X125502438Y-110609523D01*
X125502438Y-110609523D02*
X125550057Y-110657142D01*
X126454819Y-111609523D02*
X126454819Y-111038095D01*
X126454819Y-111323809D02*
X125454819Y-111323809D01*
X125454819Y-111323809D02*
X125597676Y-111228571D01*
X125597676Y-111228571D02*
X125692914Y-111133333D01*
X125692914Y-111133333D02*
X125740533Y-111038095D01*
X125454819Y-112466666D02*
X125454819Y-112276190D01*
X125454819Y-112276190D02*
X125502438Y-112180952D01*
X125502438Y-112180952D02*
X125550057Y-112133333D01*
X125550057Y-112133333D02*
X125692914Y-112038095D01*
X125692914Y-112038095D02*
X125883390Y-111990476D01*
X125883390Y-111990476D02*
X126264342Y-111990476D01*
X126264342Y-111990476D02*
X126359580Y-112038095D01*
X126359580Y-112038095D02*
X126407200Y-112085714D01*
X126407200Y-112085714D02*
X126454819Y-112180952D01*
X126454819Y-112180952D02*
X126454819Y-112371428D01*
X126454819Y-112371428D02*
X126407200Y-112466666D01*
X126407200Y-112466666D02*
X126359580Y-112514285D01*
X126359580Y-112514285D02*
X126264342Y-112561904D01*
X126264342Y-112561904D02*
X126026247Y-112561904D01*
X126026247Y-112561904D02*
X125931009Y-112514285D01*
X125931009Y-112514285D02*
X125883390Y-112466666D01*
X125883390Y-112466666D02*
X125835771Y-112371428D01*
X125835771Y-112371428D02*
X125835771Y-112180952D01*
X125835771Y-112180952D02*
X125883390Y-112085714D01*
X125883390Y-112085714D02*
X125931009Y-112038095D01*
X125931009Y-112038095D02*
X126026247Y-111990476D01*
X138142857Y-105859580D02*
X138190476Y-105907200D01*
X138190476Y-105907200D02*
X138333333Y-105954819D01*
X138333333Y-105954819D02*
X138428571Y-105954819D01*
X138428571Y-105954819D02*
X138571428Y-105907200D01*
X138571428Y-105907200D02*
X138666666Y-105811961D01*
X138666666Y-105811961D02*
X138714285Y-105716723D01*
X138714285Y-105716723D02*
X138761904Y-105526247D01*
X138761904Y-105526247D02*
X138761904Y-105383390D01*
X138761904Y-105383390D02*
X138714285Y-105192914D01*
X138714285Y-105192914D02*
X138666666Y-105097676D01*
X138666666Y-105097676D02*
X138571428Y-105002438D01*
X138571428Y-105002438D02*
X138428571Y-104954819D01*
X138428571Y-104954819D02*
X138333333Y-104954819D01*
X138333333Y-104954819D02*
X138190476Y-105002438D01*
X138190476Y-105002438D02*
X138142857Y-105050057D01*
X137761904Y-105050057D02*
X137714285Y-105002438D01*
X137714285Y-105002438D02*
X137619047Y-104954819D01*
X137619047Y-104954819D02*
X137380952Y-104954819D01*
X137380952Y-104954819D02*
X137285714Y-105002438D01*
X137285714Y-105002438D02*
X137238095Y-105050057D01*
X137238095Y-105050057D02*
X137190476Y-105145295D01*
X137190476Y-105145295D02*
X137190476Y-105240533D01*
X137190476Y-105240533D02*
X137238095Y-105383390D01*
X137238095Y-105383390D02*
X137809523Y-105954819D01*
X137809523Y-105954819D02*
X137190476Y-105954819D01*
X136333333Y-104954819D02*
X136523809Y-104954819D01*
X136523809Y-104954819D02*
X136619047Y-105002438D01*
X136619047Y-105002438D02*
X136666666Y-105050057D01*
X136666666Y-105050057D02*
X136761904Y-105192914D01*
X136761904Y-105192914D02*
X136809523Y-105383390D01*
X136809523Y-105383390D02*
X136809523Y-105764342D01*
X136809523Y-105764342D02*
X136761904Y-105859580D01*
X136761904Y-105859580D02*
X136714285Y-105907200D01*
X136714285Y-105907200D02*
X136619047Y-105954819D01*
X136619047Y-105954819D02*
X136428571Y-105954819D01*
X136428571Y-105954819D02*
X136333333Y-105907200D01*
X136333333Y-105907200D02*
X136285714Y-105859580D01*
X136285714Y-105859580D02*
X136238095Y-105764342D01*
X136238095Y-105764342D02*
X136238095Y-105526247D01*
X136238095Y-105526247D02*
X136285714Y-105431009D01*
X136285714Y-105431009D02*
X136333333Y-105383390D01*
X136333333Y-105383390D02*
X136428571Y-105335771D01*
X136428571Y-105335771D02*
X136619047Y-105335771D01*
X136619047Y-105335771D02*
X136714285Y-105383390D01*
X136714285Y-105383390D02*
X136761904Y-105431009D01*
X136761904Y-105431009D02*
X136809523Y-105526247D01*
X145309523Y-114969104D02*
X144833333Y-114969104D01*
X145404761Y-115254819D02*
X145071428Y-114254819D01*
X145071428Y-114254819D02*
X144738095Y-115254819D01*
X143976190Y-114588152D02*
X143976190Y-115254819D01*
X144404761Y-114588152D02*
X144404761Y-115111961D01*
X144404761Y-115111961D02*
X144357142Y-115207200D01*
X144357142Y-115207200D02*
X144261904Y-115254819D01*
X144261904Y-115254819D02*
X144119047Y-115254819D01*
X144119047Y-115254819D02*
X144023809Y-115207200D01*
X144023809Y-115207200D02*
X143976190Y-115159580D01*
X143071428Y-115254819D02*
X143071428Y-114254819D01*
X143071428Y-115207200D02*
X143166666Y-115254819D01*
X143166666Y-115254819D02*
X143357142Y-115254819D01*
X143357142Y-115254819D02*
X143452380Y-115207200D01*
X143452380Y-115207200D02*
X143499999Y-115159580D01*
X143499999Y-115159580D02*
X143547618Y-115064342D01*
X143547618Y-115064342D02*
X143547618Y-114778628D01*
X143547618Y-114778628D02*
X143499999Y-114683390D01*
X143499999Y-114683390D02*
X143452380Y-114635771D01*
X143452380Y-114635771D02*
X143357142Y-114588152D01*
X143357142Y-114588152D02*
X143166666Y-114588152D01*
X143166666Y-114588152D02*
X143071428Y-114635771D01*
X142595237Y-115254819D02*
X142595237Y-114588152D01*
X142595237Y-114254819D02*
X142642856Y-114302438D01*
X142642856Y-114302438D02*
X142595237Y-114350057D01*
X142595237Y-114350057D02*
X142547618Y-114302438D01*
X142547618Y-114302438D02*
X142595237Y-114254819D01*
X142595237Y-114254819D02*
X142595237Y-114350057D01*
X141976190Y-115254819D02*
X142071428Y-115207200D01*
X142071428Y-115207200D02*
X142119047Y-115159580D01*
X142119047Y-115159580D02*
X142166666Y-115064342D01*
X142166666Y-115064342D02*
X142166666Y-114778628D01*
X142166666Y-114778628D02*
X142119047Y-114683390D01*
X142119047Y-114683390D02*
X142071428Y-114635771D01*
X142071428Y-114635771D02*
X141976190Y-114588152D01*
X141976190Y-114588152D02*
X141833333Y-114588152D01*
X141833333Y-114588152D02*
X141738095Y-114635771D01*
X141738095Y-114635771D02*
X141690476Y-114683390D01*
X141690476Y-114683390D02*
X141642857Y-114778628D01*
X141642857Y-114778628D02*
X141642857Y-115064342D01*
X141642857Y-115064342D02*
X141690476Y-115159580D01*
X141690476Y-115159580D02*
X141738095Y-115207200D01*
X141738095Y-115207200D02*
X141833333Y-115254819D01*
X141833333Y-115254819D02*
X141976190Y-115254819D01*
X140690476Y-115254819D02*
X141261904Y-115254819D01*
X140976190Y-115254819D02*
X140976190Y-114254819D01*
X140976190Y-114254819D02*
X141071428Y-114397676D01*
X141071428Y-114397676D02*
X141166666Y-114492914D01*
X141166666Y-114492914D02*
X141261904Y-114540533D01*
X107634819Y-46016666D02*
X108349104Y-46016666D01*
X108349104Y-46016666D02*
X108491961Y-45969047D01*
X108491961Y-45969047D02*
X108587200Y-45873809D01*
X108587200Y-45873809D02*
X108634819Y-45730952D01*
X108634819Y-45730952D02*
X108634819Y-45635714D01*
X107968152Y-46921428D02*
X108634819Y-46921428D01*
X107587200Y-46683333D02*
X108301485Y-46445238D01*
X108301485Y-46445238D02*
X108301485Y-47064285D01*
D12*
X145751785Y-100588704D02*
X145789881Y-100626800D01*
X145789881Y-100626800D02*
X145904166Y-100664895D01*
X145904166Y-100664895D02*
X145980357Y-100664895D01*
X145980357Y-100664895D02*
X146094643Y-100626800D01*
X146094643Y-100626800D02*
X146170833Y-100550609D01*
X146170833Y-100550609D02*
X146208928Y-100474419D01*
X146208928Y-100474419D02*
X146247024Y-100322038D01*
X146247024Y-100322038D02*
X146247024Y-100207752D01*
X146247024Y-100207752D02*
X146208928Y-100055371D01*
X146208928Y-100055371D02*
X146170833Y-99979180D01*
X146170833Y-99979180D02*
X146094643Y-99902990D01*
X146094643Y-99902990D02*
X145980357Y-99864895D01*
X145980357Y-99864895D02*
X145904166Y-99864895D01*
X145904166Y-99864895D02*
X145789881Y-99902990D01*
X145789881Y-99902990D02*
X145751785Y-99941085D01*
X145447024Y-99941085D02*
X145408928Y-99902990D01*
X145408928Y-99902990D02*
X145332738Y-99864895D01*
X145332738Y-99864895D02*
X145142262Y-99864895D01*
X145142262Y-99864895D02*
X145066071Y-99902990D01*
X145066071Y-99902990D02*
X145027976Y-99941085D01*
X145027976Y-99941085D02*
X144989881Y-100017276D01*
X144989881Y-100017276D02*
X144989881Y-100093466D01*
X144989881Y-100093466D02*
X145027976Y-100207752D01*
X145027976Y-100207752D02*
X145485119Y-100664895D01*
X145485119Y-100664895D02*
X144989881Y-100664895D01*
X144266071Y-99864895D02*
X144647023Y-99864895D01*
X144647023Y-99864895D02*
X144685119Y-100245847D01*
X144685119Y-100245847D02*
X144647023Y-100207752D01*
X144647023Y-100207752D02*
X144570833Y-100169657D01*
X144570833Y-100169657D02*
X144380357Y-100169657D01*
X144380357Y-100169657D02*
X144304166Y-100207752D01*
X144304166Y-100207752D02*
X144266071Y-100245847D01*
X144266071Y-100245847D02*
X144227976Y-100322038D01*
X144227976Y-100322038D02*
X144227976Y-100512514D01*
X144227976Y-100512514D02*
X144266071Y-100588704D01*
X144266071Y-100588704D02*
X144304166Y-100626800D01*
X144304166Y-100626800D02*
X144380357Y-100664895D01*
X144380357Y-100664895D02*
X144570833Y-100664895D01*
X144570833Y-100664895D02*
X144647023Y-100626800D01*
X144647023Y-100626800D02*
X144685119Y-100588704D01*
D11*
X105031009Y-108414285D02*
X105078628Y-108557142D01*
X105078628Y-108557142D02*
X105126247Y-108604761D01*
X105126247Y-108604761D02*
X105221485Y-108652380D01*
X105221485Y-108652380D02*
X105364342Y-108652380D01*
X105364342Y-108652380D02*
X105459580Y-108604761D01*
X105459580Y-108604761D02*
X105507200Y-108557142D01*
X105507200Y-108557142D02*
X105554819Y-108461904D01*
X105554819Y-108461904D02*
X105554819Y-108080952D01*
X105554819Y-108080952D02*
X104554819Y-108080952D01*
X104554819Y-108080952D02*
X104554819Y-108414285D01*
X104554819Y-108414285D02*
X104602438Y-108509523D01*
X104602438Y-108509523D02*
X104650057Y-108557142D01*
X104650057Y-108557142D02*
X104745295Y-108604761D01*
X104745295Y-108604761D02*
X104840533Y-108604761D01*
X104840533Y-108604761D02*
X104935771Y-108557142D01*
X104935771Y-108557142D02*
X104983390Y-108509523D01*
X104983390Y-108509523D02*
X105031009Y-108414285D01*
X105031009Y-108414285D02*
X105031009Y-108080952D01*
X104554819Y-108938095D02*
X104554819Y-109509523D01*
X105554819Y-109223809D02*
X104554819Y-109223809D01*
X105554819Y-110366666D02*
X105554819Y-109795238D01*
X105554819Y-110080952D02*
X104554819Y-110080952D01*
X104554819Y-110080952D02*
X104697676Y-109985714D01*
X104697676Y-109985714D02*
X104792914Y-109890476D01*
X104792914Y-109890476D02*
X104840533Y-109795238D01*
X106550832Y-37857200D02*
X106407975Y-37904819D01*
X106407975Y-37904819D02*
X106169880Y-37904819D01*
X106169880Y-37904819D02*
X106074642Y-37857200D01*
X106074642Y-37857200D02*
X106027023Y-37809580D01*
X106027023Y-37809580D02*
X105979404Y-37714342D01*
X105979404Y-37714342D02*
X105979404Y-37619104D01*
X105979404Y-37619104D02*
X106027023Y-37523866D01*
X106027023Y-37523866D02*
X106074642Y-37476247D01*
X106074642Y-37476247D02*
X106169880Y-37428628D01*
X106169880Y-37428628D02*
X106360356Y-37381009D01*
X106360356Y-37381009D02*
X106455594Y-37333390D01*
X106455594Y-37333390D02*
X106503213Y-37285771D01*
X106503213Y-37285771D02*
X106550832Y-37190533D01*
X106550832Y-37190533D02*
X106550832Y-37095295D01*
X106550832Y-37095295D02*
X106503213Y-37000057D01*
X106503213Y-37000057D02*
X106455594Y-36952438D01*
X106455594Y-36952438D02*
X106360356Y-36904819D01*
X106360356Y-36904819D02*
X106122261Y-36904819D01*
X106122261Y-36904819D02*
X105979404Y-36952438D01*
X105646070Y-36904819D02*
X105407975Y-37904819D01*
X105407975Y-37904819D02*
X105217499Y-37190533D01*
X105217499Y-37190533D02*
X105027023Y-37904819D01*
X105027023Y-37904819D02*
X104788928Y-36904819D01*
X103884166Y-37904819D02*
X104455594Y-37904819D01*
X104169880Y-37904819D02*
X104169880Y-36904819D01*
X104169880Y-36904819D02*
X104265118Y-37047676D01*
X104265118Y-37047676D02*
X104360356Y-37142914D01*
X104360356Y-37142914D02*
X104455594Y-37190533D01*
X127854819Y-110697142D02*
X127378628Y-110363809D01*
X127854819Y-110125714D02*
X126854819Y-110125714D01*
X126854819Y-110125714D02*
X126854819Y-110506666D01*
X126854819Y-110506666D02*
X126902438Y-110601904D01*
X126902438Y-110601904D02*
X126950057Y-110649523D01*
X126950057Y-110649523D02*
X127045295Y-110697142D01*
X127045295Y-110697142D02*
X127188152Y-110697142D01*
X127188152Y-110697142D02*
X127283390Y-110649523D01*
X127283390Y-110649523D02*
X127331009Y-110601904D01*
X127331009Y-110601904D02*
X127378628Y-110506666D01*
X127378628Y-110506666D02*
X127378628Y-110125714D01*
X127854819Y-111649523D02*
X127854819Y-111078095D01*
X127854819Y-111363809D02*
X126854819Y-111363809D01*
X126854819Y-111363809D02*
X126997676Y-111268571D01*
X126997676Y-111268571D02*
X127092914Y-111173333D01*
X127092914Y-111173333D02*
X127140533Y-111078095D01*
X127854819Y-112601904D02*
X127854819Y-112030476D01*
X127854819Y-112316190D02*
X126854819Y-112316190D01*
X126854819Y-112316190D02*
X126997676Y-112220952D01*
X126997676Y-112220952D02*
X127092914Y-112125714D01*
X127092914Y-112125714D02*
X127140533Y-112030476D01*
X115703333Y-105679819D02*
X115703333Y-106394104D01*
X115703333Y-106394104D02*
X115750952Y-106536961D01*
X115750952Y-106536961D02*
X115846190Y-106632200D01*
X115846190Y-106632200D02*
X115989047Y-106679819D01*
X115989047Y-106679819D02*
X116084285Y-106679819D01*
X115274761Y-105775057D02*
X115227142Y-105727438D01*
X115227142Y-105727438D02*
X115131904Y-105679819D01*
X115131904Y-105679819D02*
X114893809Y-105679819D01*
X114893809Y-105679819D02*
X114798571Y-105727438D01*
X114798571Y-105727438D02*
X114750952Y-105775057D01*
X114750952Y-105775057D02*
X114703333Y-105870295D01*
X114703333Y-105870295D02*
X114703333Y-105965533D01*
X114703333Y-105965533D02*
X114750952Y-106108390D01*
X114750952Y-106108390D02*
X115322380Y-106679819D01*
X115322380Y-106679819D02*
X114703333Y-106679819D01*
X141433332Y-43707200D02*
X141290475Y-43754819D01*
X141290475Y-43754819D02*
X141052380Y-43754819D01*
X141052380Y-43754819D02*
X140957142Y-43707200D01*
X140957142Y-43707200D02*
X140909523Y-43659580D01*
X140909523Y-43659580D02*
X140861904Y-43564342D01*
X140861904Y-43564342D02*
X140861904Y-43469104D01*
X140861904Y-43469104D02*
X140909523Y-43373866D01*
X140909523Y-43373866D02*
X140957142Y-43326247D01*
X140957142Y-43326247D02*
X141052380Y-43278628D01*
X141052380Y-43278628D02*
X141242856Y-43231009D01*
X141242856Y-43231009D02*
X141338094Y-43183390D01*
X141338094Y-43183390D02*
X141385713Y-43135771D01*
X141385713Y-43135771D02*
X141433332Y-43040533D01*
X141433332Y-43040533D02*
X141433332Y-42945295D01*
X141433332Y-42945295D02*
X141385713Y-42850057D01*
X141385713Y-42850057D02*
X141338094Y-42802438D01*
X141338094Y-42802438D02*
X141242856Y-42754819D01*
X141242856Y-42754819D02*
X141004761Y-42754819D01*
X141004761Y-42754819D02*
X140861904Y-42802438D01*
X140528570Y-42754819D02*
X140290475Y-43754819D01*
X140290475Y-43754819D02*
X140099999Y-43040533D01*
X140099999Y-43040533D02*
X139909523Y-43754819D01*
X139909523Y-43754819D02*
X139671428Y-42754819D01*
X139385713Y-42754819D02*
X138766666Y-42754819D01*
X138766666Y-42754819D02*
X139099999Y-43135771D01*
X139099999Y-43135771D02*
X138957142Y-43135771D01*
X138957142Y-43135771D02*
X138861904Y-43183390D01*
X138861904Y-43183390D02*
X138814285Y-43231009D01*
X138814285Y-43231009D02*
X138766666Y-43326247D01*
X138766666Y-43326247D02*
X138766666Y-43564342D01*
X138766666Y-43564342D02*
X138814285Y-43659580D01*
X138814285Y-43659580D02*
X138861904Y-43707200D01*
X138861904Y-43707200D02*
X138957142Y-43754819D01*
X138957142Y-43754819D02*
X139242856Y-43754819D01*
X139242856Y-43754819D02*
X139338094Y-43707200D01*
X139338094Y-43707200D02*
X139385713Y-43659580D01*
X138133332Y-76007200D02*
X137990475Y-76054819D01*
X137990475Y-76054819D02*
X137752380Y-76054819D01*
X137752380Y-76054819D02*
X137657142Y-76007200D01*
X137657142Y-76007200D02*
X137609523Y-75959580D01*
X137609523Y-75959580D02*
X137561904Y-75864342D01*
X137561904Y-75864342D02*
X137561904Y-75769104D01*
X137561904Y-75769104D02*
X137609523Y-75673866D01*
X137609523Y-75673866D02*
X137657142Y-75626247D01*
X137657142Y-75626247D02*
X137752380Y-75578628D01*
X137752380Y-75578628D02*
X137942856Y-75531009D01*
X137942856Y-75531009D02*
X138038094Y-75483390D01*
X138038094Y-75483390D02*
X138085713Y-75435771D01*
X138085713Y-75435771D02*
X138133332Y-75340533D01*
X138133332Y-75340533D02*
X138133332Y-75245295D01*
X138133332Y-75245295D02*
X138085713Y-75150057D01*
X138085713Y-75150057D02*
X138038094Y-75102438D01*
X138038094Y-75102438D02*
X137942856Y-75054819D01*
X137942856Y-75054819D02*
X137704761Y-75054819D01*
X137704761Y-75054819D02*
X137561904Y-75102438D01*
X137228570Y-75054819D02*
X136990475Y-76054819D01*
X136990475Y-76054819D02*
X136799999Y-75340533D01*
X136799999Y-75340533D02*
X136609523Y-76054819D01*
X136609523Y-76054819D02*
X136371428Y-75054819D01*
X135561904Y-75388152D02*
X135561904Y-76054819D01*
X135799999Y-75007200D02*
X136038094Y-75721485D01*
X136038094Y-75721485D02*
X135419047Y-75721485D01*
%TO.C,C16*%
D13*
X125490000Y-108246267D02*
X125490000Y-107953733D01*
X126510000Y-108246267D02*
X126510000Y-107953733D01*
%TO.C,C26*%
X133961252Y-106565000D02*
X133438748Y-106565000D01*
X133961252Y-108035000D02*
X133438748Y-108035000D01*
%TO.C,Audio1*%
D14*
X140000000Y-101900000D02*
X140000000Y-101600000D01*
X140000000Y-102820000D02*
X140000000Y-101900000D01*
X140000000Y-109820000D02*
X140000000Y-104780000D01*
X140000000Y-112900000D02*
X140000000Y-111780000D01*
X140000000Y-112900000D02*
X146000000Y-112900000D01*
X140460000Y-115680000D02*
X140460000Y-112900000D01*
X145500000Y-112900000D02*
X145500000Y-115680000D01*
X145500000Y-115680000D02*
X140460000Y-115680000D01*
X146000000Y-101600000D02*
X140000000Y-101600000D01*
X146000000Y-101900000D02*
X146000000Y-101600000D01*
X146000000Y-103900000D02*
X146000000Y-101900000D01*
X146000000Y-107820000D02*
X146000000Y-103900000D01*
X146000000Y-112900000D02*
X146000000Y-109780000D01*
D15*
X138530000Y-115600000D02*
G75*
G02*
X138470000Y-115600000I-30000J0D01*
G01*
X138470000Y-115600000D02*
G75*
G02*
X138530000Y-115600000I30000J0D01*
G01*
%TO.C,J4*%
D13*
X90270000Y-40960000D02*
X90270000Y-43270000D01*
X90270000Y-40960000D02*
X90470000Y-40760000D01*
X90270000Y-43270000D02*
X90620000Y-43780000D01*
X90270000Y-50360000D02*
X90470000Y-50150000D01*
X90270000Y-52220000D02*
X90270000Y-50360000D01*
X90270000Y-52220000D02*
X90470000Y-52420000D01*
X90470000Y-40760000D02*
X90470000Y-40500000D01*
X90620000Y-50150000D02*
X90470000Y-50150000D01*
X90620000Y-50150000D02*
X90620000Y-43780000D01*
X95230000Y-53250000D02*
X93430000Y-53250000D01*
X101230000Y-53250000D02*
X96530000Y-53250000D01*
X106540000Y-39280000D02*
X92530000Y-39280000D01*
X106540000Y-41200000D02*
X106540000Y-39280000D01*
X106540000Y-52800000D02*
X106540000Y-53250000D01*
X106540000Y-53250000D02*
X102930000Y-53250000D01*
%TO.C,C25*%
X141638748Y-99665000D02*
X142161252Y-99665000D01*
X141638748Y-101135000D02*
X142161252Y-101135000D01*
%TO.C,BT1*%
X95022500Y-105540000D02*
X95022500Y-113260000D01*
X95022500Y-113260000D02*
X103442500Y-113260000D01*
X96242500Y-105540000D02*
X96242500Y-106760000D01*
X96242500Y-106760000D02*
X101242500Y-106760000D01*
X96242500Y-112040000D02*
X101242500Y-112040000D01*
X96242500Y-113260000D02*
X96242500Y-112040000D01*
X96742500Y-108150000D02*
X96822500Y-108470000D01*
X96742500Y-110650000D02*
X96822500Y-110970000D01*
X96822500Y-107830000D02*
X96742500Y-108150000D01*
X96822500Y-108470000D02*
X100242500Y-108470000D01*
X96822500Y-110330000D02*
X96742500Y-110650000D01*
X96822500Y-110970000D02*
X100242500Y-110970000D01*
X100242500Y-106760000D02*
X100242500Y-112040000D01*
X100242500Y-107830000D02*
X96822500Y-107830000D01*
X100242500Y-108150000D02*
X100242500Y-107830000D01*
X100242500Y-108470000D02*
X100242500Y-108150000D01*
X100242500Y-110330000D02*
X96822500Y-110330000D01*
X100242500Y-110650000D02*
X100242500Y-110330000D01*
X100242500Y-110970000D02*
X100242500Y-110650000D01*
X101242500Y-106760000D02*
X101242500Y-105540000D01*
X101242500Y-106760000D02*
X103442500Y-106760000D01*
X101242500Y-109320000D02*
X101242500Y-109480000D01*
X101242500Y-112040000D02*
X101242500Y-113260000D01*
X103332500Y-108150000D02*
X103932500Y-107850000D01*
X103442500Y-105540000D02*
X95022500Y-105540000D01*
X103442500Y-106760000D02*
X103442500Y-105540000D01*
X103442500Y-112040000D02*
X101242500Y-112040000D01*
X103442500Y-113260000D02*
X103442500Y-112040000D01*
X103932500Y-107850000D02*
X103932500Y-108450000D01*
X103932500Y-108450000D02*
X103332500Y-108150000D01*
%TO.C,SW1*%
D14*
X101467500Y-28350000D02*
X101467500Y-31950000D01*
X101467500Y-28350000D02*
X108967500Y-28350000D01*
X102927500Y-34490000D02*
X107377500Y-34490000D01*
X103717500Y-26350000D02*
X103717500Y-28350000D01*
X103717500Y-26350000D02*
X106717500Y-26350000D01*
X106717500Y-26350000D02*
X106717500Y-28350000D01*
X108967500Y-28350000D02*
X108967500Y-31950000D01*
D15*
X100547500Y-26220000D02*
G75*
G02*
X100487500Y-26220000I-30000J0D01*
G01*
X100487500Y-26220000D02*
G75*
G02*
X100547500Y-26220000I30000J0D01*
G01*
%TO.C,R11*%
D13*
X126977500Y-108354724D02*
X126977500Y-107845276D01*
X128022500Y-108354724D02*
X128022500Y-107845276D01*
%TO.C,J2*%
X115080000Y-111275000D02*
X115080000Y-109575000D01*
X124420000Y-111275000D02*
X124420000Y-109575000D01*
%TO.C,SW3*%
X138450000Y-39400000D02*
X141750000Y-39400000D01*
X138450000Y-39700000D02*
X138450000Y-39400000D01*
X138450000Y-41900000D02*
X138450000Y-42200000D01*
X138450000Y-42200000D02*
X141750000Y-42200000D01*
X141750000Y-39400000D02*
X141750000Y-39700000D01*
X141750000Y-42200000D02*
X141750000Y-41900000D01*
%TO.C,SW4*%
X137000000Y-70750000D02*
X137000000Y-74050000D01*
X137000000Y-74050000D02*
X137300000Y-74050000D01*
X137300000Y-70750000D02*
X137000000Y-70750000D01*
X139500000Y-70750000D02*
X139800000Y-70750000D01*
X139800000Y-70750000D02*
X139800000Y-74050000D01*
X139800000Y-74050000D02*
X139500000Y-74050000D01*
%TD*%
M02*
