M48
; DRILL file KiCad 10.0.4 date 2026-09-19T19:46:49
; FORMAT={-:-/ absolute / metric / decimal}
; #@! TF.CreationDate,2026-09-19T19:46:49+08:00
; #@! TF.GenerationSoftware,Kicad,Pcbnew,10.0.4
; #@! TF.FileFunction,Plated,1,4,PTH
FMAT,2
METRIC
; #@! TA.AperFunction,Plated,PTH,ViaDrill
T1C0.300
; #@! TA.AperFunction,Plated,PTH,ComponentDrill
T2C0.500
; #@! TA.AperFunction,Plated,PTH,ComponentDrill
T3C0.600
; #@! TA.AperFunction,Plated,PTH,ComponentDrill
T4C1.000
; #@! TA.AperFunction,Plated,PTH,ComponentDrill
T5C1.200
; #@! TA.AperFunction,Plated,PTH,ComponentDrill
T6C1.200
; #@! TA.AperFunction,Plated,PTH,ComponentDrill
T7C1.500
; #@! TA.AperFunction,Plated,PTH,ComponentDrill
T8C1.500
%
G90
G05
T1
X91.16Y-101.06
X91.9Y-54.7
X92.23Y-91.37
X94.4Y-81.8
X95.1Y-37.3
X96.002Y-93.462
X96.8Y-94.23
X97.01Y-92.84
X99.6Y-31.3
X100.23Y-99.4
X101.67Y-101.29
X104.12Y-103.73
X104.43Y-95.1
X106.5Y-91.3
X107.68Y-106.13
X107.73Y-46.79
X107.787Y-48.212
X107.874Y-52.139
X108.05Y-49.02
X108.44Y-98.55
X108.49Y-96.12
X109.16Y-92.8
X109.3Y-48.812
X109.62Y-93.53
X109.631Y-37.254
X111.11Y-89.5
X111.16Y-43.6
X111.28Y-99.67
X112.283Y-99.16
X113.36Y-84.68
X114.0Y-49.6
X114.203Y-59.267
X115.35Y-71.95
X115.389Y-50.341
X115.8Y-34.3
X115.9Y-35.9
X115.9Y-36.8
X116.42Y-54.06
X117.0Y-103.26
X117.4Y-56.1
X118.2Y-70.0
X118.23Y-107.0
X118.5Y-49.998
X118.843Y-77.25
X118.843Y-84.5
X119.07Y-51.21
X119.07Y-75.8
X119.168Y-80.175
X119.25Y-107.0
X119.75Y-83.0
X119.75Y-84.85
X119.768Y-80.825
X119.88Y-77.571
X120.25Y-107.0
X121.1Y-84.7
X121.2Y-45.8
X121.4Y-64.2
X121.5Y-41.0
X121.8Y-32.9
X122.0Y-45.905
X122.2Y-36.6
X122.521Y-83.284
X122.9Y-78.5
X123.41Y-87.24
X123.676Y-39.876
X123.94Y-102.62
X124.3Y-39.1
X124.3Y-42.3
X124.4Y-74.8
X124.5Y-49.9
X125.06Y-107.0
X125.07Y-103.24
X125.2Y-52.5
X126.1Y-76.6
X126.2Y-42.0
X126.373Y-34.198
X126.6Y-33.0
X126.7Y-84.7
X126.9Y-34.8
X128.112Y-73.112
X128.3Y-38.9
X128.396Y-39.694
X128.45Y-112.68
X129.6Y-40.9
X129.6Y-46.0
X129.6Y-80.175
X129.725Y-81.475
X130.413Y-81.984
X130.442Y-51.91
X130.5Y-38.1
X130.688Y-102.892
X130.7Y-100.97
X130.8Y-80.5
X131.2Y-52.2
X131.6Y-32.9
X131.9Y-34.7
X132.1Y-35.9
X132.2Y-52.6
X132.9Y-49.4
X133.423Y-79.823
X133.498Y-105.702
X133.9Y-50.0
X134.125Y-109.843
X134.5Y-37.0
X134.5Y-38.2
X134.7Y-52.8
X136.0Y-43.4
X136.4Y-48.6
X138.0Y-75.4
X138.178Y-69.545
X138.5Y-100.4
X138.994Y-49.175
X139.4Y-69.7
X139.762Y-42.8
X141.0Y-73.7
X141.0Y-110.427
X141.278Y-68.9
X141.8Y-42.9
X145.7Y-91.9
T2
X132.6Y-70.6
X133.6Y-70.6
X134.6Y-70.6
X135.6Y-70.6
T4
X101.832Y-108.15
X101.832Y-110.65
X133.5Y-87.7
X133.5Y-92.7
X148.0Y-87.7
X148.0Y-90.2
X148.0Y-92.7
T5
X102.718Y-30.95
X107.718Y-30.95
T6
X143.0Y-104.9
X143.0Y-110.8
T8
X101.718Y-33.45
X108.718Y-33.45
T3
G00X115.43Y-108.825
M15
G01X115.43Y-108.225
M16
G05
G00X115.43Y-112.625
M15
G01X115.43Y-112.025
M16
G05
G00X124.07Y-108.825
M15
G01X124.07Y-108.225
M16
G05
G00X124.07Y-112.625
M15
G01X124.07Y-112.025
M16
G05
T7
G00X141.15Y-84.6
M15
G01X139.85Y-84.6
M16
G05
G00X141.15Y-95.8
M15
G01X139.85Y-95.8
M16
G05
M30
