%TF.GenerationSoftware,KiCad,Pcbnew,10.0.4*%
%TF.CreationDate,2026-09-19T19:46:46+08:00*%
%TF.ProjectId,Jmp3,4a6d7033-2e6b-4696-9361-645f70636258,rev?*%
%TF.SameCoordinates,Original*%
%TF.FileFunction,Copper,L3,Inr*%
%TF.FilePolarity,Positive*%
%FSLAX46Y46*%
G04 Gerber Fmt 4.6, Leading zero omitted, Abs format (unit mm)*
G04 Created by KiCad (PCBNEW 10.0.4) date 2026-09-19 19:46:46*
%MOMM*%
%LPD*%
G01*
G04 APERTURE LIST*
G04 Aperture macros list*
%AMRoundRect*
0 Rectangle with rounded corners*
0 $1 Rounding radius*
0 $2 $3 $4 $5 $6 $7 $8 $9 X,Y pos of 4 corners*
0 Add a 4 corners polygon primitive as box body*
4,1,4,$2,$3,$4,$5,$6,$7,$8,$9,$2,$3,0*
0 Add four circle primitives for the rounded corners*
1,1,$1+$1,$2,$3*
1,1,$1+$1,$4,$5*
1,1,$1+$1,$6,$7*
1,1,$1+$1,$8,$9*
0 Add four rect primitives between the rounded corners*
20,1,$1+$1,$2,$3,$4,$5,0*
20,1,$1+$1,$4,$5,$6,$7,0*
20,1,$1+$1,$6,$7,$8,$9,0*
20,1,$1+$1,$8,$9,$2,$3,0*%
G04 Aperture macros list end*
%TA.AperFunction,ComponentPad*%
%ADD10R,2.000000X2.000000*%
%TD*%
%TA.AperFunction,ComponentPad*%
%ADD11C,2.000000*%
%TD*%
%TA.AperFunction,ComponentPad*%
%ADD12R,3.200000X2.000000*%
%TD*%
%TA.AperFunction,ComponentPad*%
%ADD13R,0.850000X0.850000*%
%TD*%
%TA.AperFunction,ComponentPad*%
%ADD14C,0.850000*%
%TD*%
%TA.AperFunction,ComponentPad*%
%ADD15C,1.200000*%
%TD*%
%TA.AperFunction,ComponentPad*%
%ADD16RoundRect,0.250000X-0.750000X0.600000X-0.750000X-0.600000X0.750000X-0.600000X0.750000X0.600000X0*%
%TD*%
%TA.AperFunction,ComponentPad*%
%ADD17O,2.000000X1.700000*%
%TD*%
%TA.AperFunction,ComponentPad*%
%ADD18C,2.400000*%
%TD*%
%TA.AperFunction,ComponentPad*%
%ADD19O,1.100000X1.700000*%
%TD*%
%TA.AperFunction,ViaPad*%
%ADD20C,0.600000*%
%TD*%
%TA.AperFunction,Conductor*%
%ADD21C,0.200000*%
%TD*%
G04 APERTURE END LIST*
D10*
%TO.N,Up*%
%TO.C,SW2*%
X148000000Y-92700000D03*
D11*
%TO.N,Down*%
X148000000Y-87700000D03*
%TO.N,AGND*%
X148000000Y-90200000D03*
D12*
%TO.N,N/C*%
X140500000Y-95800000D03*
X140500000Y-84600000D03*
D11*
%TO.N,Button*%
X133500000Y-87700000D03*
%TO.N,AGND*%
X133500000Y-92700000D03*
%TD*%
D13*
%TO.N,AGND*%
%TO.C,J5*%
X135600000Y-70600000D03*
D14*
%TO.N,TX0*%
X134600000Y-70600000D03*
%TO.N,RX0*%
X133600000Y-70600000D03*
%TO.N,3V3*%
X132600000Y-70600000D03*
%TD*%
D15*
%TO.N,*%
%TO.C,Audio1*%
X143000000Y-104900000D03*
X143000000Y-110800000D03*
%TD*%
D16*
%TO.N,+BATT*%
%TO.C,BT1*%
X101832500Y-108150000D03*
D17*
%TO.N,-BATT*%
X101832500Y-110650000D03*
%TD*%
D11*
%TO.N,AGND*%
%TO.C,SW1*%
X102717500Y-30950000D03*
%TO.N,Net-(D1-K)*%
X107717500Y-30950000D03*
D18*
%TO.N,N/C*%
X108717500Y-33450000D03*
X101717500Y-33450000D03*
%TD*%
D19*
%TO.N,Net-(J2-SHIELD)*%
%TO.C,J2*%
X124070000Y-112325000D03*
X124070000Y-108525000D03*
X115430000Y-112325000D03*
X115430000Y-108525000D03*
%TD*%
D20*
%TO.N,AGND*%
X145700000Y-91900000D03*
X124300000Y-42300000D03*
X106500000Y-91300000D03*
X115800000Y-34300000D03*
X141000000Y-110427500D03*
X107680000Y-106130000D03*
X130500000Y-38100000D03*
X99600000Y-31300000D03*
X118200000Y-70000000D03*
X117000000Y-103260000D03*
X104120000Y-103730000D03*
X122900000Y-78500000D03*
X141278000Y-68900000D03*
X138000000Y-75400000D03*
X131600000Y-32900000D03*
X121500000Y-41000000D03*
X108490000Y-96120000D03*
X91900000Y-54700000D03*
X134500000Y-38200000D03*
X122520564Y-83283734D03*
X141800000Y-42900000D03*
X126100000Y-76600000D03*
X128450000Y-112680000D03*
X109631270Y-37254485D03*
X96002500Y-93462500D03*
X129600000Y-80175000D03*
X95100000Y-37300000D03*
X94400000Y-81800000D03*
X111160000Y-43600000D03*
X108050000Y-49020000D03*
X121100000Y-84700000D03*
X126700000Y-84700000D03*
X130700000Y-100970000D03*
X123940000Y-102620000D03*
X104430000Y-95100000D03*
X119070000Y-75800000D03*
X113360000Y-84680000D03*
%TO.N,3V3*%
X119879627Y-77571414D03*
X115900000Y-36800000D03*
X141000000Y-73700000D03*
X114000000Y-49600000D03*
X130687600Y-102892400D03*
X128300000Y-38900000D03*
X133497600Y-105702400D03*
X138994470Y-49174930D03*
X121800000Y-32900000D03*
X128112500Y-73112500D03*
X109620000Y-93530000D03*
X134500000Y-37000000D03*
X136000000Y-43400000D03*
X119750000Y-84850000D03*
X107730000Y-46790000D03*
X119750000Y-83000000D03*
%TO.N,Net-(J6-Pin_17)*%
X131900000Y-34700000D03*
X122200000Y-36599998D03*
%TO.N,OUTR*%
X125070000Y-103240000D03*
X123410000Y-87240000D03*
%TO.N,Net-(U6-IO61)*%
X139400000Y-69700000D03*
%TO.N,Net-(U6-EN)*%
X139762500Y-42800000D03*
%TO.N,Net-(J2-CC1)*%
X120250000Y-107000000D03*
%TO.N,+BATT*%
X115350000Y-71950000D03*
X97010000Y-92840000D03*
X111280000Y-99670000D03*
%TO.N,3V3-2*%
X108440000Y-98550000D03*
X109160000Y-92800000D03*
%TO.N,Net-(J2-CC2)*%
X119250000Y-107000000D03*
%TO.N,U7_EN*%
X114202625Y-59266701D03*
X115900000Y-35900000D03*
%TO.N,ButtonState*%
X92230000Y-91370000D03*
X124500000Y-49900000D03*
%TO.N,OutL*%
X138500000Y-100400000D03*
%TO.N,DAT3*%
X116420000Y-54060000D03*
%TO.N,Net-(U3-OD)*%
X101670000Y-101290000D03*
X100230000Y-99400000D03*
%TO.N,VBUS*%
X111110000Y-89500000D03*
X112282688Y-99160000D03*
X118230000Y-107000000D03*
%TO.N,DAT2*%
X119070000Y-51210000D03*
%TO.N,DAT0*%
X118500000Y-49998500D03*
%TO.N,Up*%
X133900000Y-50000000D03*
%TO.N,Down*%
X132900000Y-49400000D03*
%TO.N,Button*%
X125200000Y-52500000D03*
%TO.N,RX0*%
X138178064Y-69544884D03*
%TO.N,EN*%
X91160000Y-101060000D03*
X96800000Y-94230000D03*
%TO.N,DAT1*%
X115389265Y-50340735D03*
%TO.N,SD3*%
X126600000Y-33000000D03*
X123675735Y-39875735D03*
%TO.N,SD2*%
X124300000Y-39100000D03*
X126372778Y-34198302D03*
%TO.N,SD0*%
X128395868Y-39694238D03*
X126900000Y-34800000D03*
%TO.N,SCL*%
X129600000Y-46000000D03*
X126200000Y-42000000D03*
%TO.N,TE*%
X129600000Y-40900000D03*
X122000000Y-45905099D03*
%TO.N,VCI_EN*%
X132100000Y-35900000D03*
X121200000Y-45800000D03*
%TO.N,Net-(U5-VNEG)*%
X118843456Y-77250000D03*
X119168456Y-80175000D03*
%TO.N,Net-(U5-OUTL)*%
X118843456Y-84500000D03*
X119768456Y-80825000D03*
%TO.N,SCK*%
X134700000Y-52800000D03*
X133422614Y-79822614D03*
%TO.N,BCK*%
X130412835Y-81983864D03*
X132200000Y-52600000D03*
%TO.N,DIN*%
X130441571Y-51909900D03*
X129725000Y-81475000D03*
%TO.N,LRCK*%
X130800000Y-80500000D03*
X131200000Y-52200000D03*
%TO.N,XSMT*%
X121400000Y-64200000D03*
X124400000Y-74800000D03*
%TO.N,DET_B*%
X136400000Y-48600000D03*
X117400000Y-56100000D03*
X107874062Y-52138905D03*
%TO.N,CLK*%
X107787500Y-48212500D03*
%TO.N,CMD*%
X109300000Y-48812500D03*
%TO.N,OutR*%
X134124607Y-109843417D03*
%TO.N,Net-(J2-SHIELD)*%
X125060000Y-107000000D03*
%TD*%
%TO.N,AGND*%
D21*
X147400000Y-90200000D02*
X145700000Y-91900000D01*
X148000000Y-90200000D02*
X147400000Y-90200000D01*
%TO.N,3V3*%
X120368456Y-82381544D02*
X120368456Y-78068456D01*
X119750000Y-83000000D02*
X120368456Y-82381544D01*
X128112500Y-73112500D02*
X125500000Y-75725000D01*
X120368456Y-78068456D02*
X119900000Y-77600000D01*
X136000000Y-46200000D02*
X139000000Y-49200000D01*
X118200000Y-87200000D02*
X117900000Y-86900000D01*
X125500000Y-77250000D02*
X119750000Y-83000000D01*
X136000000Y-43400000D02*
X136000000Y-46200000D01*
X125500000Y-75725000D02*
X125500000Y-77250000D01*
%TD*%
%TA.AperFunction,Conductor*%
%TO.N,3V3*%
G36*
X101836914Y-29920185D02*
G01*
X101882669Y-29972989D01*
X101892613Y-30042147D01*
X101863588Y-30105703D01*
X101857556Y-30112181D01*
X101801812Y-30167924D01*
X101801812Y-30167925D01*
X101801810Y-30167927D01*
X101754110Y-30233579D01*
X101690740Y-30320800D01*
X101604954Y-30489163D01*
X101546559Y-30668881D01*
X101517000Y-30855513D01*
X101517000Y-31044486D01*
X101546559Y-31231118D01*
X101604954Y-31410836D01*
X101690740Y-31579199D01*
X101801810Y-31732073D01*
X101801812Y-31732075D01*
X101907556Y-31837819D01*
X101941041Y-31899142D01*
X101936057Y-31968834D01*
X101894185Y-32024767D01*
X101828721Y-32049184D01*
X101819875Y-32049500D01*
X101607278Y-32049500D01*
X101534701Y-32060995D01*
X101389547Y-32083985D01*
X101179896Y-32152103D01*
X101179893Y-32152104D01*
X100983474Y-32252187D01*
X100805141Y-32381752D01*
X100805136Y-32381756D01*
X100649256Y-32537636D01*
X100649252Y-32537641D01*
X100519687Y-32715974D01*
X100419604Y-32912393D01*
X100419603Y-32912396D01*
X100351485Y-33122047D01*
X100317000Y-33339778D01*
X100317000Y-33560221D01*
X100351485Y-33777952D01*
X100419603Y-33987603D01*
X100419604Y-33987606D01*
X100519687Y-34184025D01*
X100649252Y-34362358D01*
X100649256Y-34362363D01*
X100805136Y-34518243D01*
X100805141Y-34518247D01*
X100960692Y-34631260D01*
X100983478Y-34647815D01*
X101086875Y-34700499D01*
X101179893Y-34747895D01*
X101179896Y-34747896D01*
X101284721Y-34781955D01*
X101389549Y-34816015D01*
X101607278Y-34850500D01*
X101607279Y-34850500D01*
X101827721Y-34850500D01*
X101827722Y-34850500D01*
X102045451Y-34816015D01*
X102255106Y-34747895D01*
X102451522Y-34647815D01*
X102629865Y-34518242D01*
X102785742Y-34362365D01*
X102915315Y-34184022D01*
X103015395Y-33987606D01*
X103083515Y-33777951D01*
X103118000Y-33560222D01*
X103118000Y-33339778D01*
X103083515Y-33122049D01*
X103015395Y-32912394D01*
X103015395Y-32912393D01*
X102973466Y-32830104D01*
X102915315Y-32715978D01*
X102898390Y-32692683D01*
X102785747Y-32537641D01*
X102785743Y-32537636D01*
X102629861Y-32381754D01*
X102620315Y-32374819D01*
X102577648Y-32319489D01*
X102571668Y-32249876D01*
X102604274Y-32188081D01*
X102665112Y-32153723D01*
X102693199Y-32150500D01*
X102811986Y-32150500D01*
X102998618Y-32120940D01*
X103013086Y-32116239D01*
X103178332Y-32062547D01*
X103346699Y-31976760D01*
X103499573Y-31865690D01*
X103633190Y-31732073D01*
X103744260Y-31579199D01*
X103830047Y-31410832D01*
X103888440Y-31231118D01*
X103910445Y-31092184D01*
X103918000Y-31044486D01*
X103918000Y-30855513D01*
X103888440Y-30668881D01*
X103830045Y-30489163D01*
X103744259Y-30320800D01*
X103633190Y-30167927D01*
X103577444Y-30112181D01*
X103543959Y-30050858D01*
X103548943Y-29981166D01*
X103590815Y-29925233D01*
X103656279Y-29900816D01*
X103665125Y-29900500D01*
X106769875Y-29900500D01*
X106836914Y-29920185D01*
X106882669Y-29972989D01*
X106892613Y-30042147D01*
X106863588Y-30105703D01*
X106857556Y-30112181D01*
X106801812Y-30167924D01*
X106801812Y-30167925D01*
X106801810Y-30167927D01*
X106754110Y-30233579D01*
X106690740Y-30320800D01*
X106604954Y-30489163D01*
X106546559Y-30668881D01*
X106517000Y-30855513D01*
X106517000Y-31044486D01*
X106546559Y-31231118D01*
X106604954Y-31410836D01*
X106690740Y-31579199D01*
X106801810Y-31732073D01*
X106935427Y-31865690D01*
X107088301Y-31976760D01*
X107167847Y-32017290D01*
X107256663Y-32062545D01*
X107256665Y-32062545D01*
X107256668Y-32062547D01*
X107322647Y-32083985D01*
X107436381Y-32120940D01*
X107623014Y-32150500D01*
X107741801Y-32150500D01*
X107808840Y-32170185D01*
X107854595Y-32222989D01*
X107864539Y-32292147D01*
X107835514Y-32355703D01*
X107814685Y-32374819D01*
X107805138Y-32381754D01*
X107649256Y-32537636D01*
X107649252Y-32537641D01*
X107519687Y-32715974D01*
X107419604Y-32912393D01*
X107419603Y-32912396D01*
X107351485Y-33122047D01*
X107317000Y-33339778D01*
X107317000Y-33560221D01*
X107351485Y-33777952D01*
X107419603Y-33987603D01*
X107419604Y-33987606D01*
X107519687Y-34184025D01*
X107649252Y-34362358D01*
X107649256Y-34362363D01*
X107805136Y-34518243D01*
X107805141Y-34518247D01*
X107960692Y-34631260D01*
X107983478Y-34647815D01*
X108086875Y-34700499D01*
X108179893Y-34747895D01*
X108179896Y-34747896D01*
X108284721Y-34781955D01*
X108389549Y-34816015D01*
X108607278Y-34850500D01*
X108607279Y-34850500D01*
X108827721Y-34850500D01*
X108827722Y-34850500D01*
X109045451Y-34816015D01*
X109255106Y-34747895D01*
X109451522Y-34647815D01*
X109629865Y-34518242D01*
X109785742Y-34362365D01*
X109878926Y-34234108D01*
X115299500Y-34234108D01*
X115299500Y-34365892D01*
X115308505Y-34399500D01*
X115333608Y-34493187D01*
X115348077Y-34518247D01*
X115399500Y-34607314D01*
X115492686Y-34700500D01*
X115574778Y-34747896D01*
X115605944Y-34765890D01*
X115606814Y-34766392D01*
X115734108Y-34800500D01*
X115734110Y-34800500D01*
X115865890Y-34800500D01*
X115865892Y-34800500D01*
X115993186Y-34766392D01*
X116107314Y-34700500D01*
X116200500Y-34607314D01*
X116266392Y-34493186D01*
X116300500Y-34365892D01*
X116300500Y-34234108D01*
X116273250Y-34132410D01*
X125872278Y-34132410D01*
X125872278Y-34264193D01*
X125906386Y-34391489D01*
X125939332Y-34448552D01*
X125972278Y-34505616D01*
X126065464Y-34598802D01*
X126179592Y-34664694D01*
X126306886Y-34698802D01*
X126306888Y-34698802D01*
X126307593Y-34698991D01*
X126367254Y-34735356D01*
X126397783Y-34798203D01*
X126399500Y-34818766D01*
X126399500Y-34865891D01*
X126433608Y-34993187D01*
X126441766Y-35007316D01*
X126499500Y-35107314D01*
X126592686Y-35200500D01*
X126706814Y-35266392D01*
X126834108Y-35300500D01*
X126834110Y-35300500D01*
X126965890Y-35300500D01*
X126965892Y-35300500D01*
X127093186Y-35266392D01*
X127207314Y-35200500D01*
X127300500Y-35107314D01*
X127366392Y-34993186D01*
X127400500Y-34865892D01*
X127400500Y-34734108D01*
X127373705Y-34634108D01*
X131399500Y-34634108D01*
X131399500Y-34765891D01*
X131433608Y-34893187D01*
X131466554Y-34950250D01*
X131499500Y-35007314D01*
X131592686Y-35100500D01*
X131706814Y-35166392D01*
X131834108Y-35200500D01*
X131834110Y-35200500D01*
X131847794Y-35200500D01*
X131914833Y-35220185D01*
X131960588Y-35272989D01*
X131970532Y-35342147D01*
X131941507Y-35405703D01*
X131909794Y-35431887D01*
X131792689Y-35499497D01*
X131792683Y-35499502D01*
X131699502Y-35592683D01*
X131699500Y-35592686D01*
X131633608Y-35706812D01*
X131599500Y-35834108D01*
X131599500Y-35965891D01*
X131633608Y-36093187D01*
X131666554Y-36150250D01*
X131699500Y-36207314D01*
X131792686Y-36300500D01*
X131906814Y-36366392D01*
X132034108Y-36400500D01*
X132034110Y-36400500D01*
X132165890Y-36400500D01*
X132165892Y-36400500D01*
X132293186Y-36366392D01*
X132407314Y-36300500D01*
X132500500Y-36207314D01*
X132566392Y-36093186D01*
X132600500Y-35965892D01*
X132600500Y-35834108D01*
X132566392Y-35706814D01*
X132500500Y-35592686D01*
X132407314Y-35499500D01*
X132350250Y-35466554D01*
X132293187Y-35433608D01*
X132229539Y-35416554D01*
X132165892Y-35399500D01*
X132152206Y-35399500D01*
X132085167Y-35379815D01*
X132039412Y-35327011D01*
X132029468Y-35257853D01*
X132058493Y-35194297D01*
X132090206Y-35168113D01*
X132195508Y-35107316D01*
X132207314Y-35100500D01*
X132300500Y-35007314D01*
X132366392Y-34893186D01*
X132400500Y-34765892D01*
X132400500Y-34634108D01*
X132366392Y-34506814D01*
X132365701Y-34505618D01*
X132357563Y-34491521D01*
X132300500Y-34392686D01*
X132207314Y-34299500D01*
X132143999Y-34262945D01*
X132093187Y-34233608D01*
X132029539Y-34216554D01*
X131965892Y-34199500D01*
X131834108Y-34199500D01*
X131706812Y-34233608D01*
X131592686Y-34299500D01*
X131592683Y-34299502D01*
X131499502Y-34392683D01*
X131499500Y-34392686D01*
X131433608Y-34506812D01*
X131399500Y-34634108D01*
X127373705Y-34634108D01*
X127366392Y-34606814D01*
X127300500Y-34492686D01*
X127207314Y-34399500D01*
X127093186Y-34333608D01*
X127001841Y-34309132D01*
X126965184Y-34299310D01*
X126905524Y-34262945D01*
X126874995Y-34200097D01*
X126873278Y-34179535D01*
X126873278Y-34132412D01*
X126873278Y-34132410D01*
X126839170Y-34005116D01*
X126773278Y-33890988D01*
X126680092Y-33797802D01*
X126680090Y-33797801D01*
X126680088Y-33797799D01*
X126565925Y-33731887D01*
X126517709Y-33681320D01*
X126504487Y-33612713D01*
X126530455Y-33547848D01*
X126587369Y-33507320D01*
X126627925Y-33500500D01*
X126665890Y-33500500D01*
X126665892Y-33500500D01*
X126793186Y-33466392D01*
X126907314Y-33400500D01*
X127000500Y-33307314D01*
X127066392Y-33193186D01*
X127100500Y-33065892D01*
X127100500Y-32934108D01*
X127073705Y-32834108D01*
X131099500Y-32834108D01*
X131099500Y-32965891D01*
X131133608Y-33093187D01*
X131147499Y-33117246D01*
X131199500Y-33207314D01*
X131292686Y-33300500D01*
X131406814Y-33366392D01*
X131534108Y-33400500D01*
X131534110Y-33400500D01*
X131665890Y-33400500D01*
X131665892Y-33400500D01*
X131793186Y-33366392D01*
X131907314Y-33300500D01*
X132000500Y-33207314D01*
X132066392Y-33093186D01*
X132100500Y-32965892D01*
X132100500Y-32834108D01*
X132066392Y-32706814D01*
X132000500Y-32592686D01*
X131907314Y-32499500D01*
X131850250Y-32466554D01*
X131793187Y-32433608D01*
X131729539Y-32416554D01*
X131665892Y-32399500D01*
X131534108Y-32399500D01*
X131406812Y-32433608D01*
X131292686Y-32499500D01*
X131292683Y-32499502D01*
X131199502Y-32592683D01*
X131199500Y-32592686D01*
X131133608Y-32706812D01*
X131099500Y-32834108D01*
X127073705Y-32834108D01*
X127066392Y-32806814D01*
X127000500Y-32692686D01*
X126907314Y-32599500D01*
X126850250Y-32566554D01*
X126793187Y-32533608D01*
X126729539Y-32516554D01*
X126665892Y-32499500D01*
X126534108Y-32499500D01*
X126406812Y-32533608D01*
X126292686Y-32599500D01*
X126292683Y-32599502D01*
X126199502Y-32692683D01*
X126199500Y-32692686D01*
X126133608Y-32806812D01*
X126099500Y-32934108D01*
X126099500Y-33065891D01*
X126133608Y-33193187D01*
X126141766Y-33207316D01*
X126199500Y-33307314D01*
X126292686Y-33400500D01*
X126292687Y-33400501D01*
X126292689Y-33400502D01*
X126406853Y-33466415D01*
X126455069Y-33516982D01*
X126468291Y-33585589D01*
X126442323Y-33650454D01*
X126385409Y-33690982D01*
X126344853Y-33697802D01*
X126306886Y-33697802D01*
X126179590Y-33731910D01*
X126065464Y-33797802D01*
X126065461Y-33797804D01*
X125972280Y-33890985D01*
X125972278Y-33890988D01*
X125906386Y-34005114D01*
X125872278Y-34132410D01*
X116273250Y-34132410D01*
X116266392Y-34106814D01*
X116200500Y-33992686D01*
X116107314Y-33899500D01*
X116050250Y-33866554D01*
X115993187Y-33833608D01*
X115929539Y-33816554D01*
X115865892Y-33799500D01*
X115734108Y-33799500D01*
X115606812Y-33833608D01*
X115492686Y-33899500D01*
X115492683Y-33899502D01*
X115399502Y-33992683D01*
X115399500Y-33992686D01*
X115333608Y-34106812D01*
X115308773Y-34199500D01*
X115299500Y-34234108D01*
X109878926Y-34234108D01*
X109915315Y-34184022D01*
X109918012Y-34178728D01*
X109922622Y-34169683D01*
X110015395Y-33987606D01*
X110015396Y-33987603D01*
X110044022Y-33899500D01*
X110083515Y-33777951D01*
X110118000Y-33560222D01*
X110118000Y-33339778D01*
X110083515Y-33122049D01*
X110015395Y-32912394D01*
X110015395Y-32912393D01*
X109973466Y-32830104D01*
X109915315Y-32715978D01*
X109898390Y-32692683D01*
X109785747Y-32537641D01*
X109785743Y-32537636D01*
X109629863Y-32381756D01*
X109629858Y-32381752D01*
X109451525Y-32252187D01*
X109451524Y-32252186D01*
X109451522Y-32252185D01*
X109388596Y-32220122D01*
X109255106Y-32152104D01*
X109255103Y-32152103D01*
X109045452Y-32083985D01*
X108910097Y-32062547D01*
X108827722Y-32049500D01*
X108615125Y-32049500D01*
X108548086Y-32029815D01*
X108502331Y-31977011D01*
X108492387Y-31907853D01*
X108521412Y-31844297D01*
X108527444Y-31837819D01*
X108564764Y-31800499D01*
X108633190Y-31732073D01*
X108661060Y-31693713D01*
X146049500Y-31693713D01*
X146049500Y-31906286D01*
X146068265Y-32024767D01*
X146082754Y-32116243D01*
X146126924Y-32252185D01*
X146148444Y-32318414D01*
X146244951Y-32507820D01*
X146369890Y-32679786D01*
X146520213Y-32830109D01*
X146692179Y-32955048D01*
X146692181Y-32955049D01*
X146692184Y-32955051D01*
X146881588Y-33051557D01*
X147083757Y-33117246D01*
X147293713Y-33150500D01*
X147293714Y-33150500D01*
X147506286Y-33150500D01*
X147506287Y-33150500D01*
X147716243Y-33117246D01*
X147918412Y-33051557D01*
X148107816Y-32955051D01*
X148166530Y-32912393D01*
X148279786Y-32830109D01*
X148279788Y-32830106D01*
X148279792Y-32830104D01*
X148430104Y-32679792D01*
X148430106Y-32679788D01*
X148430109Y-32679786D01*
X148555048Y-32507820D01*
X148555047Y-32507820D01*
X148555051Y-32507816D01*
X148651557Y-32318412D01*
X148717246Y-32116243D01*
X148750500Y-31906287D01*
X148750500Y-31693713D01*
X148717246Y-31483757D01*
X148651557Y-31281588D01*
X148555051Y-31092184D01*
X148555049Y-31092181D01*
X148555048Y-31092179D01*
X148430109Y-30920213D01*
X148279786Y-30769890D01*
X148107820Y-30644951D01*
X147918414Y-30548444D01*
X147918413Y-30548443D01*
X147918412Y-30548443D01*
X147716243Y-30482754D01*
X147716241Y-30482753D01*
X147716240Y-30482753D01*
X147554957Y-30457208D01*
X147506287Y-30449500D01*
X147293713Y-30449500D01*
X147245042Y-30457208D01*
X147083760Y-30482753D01*
X146881585Y-30548444D01*
X146692179Y-30644951D01*
X146520213Y-30769890D01*
X146369890Y-30920213D01*
X146244951Y-31092179D01*
X146148444Y-31281585D01*
X146082753Y-31483760D01*
X146049500Y-31693713D01*
X108661060Y-31693713D01*
X108744260Y-31579199D01*
X108830047Y-31410832D01*
X108888440Y-31231118D01*
X108910445Y-31092184D01*
X108918000Y-31044486D01*
X108918000Y-30855513D01*
X108888440Y-30668881D01*
X108830045Y-30489163D01*
X108744259Y-30320800D01*
X108633190Y-30167927D01*
X108577444Y-30112181D01*
X108543959Y-30050858D01*
X108548943Y-29981166D01*
X108590815Y-29925233D01*
X108656279Y-29900816D01*
X108665125Y-29900500D01*
X149125500Y-29900500D01*
X149192539Y-29920185D01*
X149238294Y-29972989D01*
X149249500Y-30024500D01*
X149249500Y-86995743D01*
X149229815Y-87062782D01*
X149177011Y-87108537D01*
X149107853Y-87118481D01*
X149044297Y-87089456D01*
X149025182Y-87068629D01*
X149009331Y-87046812D01*
X148915690Y-86917927D01*
X148782073Y-86784310D01*
X148629199Y-86673240D01*
X148460836Y-86587454D01*
X148281118Y-86529059D01*
X148094486Y-86499500D01*
X148094481Y-86499500D01*
X147905519Y-86499500D01*
X147905514Y-86499500D01*
X147718881Y-86529059D01*
X147539163Y-86587454D01*
X147370800Y-86673240D01*
X147283579Y-86736610D01*
X147217927Y-86784310D01*
X147217925Y-86784312D01*
X147217924Y-86784312D01*
X147084312Y-86917924D01*
X147084312Y-86917925D01*
X147084310Y-86917927D01*
X147073587Y-86932686D01*
X146973240Y-87070800D01*
X146887454Y-87239163D01*
X146829059Y-87418881D01*
X146799500Y-87605513D01*
X146799500Y-87794486D01*
X146829059Y-87981118D01*
X146887454Y-88160836D01*
X146949561Y-88282726D01*
X146973240Y-88329199D01*
X147084310Y-88482073D01*
X147217927Y-88615690D01*
X147370801Y-88726760D01*
X147450347Y-88767290D01*
X147539163Y-88812545D01*
X147539165Y-88812545D01*
X147539168Y-88812547D01*
X147599251Y-88832069D01*
X147656926Y-88871507D01*
X147684124Y-88935866D01*
X147672209Y-89004712D01*
X147624965Y-89056188D01*
X147599253Y-89067930D01*
X147580756Y-89073939D01*
X147539163Y-89087454D01*
X147370800Y-89173240D01*
X147283579Y-89236610D01*
X147217927Y-89284310D01*
X147217925Y-89284312D01*
X147217924Y-89284312D01*
X147084312Y-89417924D01*
X147084312Y-89417925D01*
X147084310Y-89417927D01*
X147036610Y-89483579D01*
X146973240Y-89570800D01*
X146887454Y-89739163D01*
X146829059Y-89918881D01*
X146799500Y-90105513D01*
X146799500Y-90294485D01*
X146800697Y-90302043D01*
X146791742Y-90371337D01*
X146765905Y-90409122D01*
X145811847Y-91363181D01*
X145750524Y-91396666D01*
X145724166Y-91399500D01*
X145634108Y-91399500D01*
X145506812Y-91433608D01*
X145392686Y-91499500D01*
X145392683Y-91499502D01*
X145299502Y-91592683D01*
X145299500Y-91592686D01*
X145233608Y-91706812D01*
X145199500Y-91834108D01*
X145199500Y-91965891D01*
X145233608Y-92093187D01*
X145266554Y-92150250D01*
X145299500Y-92207314D01*
X145392686Y-92300500D01*
X145506814Y-92366392D01*
X145634108Y-92400500D01*
X145634110Y-92400500D01*
X145765890Y-92400500D01*
X145765892Y-92400500D01*
X145893186Y-92366392D01*
X146007314Y-92300500D01*
X146100500Y-92207314D01*
X146166392Y-92093186D01*
X146200500Y-91965892D01*
X146200500Y-91875832D01*
X146220185Y-91808793D01*
X146236819Y-91788151D01*
X146597959Y-91427011D01*
X146975924Y-91049045D01*
X147037245Y-91015562D01*
X147106936Y-91020546D01*
X147151284Y-91049047D01*
X147217927Y-91115690D01*
X147370801Y-91226760D01*
X147445881Y-91265015D01*
X147496677Y-91312990D01*
X147513472Y-91380810D01*
X147490935Y-91446945D01*
X147436220Y-91490397D01*
X147389586Y-91499500D01*
X146980247Y-91499500D01*
X146921770Y-91511131D01*
X146921769Y-91511132D01*
X146855447Y-91555447D01*
X146811132Y-91621769D01*
X146811131Y-91621770D01*
X146799500Y-91680247D01*
X146799500Y-93719752D01*
X146811131Y-93778229D01*
X146811132Y-93778230D01*
X146855447Y-93844552D01*
X146921769Y-93888867D01*
X146921770Y-93888868D01*
X146980247Y-93900499D01*
X146980250Y-93900500D01*
X146980252Y-93900500D01*
X149019750Y-93900500D01*
X149019751Y-93900499D01*
X149034485Y-93897568D01*
X149090210Y-93886485D01*
X149090434Y-93887612D01*
X149147511Y-93881473D01*
X149209991Y-93912745D01*
X149245647Y-93972832D01*
X149249500Y-94003504D01*
X149249500Y-113075500D01*
X149229815Y-113142539D01*
X149177011Y-113188294D01*
X149125500Y-113199500D01*
X128937676Y-113199500D01*
X128870637Y-113179815D01*
X128824882Y-113127011D01*
X128814938Y-113057853D01*
X128843963Y-112994297D01*
X128849995Y-112987819D01*
X128850500Y-112987314D01*
X128916392Y-112873186D01*
X128950500Y-112745892D01*
X128950500Y-112614108D01*
X128916392Y-112486814D01*
X128850500Y-112372686D01*
X128757314Y-112279500D01*
X128700250Y-112246554D01*
X128643187Y-112213608D01*
X128579539Y-112196554D01*
X128515892Y-112179500D01*
X128384108Y-112179500D01*
X128256812Y-112213608D01*
X128142686Y-112279500D01*
X128142683Y-112279502D01*
X128049502Y-112372683D01*
X128049500Y-112372686D01*
X127983608Y-112486812D01*
X127949500Y-112614108D01*
X127949500Y-112745891D01*
X127983608Y-112873187D01*
X128016554Y-112930250D01*
X128049500Y-112987314D01*
X128049502Y-112987316D01*
X128050005Y-112987819D01*
X128050293Y-112988346D01*
X128054447Y-112993760D01*
X128053602Y-112994407D01*
X128083490Y-113049142D01*
X128078506Y-113118834D01*
X128036634Y-113174767D01*
X127971170Y-113199184D01*
X127962324Y-113199500D01*
X124820738Y-113199500D01*
X124753699Y-113179815D01*
X124707944Y-113127011D01*
X124698000Y-113057853D01*
X124717636Y-113006610D01*
X124735077Y-112980506D01*
X124735078Y-112980502D01*
X124735084Y-112980495D01*
X124791658Y-112843913D01*
X124811156Y-112745891D01*
X124820500Y-112698920D01*
X124820500Y-111951079D01*
X124791659Y-111806092D01*
X124791658Y-111806091D01*
X124791658Y-111806087D01*
X124747923Y-111700500D01*
X124735087Y-111669511D01*
X124735080Y-111669498D01*
X124652951Y-111546584D01*
X124652948Y-111546580D01*
X124548419Y-111442051D01*
X124548415Y-111442048D01*
X124425501Y-111359919D01*
X124425488Y-111359912D01*
X124288917Y-111303343D01*
X124288907Y-111303340D01*
X124143920Y-111274500D01*
X124143918Y-111274500D01*
X123996082Y-111274500D01*
X123996080Y-111274500D01*
X123851092Y-111303340D01*
X123851082Y-111303343D01*
X123714511Y-111359912D01*
X123714498Y-111359919D01*
X123591584Y-111442048D01*
X123591580Y-111442051D01*
X123487051Y-111546580D01*
X123487048Y-111546584D01*
X123404919Y-111669498D01*
X123404912Y-111669511D01*
X123348343Y-111806082D01*
X123348340Y-111806092D01*
X123319500Y-111951079D01*
X123319500Y-111951082D01*
X123319500Y-112698918D01*
X123319500Y-112698920D01*
X123319499Y-112698920D01*
X123348340Y-112843907D01*
X123348343Y-112843917D01*
X123404912Y-112980488D01*
X123404922Y-112980506D01*
X123422364Y-113006610D01*
X123443242Y-113073287D01*
X123424757Y-113140667D01*
X123372778Y-113187357D01*
X123319262Y-113199500D01*
X116180738Y-113199500D01*
X116113699Y-113179815D01*
X116067944Y-113127011D01*
X116058000Y-113057853D01*
X116077636Y-113006610D01*
X116095077Y-112980506D01*
X116095078Y-112980502D01*
X116095084Y-112980495D01*
X116151658Y-112843913D01*
X116171156Y-112745891D01*
X116180500Y-112698920D01*
X116180500Y-111951079D01*
X116151659Y-111806092D01*
X116151658Y-111806091D01*
X116151658Y-111806087D01*
X116107923Y-111700500D01*
X116095087Y-111669511D01*
X116095080Y-111669498D01*
X116012951Y-111546584D01*
X116012948Y-111546580D01*
X115908419Y-111442051D01*
X115908415Y-111442048D01*
X115785501Y-111359919D01*
X115785488Y-111359912D01*
X115648917Y-111303343D01*
X115648907Y-111303340D01*
X115503920Y-111274500D01*
X115503918Y-111274500D01*
X115356082Y-111274500D01*
X115356080Y-111274500D01*
X115211092Y-111303340D01*
X115211082Y-111303343D01*
X115074511Y-111359912D01*
X115074498Y-111359919D01*
X114951584Y-111442048D01*
X114951580Y-111442051D01*
X114847051Y-111546580D01*
X114847048Y-111546584D01*
X114764919Y-111669498D01*
X114764912Y-111669511D01*
X114708343Y-111806082D01*
X114708340Y-111806092D01*
X114679500Y-111951079D01*
X114679500Y-111951082D01*
X114679500Y-112698918D01*
X114679500Y-112698920D01*
X114679499Y-112698920D01*
X114708340Y-112843907D01*
X114708343Y-112843917D01*
X114764912Y-112980488D01*
X114764922Y-112980506D01*
X114782364Y-113006610D01*
X114803242Y-113073287D01*
X114784757Y-113140667D01*
X114732778Y-113187357D01*
X114679262Y-113199500D01*
X90374500Y-113199500D01*
X90307461Y-113179815D01*
X90261706Y-113127011D01*
X90250500Y-113075500D01*
X90250500Y-111193713D01*
X90749500Y-111193713D01*
X90749500Y-111406286D01*
X90777162Y-111580941D01*
X90782754Y-111616243D01*
X90844438Y-111806087D01*
X90848444Y-111818414D01*
X90944951Y-112007820D01*
X91069890Y-112179786D01*
X91220213Y-112330109D01*
X91392179Y-112455048D01*
X91392181Y-112455049D01*
X91392184Y-112455051D01*
X91581588Y-112551557D01*
X91783757Y-112617246D01*
X91993713Y-112650500D01*
X91993714Y-112650500D01*
X92206286Y-112650500D01*
X92206287Y-112650500D01*
X92416243Y-112617246D01*
X92618412Y-112551557D01*
X92807816Y-112455051D01*
X92829789Y-112439086D01*
X92979786Y-112330109D01*
X92979788Y-112330106D01*
X92979792Y-112330104D01*
X93130104Y-112179792D01*
X93130106Y-112179788D01*
X93130109Y-112179786D01*
X93255048Y-112007820D01*
X93255047Y-112007820D01*
X93255051Y-112007816D01*
X93351557Y-111818412D01*
X93417246Y-111616243D01*
X93450500Y-111406287D01*
X93450500Y-111193713D01*
X93417246Y-110983757D01*
X93351557Y-110781588D01*
X93255051Y-110592184D01*
X93255049Y-110592181D01*
X93255048Y-110592179D01*
X93221882Y-110546530D01*
X100632000Y-110546530D01*
X100632000Y-110753469D01*
X100672368Y-110956412D01*
X100672370Y-110956420D01*
X100751558Y-111147596D01*
X100866524Y-111319657D01*
X101012842Y-111465975D01*
X101012845Y-111465977D01*
X101184902Y-111580941D01*
X101376080Y-111660130D01*
X101579030Y-111700499D01*
X101579034Y-111700500D01*
X101579035Y-111700500D01*
X102085966Y-111700500D01*
X102085967Y-111700499D01*
X102288920Y-111660130D01*
X102480098Y-111580941D01*
X102652155Y-111465977D01*
X102798477Y-111319655D01*
X102913441Y-111147598D01*
X102992630Y-110956420D01*
X103033000Y-110753465D01*
X103033000Y-110546535D01*
X102996216Y-110361608D01*
X140499500Y-110361608D01*
X140499500Y-110493392D01*
X140515182Y-110551917D01*
X140533608Y-110620687D01*
X140549459Y-110648141D01*
X140599500Y-110734814D01*
X140692686Y-110828000D01*
X140806814Y-110893892D01*
X140934108Y-110928000D01*
X140934110Y-110928000D01*
X141065890Y-110928000D01*
X141065892Y-110928000D01*
X141193186Y-110893892D01*
X141307314Y-110828000D01*
X141400500Y-110734814D01*
X141411231Y-110716228D01*
X142149500Y-110716228D01*
X142149500Y-110883771D01*
X142182182Y-111048074D01*
X142182184Y-111048082D01*
X142246295Y-111202860D01*
X142339373Y-111342162D01*
X142457837Y-111460626D01*
X142550494Y-111522537D01*
X142597137Y-111553703D01*
X142751918Y-111617816D01*
X142916228Y-111650499D01*
X142916232Y-111650500D01*
X142916233Y-111650500D01*
X143083768Y-111650500D01*
X143083769Y-111650499D01*
X143248082Y-111617816D01*
X143402863Y-111553703D01*
X143542162Y-111460626D01*
X143660626Y-111342162D01*
X143753703Y-111202863D01*
X143757493Y-111193713D01*
X145949500Y-111193713D01*
X145949500Y-111406286D01*
X145977162Y-111580941D01*
X145982754Y-111616243D01*
X146044438Y-111806087D01*
X146048444Y-111818414D01*
X146144951Y-112007820D01*
X146269890Y-112179786D01*
X146420213Y-112330109D01*
X146592179Y-112455048D01*
X146592181Y-112455049D01*
X146592184Y-112455051D01*
X146781588Y-112551557D01*
X146983757Y-112617246D01*
X147193713Y-112650500D01*
X147193714Y-112650500D01*
X147406286Y-112650500D01*
X147406287Y-112650500D01*
X147616243Y-112617246D01*
X147818412Y-112551557D01*
X148007816Y-112455051D01*
X148029789Y-112439086D01*
X148179786Y-112330109D01*
X148179788Y-112330106D01*
X148179792Y-112330104D01*
X148330104Y-112179792D01*
X148330106Y-112179788D01*
X148330109Y-112179786D01*
X148455048Y-112007820D01*
X148455047Y-112007820D01*
X148455051Y-112007816D01*
X148551557Y-111818412D01*
X148617246Y-111616243D01*
X148650500Y-111406287D01*
X148650500Y-111193713D01*
X148617246Y-110983757D01*
X148551557Y-110781588D01*
X148455051Y-110592184D01*
X148455049Y-110592181D01*
X148455048Y-110592179D01*
X148330109Y-110420213D01*
X148179786Y-110269890D01*
X148007820Y-110144951D01*
X147818414Y-110048444D01*
X147818413Y-110048443D01*
X147818412Y-110048443D01*
X147616243Y-109982754D01*
X147616241Y-109982753D01*
X147616240Y-109982753D01*
X147454957Y-109957208D01*
X147406287Y-109949500D01*
X147193713Y-109949500D01*
X147145042Y-109957208D01*
X146983760Y-109982753D01*
X146781585Y-110048444D01*
X146592179Y-110144951D01*
X146420213Y-110269890D01*
X146269890Y-110420213D01*
X146144951Y-110592179D01*
X146048444Y-110781585D01*
X145982753Y-110983760D01*
X145949500Y-111193713D01*
X143757493Y-111193713D01*
X143817816Y-111048082D01*
X143850500Y-110883767D01*
X143850500Y-110716233D01*
X143817816Y-110551918D01*
X143768227Y-110432201D01*
X143753704Y-110397139D01*
X143729964Y-110361610D01*
X143695352Y-110309809D01*
X143660626Y-110257837D01*
X143542162Y-110139373D01*
X143402860Y-110046295D01*
X143248082Y-109982184D01*
X143248074Y-109982182D01*
X143083771Y-109949500D01*
X143083767Y-109949500D01*
X142916233Y-109949500D01*
X142916228Y-109949500D01*
X142751925Y-109982182D01*
X142751917Y-109982184D01*
X142597139Y-110046295D01*
X142457837Y-110139373D01*
X142339373Y-110257837D01*
X142246295Y-110397139D01*
X142182184Y-110551917D01*
X142182182Y-110551925D01*
X142149500Y-110716228D01*
X141411231Y-110716228D01*
X141466392Y-110620686D01*
X141500500Y-110493392D01*
X141500500Y-110361608D01*
X141466392Y-110234314D01*
X141400500Y-110120186D01*
X141307314Y-110027000D01*
X141229691Y-109982184D01*
X141193187Y-109961108D01*
X141129539Y-109944054D01*
X141065892Y-109927000D01*
X140934108Y-109927000D01*
X140806812Y-109961108D01*
X140692686Y-110027000D01*
X140692683Y-110027002D01*
X140599502Y-110120183D01*
X140599500Y-110120186D01*
X140533608Y-110234312D01*
X140504240Y-110343917D01*
X140499500Y-110361608D01*
X102996216Y-110361608D01*
X102992630Y-110343580D01*
X102913441Y-110152402D01*
X102798477Y-109980345D01*
X102798475Y-109980342D01*
X102652157Y-109834024D01*
X102567599Y-109777525D01*
X133624107Y-109777525D01*
X133624107Y-109909308D01*
X133658215Y-110036604D01*
X133665051Y-110048444D01*
X133724107Y-110150731D01*
X133817293Y-110243917D01*
X133931421Y-110309809D01*
X134058715Y-110343917D01*
X134058717Y-110343917D01*
X134190497Y-110343917D01*
X134190499Y-110343917D01*
X134317793Y-110309809D01*
X134431921Y-110243917D01*
X134525107Y-110150731D01*
X134590999Y-110036603D01*
X134625107Y-109909309D01*
X134625107Y-109777525D01*
X134590999Y-109650231D01*
X134525107Y-109536103D01*
X134431921Y-109442917D01*
X134371353Y-109407948D01*
X134317794Y-109377025D01*
X134254146Y-109359971D01*
X134190499Y-109342917D01*
X134058715Y-109342917D01*
X133931419Y-109377025D01*
X133817293Y-109442917D01*
X133817290Y-109442919D01*
X133724109Y-109536100D01*
X133724107Y-109536103D01*
X133658215Y-109650229D01*
X133624107Y-109777525D01*
X102567599Y-109777525D01*
X102566126Y-109776541D01*
X102480098Y-109719059D01*
X102288920Y-109639870D01*
X102288912Y-109639868D01*
X102085969Y-109599500D01*
X102085965Y-109599500D01*
X101579035Y-109599500D01*
X101579030Y-109599500D01*
X101376087Y-109639868D01*
X101376079Y-109639870D01*
X101184903Y-109719058D01*
X101012842Y-109834024D01*
X100866524Y-109980342D01*
X100751558Y-110152403D01*
X100672370Y-110343579D01*
X100672368Y-110343587D01*
X100632000Y-110546530D01*
X93221882Y-110546530D01*
X93130109Y-110420213D01*
X92979786Y-110269890D01*
X92807820Y-110144951D01*
X92618414Y-110048444D01*
X92618413Y-110048443D01*
X92618412Y-110048443D01*
X92416243Y-109982754D01*
X92416241Y-109982753D01*
X92416240Y-109982753D01*
X92254957Y-109957208D01*
X92206287Y-109949500D01*
X91993713Y-109949500D01*
X91945042Y-109957208D01*
X91783760Y-109982753D01*
X91581585Y-110048444D01*
X91392179Y-110144951D01*
X91220213Y-110269890D01*
X91069890Y-110420213D01*
X90944951Y-110592179D01*
X90848444Y-110781585D01*
X90782753Y-110983760D01*
X90749500Y-111193713D01*
X90250500Y-111193713D01*
X90250500Y-107495730D01*
X100632000Y-107495730D01*
X100632000Y-108804269D01*
X100634853Y-108834699D01*
X100634853Y-108834701D01*
X100679706Y-108962880D01*
X100679707Y-108962882D01*
X100760350Y-109072150D01*
X100869618Y-109152793D01*
X100912345Y-109167744D01*
X100997799Y-109197646D01*
X101028230Y-109200500D01*
X101028234Y-109200500D01*
X102636770Y-109200500D01*
X102667199Y-109197646D01*
X102667201Y-109197646D01*
X102731290Y-109175219D01*
X102795382Y-109152793D01*
X102904650Y-109072150D01*
X102985293Y-108962882D01*
X103007674Y-108898920D01*
X114679499Y-108898920D01*
X114708340Y-109043907D01*
X114708343Y-109043917D01*
X114764912Y-109180488D01*
X114764919Y-109180501D01*
X114847048Y-109303415D01*
X114847051Y-109303419D01*
X114951580Y-109407948D01*
X114951584Y-109407951D01*
X115074498Y-109490080D01*
X115074511Y-109490087D01*
X115185605Y-109536103D01*
X115211087Y-109546658D01*
X115211091Y-109546658D01*
X115211092Y-109546659D01*
X115356079Y-109575500D01*
X115356082Y-109575500D01*
X115503920Y-109575500D01*
X115601462Y-109556096D01*
X115648913Y-109546658D01*
X115785495Y-109490084D01*
X115908416Y-109407951D01*
X116012951Y-109303416D01*
X116095084Y-109180495D01*
X116151658Y-109043913D01*
X116161096Y-108996462D01*
X116180500Y-108898920D01*
X123319499Y-108898920D01*
X123348340Y-109043907D01*
X123348343Y-109043917D01*
X123404912Y-109180488D01*
X123404919Y-109180501D01*
X123487048Y-109303415D01*
X123487051Y-109303419D01*
X123591580Y-109407948D01*
X123591584Y-109407951D01*
X123714498Y-109490080D01*
X123714511Y-109490087D01*
X123825605Y-109536103D01*
X123851087Y-109546658D01*
X123851091Y-109546658D01*
X123851092Y-109546659D01*
X123996079Y-109575500D01*
X123996082Y-109575500D01*
X124143920Y-109575500D01*
X124241462Y-109556096D01*
X124288913Y-109546658D01*
X124425495Y-109490084D01*
X124548416Y-109407951D01*
X124652951Y-109303416D01*
X124735084Y-109180495D01*
X124791658Y-109043913D01*
X124801096Y-108996462D01*
X124820500Y-108898920D01*
X124820500Y-108151079D01*
X124791659Y-108006092D01*
X124791658Y-108006091D01*
X124791658Y-108006087D01*
X124791656Y-108006082D01*
X124735087Y-107869511D01*
X124735080Y-107869498D01*
X124652951Y-107746584D01*
X124652948Y-107746580D01*
X124548419Y-107642051D01*
X124548415Y-107642048D01*
X124425501Y-107559919D01*
X124425488Y-107559912D01*
X124288917Y-107503343D01*
X124288907Y-107503340D01*
X124143920Y-107474500D01*
X124143918Y-107474500D01*
X123996082Y-107474500D01*
X123996080Y-107474500D01*
X123851092Y-107503340D01*
X123851082Y-107503343D01*
X123714511Y-107559912D01*
X123714498Y-107559919D01*
X123591584Y-107642048D01*
X123591580Y-107642051D01*
X123487051Y-107746580D01*
X123487048Y-107746584D01*
X123404919Y-107869498D01*
X123404912Y-107869511D01*
X123348343Y-108006082D01*
X123348340Y-108006092D01*
X123319500Y-108151079D01*
X123319500Y-108151082D01*
X123319500Y-108898918D01*
X123319500Y-108898920D01*
X123319499Y-108898920D01*
X116180500Y-108898920D01*
X116180500Y-108151079D01*
X116151659Y-108006092D01*
X116151658Y-108006091D01*
X116151658Y-108006087D01*
X116151656Y-108006082D01*
X116095087Y-107869511D01*
X116095080Y-107869498D01*
X116012951Y-107746584D01*
X116012948Y-107746580D01*
X115908419Y-107642051D01*
X115908415Y-107642048D01*
X115785501Y-107559919D01*
X115785488Y-107559912D01*
X115648917Y-107503343D01*
X115648907Y-107503340D01*
X115503920Y-107474500D01*
X115503918Y-107474500D01*
X115356082Y-107474500D01*
X115356080Y-107474500D01*
X115211092Y-107503340D01*
X115211082Y-107503343D01*
X115074511Y-107559912D01*
X115074498Y-107559919D01*
X114951584Y-107642048D01*
X114951580Y-107642051D01*
X114847051Y-107746580D01*
X114847048Y-107746584D01*
X114764919Y-107869498D01*
X114764912Y-107869511D01*
X114708343Y-108006082D01*
X114708340Y-108006092D01*
X114679500Y-108151079D01*
X114679500Y-108151082D01*
X114679500Y-108898918D01*
X114679500Y-108898920D01*
X114679499Y-108898920D01*
X103007674Y-108898920D01*
X103007719Y-108898790D01*
X103030146Y-108834701D01*
X103030146Y-108834699D01*
X103033000Y-108804269D01*
X103033000Y-107495730D01*
X103030146Y-107465300D01*
X103030146Y-107465298D01*
X102985293Y-107337119D01*
X102985292Y-107337117D01*
X102963298Y-107307316D01*
X102904650Y-107227850D01*
X102795382Y-107147207D01*
X102795380Y-107147206D01*
X102667200Y-107102353D01*
X102636770Y-107099500D01*
X102636766Y-107099500D01*
X101028234Y-107099500D01*
X101028230Y-107099500D01*
X100997800Y-107102353D01*
X100997798Y-107102353D01*
X100869619Y-107147206D01*
X100869617Y-107147207D01*
X100760350Y-107227850D01*
X100679707Y-107337117D01*
X100679706Y-107337119D01*
X100634853Y-107465298D01*
X100634853Y-107465300D01*
X100632000Y-107495730D01*
X90250500Y-107495730D01*
X90250500Y-106934108D01*
X117729500Y-106934108D01*
X117729500Y-107065891D01*
X117763608Y-107193187D01*
X117783621Y-107227850D01*
X117829500Y-107307314D01*
X117922686Y-107400500D01*
X118021521Y-107457563D01*
X118034922Y-107465300D01*
X118036814Y-107466392D01*
X118164108Y-107500500D01*
X118164110Y-107500500D01*
X118295890Y-107500500D01*
X118295892Y-107500500D01*
X118423186Y-107466392D01*
X118537314Y-107400500D01*
X118630500Y-107307314D01*
X118632613Y-107303655D01*
X118635199Y-107301188D01*
X118635448Y-107300865D01*
X118635498Y-107300903D01*
X118683179Y-107255439D01*
X118751786Y-107242215D01*
X118816651Y-107268183D01*
X118847387Y-107303655D01*
X118849500Y-107307314D01*
X118942686Y-107400500D01*
X119041521Y-107457563D01*
X119054922Y-107465300D01*
X119056814Y-107466392D01*
X119184108Y-107500500D01*
X119184110Y-107500500D01*
X119315890Y-107500500D01*
X119315892Y-107500500D01*
X119443186Y-107466392D01*
X119557314Y-107400500D01*
X119650500Y-107307314D01*
X119650504Y-107307306D01*
X119651625Y-107305847D01*
X119652892Y-107304921D01*
X119656247Y-107301567D01*
X119656770Y-107302090D01*
X119708053Y-107264645D01*
X119777799Y-107260491D01*
X119838719Y-107294704D01*
X119848375Y-107305847D01*
X119849498Y-107307311D01*
X119849500Y-107307314D01*
X119942686Y-107400500D01*
X120041521Y-107457563D01*
X120054922Y-107465300D01*
X120056814Y-107466392D01*
X120184108Y-107500500D01*
X120184110Y-107500500D01*
X120315890Y-107500500D01*
X120315892Y-107500500D01*
X120443186Y-107466392D01*
X120557314Y-107400500D01*
X120650500Y-107307314D01*
X120716392Y-107193186D01*
X120750500Y-107065892D01*
X120750500Y-106934108D01*
X124559500Y-106934108D01*
X124559500Y-107065891D01*
X124593608Y-107193187D01*
X124613621Y-107227850D01*
X124659500Y-107307314D01*
X124752686Y-107400500D01*
X124851521Y-107457563D01*
X124864922Y-107465300D01*
X124866814Y-107466392D01*
X124994108Y-107500500D01*
X124994110Y-107500500D01*
X125125890Y-107500500D01*
X125125892Y-107500500D01*
X125253186Y-107466392D01*
X125367314Y-107400500D01*
X125460500Y-107307314D01*
X125526392Y-107193186D01*
X125560500Y-107065892D01*
X125560500Y-106934108D01*
X125526392Y-106806814D01*
X125460500Y-106692686D01*
X125367314Y-106599500D01*
X125310250Y-106566554D01*
X125253187Y-106533608D01*
X125189539Y-106516554D01*
X125125892Y-106499500D01*
X124994108Y-106499500D01*
X124866812Y-106533608D01*
X124752686Y-106599500D01*
X124752683Y-106599502D01*
X124659502Y-106692683D01*
X124659500Y-106692686D01*
X124593608Y-106806812D01*
X124559500Y-106934108D01*
X120750500Y-106934108D01*
X120716392Y-106806814D01*
X120650500Y-106692686D01*
X120557314Y-106599500D01*
X120500250Y-106566554D01*
X120443187Y-106533608D01*
X120379539Y-106516554D01*
X120315892Y-106499500D01*
X120184108Y-106499500D01*
X120056812Y-106533608D01*
X119942686Y-106599500D01*
X119942683Y-106599502D01*
X119849498Y-106692687D01*
X119848370Y-106694158D01*
X119847102Y-106695083D01*
X119843753Y-106698433D01*
X119843230Y-106697910D01*
X119791940Y-106735356D01*
X119722193Y-106739506D01*
X119661275Y-106705289D01*
X119651630Y-106694158D01*
X119650501Y-106692687D01*
X119557316Y-106599502D01*
X119557314Y-106599500D01*
X119500250Y-106566554D01*
X119443187Y-106533608D01*
X119379539Y-106516554D01*
X119315892Y-106499500D01*
X119184108Y-106499500D01*
X119056812Y-106533608D01*
X118942686Y-106599500D01*
X118942683Y-106599502D01*
X118849502Y-106692683D01*
X118849498Y-106692689D01*
X118847385Y-106696349D01*
X118844794Y-106698818D01*
X118844552Y-106699135D01*
X118844502Y-106699097D01*
X118796816Y-106744563D01*
X118728209Y-106757783D01*
X118663345Y-106731813D01*
X118632615Y-106696349D01*
X118631884Y-106695083D01*
X118630500Y-106692686D01*
X118537314Y-106599500D01*
X118480250Y-106566554D01*
X118423187Y-106533608D01*
X118359539Y-106516554D01*
X118295892Y-106499500D01*
X118164108Y-106499500D01*
X118036812Y-106533608D01*
X117922686Y-106599500D01*
X117922683Y-106599502D01*
X117829502Y-106692683D01*
X117829500Y-106692686D01*
X117763608Y-106806812D01*
X117729500Y-106934108D01*
X90250500Y-106934108D01*
X90250500Y-106064108D01*
X107179500Y-106064108D01*
X107179500Y-106195891D01*
X107213608Y-106323187D01*
X107246554Y-106380250D01*
X107279500Y-106437314D01*
X107372686Y-106530500D01*
X107486814Y-106596392D01*
X107614108Y-106630500D01*
X107614110Y-106630500D01*
X107745890Y-106630500D01*
X107745892Y-106630500D01*
X107873186Y-106596392D01*
X107987314Y-106530500D01*
X108080500Y-106437314D01*
X108146392Y-106323186D01*
X108180500Y-106195892D01*
X108180500Y-106064108D01*
X108146392Y-105936814D01*
X108080500Y-105822686D01*
X107987314Y-105729500D01*
X107930250Y-105696554D01*
X107873187Y-105663608D01*
X107809539Y-105646554D01*
X107745892Y-105629500D01*
X107614108Y-105629500D01*
X107486812Y-105663608D01*
X107372686Y-105729500D01*
X107372683Y-105729502D01*
X107279502Y-105822683D01*
X107279500Y-105822686D01*
X107213608Y-105936812D01*
X107179500Y-106064108D01*
X90250500Y-106064108D01*
X90250500Y-104816228D01*
X142149500Y-104816228D01*
X142149500Y-104983771D01*
X142182182Y-105148074D01*
X142182184Y-105148082D01*
X142246295Y-105302860D01*
X142339373Y-105442162D01*
X142457837Y-105560626D01*
X142550494Y-105622537D01*
X142597137Y-105653703D01*
X142597138Y-105653703D01*
X142597139Y-105653704D01*
X142632201Y-105668227D01*
X142751918Y-105717816D01*
X142916228Y-105750499D01*
X142916232Y-105750500D01*
X142916233Y-105750500D01*
X143083768Y-105750500D01*
X143083769Y-105750499D01*
X143248082Y-105717816D01*
X143402863Y-105653703D01*
X143542162Y-105560626D01*
X143660626Y-105442162D01*
X143753703Y-105302863D01*
X143817816Y-105148082D01*
X143850500Y-104983767D01*
X143850500Y-104816233D01*
X143817816Y-104651918D01*
X143753703Y-104497137D01*
X143722537Y-104450494D01*
X143660626Y-104357837D01*
X143542162Y-104239373D01*
X143402860Y-104146295D01*
X143248082Y-104082184D01*
X143248074Y-104082182D01*
X143083771Y-104049500D01*
X143083767Y-104049500D01*
X142916233Y-104049500D01*
X142916228Y-104049500D01*
X142751925Y-104082182D01*
X142751917Y-104082184D01*
X142597139Y-104146295D01*
X142457837Y-104239373D01*
X142339373Y-104357837D01*
X142246295Y-104497139D01*
X142182184Y-104651917D01*
X142182182Y-104651925D01*
X142149500Y-104816228D01*
X90250500Y-104816228D01*
X90250500Y-103664108D01*
X103619500Y-103664108D01*
X103619500Y-103795891D01*
X103653608Y-103923187D01*
X103686554Y-103980250D01*
X103719500Y-104037314D01*
X103812686Y-104130500D01*
X103926814Y-104196392D01*
X104054108Y-104230500D01*
X104054110Y-104230500D01*
X104185890Y-104230500D01*
X104185892Y-104230500D01*
X104313186Y-104196392D01*
X104427314Y-104130500D01*
X104520500Y-104037314D01*
X104586392Y-103923186D01*
X104620500Y-103795892D01*
X104620500Y-103664108D01*
X104586392Y-103536814D01*
X104520500Y-103422686D01*
X104427314Y-103329500D01*
X104343502Y-103281111D01*
X104313187Y-103263608D01*
X104249539Y-103246554D01*
X104185892Y-103229500D01*
X104054108Y-103229500D01*
X103926812Y-103263608D01*
X103812686Y-103329500D01*
X103812683Y-103329502D01*
X103719502Y-103422683D01*
X103719500Y-103422686D01*
X103653608Y-103536812D01*
X103619500Y-103664108D01*
X90250500Y-103664108D01*
X90250500Y-103194108D01*
X116499500Y-103194108D01*
X116499500Y-103325892D01*
X116516554Y-103389539D01*
X116533608Y-103453187D01*
X116566554Y-103510250D01*
X116599500Y-103567314D01*
X116692686Y-103660500D01*
X116806814Y-103726392D01*
X116934108Y-103760500D01*
X116934110Y-103760500D01*
X117065890Y-103760500D01*
X117065892Y-103760500D01*
X117193186Y-103726392D01*
X117307314Y-103660500D01*
X117400500Y-103567314D01*
X117466392Y-103453186D01*
X117500500Y-103325892D01*
X117500500Y-103194108D01*
X117495141Y-103174108D01*
X124569500Y-103174108D01*
X124569500Y-103305892D01*
X124574859Y-103325891D01*
X124603608Y-103433187D01*
X124636554Y-103490250D01*
X124669500Y-103547314D01*
X124762686Y-103640500D01*
X124876814Y-103706392D01*
X125004108Y-103740500D01*
X125004110Y-103740500D01*
X125135890Y-103740500D01*
X125135892Y-103740500D01*
X125263186Y-103706392D01*
X125377314Y-103640500D01*
X125470500Y-103547314D01*
X125536392Y-103433186D01*
X125570500Y-103305892D01*
X125570500Y-103174108D01*
X125536392Y-103046814D01*
X125470500Y-102932686D01*
X125377314Y-102839500D01*
X125297827Y-102793608D01*
X125263187Y-102773608D01*
X125199539Y-102756554D01*
X125135892Y-102739500D01*
X125004108Y-102739500D01*
X124876812Y-102773608D01*
X124762686Y-102839500D01*
X124762683Y-102839502D01*
X124669502Y-102932683D01*
X124669500Y-102932686D01*
X124603608Y-103046812D01*
X124598249Y-103066814D01*
X124569500Y-103174108D01*
X117495141Y-103174108D01*
X117466392Y-103066814D01*
X117400500Y-102952686D01*
X117307314Y-102859500D01*
X117227096Y-102813186D01*
X117193187Y-102793608D01*
X117118544Y-102773608D01*
X117065892Y-102759500D01*
X116934108Y-102759500D01*
X116806812Y-102793608D01*
X116692686Y-102859500D01*
X116692683Y-102859502D01*
X116599502Y-102952683D01*
X116599500Y-102952686D01*
X116533608Y-103066812D01*
X116528362Y-103086391D01*
X116499500Y-103194108D01*
X90250500Y-103194108D01*
X90250500Y-102554108D01*
X123439500Y-102554108D01*
X123439500Y-102685891D01*
X123473608Y-102813187D01*
X123500347Y-102859500D01*
X123539500Y-102927314D01*
X123632686Y-103020500D01*
X123746814Y-103086392D01*
X123874108Y-103120500D01*
X123874110Y-103120500D01*
X124005890Y-103120500D01*
X124005892Y-103120500D01*
X124133186Y-103086392D01*
X124247314Y-103020500D01*
X124340500Y-102927314D01*
X124406392Y-102813186D01*
X124440500Y-102685892D01*
X124440500Y-102554108D01*
X124406392Y-102426814D01*
X124340500Y-102312686D01*
X124247314Y-102219500D01*
X124190250Y-102186554D01*
X124133187Y-102153608D01*
X124069539Y-102136554D01*
X124005892Y-102119500D01*
X123874108Y-102119500D01*
X123746812Y-102153608D01*
X123632686Y-102219500D01*
X123632683Y-102219502D01*
X123539502Y-102312683D01*
X123539500Y-102312686D01*
X123473608Y-102426812D01*
X123439500Y-102554108D01*
X90250500Y-102554108D01*
X90250500Y-100994108D01*
X90659500Y-100994108D01*
X90659500Y-101125891D01*
X90693608Y-101253187D01*
X90707538Y-101277314D01*
X90759500Y-101367314D01*
X90852686Y-101460500D01*
X90966814Y-101526392D01*
X91094108Y-101560500D01*
X91094110Y-101560500D01*
X91225890Y-101560500D01*
X91225892Y-101560500D01*
X91353186Y-101526392D01*
X91467314Y-101460500D01*
X91560500Y-101367314D01*
X91626392Y-101253186D01*
X91634183Y-101224108D01*
X101169500Y-101224108D01*
X101169500Y-101355892D01*
X101173414Y-101370499D01*
X101203608Y-101483187D01*
X101228552Y-101526391D01*
X101269500Y-101597314D01*
X101362686Y-101690500D01*
X101476814Y-101756392D01*
X101604108Y-101790500D01*
X101604110Y-101790500D01*
X101735890Y-101790500D01*
X101735892Y-101790500D01*
X101863186Y-101756392D01*
X101977314Y-101690500D01*
X102070500Y-101597314D01*
X102136392Y-101483186D01*
X102170500Y-101355892D01*
X102170500Y-101224108D01*
X102136392Y-101096814D01*
X102070500Y-100982686D01*
X101991922Y-100904108D01*
X130199500Y-100904108D01*
X130199500Y-101035891D01*
X130233608Y-101163187D01*
X130266554Y-101220250D01*
X130299500Y-101277314D01*
X130392686Y-101370500D01*
X130506814Y-101436392D01*
X130634108Y-101470500D01*
X130634110Y-101470500D01*
X130765890Y-101470500D01*
X130765892Y-101470500D01*
X130893186Y-101436392D01*
X131007314Y-101370500D01*
X131100500Y-101277314D01*
X131166392Y-101163186D01*
X131200500Y-101035892D01*
X131200500Y-100904108D01*
X131166392Y-100776814D01*
X131100500Y-100662686D01*
X131007314Y-100569500D01*
X130950250Y-100536554D01*
X130893187Y-100503608D01*
X130829539Y-100486554D01*
X130765892Y-100469500D01*
X130634108Y-100469500D01*
X130506812Y-100503608D01*
X130392686Y-100569500D01*
X130392683Y-100569502D01*
X130299502Y-100662683D01*
X130299500Y-100662686D01*
X130233608Y-100776812D01*
X130199500Y-100904108D01*
X101991922Y-100904108D01*
X101977314Y-100889500D01*
X101920250Y-100856554D01*
X101863187Y-100823608D01*
X101776941Y-100800499D01*
X101735892Y-100789500D01*
X101604108Y-100789500D01*
X101476812Y-100823608D01*
X101362686Y-100889500D01*
X101362683Y-100889502D01*
X101269502Y-100982683D01*
X101269500Y-100982686D01*
X101203608Y-101096812D01*
X101180277Y-101183886D01*
X101169500Y-101224108D01*
X91634183Y-101224108D01*
X91660500Y-101125892D01*
X91660500Y-100994108D01*
X91626392Y-100866814D01*
X91626148Y-100866392D01*
X91588105Y-100800500D01*
X91560500Y-100752686D01*
X91467314Y-100659500D01*
X91410250Y-100626554D01*
X91353187Y-100593608D01*
X91263220Y-100569502D01*
X91225892Y-100559500D01*
X91094108Y-100559500D01*
X90966812Y-100593608D01*
X90852686Y-100659500D01*
X90852683Y-100659502D01*
X90759502Y-100752683D01*
X90759500Y-100752686D01*
X90693608Y-100866812D01*
X90659500Y-100994108D01*
X90250500Y-100994108D01*
X90250500Y-100334108D01*
X137999500Y-100334108D01*
X137999500Y-100465891D01*
X138033608Y-100593187D01*
X138066554Y-100650250D01*
X138099500Y-100707314D01*
X138192686Y-100800500D01*
X138306814Y-100866392D01*
X138434108Y-100900500D01*
X138434110Y-100900500D01*
X138565890Y-100900500D01*
X138565892Y-100900500D01*
X138693186Y-100866392D01*
X138807314Y-100800500D01*
X138900500Y-100707314D01*
X138966392Y-100593186D01*
X139000500Y-100465892D01*
X139000500Y-100334108D01*
X138966392Y-100206814D01*
X138900500Y-100092686D01*
X138807314Y-99999500D01*
X138750250Y-99966554D01*
X138693187Y-99933608D01*
X138629539Y-99916554D01*
X138565892Y-99899500D01*
X138434108Y-99899500D01*
X138306812Y-99933608D01*
X138192686Y-99999500D01*
X138192683Y-99999502D01*
X138099502Y-100092683D01*
X138099500Y-100092686D01*
X138033608Y-100206812D01*
X137999500Y-100334108D01*
X90250500Y-100334108D01*
X90250500Y-99334108D01*
X99729500Y-99334108D01*
X99729500Y-99465891D01*
X99763608Y-99593187D01*
X99796554Y-99650250D01*
X99829500Y-99707314D01*
X99922686Y-99800500D01*
X100036814Y-99866392D01*
X100164108Y-99900500D01*
X100164110Y-99900500D01*
X100295890Y-99900500D01*
X100295892Y-99900500D01*
X100423186Y-99866392D01*
X100537314Y-99800500D01*
X100630500Y-99707314D01*
X100690086Y-99604108D01*
X110779500Y-99604108D01*
X110779500Y-99735891D01*
X110813608Y-99863187D01*
X110834574Y-99899500D01*
X110879500Y-99977314D01*
X110972686Y-100070500D01*
X111086814Y-100136392D01*
X111214108Y-100170500D01*
X111214110Y-100170500D01*
X111345890Y-100170500D01*
X111345892Y-100170500D01*
X111473186Y-100136392D01*
X111587314Y-100070500D01*
X111680500Y-99977314D01*
X111746392Y-99863186D01*
X111780500Y-99735892D01*
X111780500Y-99662414D01*
X111800185Y-99595375D01*
X111852989Y-99549620D01*
X111922147Y-99539676D01*
X111967080Y-99558610D01*
X111968336Y-99556436D01*
X111975372Y-99560498D01*
X111975374Y-99560500D01*
X112089502Y-99626392D01*
X112216796Y-99660500D01*
X112216798Y-99660500D01*
X112348578Y-99660500D01*
X112348580Y-99660500D01*
X112475874Y-99626392D01*
X112590002Y-99560500D01*
X112683188Y-99467314D01*
X112749080Y-99353186D01*
X112783188Y-99225892D01*
X112783188Y-99094108D01*
X112749080Y-98966814D01*
X112683188Y-98852686D01*
X112590002Y-98759500D01*
X112532938Y-98726554D01*
X112475875Y-98693608D01*
X112412227Y-98676554D01*
X112348580Y-98659500D01*
X112216796Y-98659500D01*
X112089500Y-98693608D01*
X111975374Y-98759500D01*
X111975371Y-98759502D01*
X111882190Y-98852683D01*
X111882188Y-98852686D01*
X111816296Y-98966812D01*
X111782188Y-99094108D01*
X111782188Y-99167585D01*
X111762503Y-99234624D01*
X111709699Y-99280379D01*
X111640541Y-99290323D01*
X111595603Y-99271395D01*
X111594352Y-99273564D01*
X111587315Y-99269501D01*
X111587314Y-99269500D01*
X111511783Y-99225892D01*
X111473187Y-99203608D01*
X111409539Y-99186554D01*
X111345892Y-99169500D01*
X111214108Y-99169500D01*
X111086812Y-99203608D01*
X110972686Y-99269500D01*
X110972683Y-99269502D01*
X110879502Y-99362683D01*
X110879500Y-99362686D01*
X110813608Y-99476812D01*
X110779500Y-99604108D01*
X100690086Y-99604108D01*
X100696392Y-99593186D01*
X100730500Y-99465892D01*
X100730500Y-99334108D01*
X100696392Y-99206814D01*
X100630500Y-99092686D01*
X100537314Y-98999500D01*
X100452439Y-98950497D01*
X100423187Y-98933608D01*
X100359539Y-98916554D01*
X100295892Y-98899500D01*
X100164108Y-98899500D01*
X100036812Y-98933608D01*
X99922686Y-98999500D01*
X99922683Y-98999502D01*
X99829502Y-99092683D01*
X99829500Y-99092686D01*
X99763608Y-99206812D01*
X99729500Y-99334108D01*
X90250500Y-99334108D01*
X90250500Y-98484108D01*
X107939500Y-98484108D01*
X107939500Y-98615891D01*
X107973608Y-98743187D01*
X107983027Y-98759500D01*
X108039500Y-98857314D01*
X108132686Y-98950500D01*
X108246814Y-99016392D01*
X108374108Y-99050500D01*
X108374110Y-99050500D01*
X108505890Y-99050500D01*
X108505892Y-99050500D01*
X108633186Y-99016392D01*
X108747314Y-98950500D01*
X108840500Y-98857314D01*
X108906392Y-98743186D01*
X108940500Y-98615892D01*
X108940500Y-98484108D01*
X108906392Y-98356814D01*
X108840500Y-98242686D01*
X108747314Y-98149500D01*
X108690250Y-98116554D01*
X108633187Y-98083608D01*
X108569539Y-98066554D01*
X108505892Y-98049500D01*
X108374108Y-98049500D01*
X108246812Y-98083608D01*
X108132686Y-98149500D01*
X108132683Y-98149502D01*
X108039502Y-98242683D01*
X108039500Y-98242686D01*
X107973608Y-98356812D01*
X107939500Y-98484108D01*
X90250500Y-98484108D01*
X90250500Y-96054108D01*
X107989500Y-96054108D01*
X107989500Y-96185891D01*
X108023608Y-96313187D01*
X108056554Y-96370250D01*
X108089500Y-96427314D01*
X108182686Y-96520500D01*
X108296814Y-96586392D01*
X108424108Y-96620500D01*
X108424110Y-96620500D01*
X108555890Y-96620500D01*
X108555892Y-96620500D01*
X108683186Y-96586392D01*
X108797314Y-96520500D01*
X108890500Y-96427314D01*
X108956392Y-96313186D01*
X108990500Y-96185892D01*
X108990500Y-96054108D01*
X108956392Y-95926814D01*
X108890500Y-95812686D01*
X108797314Y-95719500D01*
X108740250Y-95686554D01*
X108683187Y-95653608D01*
X108619539Y-95636554D01*
X108555892Y-95619500D01*
X108424108Y-95619500D01*
X108296812Y-95653608D01*
X108182686Y-95719500D01*
X108182683Y-95719502D01*
X108089502Y-95812683D01*
X108089500Y-95812686D01*
X108023608Y-95926812D01*
X107989500Y-96054108D01*
X90250500Y-96054108D01*
X90250500Y-95034108D01*
X103929500Y-95034108D01*
X103929500Y-95165891D01*
X103963608Y-95293187D01*
X103996554Y-95350250D01*
X104029500Y-95407314D01*
X104122686Y-95500500D01*
X104236814Y-95566392D01*
X104364108Y-95600500D01*
X104364110Y-95600500D01*
X104495890Y-95600500D01*
X104495892Y-95600500D01*
X104623186Y-95566392D01*
X104737314Y-95500500D01*
X104830500Y-95407314D01*
X104896392Y-95293186D01*
X104930500Y-95165892D01*
X104930500Y-95034108D01*
X104896392Y-94906814D01*
X104830500Y-94792686D01*
X104818061Y-94780247D01*
X138699500Y-94780247D01*
X138699500Y-96819752D01*
X138711131Y-96878229D01*
X138711132Y-96878230D01*
X138755447Y-96944552D01*
X138821769Y-96988867D01*
X138821770Y-96988868D01*
X138880247Y-97000499D01*
X138880250Y-97000500D01*
X138880252Y-97000500D01*
X142119750Y-97000500D01*
X142119751Y-97000499D01*
X142134568Y-96997552D01*
X142178229Y-96988868D01*
X142178229Y-96988867D01*
X142178231Y-96988867D01*
X142244552Y-96944552D01*
X142288867Y-96878231D01*
X142288867Y-96878229D01*
X142288868Y-96878229D01*
X142300499Y-96819752D01*
X142300500Y-96819750D01*
X142300500Y-94780249D01*
X142300499Y-94780247D01*
X142288868Y-94721770D01*
X142288867Y-94721769D01*
X142244552Y-94655447D01*
X142178230Y-94611132D01*
X142178229Y-94611131D01*
X142119752Y-94599500D01*
X142119748Y-94599500D01*
X138880252Y-94599500D01*
X138880247Y-94599500D01*
X138821770Y-94611131D01*
X138821769Y-94611132D01*
X138755447Y-94655447D01*
X138711132Y-94721769D01*
X138711131Y-94721770D01*
X138699500Y-94780247D01*
X104818061Y-94780247D01*
X104737314Y-94699500D01*
X104661012Y-94655447D01*
X104623187Y-94633608D01*
X104539307Y-94611133D01*
X104495892Y-94599500D01*
X104364108Y-94599500D01*
X104236812Y-94633608D01*
X104122686Y-94699500D01*
X104122683Y-94699502D01*
X104029502Y-94792683D01*
X104029500Y-94792686D01*
X103963608Y-94906812D01*
X103929500Y-95034108D01*
X90250500Y-95034108D01*
X90250500Y-93396608D01*
X95502000Y-93396608D01*
X95502000Y-93528391D01*
X95536108Y-93655687D01*
X95569054Y-93712750D01*
X95602000Y-93769814D01*
X95695186Y-93863000D01*
X95809314Y-93928892D01*
X95936608Y-93963000D01*
X95936610Y-93963000D01*
X96068389Y-93963000D01*
X96068392Y-93963000D01*
X96167978Y-93936316D01*
X96237824Y-93937979D01*
X96295687Y-93977141D01*
X96323191Y-94041369D01*
X96319843Y-94088183D01*
X96299500Y-94164106D01*
X96299500Y-94295891D01*
X96333608Y-94423187D01*
X96366554Y-94480250D01*
X96399500Y-94537314D01*
X96492686Y-94630500D01*
X96606814Y-94696392D01*
X96734108Y-94730500D01*
X96734110Y-94730500D01*
X96865890Y-94730500D01*
X96865892Y-94730500D01*
X96993186Y-94696392D01*
X97107314Y-94630500D01*
X97200500Y-94537314D01*
X97266392Y-94423186D01*
X97300500Y-94295892D01*
X97300500Y-94164108D01*
X97266392Y-94036814D01*
X97200500Y-93922686D01*
X97107314Y-93829500D01*
X97018514Y-93778231D01*
X96993187Y-93763608D01*
X96929539Y-93746554D01*
X96865892Y-93729500D01*
X96734108Y-93729500D01*
X96634524Y-93756183D01*
X96564674Y-93754520D01*
X96506812Y-93715357D01*
X96479308Y-93651128D01*
X96482655Y-93604318D01*
X96503000Y-93528392D01*
X96503000Y-93396608D01*
X96492544Y-93357585D01*
X96494207Y-93287739D01*
X96533369Y-93229877D01*
X96597597Y-93202372D01*
X96666500Y-93213958D01*
X96700000Y-93237814D01*
X96702686Y-93240500D01*
X96816814Y-93306392D01*
X96944108Y-93340500D01*
X96944110Y-93340500D01*
X97075890Y-93340500D01*
X97075892Y-93340500D01*
X97203186Y-93306392D01*
X97317314Y-93240500D01*
X97410500Y-93147314D01*
X97476392Y-93033186D01*
X97510500Y-92905892D01*
X97510500Y-92774108D01*
X97499782Y-92734108D01*
X108659500Y-92734108D01*
X108659500Y-92865891D01*
X108693608Y-92993187D01*
X108726554Y-93050250D01*
X108759500Y-93107314D01*
X108852686Y-93200500D01*
X108966814Y-93266392D01*
X109094108Y-93300500D01*
X109094110Y-93300500D01*
X109225890Y-93300500D01*
X109225892Y-93300500D01*
X109353186Y-93266392D01*
X109467314Y-93200500D01*
X109560500Y-93107314D01*
X109626392Y-92993186D01*
X109660500Y-92865892D01*
X109660500Y-92734108D01*
X109626392Y-92606814D01*
X109625641Y-92605513D01*
X132299500Y-92605513D01*
X132299500Y-92794486D01*
X132329059Y-92981118D01*
X132387454Y-93160836D01*
X132458617Y-93300500D01*
X132473240Y-93329199D01*
X132584310Y-93482073D01*
X132717927Y-93615690D01*
X132870801Y-93726760D01*
X132928547Y-93756183D01*
X133039163Y-93812545D01*
X133039165Y-93812545D01*
X133039168Y-93812547D01*
X133091344Y-93829500D01*
X133218881Y-93870940D01*
X133405514Y-93900500D01*
X133405519Y-93900500D01*
X133594486Y-93900500D01*
X133781118Y-93870940D01*
X133960832Y-93812547D01*
X134129199Y-93726760D01*
X134282073Y-93615690D01*
X134415690Y-93482073D01*
X134526760Y-93329199D01*
X134612547Y-93160832D01*
X134670940Y-92981118D01*
X134673968Y-92962000D01*
X134700500Y-92794486D01*
X134700500Y-92605513D01*
X134670940Y-92418881D01*
X134612545Y-92239163D01*
X134538166Y-92093187D01*
X134526760Y-92070801D01*
X134415690Y-91917927D01*
X134282073Y-91784310D01*
X134129199Y-91673240D01*
X133960836Y-91587454D01*
X133781118Y-91529059D01*
X133594486Y-91499500D01*
X133594481Y-91499500D01*
X133405519Y-91499500D01*
X133405514Y-91499500D01*
X133218881Y-91529059D01*
X133039163Y-91587454D01*
X132870800Y-91673240D01*
X132783579Y-91736610D01*
X132717927Y-91784310D01*
X132717925Y-91784312D01*
X132717924Y-91784312D01*
X132584312Y-91917924D01*
X132584312Y-91917925D01*
X132584310Y-91917927D01*
X132549463Y-91965890D01*
X132473240Y-92070800D01*
X132387454Y-92239163D01*
X132329059Y-92418881D01*
X132299500Y-92605513D01*
X109625641Y-92605513D01*
X109560500Y-92492686D01*
X109467314Y-92399500D01*
X109409968Y-92366391D01*
X109353187Y-92333608D01*
X109289539Y-92316554D01*
X109225892Y-92299500D01*
X109094108Y-92299500D01*
X108966812Y-92333608D01*
X108852686Y-92399500D01*
X108852683Y-92399502D01*
X108759502Y-92492683D01*
X108759500Y-92492686D01*
X108693608Y-92606812D01*
X108659500Y-92734108D01*
X97499782Y-92734108D01*
X97476392Y-92646814D01*
X97410500Y-92532686D01*
X97317314Y-92439500D01*
X97249764Y-92400500D01*
X97203187Y-92373608D01*
X97139539Y-92356554D01*
X97075892Y-92339500D01*
X96944108Y-92339500D01*
X96816812Y-92373608D01*
X96702686Y-92439500D01*
X96702683Y-92439502D01*
X96609502Y-92532683D01*
X96609500Y-92532686D01*
X96543608Y-92646812D01*
X96509500Y-92774108D01*
X96509500Y-92905893D01*
X96519955Y-92944912D01*
X96518292Y-93014762D01*
X96479129Y-93072624D01*
X96414900Y-93100127D01*
X96345998Y-93088540D01*
X96312499Y-93064685D01*
X96309816Y-93062002D01*
X96309814Y-93062000D01*
X96227996Y-93014762D01*
X96195687Y-92996108D01*
X96132039Y-92979054D01*
X96068392Y-92962000D01*
X95936608Y-92962000D01*
X95809312Y-92996108D01*
X95695186Y-93062000D01*
X95695183Y-93062002D01*
X95602002Y-93155183D01*
X95602000Y-93155186D01*
X95536108Y-93269312D01*
X95502000Y-93396608D01*
X90250500Y-93396608D01*
X90250500Y-91304108D01*
X91729500Y-91304108D01*
X91729500Y-91435891D01*
X91763608Y-91563187D01*
X91796554Y-91620250D01*
X91829500Y-91677314D01*
X91922686Y-91770500D01*
X92036814Y-91836392D01*
X92164108Y-91870500D01*
X92164110Y-91870500D01*
X92295890Y-91870500D01*
X92295892Y-91870500D01*
X92423186Y-91836392D01*
X92537314Y-91770500D01*
X92630500Y-91677314D01*
X92696392Y-91563186D01*
X92730500Y-91435892D01*
X92730500Y-91304108D01*
X92711744Y-91234108D01*
X105999500Y-91234108D01*
X105999500Y-91365891D01*
X106033608Y-91493187D01*
X106048646Y-91519233D01*
X106099500Y-91607314D01*
X106192686Y-91700500D01*
X106306814Y-91766392D01*
X106434108Y-91800500D01*
X106434110Y-91800500D01*
X106565890Y-91800500D01*
X106565892Y-91800500D01*
X106693186Y-91766392D01*
X106807314Y-91700500D01*
X106900500Y-91607314D01*
X106966392Y-91493186D01*
X107000500Y-91365892D01*
X107000500Y-91234108D01*
X106966392Y-91106814D01*
X106900500Y-90992686D01*
X106807314Y-90899500D01*
X106750250Y-90866554D01*
X106693187Y-90833608D01*
X106624978Y-90815332D01*
X106565892Y-90799500D01*
X106434108Y-90799500D01*
X106306812Y-90833608D01*
X106192686Y-90899500D01*
X106192683Y-90899502D01*
X106099502Y-90992683D01*
X106099500Y-90992686D01*
X106033608Y-91106812D01*
X105999500Y-91234108D01*
X92711744Y-91234108D01*
X92696392Y-91176814D01*
X92630500Y-91062686D01*
X92537314Y-90969500D01*
X92480250Y-90936554D01*
X92423187Y-90903608D01*
X92359539Y-90886554D01*
X92295892Y-90869500D01*
X92164108Y-90869500D01*
X92036812Y-90903608D01*
X91922686Y-90969500D01*
X91922683Y-90969502D01*
X91829502Y-91062683D01*
X91829500Y-91062686D01*
X91763608Y-91176812D01*
X91729500Y-91304108D01*
X90250500Y-91304108D01*
X90250500Y-89434108D01*
X110609500Y-89434108D01*
X110609500Y-89565892D01*
X110615814Y-89589456D01*
X110643608Y-89693187D01*
X110670153Y-89739163D01*
X110709500Y-89807314D01*
X110802686Y-89900500D01*
X110916814Y-89966392D01*
X111044108Y-90000500D01*
X111044110Y-90000500D01*
X111175890Y-90000500D01*
X111175892Y-90000500D01*
X111303186Y-89966392D01*
X111417314Y-89900500D01*
X111510500Y-89807314D01*
X111576392Y-89693186D01*
X111610500Y-89565892D01*
X111610500Y-89434108D01*
X111576392Y-89306814D01*
X111510500Y-89192686D01*
X111417314Y-89099500D01*
X111342296Y-89056188D01*
X111303187Y-89033608D01*
X111239539Y-89016554D01*
X111175892Y-88999500D01*
X111044108Y-88999500D01*
X110916812Y-89033608D01*
X110802686Y-89099500D01*
X110802683Y-89099502D01*
X110709502Y-89192683D01*
X110709500Y-89192686D01*
X110643608Y-89306812D01*
X110613836Y-89417924D01*
X110609500Y-89434108D01*
X90250500Y-89434108D01*
X90250500Y-87174108D01*
X122909500Y-87174108D01*
X122909500Y-87305891D01*
X122943608Y-87433187D01*
X122976554Y-87490250D01*
X123009500Y-87547314D01*
X123102686Y-87640500D01*
X123216814Y-87706392D01*
X123344108Y-87740500D01*
X123344110Y-87740500D01*
X123475890Y-87740500D01*
X123475892Y-87740500D01*
X123603186Y-87706392D01*
X123717314Y-87640500D01*
X123752301Y-87605513D01*
X132299500Y-87605513D01*
X132299500Y-87794486D01*
X132329059Y-87981118D01*
X132387454Y-88160836D01*
X132449561Y-88282726D01*
X132473240Y-88329199D01*
X132584310Y-88482073D01*
X132717927Y-88615690D01*
X132870801Y-88726760D01*
X132950347Y-88767290D01*
X133039163Y-88812545D01*
X133039165Y-88812545D01*
X133039168Y-88812547D01*
X133135394Y-88843813D01*
X133218881Y-88870940D01*
X133405514Y-88900500D01*
X133405519Y-88900500D01*
X133594486Y-88900500D01*
X133781118Y-88870940D01*
X133960832Y-88812547D01*
X134129199Y-88726760D01*
X134282073Y-88615690D01*
X134415690Y-88482073D01*
X134526760Y-88329199D01*
X134612547Y-88160832D01*
X134670940Y-87981118D01*
X134700500Y-87794486D01*
X134700500Y-87605513D01*
X134670940Y-87418881D01*
X134612545Y-87239163D01*
X134526759Y-87070800D01*
X134525182Y-87068629D01*
X134415690Y-86917927D01*
X134282073Y-86784310D01*
X134129199Y-86673240D01*
X133960836Y-86587454D01*
X133781118Y-86529059D01*
X133594486Y-86499500D01*
X133594481Y-86499500D01*
X133405519Y-86499500D01*
X133405514Y-86499500D01*
X133218881Y-86529059D01*
X133039163Y-86587454D01*
X132870800Y-86673240D01*
X132783579Y-86736610D01*
X132717927Y-86784310D01*
X132717925Y-86784312D01*
X132717924Y-86784312D01*
X132584312Y-86917924D01*
X132584312Y-86917925D01*
X132584310Y-86917927D01*
X132573587Y-86932686D01*
X132473240Y-87070800D01*
X132387454Y-87239163D01*
X132329059Y-87418881D01*
X132299500Y-87605513D01*
X123752301Y-87605513D01*
X123810500Y-87547314D01*
X123876392Y-87433186D01*
X123910500Y-87305892D01*
X123910500Y-87174108D01*
X123876392Y-87046814D01*
X123810500Y-86932686D01*
X123717314Y-86839500D01*
X123621726Y-86784312D01*
X123603187Y-86773608D01*
X123539539Y-86756554D01*
X123475892Y-86739500D01*
X123344108Y-86739500D01*
X123216812Y-86773608D01*
X123102686Y-86839500D01*
X123102683Y-86839502D01*
X123009502Y-86932683D01*
X123009500Y-86932686D01*
X122943608Y-87046812D01*
X122909500Y-87174108D01*
X90250500Y-87174108D01*
X90250500Y-84614108D01*
X112859500Y-84614108D01*
X112859500Y-84745892D01*
X112864859Y-84765891D01*
X112893608Y-84873187D01*
X112926554Y-84930250D01*
X112959500Y-84987314D01*
X113052686Y-85080500D01*
X113166814Y-85146392D01*
X113294108Y-85180500D01*
X113294110Y-85180500D01*
X113425890Y-85180500D01*
X113425892Y-85180500D01*
X113553186Y-85146392D01*
X113667314Y-85080500D01*
X113760500Y-84987314D01*
X113826392Y-84873186D01*
X113860500Y-84745892D01*
X113860500Y-84614108D01*
X113826392Y-84486814D01*
X113795962Y-84434108D01*
X118342956Y-84434108D01*
X118342956Y-84565892D01*
X118355875Y-84614108D01*
X118377064Y-84693187D01*
X118407493Y-84745890D01*
X118442956Y-84807314D01*
X118536142Y-84900500D01*
X118650270Y-84966392D01*
X118777564Y-85000500D01*
X118777566Y-85000500D01*
X118909346Y-85000500D01*
X118909348Y-85000500D01*
X119036642Y-84966392D01*
X119150770Y-84900500D01*
X119243956Y-84807314D01*
X119309848Y-84693186D01*
X119325678Y-84634108D01*
X120599500Y-84634108D01*
X120599500Y-84765892D01*
X120616554Y-84829539D01*
X120633608Y-84893187D01*
X120666554Y-84950250D01*
X120699500Y-85007314D01*
X120792686Y-85100500D01*
X120906814Y-85166392D01*
X121034108Y-85200500D01*
X121034110Y-85200500D01*
X121165890Y-85200500D01*
X121165892Y-85200500D01*
X121293186Y-85166392D01*
X121407314Y-85100500D01*
X121500500Y-85007314D01*
X121566392Y-84893186D01*
X121600500Y-84765892D01*
X121600500Y-84634108D01*
X126199500Y-84634108D01*
X126199500Y-84765892D01*
X126216554Y-84829539D01*
X126233608Y-84893187D01*
X126266554Y-84950250D01*
X126299500Y-85007314D01*
X126392686Y-85100500D01*
X126506814Y-85166392D01*
X126634108Y-85200500D01*
X126634110Y-85200500D01*
X126765890Y-85200500D01*
X126765892Y-85200500D01*
X126893186Y-85166392D01*
X127007314Y-85100500D01*
X127100500Y-85007314D01*
X127166392Y-84893186D01*
X127200500Y-84765892D01*
X127200500Y-84634108D01*
X127166392Y-84506814D01*
X127100500Y-84392686D01*
X127007314Y-84299500D01*
X126950250Y-84266554D01*
X126893187Y-84233608D01*
X126818544Y-84213608D01*
X126765892Y-84199500D01*
X126634108Y-84199500D01*
X126506812Y-84233608D01*
X126392686Y-84299500D01*
X126392683Y-84299502D01*
X126299502Y-84392683D01*
X126299500Y-84392686D01*
X126233608Y-84506812D01*
X126217778Y-84565892D01*
X126199500Y-84634108D01*
X121600500Y-84634108D01*
X121566392Y-84506814D01*
X121500500Y-84392686D01*
X121407314Y-84299500D01*
X121350250Y-84266554D01*
X121293187Y-84233608D01*
X121218544Y-84213608D01*
X121165892Y-84199500D01*
X121034108Y-84199500D01*
X120906812Y-84233608D01*
X120792686Y-84299500D01*
X120792683Y-84299502D01*
X120699502Y-84392683D01*
X120699500Y-84392686D01*
X120633608Y-84506812D01*
X120617778Y-84565892D01*
X120599500Y-84634108D01*
X119325678Y-84634108D01*
X119343956Y-84565892D01*
X119343956Y-84434108D01*
X119309848Y-84306814D01*
X119243956Y-84192686D01*
X119150770Y-84099500D01*
X119093706Y-84066554D01*
X119036643Y-84033608D01*
X118972995Y-84016554D01*
X118909348Y-83999500D01*
X118777564Y-83999500D01*
X118650268Y-84033608D01*
X118536142Y-84099500D01*
X118536139Y-84099502D01*
X118442958Y-84192683D01*
X118442956Y-84192686D01*
X118377064Y-84306812D01*
X118359414Y-84372686D01*
X118342956Y-84434108D01*
X113795962Y-84434108D01*
X113760500Y-84372686D01*
X113667314Y-84279500D01*
X113587827Y-84233608D01*
X113553187Y-84213608D01*
X113475092Y-84192683D01*
X113425892Y-84179500D01*
X113294108Y-84179500D01*
X113166812Y-84213608D01*
X113052686Y-84279500D01*
X113052683Y-84279502D01*
X112959502Y-84372683D01*
X112959500Y-84372686D01*
X112893608Y-84486812D01*
X112872419Y-84565892D01*
X112859500Y-84614108D01*
X90250500Y-84614108D01*
X90250500Y-83217842D01*
X122020064Y-83217842D01*
X122020064Y-83349625D01*
X122054172Y-83476921D01*
X122074516Y-83512157D01*
X122120064Y-83591048D01*
X122213250Y-83684234D01*
X122327378Y-83750126D01*
X122454672Y-83784234D01*
X122454674Y-83784234D01*
X122586454Y-83784234D01*
X122586456Y-83784234D01*
X122713750Y-83750126D01*
X122827878Y-83684234D01*
X122921064Y-83591048D01*
X122927300Y-83580247D01*
X138699500Y-83580247D01*
X138699500Y-85619752D01*
X138711131Y-85678229D01*
X138711132Y-85678230D01*
X138755447Y-85744552D01*
X138821769Y-85788867D01*
X138821770Y-85788868D01*
X138880247Y-85800499D01*
X138880250Y-85800500D01*
X138880252Y-85800500D01*
X142119750Y-85800500D01*
X142119751Y-85800499D01*
X142134568Y-85797552D01*
X142178229Y-85788868D01*
X142178229Y-85788867D01*
X142178231Y-85788867D01*
X142244552Y-85744552D01*
X142288867Y-85678231D01*
X142288867Y-85678229D01*
X142288868Y-85678229D01*
X142300499Y-85619752D01*
X142300500Y-85619750D01*
X142300500Y-83580249D01*
X142300499Y-83580247D01*
X142288868Y-83521770D01*
X142288867Y-83521769D01*
X142244552Y-83455447D01*
X142178230Y-83411132D01*
X142178229Y-83411131D01*
X142119752Y-83399500D01*
X142119748Y-83399500D01*
X138880252Y-83399500D01*
X138880247Y-83399500D01*
X138821770Y-83411131D01*
X138821769Y-83411132D01*
X138755447Y-83455447D01*
X138711132Y-83521769D01*
X138711131Y-83521770D01*
X138699500Y-83580247D01*
X122927300Y-83580247D01*
X122986956Y-83476920D01*
X123021064Y-83349626D01*
X123021064Y-83217842D01*
X122986956Y-83090548D01*
X122921064Y-82976420D01*
X122827878Y-82883234D01*
X122770814Y-82850288D01*
X122713751Y-82817342D01*
X122650103Y-82800288D01*
X122586456Y-82783234D01*
X122454672Y-82783234D01*
X122327376Y-82817342D01*
X122213250Y-82883234D01*
X122213247Y-82883236D01*
X122120066Y-82976417D01*
X122120064Y-82976420D01*
X122054172Y-83090546D01*
X122020064Y-83217842D01*
X90250500Y-83217842D01*
X90250500Y-81734108D01*
X93899500Y-81734108D01*
X93899500Y-81865892D01*
X93913455Y-81917972D01*
X93933608Y-81993187D01*
X93934762Y-81995185D01*
X93999500Y-82107314D01*
X94092686Y-82200500D01*
X94206814Y-82266392D01*
X94334108Y-82300500D01*
X94334110Y-82300500D01*
X94465890Y-82300500D01*
X94465892Y-82300500D01*
X94593186Y-82266392D01*
X94707314Y-82200500D01*
X94800500Y-82107314D01*
X94866392Y-81993186D01*
X94900500Y-81865892D01*
X94900500Y-81734108D01*
X94866392Y-81606814D01*
X94800500Y-81492686D01*
X94716922Y-81409108D01*
X129224500Y-81409108D01*
X129224500Y-81540891D01*
X129258608Y-81668187D01*
X129291554Y-81725250D01*
X129324500Y-81782314D01*
X129417686Y-81875500D01*
X129531814Y-81941392D01*
X129659108Y-81975500D01*
X129659110Y-81975500D01*
X129797290Y-81975500D01*
X129864329Y-81995185D01*
X129910084Y-82047989D01*
X129917063Y-82067401D01*
X129927758Y-82107316D01*
X129946443Y-82177051D01*
X129959980Y-82200497D01*
X130012335Y-82291178D01*
X130105521Y-82384364D01*
X130219649Y-82450256D01*
X130346943Y-82484364D01*
X130346945Y-82484364D01*
X130478725Y-82484364D01*
X130478727Y-82484364D01*
X130606021Y-82450256D01*
X130720149Y-82384364D01*
X130813335Y-82291178D01*
X130879227Y-82177050D01*
X130913335Y-82049756D01*
X130913335Y-81917972D01*
X130879227Y-81790678D01*
X130874397Y-81782313D01*
X130846566Y-81734108D01*
X130813335Y-81676550D01*
X130720149Y-81583364D01*
X130646584Y-81540891D01*
X130606022Y-81517472D01*
X130542374Y-81500418D01*
X130478727Y-81483364D01*
X130346943Y-81483364D01*
X130340545Y-81483364D01*
X130273506Y-81463679D01*
X130227751Y-81410875D01*
X130220770Y-81391457D01*
X130203097Y-81325500D01*
X130191392Y-81281814D01*
X130125500Y-81167686D01*
X130032314Y-81074500D01*
X129975250Y-81041554D01*
X129918187Y-81008608D01*
X129854539Y-80991554D01*
X129790892Y-80974500D01*
X129659108Y-80974500D01*
X129531812Y-81008608D01*
X129417686Y-81074500D01*
X129417683Y-81074502D01*
X129324502Y-81167683D01*
X129324500Y-81167686D01*
X129258608Y-81281812D01*
X129224500Y-81409108D01*
X94716922Y-81409108D01*
X94707314Y-81399500D01*
X94650250Y-81366554D01*
X94593187Y-81333608D01*
X94529539Y-81316554D01*
X94465892Y-81299500D01*
X94334108Y-81299500D01*
X94206812Y-81333608D01*
X94092686Y-81399500D01*
X94092683Y-81399502D01*
X93999502Y-81492683D01*
X93999500Y-81492686D01*
X93933608Y-81606812D01*
X93917163Y-81668187D01*
X93899500Y-81734108D01*
X90250500Y-81734108D01*
X90250500Y-80109108D01*
X118667956Y-80109108D01*
X118667956Y-80240892D01*
X118680848Y-80289005D01*
X118702064Y-80368187D01*
X118734577Y-80424500D01*
X118767956Y-80482314D01*
X118861142Y-80575500D01*
X118975270Y-80641392D01*
X119102564Y-80675500D01*
X119102566Y-80675500D01*
X119143956Y-80675500D01*
X119210995Y-80695185D01*
X119256750Y-80747989D01*
X119267956Y-80799500D01*
X119267956Y-80890892D01*
X119285010Y-80954539D01*
X119302064Y-81018187D01*
X119334577Y-81074500D01*
X119367956Y-81132314D01*
X119461142Y-81225500D01*
X119558677Y-81281812D01*
X119575266Y-81291390D01*
X119575270Y-81291392D01*
X119702564Y-81325500D01*
X119702566Y-81325500D01*
X119834346Y-81325500D01*
X119834348Y-81325500D01*
X119961642Y-81291392D01*
X120075770Y-81225500D01*
X120168956Y-81132314D01*
X120234848Y-81018186D01*
X120268956Y-80890892D01*
X120268956Y-80759108D01*
X120234848Y-80631814D01*
X120168956Y-80517686D01*
X120075770Y-80424500D01*
X120018706Y-80391554D01*
X119961643Y-80358608D01*
X119894688Y-80340668D01*
X119834348Y-80324500D01*
X119792956Y-80324500D01*
X119784270Y-80321949D01*
X119775309Y-80323238D01*
X119751268Y-80312259D01*
X119725917Y-80304815D01*
X119719989Y-80297974D01*
X119711753Y-80294213D01*
X119697463Y-80271978D01*
X119680162Y-80252011D01*
X119677874Y-80241496D01*
X119673979Y-80235435D01*
X119668956Y-80200500D01*
X119668956Y-80109110D01*
X119668956Y-80109108D01*
X129099500Y-80109108D01*
X129099500Y-80240892D01*
X129112392Y-80289005D01*
X129133608Y-80368187D01*
X129166121Y-80424500D01*
X129199500Y-80482314D01*
X129292686Y-80575500D01*
X129406814Y-80641392D01*
X129534108Y-80675500D01*
X129534110Y-80675500D01*
X129665890Y-80675500D01*
X129665892Y-80675500D01*
X129793186Y-80641392D01*
X129907314Y-80575500D01*
X130000500Y-80482314D01*
X130028332Y-80434108D01*
X130299500Y-80434108D01*
X130299500Y-80565892D01*
X130316554Y-80629539D01*
X130333608Y-80693187D01*
X130334762Y-80695185D01*
X130399500Y-80807314D01*
X130492686Y-80900500D01*
X130606814Y-80966392D01*
X130734108Y-81000500D01*
X130734110Y-81000500D01*
X130865890Y-81000500D01*
X130865892Y-81000500D01*
X130993186Y-80966392D01*
X131107314Y-80900500D01*
X131200500Y-80807314D01*
X131266392Y-80693186D01*
X131300500Y-80565892D01*
X131300500Y-80434108D01*
X131266392Y-80306814D01*
X131200500Y-80192686D01*
X131107314Y-80099500D01*
X131050250Y-80066554D01*
X130993187Y-80033608D01*
X130926725Y-80015800D01*
X130865892Y-79999500D01*
X130734108Y-79999500D01*
X130606812Y-80033608D01*
X130492686Y-80099500D01*
X130492683Y-80099502D01*
X130399502Y-80192683D01*
X130399500Y-80192686D01*
X130339897Y-80295920D01*
X130339896Y-80295922D01*
X130333608Y-80306814D01*
X130299500Y-80434108D01*
X130028332Y-80434108D01*
X130066392Y-80368186D01*
X130100500Y-80240892D01*
X130100500Y-80109108D01*
X130066392Y-79981814D01*
X130000500Y-79867686D01*
X129907314Y-79774500D01*
X129876522Y-79756722D01*
X132922114Y-79756722D01*
X132922114Y-79888505D01*
X132956222Y-80015801D01*
X132966503Y-80033608D01*
X133022114Y-80129928D01*
X133115300Y-80223114D01*
X133229428Y-80289006D01*
X133356722Y-80323114D01*
X133356724Y-80323114D01*
X133488504Y-80323114D01*
X133488506Y-80323114D01*
X133615800Y-80289006D01*
X133729928Y-80223114D01*
X133823114Y-80129928D01*
X133889006Y-80015800D01*
X133923114Y-79888506D01*
X133923114Y-79756722D01*
X133889006Y-79629428D01*
X133823114Y-79515300D01*
X133729928Y-79422114D01*
X133672864Y-79389168D01*
X133615801Y-79356222D01*
X133552153Y-79339168D01*
X133488506Y-79322114D01*
X133356722Y-79322114D01*
X133229426Y-79356222D01*
X133115300Y-79422114D01*
X133115297Y-79422116D01*
X133022116Y-79515297D01*
X133022114Y-79515300D01*
X132956222Y-79629426D01*
X132922114Y-79756722D01*
X129876522Y-79756722D01*
X129850250Y-79741554D01*
X129793187Y-79708608D01*
X129729539Y-79691554D01*
X129665892Y-79674500D01*
X129534108Y-79674500D01*
X129406812Y-79708608D01*
X129292686Y-79774500D01*
X129292683Y-79774502D01*
X129199502Y-79867683D01*
X129199500Y-79867686D01*
X129133608Y-79981812D01*
X129124501Y-80015801D01*
X129099500Y-80109108D01*
X119668956Y-80109108D01*
X119634848Y-79981814D01*
X119568956Y-79867686D01*
X119475770Y-79774500D01*
X119418706Y-79741554D01*
X119361643Y-79708608D01*
X119297995Y-79691554D01*
X119234348Y-79674500D01*
X119102564Y-79674500D01*
X118975268Y-79708608D01*
X118861142Y-79774500D01*
X118861139Y-79774502D01*
X118767958Y-79867683D01*
X118767956Y-79867686D01*
X118702064Y-79981812D01*
X118692957Y-80015801D01*
X118667956Y-80109108D01*
X90250500Y-80109108D01*
X90250500Y-78434108D01*
X122399500Y-78434108D01*
X122399500Y-78565891D01*
X122433608Y-78693187D01*
X122466554Y-78750250D01*
X122499500Y-78807314D01*
X122592686Y-78900500D01*
X122706814Y-78966392D01*
X122834108Y-79000500D01*
X122834110Y-79000500D01*
X122965890Y-79000500D01*
X122965892Y-79000500D01*
X123093186Y-78966392D01*
X123207314Y-78900500D01*
X123300500Y-78807314D01*
X123366392Y-78693186D01*
X123400500Y-78565892D01*
X123400500Y-78434108D01*
X123366392Y-78306814D01*
X123300500Y-78192686D01*
X123207314Y-78099500D01*
X123150250Y-78066554D01*
X123093187Y-78033608D01*
X123029539Y-78016554D01*
X122965892Y-77999500D01*
X122834108Y-77999500D01*
X122706812Y-78033608D01*
X122592686Y-78099500D01*
X122592683Y-78099502D01*
X122499502Y-78192683D01*
X122499500Y-78192686D01*
X122433608Y-78306812D01*
X122399500Y-78434108D01*
X90250500Y-78434108D01*
X90250500Y-77184108D01*
X118342956Y-77184108D01*
X118342956Y-77315891D01*
X118377064Y-77443187D01*
X118410010Y-77500250D01*
X118442956Y-77557314D01*
X118536142Y-77650500D01*
X118650270Y-77716392D01*
X118777564Y-77750500D01*
X118777566Y-77750500D01*
X118909346Y-77750500D01*
X118909348Y-77750500D01*
X119036642Y-77716392D01*
X119150770Y-77650500D01*
X119243956Y-77557314D01*
X119309848Y-77443186D01*
X119343956Y-77315892D01*
X119343956Y-77184108D01*
X119309848Y-77056814D01*
X119243956Y-76942686D01*
X119150770Y-76849500D01*
X119093706Y-76816554D01*
X119036643Y-76783608D01*
X118972995Y-76766554D01*
X118909348Y-76749500D01*
X118777564Y-76749500D01*
X118650268Y-76783608D01*
X118536142Y-76849500D01*
X118536139Y-76849502D01*
X118442958Y-76942683D01*
X118442956Y-76942686D01*
X118377064Y-77056812D01*
X118342956Y-77184108D01*
X90250500Y-77184108D01*
X90250500Y-76534108D01*
X125599500Y-76534108D01*
X125599500Y-76665891D01*
X125633608Y-76793187D01*
X125666121Y-76849500D01*
X125699500Y-76907314D01*
X125792686Y-77000500D01*
X125906814Y-77066392D01*
X126034108Y-77100500D01*
X126034110Y-77100500D01*
X126165890Y-77100500D01*
X126165892Y-77100500D01*
X126293186Y-77066392D01*
X126407314Y-77000500D01*
X126500500Y-76907314D01*
X126566392Y-76793186D01*
X126600500Y-76665892D01*
X126600500Y-76534108D01*
X126566392Y-76406814D01*
X126500500Y-76292686D01*
X126407314Y-76199500D01*
X126350250Y-76166554D01*
X126293187Y-76133608D01*
X126229539Y-76116554D01*
X126165892Y-76099500D01*
X126034108Y-76099500D01*
X125906812Y-76133608D01*
X125792686Y-76199500D01*
X125792683Y-76199502D01*
X125699502Y-76292683D01*
X125699500Y-76292686D01*
X125633608Y-76406812D01*
X125599500Y-76534108D01*
X90250500Y-76534108D01*
X90250500Y-75734108D01*
X118569500Y-75734108D01*
X118569500Y-75865891D01*
X118603608Y-75993187D01*
X118636554Y-76050250D01*
X118669500Y-76107314D01*
X118762686Y-76200500D01*
X118876814Y-76266392D01*
X119004108Y-76300500D01*
X119004110Y-76300500D01*
X119135890Y-76300500D01*
X119135892Y-76300500D01*
X119263186Y-76266392D01*
X119377314Y-76200500D01*
X119470500Y-76107314D01*
X119536392Y-75993186D01*
X119570500Y-75865892D01*
X119570500Y-75734108D01*
X119536392Y-75606814D01*
X119470500Y-75492686D01*
X119377314Y-75399500D01*
X119320250Y-75366554D01*
X119264053Y-75334108D01*
X137499500Y-75334108D01*
X137499500Y-75465892D01*
X137516554Y-75529539D01*
X137533608Y-75593187D01*
X137541475Y-75606812D01*
X137599500Y-75707314D01*
X137692686Y-75800500D01*
X137791521Y-75857563D01*
X137805944Y-75865890D01*
X137806814Y-75866392D01*
X137934108Y-75900500D01*
X137934110Y-75900500D01*
X138065890Y-75900500D01*
X138065892Y-75900500D01*
X138193186Y-75866392D01*
X138307314Y-75800500D01*
X138400500Y-75707314D01*
X138466392Y-75593186D01*
X138500500Y-75465892D01*
X138500500Y-75334108D01*
X138466392Y-75206814D01*
X138400500Y-75092686D01*
X138307314Y-74999500D01*
X138250250Y-74966554D01*
X138193187Y-74933608D01*
X138129539Y-74916554D01*
X138065892Y-74899500D01*
X137934108Y-74899500D01*
X137806812Y-74933608D01*
X137692686Y-74999500D01*
X137692683Y-74999502D01*
X137599502Y-75092683D01*
X137599500Y-75092686D01*
X137533608Y-75206812D01*
X137517644Y-75266392D01*
X137499500Y-75334108D01*
X119264053Y-75334108D01*
X119263187Y-75333608D01*
X119199539Y-75316554D01*
X119135892Y-75299500D01*
X119004108Y-75299500D01*
X118876812Y-75333608D01*
X118762686Y-75399500D01*
X118762683Y-75399502D01*
X118669502Y-75492683D01*
X118669500Y-75492686D01*
X118603608Y-75606812D01*
X118569500Y-75734108D01*
X90250500Y-75734108D01*
X90250500Y-74734108D01*
X123899500Y-74734108D01*
X123899500Y-74865891D01*
X123933608Y-74993187D01*
X123966554Y-75050250D01*
X123999500Y-75107314D01*
X124092686Y-75200500D01*
X124191521Y-75257563D01*
X124206810Y-75266390D01*
X124206814Y-75266392D01*
X124334108Y-75300500D01*
X124334110Y-75300500D01*
X124465890Y-75300500D01*
X124465892Y-75300500D01*
X124593186Y-75266392D01*
X124707314Y-75200500D01*
X124800500Y-75107314D01*
X124866392Y-74993186D01*
X124900500Y-74865892D01*
X124900500Y-74734108D01*
X124866392Y-74606814D01*
X124800500Y-74492686D01*
X124707314Y-74399500D01*
X124650250Y-74366554D01*
X124593187Y-74333608D01*
X124529539Y-74316554D01*
X124465892Y-74299500D01*
X124334108Y-74299500D01*
X124206812Y-74333608D01*
X124092686Y-74399500D01*
X124092683Y-74399502D01*
X123999502Y-74492683D01*
X123999500Y-74492686D01*
X123933608Y-74606812D01*
X123899500Y-74734108D01*
X90250500Y-74734108D01*
X90250500Y-71884108D01*
X114849500Y-71884108D01*
X114849500Y-72015891D01*
X114883608Y-72143187D01*
X114916554Y-72200250D01*
X114949500Y-72257314D01*
X115042686Y-72350500D01*
X115156814Y-72416392D01*
X115284108Y-72450500D01*
X115284110Y-72450500D01*
X115415890Y-72450500D01*
X115415892Y-72450500D01*
X115543186Y-72416392D01*
X115657314Y-72350500D01*
X115750500Y-72257314D01*
X115816392Y-72143186D01*
X115850500Y-72015892D01*
X115850500Y-71884108D01*
X115816392Y-71756814D01*
X115750500Y-71642686D01*
X115657314Y-71549500D01*
X115553312Y-71489454D01*
X115543187Y-71483608D01*
X115541018Y-71483027D01*
X115415892Y-71449500D01*
X115284108Y-71449500D01*
X115156812Y-71483608D01*
X115042686Y-71549500D01*
X115042683Y-71549502D01*
X114949502Y-71642683D01*
X114949500Y-71642686D01*
X114883608Y-71756812D01*
X114849500Y-71884108D01*
X90250500Y-71884108D01*
X90250500Y-71408500D01*
X132145050Y-71408500D01*
X132161849Y-71419725D01*
X132161855Y-71419728D01*
X132330182Y-71489451D01*
X132330194Y-71489454D01*
X132508890Y-71524999D01*
X132508894Y-71525000D01*
X132691106Y-71525000D01*
X132691109Y-71524999D01*
X132869805Y-71489454D01*
X132869813Y-71489452D01*
X133038151Y-71419724D01*
X133038154Y-71419723D01*
X133054947Y-71408500D01*
X133054948Y-71408500D01*
X132600001Y-70953553D01*
X132600000Y-70953553D01*
X132145050Y-71408500D01*
X90250500Y-71408500D01*
X90250500Y-70508890D01*
X131675000Y-70508890D01*
X131675000Y-70691109D01*
X131710545Y-70869805D01*
X131710548Y-70869817D01*
X131780271Y-71038145D01*
X131791498Y-71054947D01*
X132246446Y-70600000D01*
X132246446Y-70599999D01*
X132196719Y-70550272D01*
X132350000Y-70550272D01*
X132350000Y-70649728D01*
X132388060Y-70741614D01*
X132458386Y-70811940D01*
X132550272Y-70850000D01*
X132649728Y-70850000D01*
X132741614Y-70811940D01*
X132811940Y-70741614D01*
X132850000Y-70649728D01*
X132850000Y-70595004D01*
X132953552Y-70595004D01*
X132953553Y-70612362D01*
X132972169Y-70646452D01*
X132974405Y-70660647D01*
X132974499Y-70661606D01*
X132998535Y-70782444D01*
X132998538Y-70782454D01*
X133045687Y-70896283D01*
X133045692Y-70896292D01*
X133114141Y-70998732D01*
X133114144Y-70998736D01*
X133201263Y-71085855D01*
X133201267Y-71085858D01*
X133303707Y-71154307D01*
X133303713Y-71154310D01*
X133303714Y-71154311D01*
X133417548Y-71201463D01*
X133538389Y-71225499D01*
X133538393Y-71225500D01*
X133538394Y-71225500D01*
X133661607Y-71225500D01*
X133661608Y-71225499D01*
X133782452Y-71201463D01*
X133896286Y-71154311D01*
X133998733Y-71085858D01*
X133998736Y-71085855D01*
X134012319Y-71072273D01*
X134073642Y-71038788D01*
X134143334Y-71043772D01*
X134187681Y-71072273D01*
X134201263Y-71085855D01*
X134201267Y-71085858D01*
X134303707Y-71154307D01*
X134303713Y-71154310D01*
X134303714Y-71154311D01*
X134417548Y-71201463D01*
X134538389Y-71225499D01*
X134538393Y-71225500D01*
X134538394Y-71225500D01*
X134661607Y-71225500D01*
X134661608Y-71225499D01*
X134782452Y-71201463D01*
X134896286Y-71154311D01*
X134896285Y-71154311D01*
X134901914Y-71151980D01*
X134902805Y-71154132D01*
X134961074Y-71141997D01*
X135019272Y-71164294D01*
X135020293Y-71162767D01*
X135096769Y-71213867D01*
X135096770Y-71213868D01*
X135155247Y-71225499D01*
X135155250Y-71225500D01*
X135155252Y-71225500D01*
X136044750Y-71225500D01*
X136044751Y-71225499D01*
X136059568Y-71222552D01*
X136103229Y-71213868D01*
X136103229Y-71213867D01*
X136103231Y-71213867D01*
X136169552Y-71169552D01*
X136213867Y-71103231D01*
X136213867Y-71103229D01*
X136213868Y-71103229D01*
X136225499Y-71044752D01*
X136225500Y-71044750D01*
X136225500Y-70155249D01*
X136225499Y-70155247D01*
X136213868Y-70096770D01*
X136213867Y-70096769D01*
X136169552Y-70030447D01*
X136103230Y-69986132D01*
X136103229Y-69986131D01*
X136044752Y-69974500D01*
X136044748Y-69974500D01*
X135155252Y-69974500D01*
X135155247Y-69974500D01*
X135096770Y-69986131D01*
X135096769Y-69986132D01*
X135020293Y-70037233D01*
X135017837Y-70033558D01*
X134977265Y-70055616D01*
X134907583Y-70050502D01*
X134901942Y-70047951D01*
X134901914Y-70048020D01*
X134782454Y-69998538D01*
X134782455Y-69998538D01*
X134782452Y-69998537D01*
X134782448Y-69998536D01*
X134782444Y-69998535D01*
X134661610Y-69974500D01*
X134661606Y-69974500D01*
X134538394Y-69974500D01*
X134538389Y-69974500D01*
X134417555Y-69998535D01*
X134417545Y-69998538D01*
X134303716Y-70045687D01*
X134303707Y-70045692D01*
X134201267Y-70114141D01*
X134201263Y-70114144D01*
X134187681Y-70127727D01*
X134126358Y-70161212D01*
X134056666Y-70156228D01*
X134012319Y-70127727D01*
X133998736Y-70114144D01*
X133998732Y-70114141D01*
X133896292Y-70045692D01*
X133896283Y-70045687D01*
X133782454Y-69998538D01*
X133782455Y-69998538D01*
X133782452Y-69998537D01*
X133782448Y-69998536D01*
X133782444Y-69998535D01*
X133661610Y-69974500D01*
X133661606Y-69974500D01*
X133538394Y-69974500D01*
X133538389Y-69974500D01*
X133417555Y-69998535D01*
X133417545Y-69998538D01*
X133303716Y-70045687D01*
X133303707Y-70045692D01*
X133201267Y-70114141D01*
X133201263Y-70114144D01*
X133114144Y-70201263D01*
X133114141Y-70201267D01*
X133045692Y-70303707D01*
X133045687Y-70303716D01*
X132998538Y-70417545D01*
X132998535Y-70417555D01*
X132974499Y-70538392D01*
X132974405Y-70539354D01*
X132974214Y-70539824D01*
X132973311Y-70544369D01*
X132972448Y-70544197D01*
X132965110Y-70562363D01*
X132959837Y-70586610D01*
X132953552Y-70595004D01*
X132850000Y-70595004D01*
X132850000Y-70550272D01*
X132811940Y-70458386D01*
X132741614Y-70388060D01*
X132649728Y-70350000D01*
X132550272Y-70350000D01*
X132458386Y-70388060D01*
X132388060Y-70458386D01*
X132350000Y-70550272D01*
X132196719Y-70550272D01*
X131791498Y-70145050D01*
X131780274Y-70161848D01*
X131710547Y-70330186D01*
X131710545Y-70330194D01*
X131675000Y-70508890D01*
X90250500Y-70508890D01*
X90250500Y-69934108D01*
X117699500Y-69934108D01*
X117699500Y-70065892D01*
X117707774Y-70096770D01*
X117733608Y-70193187D01*
X117764358Y-70246446D01*
X117799500Y-70307314D01*
X117892686Y-70400500D01*
X118006814Y-70466392D01*
X118134108Y-70500500D01*
X118134110Y-70500500D01*
X118265890Y-70500500D01*
X118265892Y-70500500D01*
X118393186Y-70466392D01*
X118507314Y-70400500D01*
X118600500Y-70307314D01*
X118666392Y-70193186D01*
X118700500Y-70065892D01*
X118700500Y-69934108D01*
X118666392Y-69806814D01*
X118657549Y-69791498D01*
X132145050Y-69791498D01*
X132600000Y-70246446D01*
X132600001Y-70246446D01*
X133054947Y-69791498D01*
X133038145Y-69780271D01*
X132869817Y-69710548D01*
X132869805Y-69710545D01*
X132691109Y-69675000D01*
X132508890Y-69675000D01*
X132330194Y-69710545D01*
X132330186Y-69710547D01*
X132161848Y-69780274D01*
X132145050Y-69791498D01*
X118657549Y-69791498D01*
X118600500Y-69692686D01*
X118507314Y-69599500D01*
X118470510Y-69578251D01*
X118470509Y-69578250D01*
X118393188Y-69533609D01*
X118393187Y-69533608D01*
X118393186Y-69533608D01*
X118265892Y-69499500D01*
X118134108Y-69499500D01*
X118006812Y-69533608D01*
X117892686Y-69599500D01*
X117892683Y-69599502D01*
X117799502Y-69692683D01*
X117799500Y-69692686D01*
X117733608Y-69806812D01*
X117699500Y-69934108D01*
X90250500Y-69934108D01*
X90250500Y-69478992D01*
X137677564Y-69478992D01*
X137677564Y-69610775D01*
X137711672Y-69738071D01*
X137742519Y-69791498D01*
X137777564Y-69852198D01*
X137870750Y-69945384D01*
X137962815Y-69998538D01*
X137978015Y-70007314D01*
X137984878Y-70011276D01*
X138112172Y-70045384D01*
X138112174Y-70045384D01*
X138243954Y-70045384D01*
X138243956Y-70045384D01*
X138371250Y-70011276D01*
X138485378Y-69945384D01*
X138578564Y-69852198D01*
X138644456Y-69738070D01*
X138672312Y-69634108D01*
X138899500Y-69634108D01*
X138899500Y-69736008D01*
X138899500Y-69765891D01*
X138933608Y-69893187D01*
X138963743Y-69945381D01*
X138999500Y-70007314D01*
X139092686Y-70100500D01*
X139191521Y-70157563D01*
X139198943Y-70161848D01*
X139206814Y-70166392D01*
X139334108Y-70200500D01*
X139334110Y-70200500D01*
X139465890Y-70200500D01*
X139465892Y-70200500D01*
X139593186Y-70166392D01*
X139707314Y-70100500D01*
X139800500Y-70007314D01*
X139866392Y-69893186D01*
X139900500Y-69765892D01*
X139900500Y-69634108D01*
X139866392Y-69506814D01*
X139800500Y-69392686D01*
X139707314Y-69299500D01*
X139650250Y-69266554D01*
X139593187Y-69233608D01*
X139529539Y-69216554D01*
X139465892Y-69199500D01*
X139334108Y-69199500D01*
X139206812Y-69233608D01*
X139092686Y-69299500D01*
X139092683Y-69299502D01*
X138999502Y-69392683D01*
X138999500Y-69392686D01*
X138933608Y-69506812D01*
X138926428Y-69533609D01*
X138899500Y-69634108D01*
X138672312Y-69634108D01*
X138678564Y-69610776D01*
X138678564Y-69478992D01*
X138644456Y-69351698D01*
X138578564Y-69237570D01*
X138485378Y-69144384D01*
X138428314Y-69111438D01*
X138371251Y-69078492D01*
X138307603Y-69061438D01*
X138243956Y-69044384D01*
X138112172Y-69044384D01*
X137984876Y-69078492D01*
X137870750Y-69144384D01*
X137870747Y-69144386D01*
X137777566Y-69237567D01*
X137777564Y-69237570D01*
X137711672Y-69351696D01*
X137677564Y-69478992D01*
X90250500Y-69478992D01*
X90250500Y-68834108D01*
X140777500Y-68834108D01*
X140777500Y-68965891D01*
X140811608Y-69093187D01*
X140841167Y-69144384D01*
X140877500Y-69207314D01*
X140970686Y-69300500D01*
X141084814Y-69366392D01*
X141212108Y-69400500D01*
X141212110Y-69400500D01*
X141343890Y-69400500D01*
X141343892Y-69400500D01*
X141471186Y-69366392D01*
X141585314Y-69300500D01*
X141678500Y-69207314D01*
X141744392Y-69093186D01*
X141778500Y-68965892D01*
X141778500Y-68834108D01*
X141744392Y-68706814D01*
X141678500Y-68592686D01*
X141585314Y-68499500D01*
X141528250Y-68466554D01*
X141471187Y-68433608D01*
X141407539Y-68416554D01*
X141343892Y-68399500D01*
X141212108Y-68399500D01*
X141084812Y-68433608D01*
X140970686Y-68499500D01*
X140970683Y-68499502D01*
X140877502Y-68592683D01*
X140877500Y-68592686D01*
X140811608Y-68706812D01*
X140777500Y-68834108D01*
X90250500Y-68834108D01*
X90250500Y-64134108D01*
X120899500Y-64134108D01*
X120899500Y-64265891D01*
X120933608Y-64393187D01*
X120966554Y-64450250D01*
X120999500Y-64507314D01*
X121092686Y-64600500D01*
X121206814Y-64666392D01*
X121334108Y-64700500D01*
X121334110Y-64700500D01*
X121465890Y-64700500D01*
X121465892Y-64700500D01*
X121593186Y-64666392D01*
X121707314Y-64600500D01*
X121800500Y-64507314D01*
X121866392Y-64393186D01*
X121900500Y-64265892D01*
X121900500Y-64134108D01*
X121866392Y-64006814D01*
X121800500Y-63892686D01*
X121707314Y-63799500D01*
X121650250Y-63766554D01*
X121593187Y-63733608D01*
X121529539Y-63716554D01*
X121465892Y-63699500D01*
X121334108Y-63699500D01*
X121206812Y-63733608D01*
X121092686Y-63799500D01*
X121092683Y-63799502D01*
X120999502Y-63892683D01*
X120999500Y-63892686D01*
X120933608Y-64006812D01*
X120899500Y-64134108D01*
X90250500Y-64134108D01*
X90250500Y-59200809D01*
X113702125Y-59200809D01*
X113702125Y-59332592D01*
X113736233Y-59459888D01*
X113769179Y-59516951D01*
X113802125Y-59574015D01*
X113895311Y-59667201D01*
X114009439Y-59733093D01*
X114136733Y-59767201D01*
X114136735Y-59767201D01*
X114268515Y-59767201D01*
X114268517Y-59767201D01*
X114395811Y-59733093D01*
X114509939Y-59667201D01*
X114603125Y-59574015D01*
X114669017Y-59459887D01*
X114703125Y-59332593D01*
X114703125Y-59200809D01*
X114669017Y-59073515D01*
X114603125Y-58959387D01*
X114509939Y-58866201D01*
X114452875Y-58833255D01*
X114395812Y-58800309D01*
X114332164Y-58783255D01*
X114268517Y-58766201D01*
X114136733Y-58766201D01*
X114009437Y-58800309D01*
X113895311Y-58866201D01*
X113895308Y-58866203D01*
X113802127Y-58959384D01*
X113802125Y-58959387D01*
X113736233Y-59073513D01*
X113702125Y-59200809D01*
X90250500Y-59200809D01*
X90250500Y-56034108D01*
X116899500Y-56034108D01*
X116899500Y-56165891D01*
X116933608Y-56293187D01*
X116966554Y-56350250D01*
X116999500Y-56407314D01*
X117092686Y-56500500D01*
X117206814Y-56566392D01*
X117334108Y-56600500D01*
X117334110Y-56600500D01*
X117465890Y-56600500D01*
X117465892Y-56600500D01*
X117593186Y-56566392D01*
X117707314Y-56500500D01*
X117800500Y-56407314D01*
X117866392Y-56293186D01*
X117900500Y-56165892D01*
X117900500Y-56034108D01*
X117866392Y-55906814D01*
X117800500Y-55792686D01*
X117707314Y-55699500D01*
X117650250Y-55666554D01*
X117593187Y-55633608D01*
X117529539Y-55616554D01*
X117465892Y-55599500D01*
X117334108Y-55599500D01*
X117206812Y-55633608D01*
X117092686Y-55699500D01*
X117092683Y-55699502D01*
X116999502Y-55792683D01*
X116999500Y-55792686D01*
X116933608Y-55906812D01*
X116899500Y-56034108D01*
X90250500Y-56034108D01*
X90250500Y-54634108D01*
X91399500Y-54634108D01*
X91399500Y-54765891D01*
X91433608Y-54893187D01*
X91466554Y-54950250D01*
X91499500Y-55007314D01*
X91592686Y-55100500D01*
X91706814Y-55166392D01*
X91834108Y-55200500D01*
X91834110Y-55200500D01*
X91965890Y-55200500D01*
X91965892Y-55200500D01*
X92093186Y-55166392D01*
X92207314Y-55100500D01*
X92300500Y-55007314D01*
X92366392Y-54893186D01*
X92400500Y-54765892D01*
X92400500Y-54634108D01*
X92366392Y-54506814D01*
X92300500Y-54392686D01*
X92207314Y-54299500D01*
X92127096Y-54253186D01*
X92093187Y-54233608D01*
X92029539Y-54216554D01*
X91965892Y-54199500D01*
X91834108Y-54199500D01*
X91706812Y-54233608D01*
X91592686Y-54299500D01*
X91592683Y-54299502D01*
X91499502Y-54392683D01*
X91499500Y-54392686D01*
X91433608Y-54506812D01*
X91399500Y-54634108D01*
X90250500Y-54634108D01*
X90250500Y-53994108D01*
X115919500Y-53994108D01*
X115919500Y-54125891D01*
X115953608Y-54253187D01*
X115980347Y-54299500D01*
X116019500Y-54367314D01*
X116112686Y-54460500D01*
X116226814Y-54526392D01*
X116354108Y-54560500D01*
X116354110Y-54560500D01*
X116485890Y-54560500D01*
X116485892Y-54560500D01*
X116613186Y-54526392D01*
X116727314Y-54460500D01*
X116820500Y-54367314D01*
X116886392Y-54253186D01*
X116920500Y-54125892D01*
X116920500Y-53994108D01*
X116886392Y-53866814D01*
X116820500Y-53752686D01*
X116727314Y-53659500D01*
X116670250Y-53626554D01*
X116613187Y-53593608D01*
X116549539Y-53576554D01*
X116485892Y-53559500D01*
X116354108Y-53559500D01*
X116226812Y-53593608D01*
X116112686Y-53659500D01*
X116112683Y-53659502D01*
X116019502Y-53752683D01*
X116019500Y-53752686D01*
X115953608Y-53866812D01*
X115919500Y-53994108D01*
X90250500Y-53994108D01*
X90250500Y-52073013D01*
X107373562Y-52073013D01*
X107373562Y-52204796D01*
X107407670Y-52332092D01*
X107435470Y-52380242D01*
X107473562Y-52446219D01*
X107566748Y-52539405D01*
X107680876Y-52605297D01*
X107808170Y-52639405D01*
X107808172Y-52639405D01*
X107939952Y-52639405D01*
X107939954Y-52639405D01*
X108067248Y-52605297D01*
X108181376Y-52539405D01*
X108274562Y-52446219D01*
X108281554Y-52434108D01*
X124699500Y-52434108D01*
X124699500Y-52565892D01*
X124710464Y-52606812D01*
X124733608Y-52693187D01*
X124766554Y-52750250D01*
X124799500Y-52807314D01*
X124892686Y-52900500D01*
X125006814Y-52966392D01*
X125134108Y-53000500D01*
X125134110Y-53000500D01*
X125265890Y-53000500D01*
X125265892Y-53000500D01*
X125393186Y-52966392D01*
X125507314Y-52900500D01*
X125600500Y-52807314D01*
X125666392Y-52693186D01*
X125700500Y-52565892D01*
X125700500Y-52434108D01*
X125666392Y-52306814D01*
X125600500Y-52192686D01*
X125507314Y-52099500D01*
X125450250Y-52066554D01*
X125393187Y-52033608D01*
X125293188Y-52006814D01*
X125265892Y-51999500D01*
X125134108Y-51999500D01*
X125006812Y-52033608D01*
X124892686Y-52099500D01*
X124892683Y-52099502D01*
X124799502Y-52192683D01*
X124799500Y-52192686D01*
X124733608Y-52306812D01*
X124706814Y-52406812D01*
X124699500Y-52434108D01*
X108281554Y-52434108D01*
X108340454Y-52332091D01*
X108374562Y-52204797D01*
X108374562Y-52073013D01*
X108340454Y-51945719D01*
X108281731Y-51844008D01*
X129941071Y-51844008D01*
X129941071Y-51975792D01*
X129949383Y-52006812D01*
X129975179Y-52103087D01*
X130008057Y-52160033D01*
X130041071Y-52217214D01*
X130134257Y-52310400D01*
X130248385Y-52376292D01*
X130375679Y-52410400D01*
X130375681Y-52410400D01*
X130507460Y-52410400D01*
X130507463Y-52410400D01*
X130620014Y-52380242D01*
X130689860Y-52381905D01*
X130747723Y-52421067D01*
X130759491Y-52438017D01*
X130799500Y-52507314D01*
X130892686Y-52600500D01*
X131006814Y-52666392D01*
X131134108Y-52700500D01*
X131134110Y-52700500D01*
X131265890Y-52700500D01*
X131265892Y-52700500D01*
X131393186Y-52666392D01*
X131507314Y-52600500D01*
X131507315Y-52600498D01*
X131514352Y-52596436D01*
X131515410Y-52598269D01*
X131570100Y-52577112D01*
X131638548Y-52591134D01*
X131688550Y-52639936D01*
X131700221Y-52668584D01*
X131733608Y-52793186D01*
X131799500Y-52907314D01*
X131892686Y-53000500D01*
X132006814Y-53066392D01*
X132134108Y-53100500D01*
X132134110Y-53100500D01*
X132265890Y-53100500D01*
X132265892Y-53100500D01*
X132393186Y-53066392D01*
X132507314Y-53000500D01*
X132600500Y-52907314D01*
X132666392Y-52793186D01*
X132682222Y-52734108D01*
X134199500Y-52734108D01*
X134199500Y-52865892D01*
X134216554Y-52929539D01*
X134233608Y-52993187D01*
X134266554Y-53050250D01*
X134299500Y-53107314D01*
X134392686Y-53200500D01*
X134506814Y-53266392D01*
X134634108Y-53300500D01*
X134634110Y-53300500D01*
X134765890Y-53300500D01*
X134765892Y-53300500D01*
X134893186Y-53266392D01*
X135007314Y-53200500D01*
X135100500Y-53107314D01*
X135166392Y-52993186D01*
X135200500Y-52865892D01*
X135200500Y-52734108D01*
X135166392Y-52606814D01*
X135100500Y-52492686D01*
X135007314Y-52399500D01*
X134945788Y-52363978D01*
X134893187Y-52333608D01*
X134829539Y-52316554D01*
X134765892Y-52299500D01*
X134634108Y-52299500D01*
X134506812Y-52333608D01*
X134392686Y-52399500D01*
X134392683Y-52399502D01*
X134299502Y-52492683D01*
X134299500Y-52492686D01*
X134233608Y-52606812D01*
X134210277Y-52693887D01*
X134199500Y-52734108D01*
X132682222Y-52734108D01*
X132700500Y-52665892D01*
X132700500Y-52534108D01*
X132666392Y-52406814D01*
X132600500Y-52292686D01*
X132507314Y-52199500D01*
X132450250Y-52166554D01*
X132393187Y-52133608D01*
X132329539Y-52116554D01*
X132265892Y-52099500D01*
X132134108Y-52099500D01*
X132006812Y-52133608D01*
X131927006Y-52179684D01*
X131892686Y-52199500D01*
X131892684Y-52199501D01*
X131885648Y-52203564D01*
X131884591Y-52201734D01*
X131829865Y-52222889D01*
X131761421Y-52208849D01*
X131711433Y-52160033D01*
X131699778Y-52131416D01*
X131666392Y-52006814D01*
X131600500Y-51892686D01*
X131507314Y-51799500D01*
X131450250Y-51766554D01*
X131393187Y-51733608D01*
X131306941Y-51710499D01*
X131265892Y-51699500D01*
X131134108Y-51699500D01*
X131021559Y-51729657D01*
X130951709Y-51727994D01*
X130893847Y-51688831D01*
X130882079Y-51671882D01*
X130862751Y-51638405D01*
X130842071Y-51602586D01*
X130748885Y-51509400D01*
X130691821Y-51476454D01*
X130634758Y-51443508D01*
X130571110Y-51426454D01*
X130507463Y-51409400D01*
X130375679Y-51409400D01*
X130248383Y-51443508D01*
X130134257Y-51509400D01*
X130134254Y-51509402D01*
X130041073Y-51602583D01*
X130041071Y-51602586D01*
X129975179Y-51716712D01*
X129970652Y-51733608D01*
X129941071Y-51844008D01*
X108281731Y-51844008D01*
X108274562Y-51831591D01*
X108181376Y-51738405D01*
X108073967Y-51676392D01*
X108067249Y-51672513D01*
X108003601Y-51655459D01*
X107939954Y-51638405D01*
X107808170Y-51638405D01*
X107680874Y-51672513D01*
X107566748Y-51738405D01*
X107566745Y-51738407D01*
X107473564Y-51831588D01*
X107473562Y-51831591D01*
X107407670Y-51945717D01*
X107373562Y-52073013D01*
X90250500Y-52073013D01*
X90250500Y-51144108D01*
X118569500Y-51144108D01*
X118569500Y-51275891D01*
X118603608Y-51403187D01*
X118626888Y-51443508D01*
X118669500Y-51517314D01*
X118762686Y-51610500D01*
X118876814Y-51676392D01*
X119004108Y-51710500D01*
X119004110Y-51710500D01*
X119135890Y-51710500D01*
X119135892Y-51710500D01*
X119263186Y-51676392D01*
X119377314Y-51610500D01*
X119470500Y-51517314D01*
X119536392Y-51403186D01*
X119570500Y-51275892D01*
X119570500Y-51144108D01*
X119536392Y-51016814D01*
X119470500Y-50902686D01*
X119377314Y-50809500D01*
X119320250Y-50776554D01*
X119263187Y-50743608D01*
X119199539Y-50726554D01*
X119135892Y-50709500D01*
X119004108Y-50709500D01*
X118876812Y-50743608D01*
X118762686Y-50809500D01*
X118762683Y-50809502D01*
X118669502Y-50902683D01*
X118669500Y-50902686D01*
X118603608Y-51016812D01*
X118569500Y-51144108D01*
X90250500Y-51144108D01*
X90250500Y-50274843D01*
X114888765Y-50274843D01*
X114888765Y-50406626D01*
X114922873Y-50533922D01*
X114955819Y-50590985D01*
X114988765Y-50648049D01*
X115081951Y-50741235D01*
X115196079Y-50807127D01*
X115323373Y-50841235D01*
X115323375Y-50841235D01*
X115455155Y-50841235D01*
X115455157Y-50841235D01*
X115582451Y-50807127D01*
X115696579Y-50741235D01*
X115789765Y-50648049D01*
X115855657Y-50533921D01*
X115889765Y-50406627D01*
X115889765Y-50274843D01*
X115855657Y-50147549D01*
X115789765Y-50033421D01*
X115696579Y-49940235D01*
X115683369Y-49932608D01*
X117999500Y-49932608D01*
X117999500Y-50064392D01*
X117999902Y-50065891D01*
X118033608Y-50191687D01*
X118042632Y-50207316D01*
X118099500Y-50305814D01*
X118192686Y-50399000D01*
X118306814Y-50464892D01*
X118434108Y-50499000D01*
X118434110Y-50499000D01*
X118565890Y-50499000D01*
X118565892Y-50499000D01*
X118693186Y-50464892D01*
X118807314Y-50399000D01*
X118900500Y-50305814D01*
X118966392Y-50191686D01*
X119000500Y-50064392D01*
X119000500Y-49932608D01*
X118974107Y-49834108D01*
X123999500Y-49834108D01*
X123999500Y-49965891D01*
X124033608Y-50093187D01*
X124064993Y-50147547D01*
X124099500Y-50207314D01*
X124192686Y-50300500D01*
X124306814Y-50366392D01*
X124434108Y-50400500D01*
X124434110Y-50400500D01*
X124565890Y-50400500D01*
X124565892Y-50400500D01*
X124693186Y-50366392D01*
X124807314Y-50300500D01*
X124900500Y-50207314D01*
X124966392Y-50093186D01*
X125000500Y-49965892D01*
X125000500Y-49834108D01*
X124966392Y-49706814D01*
X124900500Y-49592686D01*
X124807314Y-49499500D01*
X124693186Y-49433608D01*
X124565892Y-49399500D01*
X124434108Y-49399500D01*
X124306812Y-49433608D01*
X124192686Y-49499500D01*
X124192683Y-49499502D01*
X124099502Y-49592683D01*
X124099500Y-49592686D01*
X124033608Y-49706812D01*
X123999500Y-49834108D01*
X118974107Y-49834108D01*
X118966392Y-49805314D01*
X118900500Y-49691186D01*
X118807314Y-49598000D01*
X118740916Y-49559665D01*
X118693187Y-49532108D01*
X118629539Y-49515054D01*
X118565892Y-49498000D01*
X118434108Y-49498000D01*
X118306812Y-49532108D01*
X118192686Y-49598000D01*
X118192683Y-49598002D01*
X118099502Y-49691183D01*
X118099500Y-49691186D01*
X118033608Y-49805312D01*
X118017242Y-49866392D01*
X117999500Y-49932608D01*
X115683369Y-49932608D01*
X115627756Y-49900500D01*
X115582452Y-49874343D01*
X115518804Y-49857289D01*
X115455157Y-49840235D01*
X115323373Y-49840235D01*
X115196077Y-49874343D01*
X115081951Y-49940235D01*
X115081948Y-49940237D01*
X114988767Y-50033418D01*
X114988765Y-50033421D01*
X114922873Y-50147547D01*
X114888765Y-50274843D01*
X90250500Y-50274843D01*
X90250500Y-48146608D01*
X107287000Y-48146608D01*
X107287000Y-48278391D01*
X107321108Y-48405687D01*
X107325833Y-48413870D01*
X107387000Y-48519814D01*
X107480186Y-48613000D01*
X107542949Y-48649236D01*
X107591164Y-48699803D01*
X107604388Y-48768410D01*
X107588338Y-48818621D01*
X107583608Y-48826812D01*
X107562038Y-48907314D01*
X107549500Y-48954108D01*
X107549500Y-49085892D01*
X107553414Y-49100499D01*
X107583608Y-49213187D01*
X107616554Y-49270250D01*
X107649500Y-49327314D01*
X107742686Y-49420500D01*
X107856814Y-49486392D01*
X107984108Y-49520500D01*
X107984110Y-49520500D01*
X108115890Y-49520500D01*
X108115892Y-49520500D01*
X108243186Y-49486392D01*
X108357314Y-49420500D01*
X108443706Y-49334108D01*
X132399500Y-49334108D01*
X132399500Y-49465891D01*
X132433608Y-49593187D01*
X132450554Y-49622538D01*
X132499500Y-49707314D01*
X132592686Y-49800500D01*
X132706814Y-49866392D01*
X132834108Y-49900500D01*
X132834110Y-49900500D01*
X132965890Y-49900500D01*
X132965892Y-49900500D01*
X133093186Y-49866392D01*
X133207314Y-49800500D01*
X133207315Y-49800498D01*
X133214352Y-49796436D01*
X133215492Y-49798411D01*
X133269654Y-49777464D01*
X133338101Y-49791494D01*
X133388097Y-49840301D01*
X133403770Y-49908390D01*
X133399765Y-49933120D01*
X133399500Y-49934108D01*
X133399500Y-50065891D01*
X133433608Y-50193187D01*
X133441766Y-50207316D01*
X133499500Y-50307314D01*
X133592686Y-50400500D01*
X133706814Y-50466392D01*
X133834108Y-50500500D01*
X133834110Y-50500500D01*
X133965890Y-50500500D01*
X133965892Y-50500500D01*
X134093186Y-50466392D01*
X134207314Y-50400500D01*
X134300500Y-50307314D01*
X134366392Y-50193186D01*
X134400500Y-50065892D01*
X134400500Y-49934108D01*
X134366392Y-49806814D01*
X134300500Y-49692686D01*
X134207314Y-49599500D01*
X134138318Y-49559665D01*
X134093187Y-49533608D01*
X134029539Y-49516554D01*
X133965892Y-49499500D01*
X133834108Y-49499500D01*
X133706812Y-49533608D01*
X133627006Y-49579684D01*
X133592686Y-49599500D01*
X133592684Y-49599501D01*
X133585648Y-49603564D01*
X133584510Y-49601593D01*
X133530307Y-49622538D01*
X133461864Y-49608488D01*
X133411883Y-49559665D01*
X133396232Y-49491571D01*
X133400237Y-49466870D01*
X133400500Y-49465892D01*
X133400500Y-49334108D01*
X133366392Y-49206814D01*
X133300500Y-49092686D01*
X133207314Y-48999500D01*
X133150250Y-48966554D01*
X133093187Y-48933608D01*
X133029539Y-48916554D01*
X132965892Y-48899500D01*
X132834108Y-48899500D01*
X132706812Y-48933608D01*
X132592686Y-48999500D01*
X132592683Y-48999502D01*
X132499502Y-49092683D01*
X132499500Y-49092686D01*
X132433608Y-49206812D01*
X132399500Y-49334108D01*
X108443706Y-49334108D01*
X108450500Y-49327314D01*
X108516392Y-49213186D01*
X108550500Y-49085892D01*
X108550500Y-48954108D01*
X108516392Y-48826814D01*
X108470085Y-48746608D01*
X108799500Y-48746608D01*
X108799500Y-48878391D01*
X108833608Y-49005687D01*
X108866554Y-49062750D01*
X108899500Y-49119814D01*
X108992686Y-49213000D01*
X109106814Y-49278892D01*
X109234108Y-49313000D01*
X109234110Y-49313000D01*
X109365890Y-49313000D01*
X109365892Y-49313000D01*
X109493186Y-49278892D01*
X109607314Y-49213000D01*
X109700500Y-49119814D01*
X109766392Y-49005686D01*
X109800500Y-48878392D01*
X109800500Y-48746608D01*
X109766392Y-48619314D01*
X109717198Y-48534108D01*
X135899500Y-48534108D01*
X135899500Y-48665892D01*
X135912038Y-48712686D01*
X135933608Y-48793187D01*
X135937819Y-48800480D01*
X135999500Y-48907314D01*
X136092686Y-49000500D01*
X136206814Y-49066392D01*
X136334108Y-49100500D01*
X136334110Y-49100500D01*
X136465890Y-49100500D01*
X136465892Y-49100500D01*
X136593186Y-49066392D01*
X136707314Y-49000500D01*
X136800500Y-48907314D01*
X136866392Y-48793186D01*
X136900500Y-48665892D01*
X136900500Y-48534108D01*
X136866392Y-48406814D01*
X136800500Y-48292686D01*
X136707314Y-48199500D01*
X136650250Y-48166554D01*
X136593187Y-48133608D01*
X136529539Y-48116554D01*
X136465892Y-48099500D01*
X136334108Y-48099500D01*
X136206812Y-48133608D01*
X136092686Y-48199500D01*
X136092683Y-48199502D01*
X135999502Y-48292683D01*
X135999500Y-48292686D01*
X135933608Y-48406812D01*
X135907249Y-48505189D01*
X135899500Y-48534108D01*
X109717198Y-48534108D01*
X109700500Y-48505186D01*
X109607314Y-48412000D01*
X109550250Y-48379054D01*
X109493187Y-48346108D01*
X109429539Y-48329054D01*
X109365892Y-48312000D01*
X109234108Y-48312000D01*
X109106812Y-48346108D01*
X108992686Y-48412000D01*
X108992683Y-48412002D01*
X108899502Y-48505183D01*
X108899500Y-48505186D01*
X108833608Y-48619312D01*
X108799500Y-48746608D01*
X108470085Y-48746608D01*
X108450500Y-48712686D01*
X108357314Y-48619500D01*
X108294550Y-48583263D01*
X108246334Y-48532696D01*
X108233112Y-48464089D01*
X108249164Y-48413873D01*
X108253892Y-48405686D01*
X108288000Y-48278392D01*
X108288000Y-48146608D01*
X108253892Y-48019314D01*
X108188000Y-47905186D01*
X108094814Y-47812000D01*
X108037750Y-47779054D01*
X107980687Y-47746108D01*
X107917039Y-47729054D01*
X107853392Y-47712000D01*
X107721608Y-47712000D01*
X107594312Y-47746108D01*
X107480186Y-47812000D01*
X107480183Y-47812002D01*
X107387002Y-47905183D01*
X107387000Y-47905186D01*
X107321108Y-48019312D01*
X107287000Y-48146608D01*
X90250500Y-48146608D01*
X90250500Y-45734108D01*
X120699500Y-45734108D01*
X120699500Y-45865891D01*
X120733608Y-45993187D01*
X120766554Y-46050250D01*
X120799500Y-46107314D01*
X120892686Y-46200500D01*
X121006814Y-46266392D01*
X121134108Y-46300500D01*
X121134110Y-46300500D01*
X121265890Y-46300500D01*
X121265892Y-46300500D01*
X121393186Y-46266392D01*
X121475805Y-46218691D01*
X121543703Y-46202219D01*
X121609730Y-46225071D01*
X121625485Y-46238398D01*
X121692686Y-46305599D01*
X121806814Y-46371491D01*
X121934108Y-46405599D01*
X121934110Y-46405599D01*
X122065890Y-46405599D01*
X122065892Y-46405599D01*
X122193186Y-46371491D01*
X122307314Y-46305599D01*
X122400500Y-46212413D01*
X122466392Y-46098285D01*
X122500500Y-45970991D01*
X122500500Y-45934108D01*
X129099500Y-45934108D01*
X129099500Y-46065892D01*
X129116554Y-46129539D01*
X129133608Y-46193187D01*
X129144710Y-46212415D01*
X129199500Y-46307314D01*
X129292686Y-46400500D01*
X129406814Y-46466392D01*
X129534108Y-46500500D01*
X129534110Y-46500500D01*
X129665890Y-46500500D01*
X129665892Y-46500500D01*
X129793186Y-46466392D01*
X129907314Y-46400500D01*
X130000500Y-46307314D01*
X130066392Y-46193186D01*
X130100500Y-46065892D01*
X130100500Y-45934108D01*
X130066392Y-45806814D01*
X130000500Y-45692686D01*
X129907314Y-45599500D01*
X129850250Y-45566554D01*
X129793187Y-45533608D01*
X129684929Y-45504601D01*
X129665892Y-45499500D01*
X129534108Y-45499500D01*
X129406812Y-45533608D01*
X129292686Y-45599500D01*
X129292683Y-45599502D01*
X129199502Y-45692683D01*
X129199500Y-45692686D01*
X129133608Y-45806812D01*
X129117778Y-45865892D01*
X129099500Y-45934108D01*
X122500500Y-45934108D01*
X122500500Y-45839207D01*
X122466392Y-45711913D01*
X122400500Y-45597785D01*
X122307314Y-45504599D01*
X122241671Y-45466700D01*
X122193187Y-45438707D01*
X122129539Y-45421653D01*
X122065892Y-45404599D01*
X121934108Y-45404599D01*
X121806814Y-45438707D01*
X121806813Y-45438707D01*
X121806811Y-45438708D01*
X121806810Y-45438708D01*
X121724195Y-45486406D01*
X121656294Y-45502879D01*
X121590268Y-45480026D01*
X121574514Y-45466700D01*
X121507316Y-45399502D01*
X121507314Y-45399500D01*
X121450250Y-45366554D01*
X121393187Y-45333608D01*
X121329539Y-45316554D01*
X121265892Y-45299500D01*
X121134108Y-45299500D01*
X121006812Y-45333608D01*
X120892686Y-45399500D01*
X120892683Y-45399502D01*
X120799502Y-45492683D01*
X120799500Y-45492686D01*
X120733608Y-45606812D01*
X120699500Y-45734108D01*
X90250500Y-45734108D01*
X90250500Y-43534108D01*
X110659500Y-43534108D01*
X110659500Y-43665891D01*
X110693608Y-43793187D01*
X110726554Y-43850250D01*
X110759500Y-43907314D01*
X110852686Y-44000500D01*
X110966814Y-44066392D01*
X111094108Y-44100500D01*
X111094110Y-44100500D01*
X111225890Y-44100500D01*
X111225892Y-44100500D01*
X111353186Y-44066392D01*
X111467314Y-44000500D01*
X111560500Y-43907314D01*
X111626392Y-43793186D01*
X111660500Y-43665892D01*
X111660500Y-43534108D01*
X111626392Y-43406814D01*
X111560500Y-43292686D01*
X111467314Y-43199500D01*
X111410250Y-43166554D01*
X111353187Y-43133608D01*
X111289539Y-43116554D01*
X111225892Y-43099500D01*
X111094108Y-43099500D01*
X110966812Y-43133608D01*
X110852686Y-43199500D01*
X110852683Y-43199502D01*
X110759502Y-43292683D01*
X110759500Y-43292686D01*
X110693608Y-43406812D01*
X110659500Y-43534108D01*
X90250500Y-43534108D01*
X90250500Y-42234108D01*
X123799500Y-42234108D01*
X123799500Y-42365891D01*
X123833608Y-42493187D01*
X123866554Y-42550250D01*
X123899500Y-42607314D01*
X123992686Y-42700500D01*
X124106814Y-42766392D01*
X124234108Y-42800500D01*
X124234110Y-42800500D01*
X124365890Y-42800500D01*
X124365892Y-42800500D01*
X124493186Y-42766392D01*
X124549103Y-42734108D01*
X139262000Y-42734108D01*
X139262000Y-42865891D01*
X139296108Y-42993187D01*
X139329054Y-43050250D01*
X139362000Y-43107314D01*
X139455186Y-43200500D01*
X139569314Y-43266392D01*
X139696608Y-43300500D01*
X139696610Y-43300500D01*
X139828390Y-43300500D01*
X139828392Y-43300500D01*
X139955686Y-43266392D01*
X140069814Y-43200500D01*
X140163000Y-43107314D01*
X140228892Y-42993186D01*
X140263000Y-42865892D01*
X140263000Y-42834108D01*
X141299500Y-42834108D01*
X141299500Y-42965891D01*
X141333608Y-43093187D01*
X141341766Y-43107316D01*
X141399500Y-43207314D01*
X141492686Y-43300500D01*
X141606814Y-43366392D01*
X141734108Y-43400500D01*
X141734110Y-43400500D01*
X141865890Y-43400500D01*
X141865892Y-43400500D01*
X141993186Y-43366392D01*
X142107314Y-43300500D01*
X142200500Y-43207314D01*
X142266392Y-43093186D01*
X142300500Y-42965892D01*
X142300500Y-42834108D01*
X142266392Y-42706814D01*
X142200500Y-42592686D01*
X142107314Y-42499500D01*
X142049968Y-42466391D01*
X141993187Y-42433608D01*
X141929539Y-42416554D01*
X141865892Y-42399500D01*
X141734108Y-42399500D01*
X141606812Y-42433608D01*
X141492686Y-42499500D01*
X141492683Y-42499502D01*
X141399502Y-42592683D01*
X141399500Y-42592686D01*
X141333608Y-42706812D01*
X141299500Y-42834108D01*
X140263000Y-42834108D01*
X140263000Y-42734108D01*
X140228892Y-42606814D01*
X140163000Y-42492686D01*
X140069814Y-42399500D01*
X140011600Y-42365890D01*
X139955687Y-42333608D01*
X139892039Y-42316554D01*
X139828392Y-42299500D01*
X139696608Y-42299500D01*
X139569312Y-42333608D01*
X139455186Y-42399500D01*
X139455183Y-42399502D01*
X139362002Y-42492683D01*
X139362000Y-42492686D01*
X139296108Y-42606812D01*
X139262000Y-42734108D01*
X124549103Y-42734108D01*
X124607314Y-42700500D01*
X124700500Y-42607314D01*
X124766392Y-42493186D01*
X124800500Y-42365892D01*
X124800500Y-42234108D01*
X124766392Y-42106814D01*
X124742764Y-42065890D01*
X124700503Y-41992691D01*
X124700502Y-41992690D01*
X124700500Y-41992686D01*
X124641922Y-41934108D01*
X125699500Y-41934108D01*
X125699500Y-42065891D01*
X125733608Y-42193187D01*
X125766554Y-42250250D01*
X125799500Y-42307314D01*
X125892686Y-42400500D01*
X126006814Y-42466392D01*
X126134108Y-42500500D01*
X126134110Y-42500500D01*
X126265890Y-42500500D01*
X126265892Y-42500500D01*
X126393186Y-42466392D01*
X126507314Y-42400500D01*
X126600500Y-42307314D01*
X126666392Y-42193186D01*
X126700500Y-42065892D01*
X126700500Y-41934108D01*
X126666392Y-41806814D01*
X126600500Y-41692686D01*
X126507314Y-41599500D01*
X126450250Y-41566554D01*
X126393187Y-41533608D01*
X126329539Y-41516554D01*
X126265892Y-41499500D01*
X126134108Y-41499500D01*
X126006812Y-41533608D01*
X125892686Y-41599500D01*
X125892683Y-41599502D01*
X125799502Y-41692683D01*
X125799500Y-41692686D01*
X125733608Y-41806812D01*
X125699500Y-41934108D01*
X124641922Y-41934108D01*
X124607314Y-41899500D01*
X124550250Y-41866554D01*
X124493187Y-41833608D01*
X124393188Y-41806814D01*
X124365892Y-41799500D01*
X124234108Y-41799500D01*
X124106812Y-41833608D01*
X123992686Y-41899500D01*
X123992683Y-41899502D01*
X123899502Y-41992683D01*
X123899500Y-41992686D01*
X123833608Y-42106812D01*
X123799500Y-42234108D01*
X90250500Y-42234108D01*
X90250500Y-40934108D01*
X120999500Y-40934108D01*
X120999500Y-41065891D01*
X121033608Y-41193187D01*
X121041766Y-41207316D01*
X121099500Y-41307314D01*
X121192686Y-41400500D01*
X121306814Y-41466392D01*
X121434108Y-41500500D01*
X121434110Y-41500500D01*
X121565890Y-41500500D01*
X121565892Y-41500500D01*
X121693186Y-41466392D01*
X121807314Y-41400500D01*
X121900500Y-41307314D01*
X121966392Y-41193186D01*
X122000500Y-41065892D01*
X122000500Y-40934108D01*
X121973705Y-40834108D01*
X129099500Y-40834108D01*
X129099500Y-40965891D01*
X129133608Y-41093187D01*
X129166554Y-41150250D01*
X129199500Y-41207314D01*
X129292686Y-41300500D01*
X129406814Y-41366392D01*
X129534108Y-41400500D01*
X129534110Y-41400500D01*
X129665890Y-41400500D01*
X129665892Y-41400500D01*
X129793186Y-41366392D01*
X129907314Y-41300500D01*
X130000500Y-41207314D01*
X130066392Y-41093186D01*
X130100500Y-40965892D01*
X130100500Y-40834108D01*
X130066392Y-40706814D01*
X130000500Y-40592686D01*
X129907314Y-40499500D01*
X129850250Y-40466554D01*
X129793187Y-40433608D01*
X129729539Y-40416554D01*
X129665892Y-40399500D01*
X129534108Y-40399500D01*
X129406812Y-40433608D01*
X129292686Y-40499500D01*
X129292683Y-40499502D01*
X129199502Y-40592683D01*
X129199500Y-40592686D01*
X129133608Y-40706812D01*
X129099500Y-40834108D01*
X121973705Y-40834108D01*
X121966392Y-40806814D01*
X121900500Y-40692686D01*
X121807314Y-40599500D01*
X121750250Y-40566554D01*
X121693187Y-40533608D01*
X121629539Y-40516554D01*
X121565892Y-40499500D01*
X121434108Y-40499500D01*
X121306812Y-40533608D01*
X121192686Y-40599500D01*
X121192683Y-40599502D01*
X121099502Y-40692683D01*
X121099500Y-40692686D01*
X121033608Y-40806812D01*
X120999500Y-40934108D01*
X90250500Y-40934108D01*
X90250500Y-39809843D01*
X123175235Y-39809843D01*
X123175235Y-39941626D01*
X123209343Y-40068922D01*
X123224248Y-40094737D01*
X123275235Y-40183049D01*
X123368421Y-40276235D01*
X123482549Y-40342127D01*
X123609843Y-40376235D01*
X123609845Y-40376235D01*
X123741625Y-40376235D01*
X123741627Y-40376235D01*
X123868921Y-40342127D01*
X123983049Y-40276235D01*
X124076235Y-40183049D01*
X124142127Y-40068921D01*
X124176235Y-39941627D01*
X124176235Y-39809843D01*
X124161966Y-39756590D01*
X124163629Y-39686744D01*
X124202791Y-39628882D01*
X124204043Y-39628346D01*
X127895368Y-39628346D01*
X127895368Y-39760129D01*
X127929476Y-39887425D01*
X127960769Y-39941625D01*
X127995368Y-40001552D01*
X128088554Y-40094738D01*
X128202682Y-40160630D01*
X128329976Y-40194738D01*
X128329978Y-40194738D01*
X128461758Y-40194738D01*
X128461760Y-40194738D01*
X128589054Y-40160630D01*
X128703182Y-40094738D01*
X128796368Y-40001552D01*
X128862260Y-39887424D01*
X128896368Y-39760130D01*
X128896368Y-39628346D01*
X128862260Y-39501052D01*
X128796368Y-39386924D01*
X128703182Y-39293738D01*
X128646118Y-39260792D01*
X128589055Y-39227846D01*
X128525407Y-39210792D01*
X128461760Y-39193738D01*
X128329976Y-39193738D01*
X128202680Y-39227846D01*
X128088554Y-39293738D01*
X128088551Y-39293740D01*
X127995370Y-39386921D01*
X127995368Y-39386924D01*
X127929476Y-39501050D01*
X127895368Y-39628346D01*
X124204043Y-39628346D01*
X124267019Y-39601377D01*
X124281741Y-39600500D01*
X124365890Y-39600500D01*
X124365892Y-39600500D01*
X124493186Y-39566392D01*
X124493189Y-39566390D01*
X124585955Y-39512832D01*
X124585956Y-39512831D01*
X124607314Y-39500500D01*
X124700500Y-39407314D01*
X124766392Y-39293186D01*
X124800500Y-39165892D01*
X124800500Y-39034108D01*
X124766392Y-38906814D01*
X124700500Y-38792686D01*
X124607314Y-38699500D01*
X124549968Y-38666391D01*
X124493187Y-38633608D01*
X124429539Y-38616554D01*
X124365892Y-38599500D01*
X124234108Y-38599500D01*
X124106812Y-38633608D01*
X123992686Y-38699500D01*
X123992683Y-38699502D01*
X123899502Y-38792683D01*
X123899500Y-38792686D01*
X123833608Y-38906812D01*
X123799500Y-39034108D01*
X123799500Y-39165892D01*
X123813768Y-39219144D01*
X123812106Y-39288991D01*
X123772944Y-39346853D01*
X123708716Y-39374358D01*
X123693994Y-39375235D01*
X123609843Y-39375235D01*
X123482547Y-39409343D01*
X123368421Y-39475235D01*
X123368418Y-39475237D01*
X123275237Y-39568418D01*
X123275235Y-39568421D01*
X123209343Y-39682547D01*
X123175235Y-39809843D01*
X90250500Y-39809843D01*
X90250500Y-38034108D01*
X129999500Y-38034108D01*
X129999500Y-38165891D01*
X130033608Y-38293187D01*
X130066554Y-38350250D01*
X130099500Y-38407314D01*
X130192686Y-38500500D01*
X130306814Y-38566392D01*
X130434108Y-38600500D01*
X130434110Y-38600500D01*
X130565890Y-38600500D01*
X130565892Y-38600500D01*
X130693186Y-38566392D01*
X130807314Y-38500500D01*
X130900500Y-38407314D01*
X130966392Y-38293186D01*
X131000500Y-38165892D01*
X131000500Y-38134108D01*
X133999500Y-38134108D01*
X133999500Y-38265891D01*
X134033608Y-38393187D01*
X134041766Y-38407316D01*
X134099500Y-38507314D01*
X134192686Y-38600500D01*
X134306814Y-38666392D01*
X134434108Y-38700500D01*
X134434110Y-38700500D01*
X134565890Y-38700500D01*
X134565892Y-38700500D01*
X134693186Y-38666392D01*
X134807314Y-38600500D01*
X134900500Y-38507314D01*
X134966392Y-38393186D01*
X135000500Y-38265892D01*
X135000500Y-38134108D01*
X134966392Y-38006814D01*
X134900500Y-37892686D01*
X134807314Y-37799500D01*
X134730212Y-37754985D01*
X134693187Y-37733608D01*
X134629539Y-37716554D01*
X134565892Y-37699500D01*
X134434108Y-37699500D01*
X134306812Y-37733608D01*
X134192686Y-37799500D01*
X134192683Y-37799502D01*
X134099502Y-37892683D01*
X134099500Y-37892686D01*
X134033608Y-38006812D01*
X133999500Y-38134108D01*
X131000500Y-38134108D01*
X131000500Y-38034108D01*
X130966392Y-37906814D01*
X130900500Y-37792686D01*
X130807314Y-37699500D01*
X130730212Y-37654985D01*
X130693187Y-37633608D01*
X130629539Y-37616554D01*
X130565892Y-37599500D01*
X130434108Y-37599500D01*
X130306812Y-37633608D01*
X130192686Y-37699500D01*
X130192683Y-37699502D01*
X130099502Y-37792683D01*
X130099500Y-37792686D01*
X130033608Y-37906812D01*
X129999500Y-38034108D01*
X90250500Y-38034108D01*
X90250500Y-37234108D01*
X94599500Y-37234108D01*
X94599500Y-37365891D01*
X94633608Y-37493187D01*
X94666554Y-37550250D01*
X94699500Y-37607314D01*
X94792686Y-37700500D01*
X94906814Y-37766392D01*
X95034108Y-37800500D01*
X95034110Y-37800500D01*
X95165890Y-37800500D01*
X95165892Y-37800500D01*
X95293186Y-37766392D01*
X95407314Y-37700500D01*
X95500500Y-37607314D01*
X95566392Y-37493186D01*
X95600500Y-37365892D01*
X95600500Y-37234108D01*
X95588304Y-37188593D01*
X109130770Y-37188593D01*
X109130770Y-37320376D01*
X109164878Y-37447672D01*
X109191156Y-37493186D01*
X109230770Y-37561799D01*
X109323956Y-37654985D01*
X109438084Y-37720877D01*
X109565378Y-37754985D01*
X109565380Y-37754985D01*
X109697160Y-37754985D01*
X109697162Y-37754985D01*
X109824456Y-37720877D01*
X109938584Y-37654985D01*
X110031770Y-37561799D01*
X110097662Y-37447671D01*
X110131770Y-37320377D01*
X110131770Y-37188593D01*
X110097662Y-37061299D01*
X110031770Y-36947171D01*
X109938584Y-36853985D01*
X109881520Y-36821039D01*
X109824457Y-36788093D01*
X109760809Y-36771039D01*
X109697162Y-36753985D01*
X109565378Y-36753985D01*
X109438082Y-36788093D01*
X109323956Y-36853985D01*
X109323953Y-36853987D01*
X109230772Y-36947168D01*
X109230770Y-36947171D01*
X109164878Y-37061297D01*
X109130770Y-37188593D01*
X95588304Y-37188593D01*
X95566392Y-37106814D01*
X95500500Y-36992686D01*
X95407314Y-36899500D01*
X95350250Y-36866554D01*
X95293187Y-36833608D01*
X95229539Y-36816554D01*
X95165892Y-36799500D01*
X95034108Y-36799500D01*
X94906812Y-36833608D01*
X94792686Y-36899500D01*
X94792683Y-36899502D01*
X94699502Y-36992683D01*
X94699500Y-36992686D01*
X94633608Y-37106812D01*
X94599500Y-37234108D01*
X90250500Y-37234108D01*
X90250500Y-36534106D01*
X121699500Y-36534106D01*
X121699500Y-36665889D01*
X121733608Y-36793185D01*
X121756947Y-36833608D01*
X121799500Y-36907312D01*
X121892686Y-37000498D01*
X122006814Y-37066390D01*
X122134108Y-37100498D01*
X122134110Y-37100498D01*
X122265890Y-37100498D01*
X122265892Y-37100498D01*
X122393186Y-37066390D01*
X122507314Y-37000498D01*
X122600500Y-36907312D01*
X122666392Y-36793184D01*
X122700500Y-36665890D01*
X122700500Y-36534106D01*
X122666392Y-36406812D01*
X122600500Y-36292684D01*
X122507314Y-36199498D01*
X122450250Y-36166552D01*
X122393187Y-36133606D01*
X122329539Y-36116552D01*
X122265892Y-36099498D01*
X122134108Y-36099498D01*
X122006812Y-36133606D01*
X121892686Y-36199498D01*
X121892683Y-36199500D01*
X121799502Y-36292681D01*
X121799500Y-36292684D01*
X121733608Y-36406810D01*
X121699500Y-36534106D01*
X90250500Y-36534106D01*
X90250500Y-35834108D01*
X115399500Y-35834108D01*
X115399500Y-35965891D01*
X115433608Y-36093187D01*
X115466554Y-36150250D01*
X115499500Y-36207314D01*
X115592686Y-36300500D01*
X115706814Y-36366392D01*
X115834108Y-36400500D01*
X115834110Y-36400500D01*
X115965890Y-36400500D01*
X115965892Y-36400500D01*
X116093186Y-36366392D01*
X116207314Y-36300500D01*
X116300500Y-36207314D01*
X116366392Y-36093186D01*
X116400500Y-35965892D01*
X116400500Y-35834108D01*
X116366392Y-35706814D01*
X116300500Y-35592686D01*
X116207314Y-35499500D01*
X116150250Y-35466554D01*
X116093187Y-35433608D01*
X116029539Y-35416554D01*
X115965892Y-35399500D01*
X115834108Y-35399500D01*
X115706812Y-35433608D01*
X115592686Y-35499500D01*
X115592683Y-35499502D01*
X115499502Y-35592683D01*
X115499500Y-35592686D01*
X115433608Y-35706812D01*
X115399500Y-35834108D01*
X90250500Y-35834108D01*
X90250500Y-31693713D01*
X90749500Y-31693713D01*
X90749500Y-31906286D01*
X90768265Y-32024767D01*
X90782754Y-32116243D01*
X90826924Y-32252185D01*
X90848444Y-32318414D01*
X90944951Y-32507820D01*
X91069890Y-32679786D01*
X91220213Y-32830109D01*
X91392179Y-32955048D01*
X91392181Y-32955049D01*
X91392184Y-32955051D01*
X91581588Y-33051557D01*
X91783757Y-33117246D01*
X91993713Y-33150500D01*
X91993714Y-33150500D01*
X92206286Y-33150500D01*
X92206287Y-33150500D01*
X92416243Y-33117246D01*
X92618412Y-33051557D01*
X92807816Y-32955051D01*
X92866530Y-32912393D01*
X92979786Y-32830109D01*
X92979788Y-32830106D01*
X92979792Y-32830104D01*
X93130104Y-32679792D01*
X93130106Y-32679788D01*
X93130109Y-32679786D01*
X93255048Y-32507820D01*
X93255047Y-32507820D01*
X93255051Y-32507816D01*
X93351557Y-32318412D01*
X93417246Y-32116243D01*
X93450500Y-31906287D01*
X93450500Y-31693713D01*
X93417246Y-31483757D01*
X93351557Y-31281588D01*
X93351555Y-31281585D01*
X93351555Y-31281583D01*
X93327365Y-31234108D01*
X99099500Y-31234108D01*
X99099500Y-31365891D01*
X99133608Y-31493187D01*
X99166554Y-31550250D01*
X99199500Y-31607314D01*
X99292686Y-31700500D01*
X99406814Y-31766392D01*
X99534108Y-31800500D01*
X99534110Y-31800500D01*
X99665890Y-31800500D01*
X99665892Y-31800500D01*
X99793186Y-31766392D01*
X99907314Y-31700500D01*
X100000500Y-31607314D01*
X100066392Y-31493186D01*
X100100500Y-31365892D01*
X100100500Y-31234108D01*
X100066392Y-31106814D01*
X100000500Y-30992686D01*
X99907314Y-30899500D01*
X99831137Y-30855519D01*
X99793187Y-30833608D01*
X99729539Y-30816554D01*
X99665892Y-30799500D01*
X99534108Y-30799500D01*
X99406812Y-30833608D01*
X99292686Y-30899500D01*
X99292683Y-30899502D01*
X99199502Y-30992683D01*
X99199500Y-30992686D01*
X99133608Y-31106812D01*
X99099500Y-31234108D01*
X93327365Y-31234108D01*
X93316544Y-31212871D01*
X93255051Y-31092184D01*
X93220393Y-31044481D01*
X93130109Y-30920213D01*
X92979786Y-30769890D01*
X92807820Y-30644951D01*
X92618414Y-30548444D01*
X92618413Y-30548443D01*
X92618412Y-30548443D01*
X92416243Y-30482754D01*
X92416241Y-30482753D01*
X92416240Y-30482753D01*
X92254957Y-30457208D01*
X92206287Y-30449500D01*
X91993713Y-30449500D01*
X91945042Y-30457208D01*
X91783760Y-30482753D01*
X91581585Y-30548444D01*
X91392179Y-30644951D01*
X91220213Y-30769890D01*
X91069890Y-30920213D01*
X90944951Y-31092179D01*
X90848444Y-31281585D01*
X90782753Y-31483760D01*
X90749500Y-31693713D01*
X90250500Y-31693713D01*
X90250500Y-30024500D01*
X90270185Y-29957461D01*
X90322989Y-29911706D01*
X90374500Y-29900500D01*
X101769875Y-29900500D01*
X101836914Y-29920185D01*
G37*
%TD.AperFunction*%
%TD*%
M02*
